<?xml version="1.0" encoding="UTF-8"?>
<svg id="Layer_2" data-name="Layer 2" xmlns="http://www.w3.org/2000/svg" viewBox="0 0 1200 349.72">
  <defs>
    <style>
      .cls-1 {
        fill: #1d1d1b;
        stroke-width: 0px;
      }
    </style>
  </defs>
  <g id="Layer_1-2" data-name="Layer 1">
    <g>
      <path class="cls-1" d="M1199.02,225.45l.98-1.22-2.27-6.18s-2.44-2.83-8.91,1.88c-2.44,1.77-4.95,3.24-7.12,4.38v-18.55h-41.93v-12.16l-5.64-2.99h-15.26v-3.83h-18.29v3.83h-21.46l-6.76,3.5v42.83h-3.76v.58h-.48v15.98h-6.14v-81.57h-56.15v48.28h-39.3v-43.24h-1.89v-4.32h-9.19v-1.69h-3.38v-1.97h-5.56v-3.31h-6.44v-5.56l-1.17-1.17v6.44h-3.71v2.26h-3.06v1.45h-3.44v1.61h-10.5v3.22h-10.71v2.91h-2.1v-2.75h-9.58v-4.19h-8.46v-7.33l-3.17-4.52-.9-1.29-1.8-2.58-.91-1.29-1.8-2.57-.92-1.29-7.66-16.12h-8.01l-20.74,17.98h-5.43v-64.81l-14.42-16.35v-9.1h-7.78l-16.71,16.51-3.98,5.7v60.47h-52.31v90.71h-5.49v-59.38h-7.09v-8.25h-31.53v8.25h-20.61v80.33h-6.11v-86.12h-5.24v-2.49l3.72-3.73v-.79s-47.7-1.13-58.17,14.26h3.7v3.47h-3.06v48.68h-3.78v-53.01h-5.17l-5.6-103.85h2.84l5.48-7.56h3v-10.79h1.37v-6.1h3.66v-1.44s-3.92-8.18-15.91-8.18h-.3v-4.99h-5.35v-4.47h2.18v-2.02h-2.9V0h-1.43v25.85h-2.9v2.02h2.18v4.47h-5.35v4.99h-.29c-12,0-15.92,8.18-15.92,8.18v1.44h3.66v6.1h1.37v10.79h3l5.48,7.56h2.84l-4.59,85.22-21.79-4.57-12.69,1.86v6.68h-6.05v-47.24h-47.85v10.06h-23.93l-10.87,15.31v43.58l-6.63-10.77h-53.55l-12.89,12.3v67.82h-1.85v-7.73h-7.89v-43.41l-1.7-3.95h-3.7v-3.87h-36.9v3.87h-3.71l-1.69,3.95v16.25h-13.7v14.41h-3.71l-8.01-5.73h-21.46l-8.01,5.73h-4.51v38.97h-21.55v-117.95h-13.22v3.1h-18.8v6.8h-5.36v72.18h-3.78v-29.11l-4.03-1.55v-11.18l-11.71-6.71-23.15,10.69v10.15h-10.36v37.37h-9.61v76h-4.28v-178.38h-65.18v185.57h-14.9v-11.37h-17.19v-64.68H0v98.66h1193.76v-7.91h-3.12v-55.16c0-1.39-3.29-3.39-7.31-5.33,2.05-4.85,7.61-20.33,7.82-45.86,4.54-5.08,7.86-10.01,7.86-10.01ZM39.15,346.56H6.81v-1.35h32.33v1.35ZM39.15,343.12H6.81v-1.35h32.33v1.35ZM39.15,339.68H6.81v-1.35h32.33v1.35ZM39.15,336.25H6.81v-1.35h32.33v1.35ZM39.15,332.81H6.81v-1.35h32.33v1.35ZM39.15,329.37H6.81v-1.35h32.33v1.35ZM39.15,325.93H6.81v-1.35h32.33v1.35ZM39.15,322.5H6.81v-1.35h32.33v1.35ZM39.15,319.06H6.81v-1.35h32.33v1.35ZM39.15,315.62H6.81v-1.35h32.33v1.35ZM39.15,312.18H6.81v-1.35h32.33v1.35ZM39.15,308.75H6.81v-1.35h32.33v1.35ZM39.15,305.31H6.81v-1.35h32.33v1.35ZM39.15,301.87H6.81v-1.35h32.33v1.35ZM39.15,298.44H6.81v-1.35h32.33v1.35ZM39.15,295H6.81v-1.35h32.33v1.35ZM39.15,291.56H6.81v-1.35h32.33v1.35ZM39.15,288.12H6.81v-1.35h32.33v1.35ZM39.15,284.69H6.81v-1.35h32.33v1.35ZM39.15,281.25H6.81v-1.35h32.33v1.35ZM39.15,277.81H6.81v-1.34h32.33v1.34ZM39.15,274.38H6.81v-1.34h32.33v1.34ZM39.15,270.94H6.81v-1.34h32.33v1.34ZM39.15,267.5H6.81v-1.34h32.33v1.34ZM39.15,264.06H6.81v-1.34h32.33v1.34ZM98.96,319.92v-.87l.27.87h-.27ZM139.32,286.23l-6.2,20.21,4.14,13.48h-1.01l-3.24-10.56v10.56h-.97v-10.56l-3.24,10.56h-1.01l4.13-13.48-5.13-16.74v30.22h-1.21v-30.22l-5.14,16.74,4.14,13.48h-1.01l-3.25-10.56v10.56h-.97v-10.56l-3.24,10.56h-1.01l3.33-10.84.81-2.64-.81-2.65-4.18-13.61v29.74h-1.21v-30.69l-4.48,14.57-.81,2.65.81,2.64,3.33,10.84h-1.01l-3.24-10.56v10.56h-.97v-10.56l-3.24,10.56h-1.01l3.33-10.84.81-2.64-.81-2.65-4.04-13.12v29.25h-1.21v-31.17l-4.84,15.76h-2.38l-5.15-16.79v-3.26l4.71-15.36h1.01l-5.22,16.99,5.36,17.43v-34.41h.96v34.41l5.36-17.43-5.22-16.99h1.01l4.4,14.34v-14.34h1.21v12.41l3.82-12.41h1l-4.82,15.71v2.57l4.96,16.14v-34.41h.97v34.41l5.35-17.43-.87-2.85-4.34-14.14h1l4.26,13.86v-13.86h1.21v12.89l3.96-12.89h1.01l-4.97,16.19v1.6l5.1,16.63v-34.41h.97v34.41l5.26-17.11v-.64l-5.12-16.67h1.01l4.11,13.37v-13.37h1.21v13.37l4.1-13.37h1.01l-4.19,13.65-.92,3.02v.64l.92,3.02,4.33,14.09v-34.41h.97v34.41l5.35-17.43-5.22-16.99h1.01l5.18,16.85v.28ZM139.32,245.54l-4.94,16.07h-1.01l4.98-16.22-5.35-17.43v33.64h-.97v-33.64l-4.33,14.1-.92,3.01v.64l.92,3.02,3.96,12.88h-1.02l-3.86-12.6v12.6h-1.21v-12.6l-3.87,12.6h-1.02l4.89-15.9v-.64l-5.26-17.11v33.64h-.97v-33.64l-5.1,16.63v1.61l4.73,15.41h-1.01l-3.72-12.12v12.12h-1.21v-13.08l-4.02,13.08h-1.01l4.98-16.22-.87-2.85-4.48-14.58v33.64h-.97v-33.64l-4.96,16.15v2.57l4.59,14.93h-1.01l-3.58-11.63v11.63h-1.21v-13.56l-4.16,13.56h-1.02l4.99-16.22-5.36-17.43v33.64h-.96v-33.64l-5.36,17.43,4.99,16.22h-1.02l-4.47-14.58v-3.27l5.74-18.71-5.43-17.7h1l4.55,14.78v-14.78h.96v14.78l4.55-14.78h2.63l4.54,14.78v-14.78h.97v14.78l4.54-14.78h2.64l4.53,14.78v-14.78h.97v14.78l4.54-14.78h2.64l4.54,14.78v-14.78h.97v14.78l4.54-14.78h1.01l-5.44,17.7,6.2,20.2v.29ZM139.32,164.15l-6.2,20.2,4.77,15.51h-1.02l-3.86-12.58v12.58h-.97v-12.58l-3.86,12.58h-1.01l4.75-15.51-5.13-16.73v32.23h-1.21v-32.23l-5.14,16.73,4.76,15.51h-1.01l-3.87-12.58v12.58h-.97v-12.58l-3.86,12.58h-1.01l4.76-15.51-.81-2.64-4.18-13.61v31.75h-1.21v-32.71l-5.29,17.21,4.76,15.51h-1.01l-3.86-12.59v12.59h-.97v-12.59l-3.87,12.59h-1.01l4.77-15.51-4.85-15.77v31.27h-1.21v-33.2l-5.43,17.7,4.76,15.51h-1.01l-3.87-12.58v12.58h-.96v-12.58l-3.87,12.58h-1.01l4.76-15.51-5.74-18.71v-3.26l5.53-18.04h1.61l5.22,17.01v-17.01h1.21v15.08l4.63-15.08h1.62l5.07,16.53v-16.53h1.21v15.57l4.18-13.61.6-1.96h1.61l4.93,16.05v-16.05h1.21v16.05l4.92-16.05h1.62l5.99,19.53v.28ZM235.57,241.4h-22.17v-1.16h22.17v1.16ZM235.57,237.81h-22.17v-1.54h22.17v1.54ZM235.57,233.83h-28.68v-1.53h28.68v1.53ZM235.57,229.85h-28.68v-1.53h28.68v1.53ZM235.57,225.88h-28.68v-1.53h28.68v1.53ZM235.57,221.91h-28.68v-1.53h28.68v1.53ZM235.57,217.93h-28.68v-1.53h28.68v1.53ZM235.57,213.96h-28.68v-1.53h28.68v1.53ZM235.57,209.99h-28.68v-1.54h28.68v1.54ZM235.57,206.01h-28.68v-1.53h28.68v1.53ZM235.57,202.03h-28.68v-1.53h28.68v1.53ZM235.57,198.06h-28.68v-1.53h28.68v1.53ZM235.57,194.09h-28.68v-1.54h28.68v1.54ZM235.57,190.11h-28.68v-1.53h28.68v1.53ZM235.57,186.14h-28.68v-1.53h28.68v1.53ZM235.57,182.16h-28.68v-1.53h28.68v1.53ZM235.57,178.19h-28.68v-1.54h28.68v1.54ZM304.28,233.35h4.78v7.24h-4.78v-7.24ZM273.07,325.03h-4.95v-1.98h4.95v1.98ZM273.07,319.75h-4.95v-1.97h4.95v1.97ZM273.07,314.47h-4.95v-1.97h4.95v1.97ZM273.07,309.2h-4.95v-1.97h4.95v1.97ZM273.07,303.92h-4.95v-1.98h4.95v1.98ZM273.07,298.65h-4.95v-1.98h4.95v1.98ZM273.07,293.37h-4.95v-1.98h4.95v1.98ZM273.07,288.09h-4.95v-1.98h4.95v1.98ZM273.07,282.81h-4.95v-1.97h4.95v1.97ZM273.07,277.53h-4.95v-1.97h4.95v1.97ZM273.07,272.26h-4.95v-1.97h4.95v1.97ZM273.07,266.98h-4.95v-1.98h4.95v1.98ZM273.07,261.71h-4.95v-1.98h4.95v1.98ZM273.07,256.43h-4.95v-1.98h4.95v1.98ZM273.07,251.15h-4.95v-1.98h4.95v1.98ZM273.07,245.87h-4.95v-1.97h4.95v1.97ZM273.07,240.59h-4.78v-7.24h4.78v7.24ZM279.1,325.03h-4.96v-1.98h4.96v1.98ZM279.1,319.75h-4.96v-1.97h4.96v1.97ZM279.1,314.47h-4.96v-1.97h4.96v1.97ZM279.1,309.2h-4.96v-1.97h4.96v1.97ZM279.1,303.92h-4.96v-1.98h4.96v1.98ZM279.1,298.65h-4.96v-1.98h4.96v1.98ZM279.1,293.37h-4.96v-1.98h4.96v1.98ZM279.1,288.09h-4.96v-1.98h4.96v1.98ZM279.1,282.81h-4.96v-1.97h4.96v1.97ZM279.1,277.53h-4.96v-1.97h4.96v1.97ZM279.1,272.26h-4.96v-1.97h4.96v1.97ZM279.1,266.98h-4.96v-1.98h4.96v1.98ZM279.1,261.71h-4.96v-1.98h4.96v1.98ZM279.1,256.43h-4.96v-1.98h4.96v1.98ZM279.1,251.15h-4.96v-1.98h4.96v1.98ZM279.1,245.87h-4.96v-1.97h4.96v1.97ZM279.1,240.59h-4.96v-1.97h4.96v1.97ZM279.1,235.32h-4.96v-1.97h4.96v1.97ZM285.13,325.03h-4.96v-1.98h4.96v1.98ZM285.13,319.75h-4.96v-1.97h4.96v1.97ZM285.13,314.47h-4.96v-1.97h4.96v1.97ZM285.13,309.2h-4.96v-1.97h4.96v1.97ZM285.13,303.92h-4.96v-1.98h4.96v1.98ZM285.13,298.65h-4.96v-1.98h4.96v1.98ZM285.13,293.37h-4.96v-1.98h4.96v1.98ZM285.13,288.09h-4.96v-1.98h4.96v1.98ZM285.13,282.81h-4.96v-1.97h4.96v1.97ZM285.13,277.53h-4.96v-1.97h4.96v1.97ZM285.13,272.26h-4.96v-1.97h4.96v1.97ZM285.13,266.98h-4.96v-1.98h4.96v1.98ZM285.13,261.71h-4.96v-1.98h4.96v1.98ZM285.13,256.43h-4.96v-1.98h4.96v1.98ZM285.13,251.15h-4.96v-1.98h4.96v1.98ZM285.13,245.87h-4.96v-1.97h4.96v1.97ZM285.13,240.59h-4.96v-1.97h4.96v1.97ZM285.13,235.32h-4.96v-1.97h4.96v1.97ZM291.15,335.59h-4.95v-1.98h4.95v1.98ZM291.15,330.31h-4.95v-1.98h4.95v1.98ZM291.15,325.02h-4.95v-1.97h4.95v1.97ZM291.15,319.75h-4.95v-1.97h4.95v1.97ZM291.15,314.47h-4.95v-1.97h4.95v1.97ZM291.15,309.2h-4.95v-1.97h4.95v1.97ZM291.15,303.92h-4.95v-1.98h4.95v1.98ZM291.15,298.65h-4.95v-1.98h4.95v1.98ZM291.15,293.37h-4.95v-1.98h4.95v1.98ZM291.15,288.08h-4.95v-1.97h4.95v1.97ZM291.15,282.81h-4.95v-1.97h4.95v1.97ZM291.15,277.53h-4.95v-1.97h4.95v1.97ZM291.15,272.26h-4.95v-1.97h4.95v1.97ZM291.15,266.98h-4.95v-1.98h4.95v1.98ZM291.15,261.71h-4.95v-1.98h4.95v1.98ZM291.15,256.43h-4.95v-1.98h4.95v1.98ZM291.15,251.14h-4.95v-1.97h4.95v1.97ZM291.15,245.87h-4.95v-1.97h4.95v1.97ZM291.15,240.59h-4.95v-1.97h4.95v1.97ZM291.15,235.32h-4.95v-1.97h4.95v1.97ZM297.18,335.59h-4.96v-1.98h4.96v1.98ZM297.18,330.31h-4.96v-1.98h4.96v1.98ZM297.18,325.03h-4.96v-1.98h4.96v1.98ZM297.18,319.75h-4.96v-1.97h4.96v1.97ZM297.18,314.47h-4.96v-1.97h4.96v1.97ZM297.18,309.2h-4.96v-1.97h4.96v1.97ZM297.18,303.92h-4.96v-1.98h4.96v1.98ZM297.18,298.65h-4.96v-1.98h4.96v1.98ZM297.18,293.37h-4.96v-1.98h4.96v1.98ZM297.18,288.09h-4.96v-1.98h4.96v1.98ZM297.18,282.81h-4.96v-1.97h4.96v1.97ZM297.18,277.53h-4.96v-1.97h4.96v1.97ZM297.18,272.26h-4.96v-1.97h4.96v1.97ZM297.18,266.98h-4.96v-1.98h4.96v1.98ZM297.18,261.71h-4.96v-1.98h4.96v1.98ZM297.18,256.43h-4.96v-1.98h4.96v1.98ZM297.18,251.15h-4.96v-1.98h4.96v1.98ZM297.18,245.87h-4.96v-1.97h4.96v1.97ZM297.18,240.59h-4.96v-1.97h4.96v1.97ZM297.18,235.32h-4.96v-1.97h4.96v1.97ZM303.21,335.59h-4.96v-1.98h4.96v1.98ZM303.21,330.31h-4.96v-1.98h4.96v1.98ZM303.21,325.03h-4.96v-1.98h4.96v1.98ZM303.21,319.75h-4.96v-1.97h4.96v1.97ZM303.21,314.47h-4.96v-1.97h4.96v1.97ZM303.21,309.2h-4.96v-1.97h4.96v1.97ZM303.21,303.92h-4.96v-1.98h4.96v1.98ZM303.21,298.65h-4.96v-1.98h4.96v1.98ZM303.21,293.37h-4.96v-1.98h4.96v1.98ZM303.21,288.09h-4.96v-1.98h4.96v1.98ZM303.21,282.81h-4.96v-1.97h4.96v1.97ZM303.21,277.53h-4.96v-1.97h4.96v1.97ZM303.21,272.26h-4.96v-1.97h4.96v1.97ZM303.21,266.98h-4.96v-1.98h4.96v1.98ZM303.21,261.71h-4.96v-1.98h4.96v1.98ZM303.21,256.43h-4.96v-1.98h4.96v1.98ZM303.21,251.15h-4.96v-1.98h4.96v1.98ZM303.21,245.87h-4.96v-1.97h4.96v1.97ZM303.21,240.59h-4.96v-1.97h4.96v1.97ZM303.21,235.32h-4.96v-1.97h4.96v1.97ZM309.24,319.75h-4.96v-1.97h4.96v1.97ZM309.24,314.47h-4.96v-1.97h4.96v1.97ZM309.24,309.2h-4.96v-1.97h4.96v1.97ZM309.24,303.92h-4.96v-1.98h4.96v1.98ZM309.24,298.65h-4.96v-1.98h4.96v1.98ZM309.24,293.37h-4.96v-1.98h4.96v1.98ZM309.24,288.09h-4.96v-1.98h4.96v1.98ZM309.24,282.81h-4.96v-1.97h4.96v1.97ZM309.24,277.53h-4.96v-1.97h4.96v1.97ZM309.24,272.26h-4.96v-1.97h4.96v1.97ZM309.24,266.98h-4.96v-1.98h4.96v1.98ZM309.24,261.71h-4.96v-1.98h4.96v1.98ZM309.24,256.43h-4.96v-1.98h4.96v1.98ZM309.24,251.15h-4.96v-1.98h4.96v1.98ZM309.24,245.87h-4.96v-1.97h4.96v1.97ZM334.37,337.99h-2.42v-114.86h2.42v114.86ZM340.45,337.99h-2.42v-114.86h2.42v114.86ZM359.31,337.99h-2.42v-114.86h2.42v114.86ZM365.38,337.99h-2.42v-114.86h2.42v114.86ZM387.57,251.65h-2.78v-.09h2.78v.09ZM387.57,248.91h-2.78v-1.37h2.78v1.37ZM387.57,244.88h-2.78v-1.37h2.78v1.37ZM387.57,240.85h-2.78v-1.37h2.78v1.37ZM387.57,236.83h-2.78v-1.37h2.78v1.37ZM387.57,232.79h-2.78v-1.37h2.78v1.37ZM387.57,228.76h-2.78v-1.37h2.78v1.37ZM387.57,224.74h-2.78v-1.37h2.78v1.37ZM387.57,220.71h-2.78v-1.37h2.78v1.37ZM387.57,216.68h-2.78v-1.37h2.78v1.37ZM387.57,212.66h-2.78v-1.37h2.78v1.37ZM387.57,208.63h-2.78v-1.37h2.78v1.37ZM387.57,204.6h-2.78v-1.37h2.78v1.37ZM387.57,200.58h-2.78v-1.37h2.78v1.37ZM387.57,196.54h-2.78v-1.37h2.78v1.37ZM387.57,192.51h-2.78v-1.37h2.78v1.37ZM387.57,188.49h-2.78v-1.37h2.78v1.37ZM394.59,236.83h-2.78v-1.37h2.78v1.37ZM394.59,232.79h-2.78v-1.37h2.78v1.37ZM394.59,228.76h-2.78v-1.37h2.78v1.37ZM394.59,224.74h-2.78v-1.37h2.78v1.37ZM394.59,220.71h-2.78v-1.37h2.78v1.37ZM394.59,216.68h-2.78v-1.37h2.78v1.37ZM394.59,212.66h-2.78v-1.37h2.78v1.37ZM394.59,208.63h-2.78v-1.37h2.78v1.37ZM394.59,204.6h-2.78v-1.37h2.78v1.37ZM394.59,200.58h-2.78v-1.37h2.78v1.37ZM394.59,196.54h-2.78v-1.37h2.78v1.37ZM394.59,192.51h-2.78v-1.37h2.78v1.37ZM394.59,188.49h-2.78v-1.37h2.78v1.37ZM419.84,187.12h2.78v1.37h-2.78v-1.37ZM419.84,191.14h2.78v1.37h-2.78v-1.37ZM419.84,195.17h2.78v1.37h-2.78v-1.37ZM419.84,199.21h2.78v1.37h-2.78v-1.37ZM419.84,203.23h2.78v1.37h-2.78v-1.37ZM419.84,207.26h2.78v1.37h-2.78v-1.37ZM419.84,211.29h2.78v1.37h-2.78v-1.37ZM419.84,215.31h2.78v1.37h-2.78v-1.37ZM419.84,219.34h2.78v1.37h-2.78v-1.37ZM419.84,223.37h2.78v1.37h-2.78v-1.37ZM419.84,227.39h2.78v1.37h-2.78v-1.37ZM419.84,231.42h2.78v1.37h-2.78v-1.37ZM419.84,235.46h2.78v1.37h-2.78v-1.37ZM419.84,239.48h2.78v1.11h-2.78v-1.11ZM412.83,187.12h2.78v1.37h-2.78v-1.37ZM412.83,191.14h2.78v1.37h-2.78v-1.37ZM412.83,195.17h2.78v1.37h-2.78v-1.37ZM412.83,199.21h2.78v1.37h-2.78v-1.37ZM412.83,203.23h2.78v1.37h-2.78v-1.37ZM412.83,207.26h2.78v1.37h-2.78v-1.37ZM412.83,211.29h2.78v1.37h-2.78v-1.37ZM412.83,215.31h2.78v1.37h-2.78v-1.37ZM412.83,219.34h2.78v1.37h-2.78v-1.37ZM412.83,223.37h2.78v1.37h-2.78v-1.37ZM412.83,227.39h2.78v1.37h-2.78v-1.37ZM412.83,231.42h2.78v1.37h-2.78v-1.37ZM412.83,235.46h2.78v1.37h-2.78v-1.37ZM412.83,239.48h2.78v1.11h-2.78v-1.11ZM405.83,187.12h2.78v1.37h-2.78v-1.37ZM405.83,191.14h2.78v1.37h-2.78v-1.37ZM405.83,195.17h2.78v1.37h-2.78v-1.37ZM405.83,199.21h2.78v1.37h-2.78v-1.37ZM405.83,203.23h2.78v1.37h-2.78v-1.37ZM405.83,207.26h2.78v1.37h-2.78v-1.37ZM405.83,211.29h2.78v1.37h-2.78v-1.37ZM405.83,215.31h2.78v1.37h-2.78v-1.37ZM405.83,219.34h2.78v1.37h-2.78v-1.37ZM405.83,223.37h2.78v1.37h-2.78v-1.37ZM405.83,227.39h2.78v1.37h-2.78v-1.37ZM405.83,231.42h2.78v1.37h-2.78v-1.37ZM405.83,235.46h2.78v1.37h-2.78v-1.37ZM405.83,239.48h2.78v1.11h-2.78v-1.11ZM398.81,187.12h2.78v1.37h-2.78v-1.37ZM398.81,191.14h2.78v1.37h-2.78v-1.37ZM398.81,195.17h2.78v1.37h-2.78v-1.37ZM398.81,199.21h2.78v1.37h-2.78v-1.37ZM398.81,203.23h2.78v1.37h-2.78v-1.37ZM398.81,207.26h2.78v1.37h-2.78v-1.37ZM398.81,211.29h2.78v1.37h-2.78v-1.37ZM398.81,215.31h2.78v1.37h-2.78v-1.37ZM398.81,219.34h2.78v1.37h-2.78v-1.37ZM398.81,223.37h2.78v1.37h-2.78v-1.37ZM398.81,227.39h2.78v1.37h-2.78v-1.37ZM398.81,231.42h2.78v1.37h-2.78v-1.37ZM398.81,235.46h2.78v1.37h-2.78v-1.37ZM398.81,239.48h2.78v1.11h-2.78v-1.11ZM422.25,301.71h-23.91v-2.79h23.91v2.79ZM422.25,295.53h-23.91v-2.79h23.91v2.79ZM422.25,289.36h-23.91v-2.79h23.91v2.79ZM429.33,283.18h-30.99v-2.79h30.99v2.79ZM429.33,277.01h-30.99v-2.79h30.99v2.79ZM429.33,270.83h-30.99v-2.79h30.99v2.79ZM429.33,264.65h-30.99v-2.79h30.99v2.79ZM429.33,258.48h-30.99v-2.79h30.99v2.79ZM429.33,252.3h-30.99v-2.79h30.99v2.79ZM429.33,246.13h-30.99v-2.79h30.99v2.79ZM429.63,240.59h-2.78v-1.11h2.78v1.11ZM429.63,236.83h-2.78v-1.37h2.78v1.37ZM429.63,232.79h-2.78v-1.37h2.78v1.37ZM429.63,228.76h-2.78v-1.37h2.78v1.37ZM429.63,224.74h-2.78v-1.37h2.78v1.37ZM429.63,220.71h-2.78v-1.37h2.78v1.37ZM429.63,216.68h-2.78v-1.37h2.78v1.37ZM429.63,212.66h-2.78v-1.37h2.78v1.37ZM429.63,208.63h-2.78v-1.37h2.78v1.37ZM429.63,204.6h-2.78v-1.37h2.78v1.37ZM429.63,200.58h-2.78v-1.37h2.78v1.37ZM429.63,196.54h-2.78v-1.37h2.78v1.37ZM429.63,192.51h-2.78v-1.37h2.78v1.37ZM429.63,188.49h-2.78v-1.37h2.78v1.37ZM436.63,260.68h-2.78v-1.06h2.78v1.06ZM436.63,256.96h-2.78v-1.37h2.78v1.37ZM436.63,252.93h-2.78v-1.37h2.78v1.37ZM436.63,248.91h-2.78v-1.37h2.78v1.37ZM436.63,244.88h-2.78v-1.37h2.78v1.37ZM436.63,240.85h-2.78v-1.37h2.78v1.37ZM436.63,236.83h-2.78v-1.37h2.78v1.37ZM436.63,232.79h-2.78v-1.37h2.78v1.37ZM436.63,228.76h-2.78v-1.37h2.78v1.37ZM436.63,224.74h-2.78v-1.37h2.78v1.37ZM436.63,220.71h-2.78v-1.37h2.78v1.37ZM436.63,216.68h-2.78v-1.37h2.78v1.37ZM436.63,212.66h-2.78v-1.37h2.78v1.37ZM436.63,208.63h-2.78v-1.37h2.78v1.37ZM436.63,204.6h-2.78v-1.37h2.78v1.37ZM436.63,200.58h-2.78v-1.37h2.78v1.37ZM436.63,196.54h-2.78v-1.37h2.78v1.37ZM436.63,192.51h-2.78v-1.37h2.78v1.37ZM436.63,188.49h-2.78v-1.37h2.78v1.37ZM492.38,126.69h3.87v1.45h-3.87v-1.45ZM492.38,130.66h3.87v1.45h-3.87v-1.45ZM492.38,134.64h3.87v1.45h-3.87v-1.45ZM492.38,138.61h3.87v1.46h-3.87v-1.46ZM492.38,142.58h3.87v1.45h-3.87v-1.45ZM492.38,146.56h3.87v1.45h-3.87v-1.45ZM492.38,150.54h3.87v1.45h-3.87v-1.45ZM492.38,154.5h3.87v1.46h-3.87v-1.46ZM492.38,158.48h3.87v1.45h-3.87v-1.45ZM492.38,162.46h3.87v1.45h-3.87v-1.45ZM492.38,166.43h3.87v1.45h-3.87v-1.45ZM492.38,170.4h3.87v1.45h-3.87v-1.45ZM492.38,174.38h3.87v1.45h-3.87v-1.45ZM492.38,178.35h3.87v1.45h-3.87v-1.45ZM492.38,182.33h3.87v1.45h-3.87v-1.45ZM492.38,186.3h3.87v1.45h-3.87v-1.45ZM492.38,190.27h3.87v1.45h-3.87v-1.45ZM492.38,194.25h3.87v1.45h-3.87v-1.45ZM492.38,198.22h3.87v1.46h-3.87v-1.46ZM492.38,202.19h3.87v1.45h-3.87v-1.45ZM492.38,206.17h3.87v1.45h-3.87v-1.45ZM492.38,210.15h3.87v1.45h-3.87v-1.45ZM492.38,214.12h3.87v1.46h-3.87v-1.46ZM488.06,132.68h1.33v9.9h-1.33v-9.9ZM488.06,144.6h1.33v1.96h-1.33v-1.96ZM488.06,148.44h1.33v1.96h-1.33v-1.96ZM488.06,152.28h1.33v1.97h-1.33v-1.97ZM488.06,156.12h1.33v1.96h-1.33v-1.96ZM488.06,159.96h1.33v1.96h-1.33v-1.96ZM488.06,163.8h1.33v1.96h-1.33v-1.96ZM488.06,167.64h1.33v1.96h-1.33v-1.96ZM488.06,171.48h1.33v1.96h-1.33v-1.96ZM488.06,175.32h1.33v1.96h-1.33v-1.96ZM488.06,179.15h1.33v1.97h-1.33v-1.97ZM488.06,183h1.33v1.96h-1.33v-1.96ZM488.06,186.84h1.33v1.96h-1.33v-1.96ZM488.06,190.67h1.33v1.96h-1.33v-1.96ZM488.06,194.52h1.33v1.96h-1.33v-1.96ZM488.06,198.36h1.33v1.96h-1.33v-1.96ZM488.06,202.19h1.33v1.96h-1.33v-1.96ZM488.06,206.03h1.33v1.97h-1.33v-1.97ZM488.06,209.88h1.33v1.96h-1.33v-1.96ZM488.06,213.72h1.33v1.96h-1.33v-1.96ZM485.69,132.68h1.33v9.9h-1.33v-9.9ZM485.69,144.6h1.33v1.96h-1.33v-1.96ZM485.69,148.44h1.33v1.96h-1.33v-1.96ZM485.69,152.28h1.33v1.97h-1.33v-1.97ZM485.69,156.12h1.33v1.96h-1.33v-1.96ZM485.69,159.96h1.33v1.96h-1.33v-1.96ZM485.69,163.8h1.33v1.96h-1.33v-1.96ZM485.69,167.64h1.33v1.96h-1.33v-1.96ZM485.69,171.48h1.33v1.96h-1.33v-1.96ZM485.69,175.32h1.33v1.96h-1.33v-1.96ZM485.69,179.15h1.33v1.97h-1.33v-1.97ZM485.69,183h1.33v1.96h-1.33v-1.96ZM485.69,186.84h1.33v1.96h-1.33v-1.96ZM485.69,190.67h1.33v1.96h-1.33v-1.96ZM485.69,194.52h1.33v1.96h-1.33v-1.96ZM485.69,198.36h1.33v1.96h-1.33v-1.96ZM485.69,202.19h1.33v1.96h-1.33v-1.96ZM485.69,206.03h1.33v1.97h-1.33v-1.97ZM485.69,209.88h1.33v1.96h-1.33v-1.96ZM485.69,213.72h1.33v1.96h-1.33v-1.96ZM483.34,132.68h1.33v9.9h-1.33v-9.9ZM483.34,144.6h1.33v1.96h-1.33v-1.96ZM483.34,148.44h1.33v1.96h-1.33v-1.96ZM483.34,152.28h1.33v1.97h-1.33v-1.97ZM483.34,156.12h1.33v1.96h-1.33v-1.96ZM483.34,159.96h1.33v1.96h-1.33v-1.96ZM483.34,163.8h1.33v1.96h-1.33v-1.96ZM483.34,167.64h1.33v1.96h-1.33v-1.96ZM483.34,171.48h1.33v1.96h-1.33v-1.96ZM483.34,175.32h1.33v1.96h-1.33v-1.96ZM483.34,179.15h1.33v1.97h-1.33v-1.97ZM483.34,183h1.33v1.96h-1.33v-1.96ZM483.34,186.84h1.33v1.96h-1.33v-1.96ZM483.34,190.67h1.33v1.96h-1.33v-1.96ZM483.34,194.52h1.33v1.96h-1.33v-1.96ZM483.34,198.36h1.33v1.96h-1.33v-1.96ZM483.34,202.19h1.33v1.96h-1.33v-1.96ZM483.34,206.03h1.33v1.97h-1.33v-1.97ZM483.34,209.88h1.33v1.96h-1.33v-1.96ZM483.34,213.72h1.33v1.96h-1.33v-1.96ZM480.97,132.68h1.33v9.9h-1.33v-9.9ZM480.97,144.6h1.33v1.96h-1.33v-1.96ZM480.97,148.44h1.33v1.96h-1.33v-1.96ZM480.97,152.28h1.33v1.97h-1.33v-1.97ZM480.97,156.12h1.33v1.96h-1.33v-1.96ZM480.97,159.96h1.33v1.96h-1.33v-1.96ZM480.97,163.8h1.33v1.96h-1.33v-1.96ZM480.97,167.64h1.33v1.96h-1.33v-1.96ZM480.97,171.48h1.33v1.96h-1.33v-1.96ZM480.97,175.32h1.33v1.96h-1.33v-1.96ZM480.97,179.15h1.33v1.97h-1.33v-1.97ZM480.97,183h1.33v1.96h-1.33v-1.96ZM480.97,186.84h1.33v1.96h-1.33v-1.96ZM480.97,190.67h1.33v1.96h-1.33v-1.96ZM480.97,194.52h1.33v1.96h-1.33v-1.96ZM480.97,198.36h1.33v1.96h-1.33v-1.96ZM480.97,202.19h1.33v1.96h-1.33v-1.96ZM480.97,206.03h1.33v1.97h-1.33v-1.97ZM480.97,209.88h1.33v1.96h-1.33v-1.96ZM480.97,213.72h1.33v1.96h-1.33v-1.96ZM478.61,132.68h1.33v9.9h-1.33v-9.9ZM478.61,144.6h1.33v1.96h-1.33v-1.96ZM478.61,148.44h1.33v1.96h-1.33v-1.96ZM478.61,152.28h1.33v1.97h-1.33v-1.97ZM478.61,156.12h1.33v1.96h-1.33v-1.96ZM478.61,159.96h1.33v1.96h-1.33v-1.96ZM478.61,163.8h1.33v1.96h-1.33v-1.96ZM478.61,167.64h1.33v1.96h-1.33v-1.96ZM478.61,171.48h1.33v1.96h-1.33v-1.96ZM478.61,175.32h1.33v1.96h-1.33v-1.96ZM478.61,179.15h1.33v1.97h-1.33v-1.97ZM478.61,183h1.33v1.96h-1.33v-1.96ZM478.61,186.84h1.33v1.96h-1.33v-1.96ZM478.61,190.67h1.33v1.96h-1.33v-1.96ZM478.61,194.52h1.33v1.96h-1.33v-1.96ZM478.61,198.36h1.33v1.96h-1.33v-1.96ZM478.61,202.19h1.33v1.96h-1.33v-1.96ZM478.61,206.03h1.33v1.97h-1.33v-1.97ZM478.61,209.88h1.33v1.96h-1.33v-1.96ZM478.61,213.72h1.33v1.96h-1.33v-1.96ZM476.24,132.68h1.33v9.9h-1.33v-9.9ZM476.24,144.6h1.33v1.96h-1.33v-1.96ZM476.24,148.44h1.33v1.96h-1.33v-1.96ZM476.24,152.28h1.33v1.97h-1.33v-1.97ZM476.24,156.12h1.33v1.96h-1.33v-1.96ZM476.24,159.96h1.33v1.96h-1.33v-1.96ZM476.24,163.8h1.33v1.96h-1.33v-1.96ZM476.24,167.64h1.33v1.96h-1.33v-1.96ZM476.24,171.48h1.33v1.96h-1.33v-1.96ZM476.24,175.32h1.33v1.96h-1.33v-1.96ZM476.24,179.15h1.33v1.97h-1.33v-1.97ZM476.24,183h1.33v1.96h-1.33v-1.96ZM476.24,186.84h1.33v1.96h-1.33v-1.96ZM476.24,190.67h1.33v1.96h-1.33v-1.96ZM476.24,194.52h1.33v1.96h-1.33v-1.96ZM476.24,198.36h1.33v1.96h-1.33v-1.96ZM476.24,202.19h1.33v1.96h-1.33v-1.96ZM476.24,206.03h1.33v1.97h-1.33v-1.97ZM476.24,209.88h1.33v1.96h-1.33v-1.96ZM476.24,213.72h1.33v1.96h-1.33v-1.96ZM473.88,132.68h1.33v9.9h-1.33v-9.9ZM473.88,144.6h1.33v1.96h-1.33v-1.96ZM473.88,148.44h1.33v1.96h-1.33v-1.96ZM473.88,152.28h1.33v1.97h-1.33v-1.97ZM473.88,156.12h1.33v1.96h-1.33v-1.96ZM473.88,159.96h1.33v1.96h-1.33v-1.96ZM473.88,163.8h1.33v1.96h-1.33v-1.96ZM473.88,167.64h1.33v1.96h-1.33v-1.96ZM473.88,171.48h1.33v1.96h-1.33v-1.96ZM473.88,175.32h1.33v1.96h-1.33v-1.96ZM473.88,179.15h1.33v1.97h-1.33v-1.97ZM473.88,183h1.33v1.96h-1.33v-1.96ZM473.88,186.84h1.33v1.96h-1.33v-1.96ZM473.88,190.67h1.33v1.96h-1.33v-1.96ZM473.88,194.52h1.33v1.96h-1.33v-1.96ZM473.88,198.36h1.33v1.96h-1.33v-1.96ZM473.88,202.19h1.33v1.96h-1.33v-1.96ZM473.88,206.03h1.33v1.97h-1.33v-1.97ZM473.88,209.88h1.33v1.96h-1.33v-1.96ZM472.84,215.67h-1.33v-1.96h1.33v1.96ZM472.84,211.84h-1.33v-1.96h1.33v1.96ZM472.84,208h-1.33v-1.97h1.33v1.97ZM472.84,204.15h-1.33v-1.96h1.33v1.96ZM472.84,200.32h-1.33v-1.96h1.33v1.96ZM472.84,196.48h-1.33v-1.96h1.33v1.96ZM472.84,192.63h-1.33v-1.96h1.33v1.96ZM472.84,188.8h-1.33v-1.96h1.33v1.96ZM472.84,184.96h-1.33v-1.96h1.33v1.96ZM472.84,181.12h-1.33v-1.97h1.33v1.97ZM472.84,177.28h-1.33v-1.96h1.33v1.96ZM472.84,173.44h-1.33v-1.96h1.33v1.96ZM472.84,169.6h-1.33v-1.96h1.33v1.96ZM472.84,165.75h-1.33v-1.96h1.33v1.96ZM472.84,161.92h-1.33v-1.96h1.33v1.96ZM472.84,158.08h-1.33v-1.96h1.33v1.96ZM472.84,154.24h-1.33v-1.97h1.33v1.97ZM472.84,150.4h-1.33v-1.96h1.33v1.96ZM472.84,146.56h-1.33v-1.96h1.33v1.96ZM472.84,142.58h-1.33v-9.9h1.33v9.9ZM473.88,213.72h1.33v1.96h-1.33v-1.96ZM480.89,343.6h-6.07v-2.44h6.07v2.44ZM480.89,337.49h-6.07v-2.44h6.07v2.44ZM480.89,331.38h-6.07v-2.44h6.07v2.44ZM480.89,325.27h-6.07v-2.44h6.07v2.44ZM480.89,319.16h-6.07v-2.44h6.07v2.44ZM480.89,313.06h-6.07v-2.44h6.07v2.44ZM480.89,306.95h-6.07v-2.44h6.07v2.44ZM480.89,300.84h-6.07v-2.44h6.07v2.44ZM480.89,294.73h-6.07v-2.44h6.07v2.44ZM498.18,288.62h-23.36v-2.44h23.36v2.44ZM498.18,282.51h-23.36v-2.44h23.36v2.44ZM498.18,276.4h-23.36v-2.44h23.36v2.44ZM498.18,270.29h-23.36v-2.44h23.36v2.44ZM498.18,264.18h-23.36v-2.44h23.36v2.44ZM498.18,258.08h-23.36v-2.44h23.36v2.44ZM498.18,251.97h-23.36v-2.44h23.36v2.44ZM498.18,245.86h-23.36v-2.44h23.36v2.44ZM498.18,239.75h-23.36v-2.44h23.36v2.44ZM498.18,233.64h-23.36v-2.44h23.36v2.44ZM501.78,215.57h-3.87v-1.46h3.87v1.46ZM501.78,211.6h-3.87v-1.45h3.87v1.45ZM501.78,207.62h-3.87v-1.45h3.87v1.45ZM501.78,203.64h-3.87v-1.45h3.87v1.45ZM501.78,199.68h-3.87v-1.46h3.87v1.46ZM501.78,195.7h-3.87v-1.45h3.87v1.45ZM501.78,191.72h-3.87v-1.45h3.87v1.45ZM501.78,187.75h-3.87v-1.45h3.87v1.45ZM501.78,183.78h-3.87v-1.45h3.87v1.45ZM501.78,179.8h-3.87v-1.45h3.87v1.45ZM501.78,175.83h-3.87v-1.45h3.87v1.45ZM501.78,171.85h-3.87v-1.45h3.87v1.45ZM501.78,167.88h-3.87v-1.45h3.87v1.45ZM501.78,163.91h-3.87v-1.45h3.87v1.45ZM501.78,159.93h-3.87v-1.45h3.87v1.45ZM501.78,155.96h-3.87v-1.46h3.87v1.46ZM501.78,151.99h-3.87v-1.45h3.87v1.45ZM501.78,148.01h-3.87v-1.45h3.87v1.45ZM501.78,144.03h-3.87v-1.45h3.87v1.45ZM501.78,140.07h-3.87v-1.46h3.87v1.46ZM501.78,136.09h-3.87v-1.45h3.87v1.45ZM501.78,132.11h-3.87v-1.45h3.87v1.45ZM501.78,128.14h-3.87v-1.45h3.87v1.45ZM507.32,215.57h-3.87v-1.46h3.87v1.46ZM507.32,211.6h-3.87v-1.45h3.87v1.45ZM507.32,207.62h-3.87v-1.45h3.87v1.45ZM507.32,203.64h-3.87v-1.45h3.87v1.45ZM507.32,199.68h-3.87v-1.46h3.87v1.46ZM507.32,195.7h-3.87v-1.45h3.87v1.45ZM507.32,191.72h-3.87v-1.45h3.87v1.45ZM507.32,187.75h-3.87v-1.45h3.87v1.45ZM507.32,183.78h-3.87v-1.45h3.87v1.45ZM507.32,179.8h-3.87v-1.45h3.87v1.45ZM507.32,175.83h-3.87v-1.45h3.87v1.45ZM507.32,171.85h-3.87v-1.45h3.87v1.45ZM507.32,167.88h-3.87v-1.45h3.87v1.45ZM507.32,163.91h-3.87v-1.45h3.87v1.45ZM507.32,159.93h-3.87v-1.45h3.87v1.45ZM507.32,155.96h-3.87v-1.46h3.87v1.46ZM507.32,151.99h-3.87v-1.45h3.87v1.45ZM507.32,148.01h-3.87v-1.45h3.87v1.45ZM507.32,144.03h-3.87v-1.45h3.87v1.45ZM507.32,140.07h-3.87v-1.46h3.87v1.46ZM507.32,136.09h-3.87v-1.45h3.87v1.45ZM507.32,132.11h-3.87v-1.45h3.87v1.45ZM507.32,128.14h-3.87v-1.45h3.87v1.45ZM512.84,215.57h-3.87v-1.46h3.87v1.46ZM512.84,211.6h-3.87v-1.45h3.87v1.45ZM512.84,207.62h-3.87v-1.45h3.87v1.45ZM512.84,203.64h-3.87v-1.45h3.87v1.45ZM512.84,199.68h-3.87v-1.46h3.87v1.46ZM512.84,195.7h-3.87v-1.45h3.87v1.45ZM512.84,191.72h-3.87v-1.45h3.87v1.45ZM512.84,187.75h-3.87v-1.45h3.87v1.45ZM512.84,183.78h-3.87v-1.45h3.87v1.45ZM512.84,179.8h-3.87v-1.45h3.87v1.45ZM512.84,175.83h-3.87v-1.45h3.87v1.45ZM512.84,171.85h-3.87v-1.45h3.87v1.45ZM512.84,167.88h-3.87v-1.45h3.87v1.45ZM512.84,163.91h-3.87v-1.45h3.87v1.45ZM512.84,159.93h-3.87v-1.45h3.87v1.45ZM512.84,155.96h-3.87v-1.46h3.87v1.46ZM512.84,151.99h-3.87v-1.45h3.87v1.45ZM512.84,148.01h-3.87v-1.45h3.87v1.45ZM512.84,144.03h-3.87v-1.45h3.87v1.45ZM512.84,140.07h-3.87v-1.46h3.87v1.46ZM512.84,136.09h-3.87v-1.45h3.87v1.45ZM512.84,132.11h-3.87v-1.45h3.87v1.45ZM512.84,128.14h-3.87v-1.45h3.87v1.45ZM518.38,215.57h-3.87v-1.46h3.87v1.46ZM518.38,211.6h-3.87v-1.45h3.87v1.45ZM518.38,207.62h-3.87v-1.45h3.87v1.45ZM518.38,203.64h-3.87v-1.45h3.87v1.45ZM518.38,199.68h-3.87v-1.46h3.87v1.46ZM518.38,195.7h-3.87v-1.45h3.87v1.45ZM518.38,191.72h-3.87v-1.45h3.87v1.45ZM518.38,187.75h-3.87v-1.45h3.87v1.45ZM518.38,183.78h-3.87v-1.45h3.87v1.45ZM518.38,179.8h-3.87v-1.45h3.87v1.45ZM518.38,175.83h-3.87v-1.45h3.87v1.45ZM518.38,171.85h-3.87v-1.45h3.87v1.45ZM518.38,167.88h-3.87v-1.45h3.87v1.45ZM518.38,163.91h-3.87v-1.45h3.87v1.45ZM518.38,159.93h-3.87v-1.45h3.87v1.45ZM518.38,155.96h-3.87v-1.46h3.87v1.46ZM518.38,151.99h-3.87v-1.45h3.87v1.45ZM518.38,148.01h-3.87v-1.45h3.87v1.45ZM518.38,144.03h-3.87v-1.45h3.87v1.45ZM518.38,140.07h-3.87v-1.46h3.87v1.46ZM518.38,136.09h-3.87v-1.45h3.87v1.45ZM518.38,132.11h-3.87v-1.45h3.87v1.45ZM518.38,128.14h-3.87v-1.45h3.87v1.45ZM523.9,203.64h-3.87v-1.45h3.87v1.45ZM523.9,199.68h-3.87v-1.46h3.87v1.46ZM523.9,195.7h-3.87v-1.45h3.87v1.45ZM523.9,191.72h-3.87v-1.45h3.87v1.45ZM523.9,187.75h-3.87v-1.45h3.87v1.45ZM523.9,183.78h-3.87v-1.45h3.87v1.45ZM523.9,179.8h-3.87v-1.45h3.87v1.45ZM523.9,175.83h-3.87v-1.45h3.87v1.45ZM523.9,171.85h-3.87v-1.45h3.87v1.45ZM523.9,167.88h-3.87v-1.45h3.87v1.45ZM523.9,163.91h-3.87v-1.45h3.87v1.45ZM523.9,159.93h-3.87v-1.45h3.87v1.45ZM523.9,155.96h-3.87v-1.46h3.87v1.46ZM523.9,151.99h-3.87v-1.45h3.87v1.45ZM523.9,148.01h-3.87v-1.45h3.87v1.45ZM523.9,144.03h-3.87v-1.45h3.87v1.45ZM523.9,140.07h-3.87v-1.46h3.87v1.46ZM523.9,136.09h-3.87v-1.45h3.87v1.45ZM523.9,132.11h-3.87v-1.45h3.87v1.45ZM523.9,128.14h-3.87v-1.45h3.87v1.45ZM529.44,203.64h-3.87v-1.45h3.87v1.45ZM529.44,199.68h-3.87v-1.46h3.87v1.46ZM529.44,195.7h-3.87v-1.45h3.87v1.45ZM529.44,191.72h-3.87v-1.45h3.87v1.45ZM529.44,187.75h-3.87v-1.45h3.87v1.45ZM529.44,183.78h-3.87v-1.45h3.87v1.45ZM529.44,179.8h-3.87v-1.45h3.87v1.45ZM529.44,175.83h-3.87v-1.45h3.87v1.45ZM529.44,171.85h-3.87v-1.45h3.87v1.45ZM529.44,167.88h-3.87v-1.45h3.87v1.45ZM529.44,163.91h-3.87v-1.45h3.87v1.45ZM529.44,159.93h-3.87v-1.45h3.87v1.45ZM529.44,155.96h-3.87v-1.46h3.87v1.46ZM529.44,151.99h-3.87v-1.45h3.87v1.45ZM529.44,148.01h-3.87v-1.45h3.87v1.45ZM529.44,144.03h-3.87v-1.45h3.87v1.45ZM529.44,140.07h-3.87v-1.46h3.87v1.46ZM529.44,136.09h-3.87v-1.45h3.87v1.45ZM529.44,132.11h-3.87v-1.45h3.87v1.45ZM529.44,128.14h-3.87v-1.45h3.87v1.45ZM532.58,203.64h-1.48v-1.45h1.48v1.45ZM532.58,199.68h-1.48v-1.46h1.48v1.46ZM534.97,195.7h-3.87v-1.45h3.87v1.45ZM534.97,191.72h-3.87v-1.45h3.87v1.45ZM534.97,187.75h-3.87v-1.45h3.87v1.45ZM534.97,183.78h-3.87v-1.45h3.87v1.45ZM534.97,179.8h-3.87v-1.45h3.87v1.45ZM534.97,175.83h-3.87v-1.45h3.87v1.45ZM534.97,171.85h-3.87v-1.45h3.87v1.45ZM534.97,167.88h-3.87v-1.45h3.87v1.45ZM534.97,163.91h-3.87v-1.45h3.87v1.45ZM534.97,159.93h-3.87v-1.45h3.87v1.45ZM534.97,155.96h-3.87v-1.46h3.87v1.46ZM534.97,151.99h-3.87v-1.45h3.87v1.45ZM534.97,148.01h-3.87v-1.45h3.87v1.45ZM534.97,144.03h-3.87v-1.45h3.87v1.45ZM534.97,140.07h-3.87v-1.46h3.87v1.46ZM534.97,136.09h-3.87v-1.45h3.87v1.45ZM534.97,132.11h-3.87v-1.45h3.87v1.45ZM534.97,128.14h-3.87v-1.45h3.87v1.45ZM549.82,347.58h-2.01v-3.71h2.01v3.71ZM549.82,342.23h-2.01v-3.71h2.01v3.71ZM549.82,336.88h-2.01v-3.71h2.01v3.71ZM549.82,331.54h-2.01v-3.71h2.01v3.71ZM549.82,326.2h-2.01v-3.71h2.01v3.71ZM549.82,320.86h-2.01v-3.71h2.01v3.71ZM549.82,315.51h-2.01v-3.71h2.01v3.71ZM549.82,310.17h-2.01v-3.71h2.01v3.71ZM549.82,304.82h-2.01v-3.7h2.01v3.7ZM549.82,299.49h-2.01v-3.71h2.01v3.71ZM549.82,294.14h-2.01v-3.71h2.01v3.71ZM552.86,347.58h-2.02v-3.71h2.02v3.71ZM552.86,342.23h-2.02v-3.71h2.02v3.71ZM552.86,336.88h-2.02v-3.71h2.02v3.71ZM552.86,331.54h-2.02v-3.71h2.02v3.71ZM552.86,326.2h-2.02v-3.71h2.02v3.71ZM552.86,320.86h-2.02v-3.71h2.02v3.71ZM552.86,315.51h-2.02v-3.71h2.02v3.71ZM552.86,310.17h-2.02v-3.71h2.02v3.71ZM552.86,304.82h-2.02v-3.7h2.02v3.7ZM552.86,299.49h-2.02v-3.71h2.02v3.71ZM552.86,294.14h-2.02v-3.71h2.02v3.71ZM557.71,347.58h-2.01v-3.71h2.01v3.71ZM557.71,342.23h-2.01v-3.71h2.01v3.71ZM557.71,336.88h-2.01v-3.71h2.01v3.71ZM557.71,331.54h-2.01v-3.71h2.01v3.71ZM557.71,326.2h-2.01v-3.71h2.01v3.71ZM557.71,320.86h-2.01v-3.71h2.01v3.71ZM557.71,315.51h-2.01v-3.71h2.01v3.71ZM557.71,310.17h-2.01v-3.71h2.01v3.71ZM557.71,304.82h-2.01v-3.7h2.01v3.7ZM557.71,299.49h-2.01v-3.71h2.01v3.71ZM557.71,294.14h-2.01v-3.71h2.01v3.71ZM560.75,347.58h-2.02v-3.71h2.02v3.71ZM560.75,342.23h-2.02v-3.71h2.02v3.71ZM560.75,336.88h-2.02v-3.71h2.02v3.71ZM560.75,331.54h-2.02v-3.71h2.02v3.71ZM560.75,326.2h-2.02v-3.71h2.02v3.71ZM560.75,320.86h-2.02v-3.71h2.02v3.71ZM560.75,315.51h-2.02v-3.71h2.02v3.71ZM560.75,310.17h-2.02v-3.71h2.02v3.71ZM560.75,304.82h-2.02v-3.7h2.02v3.7ZM560.75,299.49h-2.02v-3.71h2.02v3.71ZM560.75,294.14h-2.02v-3.71h2.02v3.71ZM597.34,342.7h-7.52v-8.19h7.52v8.19ZM597.34,332.04h-7.52v-8.19h7.52v8.19ZM597.34,321.38h-7.52v-8.18h7.52v8.18ZM597.34,310.72h-7.52v-8.18h7.52v8.18ZM597.34,300.05h-7.52v-8.18h7.52v8.18ZM597.34,289.39h-7.52v-8.18h7.52v8.18ZM597.34,278.74h-7.52v-8.19h7.52v8.19ZM597.34,268.08h-7.52v-8.19h7.52v8.19ZM597.34,257.42h-7.52v-8.19h7.52v8.19ZM602.23,342.7h-2.93v-8.19h2.93v8.19ZM602.23,332.04h-2.93v-8.19h2.93v8.19ZM602.23,321.38h-2.93v-8.18h2.93v8.18ZM602.23,310.72h-2.93v-8.18h2.93v8.18ZM602.23,300.05h-2.93v-8.18h2.93v8.18ZM602.23,289.39h-2.93v-8.18h2.93v8.18ZM602.23,278.74h-2.93v-8.19h2.93v8.19ZM602.23,268.08h-2.93v-8.19h2.93v8.19ZM602.23,257.42h-2.93v-8.19h2.93v8.19ZM611.98,346.31h-5.16v-98.57h4.11v.48h1.05v98.09ZM668.95,236.41v2.31h-41.46v-2.31h41.46ZM627.5,234.21v-2.32h41.46v2.32h-41.46ZM668.95,240.91v2.32h-41.46v-2.32h41.46ZM668.95,245.43v2.31h-34.82v-1.16h-6.63v-1.15h41.46ZM634.13,249.94h34.83v2.31h-34.83v-2.31ZM620.94,171.91h48.01v2.31h-48.01v-2.31ZM617.25,177.76h51.71v2.31h-51.71v-2.31ZM617.25,182.27h51.71v2.31h-51.71v-2.31ZM617.25,186.79h51.71v2.31h-51.71v-2.31ZM617.25,191.29h51.71v2.31h-51.71v-2.31ZM617.25,195.81h51.71v2.31h-51.71v-2.31ZM617.25,200.32h51.71v2.31h-51.71v-2.31ZM617.25,204.83h51.71v2.31h-51.71v-2.31ZM617.25,209.34h51.71v2.31h-51.71v-2.31ZM617.25,213.86h51.71v2.31h-51.71v-2.31ZM617.25,218.36h51.71v2.31h-51.71v-2.31ZM617.25,222.87h51.71v2.32h-51.71v-2.32ZM617.25,227.38h51.71v2.31h-41.46v-1.45h-10.25v-.86ZM619.49,342.7h-2.93v-8.19h2.93v8.19ZM619.49,332.04h-2.93v-8.19h2.93v8.19ZM619.49,321.38h-2.93v-8.18h2.93v8.18ZM619.49,310.72h-2.93v-8.18h2.93v8.18ZM619.49,300.05h-2.93v-8.18h2.93v8.18ZM619.49,289.39h-2.93v-8.18h2.93v8.18ZM619.49,278.74h-2.93v-8.19h2.93v8.19ZM619.49,268.08h-2.93v-8.19h2.93v8.19ZM619.49,257.42h-2.93v-8.19h2.93v8.19ZM630.26,342.7h-8.8v-8.19h8.8v8.19ZM630.26,332.04h-8.8v-8.19h8.8v8.19ZM630.26,321.38h-8.8v-8.18h8.8v8.18ZM630.26,310.72h-8.8v-8.18h8.8v8.18ZM630.26,300.05h-8.8v-8.18h8.8v8.18ZM630.26,289.39h-8.8v-8.18h8.8v8.18ZM630.26,278.74h-8.8v-8.19h8.8v8.19ZM630.26,268.08h-8.8v-8.19h8.8v8.19ZM630.26,257.42h-8.8v-8.19h8.8v8.19ZM648.64,310.9h-14.51v-2.31h14.51v2.31ZM648.64,306.38h-14.51v-2.31h14.51v2.31ZM648.64,301.87h-14.51v-2.31h14.51v2.31ZM648.64,297.36h-14.51v-2.31h14.51v2.31ZM648.64,292.85h-14.51v-2.31h14.51v2.31ZM648.64,288.33h-14.51v-2.31h14.51v2.31ZM648.64,283.83h-14.51v-2.31h14.51v2.31ZM648.64,279.31h-14.51v-2.31h14.51v2.31ZM648.64,274.81h-14.51v-2.31h14.51v2.31ZM648.64,270.29h-14.51v-2.31h14.51v2.31ZM648.64,265.78h-14.51v-2.31h14.51v2.31ZM648.64,261.27h-14.51v-2.31h14.51v2.31ZM648.64,256.76h-14.51v-2.31h34.83v.51h-20.32v1.8ZM653.61,309.69h-1.99v-2.06h1.99v2.06ZM653.61,305.6h-1.99v-2.05h1.99v2.05ZM653.61,301.52h-1.99v-2.06h1.99v2.06ZM653.61,297.44h-1.99v-2.05h1.99v2.05ZM653.61,293.36h-1.99v-2.06h1.99v2.06ZM653.61,289.27h-1.99v-2.05h1.99v2.05ZM653.61,285.2h-1.99v-2.06h1.99v2.06ZM653.61,281.11h-1.99v-2.05h1.99v2.05ZM653.61,277.03h-1.99v-2.06h1.99v2.06ZM653.61,272.95h-1.99v-2.05h1.99v2.05ZM653.61,268.87h-1.99v-2.06h1.99v2.06ZM653.61,264.78h-1.99v-2.05h1.99v2.05ZM655.99,334.18h-.8v-2.06h.8v2.06ZM655.99,330.09h-.8v-2.05h.8v2.05ZM655.99,326.01h-.8v-2.06h.8v2.06ZM655.99,321.93h-.8v-2.05h.8v2.05ZM655.99,317.85h-.8v-2.06h.8v2.06ZM655.99,313.76h-.8v-2.05h.8v2.05ZM655.99,309.69h-1.99v-2.06h1.99v2.06ZM655.99,305.6h-1.99v-2.05h1.99v2.05ZM655.99,301.52h-1.99v-2.06h1.99v2.06ZM655.99,297.44h-1.99v-2.05h1.99v2.05ZM655.99,293.36h-1.99v-2.06h1.99v2.06ZM655.99,289.27h-1.99v-2.05h1.99v2.05ZM655.99,285.2h-1.99v-2.06h1.99v2.06ZM655.99,281.11h-1.99v-2.05h1.99v2.05ZM655.99,277.03h-1.99v-2.06h1.99v2.06ZM655.99,272.95h-1.99v-2.05h1.99v2.05ZM655.99,268.87h-1.99v-2.06h1.99v2.06ZM655.99,264.78h-1.99v-2.05h1.99v2.05ZM658.38,334.18h-1.99v-2.06h1.99v2.06ZM658.38,330.09h-1.99v-2.05h1.99v2.05ZM658.38,326.01h-1.99v-2.06h1.99v2.06ZM658.38,321.93h-1.99v-2.05h1.99v2.05ZM658.38,317.85h-1.99v-2.06h1.99v2.06ZM658.38,313.76h-1.99v-2.05h1.99v2.05ZM658.38,309.69h-1.99v-2.06h1.99v2.06ZM658.38,305.6h-1.99v-2.05h1.99v2.05ZM658.38,301.52h-1.99v-2.06h1.99v2.06ZM658.38,297.44h-1.99v-2.05h1.99v2.05ZM658.38,293.36h-1.99v-2.06h1.99v2.06ZM658.38,289.27h-1.99v-2.05h1.99v2.05ZM658.38,285.2h-1.99v-2.06h1.99v2.06ZM658.38,281.11h-1.99v-2.05h1.99v2.05ZM658.38,277.03h-1.99v-2.06h1.99v2.06ZM658.38,272.95h-1.99v-2.05h1.99v2.05ZM658.38,268.87h-1.99v-2.06h1.99v2.06ZM658.38,264.78h-1.99v-2.05h1.99v2.05ZM667.08,334.18h-7.2v-2.06h7.2v2.06ZM667.08,330.09h-7.2v-2.05h7.2v2.05ZM667.08,326.01h-7.2v-2.06h7.2v2.06ZM667.08,321.93h-7.2v-2.05h7.2v2.05ZM667.08,317.85h-7.2v-2.06h7.2v2.06ZM667.08,313.76h-7.2v-2.05h7.2v2.05ZM667.08,309.69h-7.2v-2.06h7.2v2.06ZM667.08,305.6h-7.2v-2.05h7.2v2.05ZM667.08,301.52h-7.2v-2.06h7.2v2.06ZM667.08,297.44h-7.2v-2.05h7.2v2.05ZM667.08,293.36h-7.2v-2.06h7.2v2.06ZM667.08,289.27h-7.2v-2.05h7.2v2.05ZM667.08,285.2h-7.2v-2.06h7.2v2.06ZM667.08,281.11h-7.2v-2.05h7.2v2.05ZM667.08,277.03h-7.2v-2.06h7.2v2.06ZM667.08,272.95h-7.2v-2.05h7.2v2.05ZM667.08,268.87h-7.2v-2.06h7.2v2.06ZM667.08,264.78h-7.2v-2.05h7.2v2.05ZM675.75,342.34h-7.21v-2.06h7.21v2.06ZM675.75,338.25h-7.21v-2.05h7.21v2.05ZM675.75,334.18h-7.21v-2.06h7.21v2.06ZM675.75,330.09h-7.21v-2.05h7.21v2.05ZM675.75,326.01h-7.21v-2.06h7.21v2.06ZM675.75,321.93h-7.21v-2.05h7.21v2.05ZM675.75,317.85h-7.21v-2.06h7.21v2.06ZM675.75,313.76h-7.21v-2.05h7.21v2.05ZM675.75,309.69h-7.21v-2.06h7.21v2.06ZM675.75,305.6h-7.21v-2.05h7.21v2.05ZM675.75,301.52h-7.21v-2.06h7.21v2.06ZM675.75,297.44h-7.21v-2.05h7.21v2.05ZM675.75,293.36h-7.21v-2.06h7.21v2.06ZM675.75,289.27h-7.21v-2.05h7.21v2.05ZM675.75,285.2h-7.21v-2.06h7.21v2.06ZM675.75,281.11h-7.21v-2.05h7.21v2.05ZM675.75,277.03h-7.21v-2.06h7.21v2.06ZM675.75,272.95h-7.21v-2.05h7.21v2.05ZM675.75,268.87h-7.21v-2.06h7.21v2.06ZM675.75,264.78h-7.21v-2.05h7.21v2.05ZM684.4,342.34h-7.2v-2.06h7.2v2.06ZM684.4,338.25h-7.2v-2.05h7.2v2.05ZM684.4,334.18h-7.2v-2.06h7.2v2.06ZM684.4,330.09h-7.2v-2.05h7.2v2.05ZM684.4,326.01h-7.2v-2.06h7.2v2.06ZM684.4,321.93h-7.2v-2.05h7.2v2.05ZM684.4,317.85h-7.2v-2.06h7.2v2.06ZM684.4,313.76h-7.2v-2.05h7.2v2.05ZM684.4,309.69h-7.2v-2.06h7.2v2.06ZM684.4,305.6h-7.2v-2.05h7.2v2.05ZM684.4,301.52h-7.2v-2.06h7.2v2.06ZM684.4,297.44h-7.2v-2.05h7.2v2.05ZM684.4,293.36h-7.2v-2.06h7.2v2.06ZM684.4,289.27h-7.2v-2.05h7.2v2.05ZM684.4,285.2h-7.2v-2.06h7.2v2.06ZM684.4,281.11h-7.2v-2.05h7.2v2.05ZM684.4,277.03h-7.2v-2.06h7.2v2.06ZM684.4,272.95h-7.2v-2.05h7.2v2.05ZM684.4,268.87h-7.2v-2.06h7.2v2.06ZM684.4,264.78h-7.2v-2.05h7.2v2.05ZM966.53,228.94h21.13v1.34h-21.13v-1.34ZM966.53,232.94h21.13v1.34h-21.13v-1.34ZM939.99,175.29h2.5v44.9h-2.5v-44.9ZM987.66,236.93v1.35h-53.76v-1.35h53.76ZM946.1,258.24v-1.34h28.01v1.34h-28.01ZM974.1,260.9v1.34h-28.01v-1.34h28.01ZM946.1,254.25v-1.35h28.01v1.35h-28.01ZM933.91,250.26v-1.34h40.2v1.34h-40.2ZM933.91,246.26v-1.34h53.76v.76h-13.56v.58h-40.2ZM933.91,242.26v-1.34h53.76v1.34h-53.76ZM919.53,177.65h18.36v1.24h-18.36v-1.24ZM919.53,181.52h18.36v1.24h-18.36v-1.24ZM919.53,185.39h18.36v1.24h-18.36v-1.24ZM919.53,189.26h18.36v1.23h-18.36v-1.23ZM919.53,193.12h18.36v1.23h-18.36v-1.23ZM919.53,196.99h18.36v1.23h-18.36v-1.23ZM919.53,200.86h18.36v1.23h-18.36v-1.23ZM919.53,204.72h18.36v1.23h-18.36v-1.23ZM919.53,208.59h18.36v1.23h-18.36v-1.23ZM919.53,212.46h18.36v1.23h-18.36v-1.23ZM919.53,216.32h18.36v1.23h-18.36v-1.23ZM919.53,220.19h7.53v1.23h-7.53v-1.23ZM919.53,224.06h7.53v1.23h-7.53v-1.23ZM919.53,227.92h7.53v1.23h-7.53v-1.23ZM919.53,231.79h7.53v1.23h-7.53v-1.23ZM908.25,177.65h8.44v1.24h-8.44v-1.24ZM908.25,181.52h8.44v1.24h-8.44v-1.24ZM908.25,185.39h8.44v1.24h-8.44v-1.24ZM908.25,189.26h8.44v1.23h-8.44v-1.23ZM908.25,193.12h8.44v1.23h-8.44v-1.23ZM908.25,196.99h8.44v1.23h-8.44v-1.23ZM908.25,200.86h8.44v1.23h-8.44v-1.23ZM908.25,204.72h8.44v1.23h-8.44v-1.23ZM908.25,208.59h8.44v1.23h-8.44v-1.23ZM908.25,212.46h8.44v1.23h-8.44v-1.23ZM908.25,216.32h8.44v1.23h-8.44v-1.23ZM908.25,220.19h8.44v1.23h-8.44v-1.23ZM908.25,224.06h8.44v1.23h-8.44v-1.23ZM908.25,227.92h8.44v1.23h-8.44v-1.23ZM908.25,231.79h8.44v1.23h-8.44v-1.23ZM893.8,177.65h11.23v1.24h-11.23v-1.24ZM893.8,181.52h11.23v1.24h-11.23v-1.24ZM893.8,185.39h11.23v1.24h-11.23v-1.24ZM893.8,189.26h11.23v1.23h-11.23v-1.23ZM893.8,193.12h11.23v1.23h-11.23v-1.23ZM893.8,196.99h11.23v1.23h-11.23v-1.23ZM893.8,200.86h11.23v1.23h-11.23v-1.23ZM893.8,204.72h11.23v1.23h-11.23v-1.23ZM893.8,208.59h11.23v1.23h-11.23v-1.23ZM893.8,212.46h11.23v1.23h-11.23v-1.23ZM893.8,216.32h11.23v1.23h-11.23v-1.23ZM893.8,220.19h11.23v1.23h-11.23v-1.23ZM893.8,224.06h11.23v1.23h-11.23v-1.23ZM893.8,227.92h11.23v1.23h-11.23v-1.23ZM893.8,231.79h11.23v1.23h-11.23v-1.23ZM823.24,88.82h11.96v1.86h-11.96v-1.86ZM823.24,93.69h11.96v1.85h-11.96v-1.85ZM823.24,98.57h11.96v1.85h-11.96v-1.85ZM823.24,103.45h11.96v1.85h-11.96v-1.85ZM823.24,108.31h11.96v1.86h-11.96v-1.86ZM823.24,113.19h11.96v1.86h-11.96v-1.86ZM823.24,118.06h11.96v1.85h-11.96v-1.85ZM823.24,122.94h11.96v1.85h-11.96v-1.85ZM823.24,127.81h11.96v1.86h-11.96v-1.86ZM823.24,132.68h11.96v1.86h-11.96v-1.86ZM823.24,137.56h11.96v1.85h-11.96v-1.85ZM823.24,142.43h11.96v1.85h-11.96v-1.85ZM823.24,147.3h11.96v1.86h-11.96v-1.86ZM823.24,152.18h11.96v1.86h-11.96v-1.86ZM823.24,157.05h11.96v1.85h-11.96v-1.85ZM823.24,161.93h11.96v1.85h-11.96v-1.85ZM823.24,166.79h11.96v1.86h-11.96v-1.86ZM823.24,171.67h11.96v1.86h-11.96v-1.86ZM823.24,176.55h11.96v1.85h-11.96v-1.85ZM798.47,78.19h13.78v1.69h-13.78v-1.69ZM798.47,83.41h13.78v1.69h-13.78v-1.69ZM798.47,88.64h13.78v1.69h-13.78v-1.69ZM798.47,93.86h13.78v1.69h-13.78v-1.69ZM798.47,99.08h13.78v1.7h-13.78v-1.7ZM798.47,104.3h13.78v1.7h-13.78v-1.7ZM798.47,109.53h13.78v1.69h-13.78v-1.69ZM798.47,114.76h13.78v1.69h-13.78v-1.69ZM798.47,119.98h13.78v1.69h-13.78v-1.69ZM798.47,125.21h13.78v1.69h-13.78v-1.69ZM798.47,130.42h13.78v1.7h-13.78v-1.7ZM798.47,135.65h13.78v1.7h-13.78v-1.7ZM798.47,140.87h13.78v1.69h-13.78v-1.69ZM798.47,146.1h13.78v1.69h-13.78v-1.69ZM798.47,151.33h13.78v1.69h-13.78v-1.69ZM798.47,156.55h13.78v1.69h-13.78v-1.69ZM798.47,161.77h13.78v1.7h-13.78v-1.7ZM798.47,166.99h13.78v1.7h-13.78v-1.7ZM798.47,172.22h13.78v1.69h-13.78v-1.69ZM798.47,177.44h13.78v1.69h-13.78v-1.69ZM798.47,182.67h13.78v1.69h-13.78v-1.69ZM776.59,344.64h-3.83v-80.65c1.23.66,2.51,1.34,3.83,2.02v78.64ZM826.91,344.64h-3.83v-60.62c1.26.36,2.53.72,3.83,1.07v59.55ZM877.21,344.64h-3.82v-49.88c1.26.19,2.53.38,3.82.55v49.33ZM927.53,344.64h-3.83v-44.88c1.27.07,2.54.14,3.83.2v44.68ZM977.85,344.64h-3.83v-44.03c1.29-.02,2.57-.04,3.83-.07v44.1ZM1028.16,344.64h-3.83v-46.52c1.29-.11,2.57-.23,3.83-.35v46.87ZM1078.48,344.64h-3.83v-53.45c1.3-.25,2.57-.51,3.83-.77v54.22ZM1128.79,344.64h-3.82v-68.11c1.32-.55,2.59-1.1,3.82-1.65v69.76ZM1149.24,249.75c-50.33,19.18-108.82,35.31-191.52,35.44-20.83.03-39.99-1.44-57.52-3.94-52.07-7.43-89.86-24.11-114.97-38.48-32.86-18.78-30.53-21.65-30.29-22.13,0-.01,0-.02,0-.02,2.94-2.13,14.02.3,60.34,20.79,56.31,24.91,152.98,28.63,152.98,28.63,42.81,0,84.53-5.96,119.7-13.63,49.01-10.69,85.34-24.69,94.33-30.5,4.19-2.7,7.24-4.32,9.46-5.24,2.44-1.01,4.81,1.58,3.63,3.94-3.21,6.41-30.71,19.24-46.15,25.13Z"/>
      <polygon class="cls-1" points="100.52 242.74 100.52 207.35 95.09 225.05 100.52 242.74"/>
      <polygon class="cls-1" points="101.73 209.28 101.73 240.81 105.76 227.68 106.57 225.05 105.76 222.41 101.73 209.28"/>
      <polygon class="cls-1" points="107.65 181.43 113 164.01 107.65 146.58 107.65 181.43"/>
      <polygon class="cls-1" points="101.73 165.28 106.68 181.43 106.68 146.58 101.73 162.72 101.73 165.28"/>
      <polygon class="cls-1" points="94.97 181.43 100.33 164.01 94.97 146.58 94.97 181.43"/>
      <polygon class="cls-1" points="114.26 164.81 119.35 181.43 119.35 146.58 114.26 163.21 114.26 164.81"/>
      <polygon class="cls-1" points="133 181.43 138.35 164.01 133 146.58 133 181.43"/>
      <polygon class="cls-1" points="120.32 181.43 125.58 164.33 125.58 163.69 120.32 146.58 120.32 181.43"/>
      <polygon class="cls-1" points="126.79 163.69 126.79 164.33 127.71 167.34 132.03 181.43 132.03 146.58 127.71 160.67 126.79 163.69"/>
      <polygon class="cls-1" points="114.26 208.8 114.26 241.3 118.43 227.68 119.24 225.05 118.43 222.41 114.26 208.8"/>
      <polygon class="cls-1" points="113.05 242.26 113.05 207.83 107.76 225.05 113.05 242.26"/>
      <polygon class="cls-1" points="94.01 181.43 94.01 146.58 88.66 164.01 94.01 181.43"/>
      <polygon class="cls-1" points="126.79 241.78 131.91 225.05 126.79 208.31 126.79 241.78"/>
      <polygon class="cls-1" points="125.58 241.78 125.58 208.31 120.44 225.05 125.58 241.78"/>
    </g>
  </g>
</svg>