<?xml version="1.0" encoding="UTF-8"?>
<svg id="Layer_2" data-name="Layer 2" xmlns="http://www.w3.org/2000/svg" viewBox="0 0 1199 234.69">
  <defs>
    <style>
      .cls-1 {
        fill: #1d1d1b;
        stroke-width: 0px;
      }
    </style>
  </defs>
  <g id="Layer_1-2" data-name="Layer 1">
    <g>
      <polygon class="cls-1" points="1159.17 201.21 1163.19 205.7 1164.96 205.7 1160.96 201.21 1159.17 201.21"/>
      <polygon class="cls-1" points="1175.01 216.98 1171.01 212.49 1169.28 212.49 1173.3 216.98 1175.01 216.98"/>
      <polygon class="cls-1" points="1154.11 195.57 1158.14 200.06 1159.93 200.06 1155.93 195.57 1154.11 195.57"/>
      <polygon class="cls-1" points="1169.98 211.34 1165.99 206.85 1164.23 206.85 1168.25 211.34 1169.98 211.34"/>
      <polygon class="cls-1" points="1140.5 189.93 1135.53 189.93 1134.73 194.41 1139.69 194.41 1140.5 189.93"/>
      <polygon class="cls-1" points="1172.43 216.98 1168.41 212.49 1166.27 212.49 1170.26 216.98 1172.43 216.98"/>
      <polygon class="cls-1" points="1154.9 194.41 1150.9 189.93 1149.06 189.93 1153.08 194.41 1154.9 194.41"/>
      <polygon class="cls-1" points="1135.74 188.77 1140.7 188.77 1141.51 184.28 1136.54 184.28 1135.74 188.77"/>
      <polygon class="cls-1" points="1145.88 184.28 1144 184.28 1148.02 188.77 1149.88 188.77 1145.88 184.28"/>
      <polygon class="cls-1" points="1164.38 211.34 1160.38 206.85 1158.4 206.85 1162.3 211.34 1164.38 211.34"/>
      <polygon class="cls-1" points="1167.21 216.98 1169.39 216.98 1165.4 212.49 1163.31 212.49 1167.21 216.98"/>
      <polygon class="cls-1" points="1149.16 206.85 1144.19 206.85 1143.39 211.34 1148.36 211.34 1149.16 206.85"/>
      <polygon class="cls-1" points="1144.4 205.7 1149.37 205.7 1150.17 201.21 1145.2 201.21 1144.4 205.7"/>
      <polygon class="cls-1" points="1133.71 200.06 1138.68 200.06 1139.49 195.57 1134.52 195.57 1133.71 200.06"/>
      <polygon class="cls-1" points="1139.56 200.06 1144.53 200.06 1145.33 195.57 1140.36 195.57 1139.56 200.06"/>
      <polygon class="cls-1" points="1103.38 201.21 1098.41 201.21 1097.61 205.7 1102.58 205.7 1103.38 201.21"/>
      <polygon class="cls-1" points="1104.39 195.57 1099.42 195.57 1098.62 200.06 1103.59 200.06 1104.39 195.57"/>
      <polygon class="cls-1" points="1108.22 206.85 1103.25 206.85 1102.45 211.34 1107.41 211.34 1108.22 206.85"/>
      <polygon class="cls-1" points="1102.37 206.85 1097.4 206.85 1096.6 211.34 1101.56 211.34 1102.37 206.85"/>
      <polygon class="cls-1" points="1094.57 222.62 1099.54 222.62 1100.34 218.14 1095.38 218.14 1094.57 222.62"/>
      <polygon class="cls-1" points="1109.23 201.21 1104.26 201.21 1103.46 205.7 1108.42 205.7 1109.23 201.21"/>
      <polygon class="cls-1" points="1095.58 216.98 1100.55 216.98 1101.36 212.49 1096.39 212.49 1095.58 216.98"/>
      <polygon class="cls-1" points="1097.53 201.21 1092.56 201.21 1091.76 205.7 1096.73 205.7 1097.53 201.21"/>
      <polygon class="cls-1" points="1128.87 194.41 1133.84 194.41 1134.64 189.93 1129.68 189.93 1128.87 194.41"/>
      <polygon class="cls-1" points="1096.52 206.85 1091.55 206.85 1090.75 211.34 1095.71 211.34 1096.52 206.85"/>
      <polygon class="cls-1" points="1124.97 178.64 1120 178.64 1119.2 183.13 1124.17 183.13 1124.97 178.64"/>
      <polygon class="cls-1" points="1123.96 184.28 1118.99 184.28 1118.19 188.77 1123.16 188.77 1123.96 184.28"/>
      <polygon class="cls-1" points="1110.24 195.57 1105.27 195.57 1104.47 200.06 1109.44 200.06 1110.24 195.57"/>
      <polygon class="cls-1" points="1124.04 188.77 1129 188.77 1129.8 184.28 1124.84 184.28 1124.04 188.77"/>
      <polygon class="cls-1" points="1118.11 184.28 1113.14 184.28 1112.34 188.77 1117.31 188.77 1118.11 184.28"/>
      <polygon class="cls-1" points="1111.25 189.93 1106.29 189.93 1105.48 194.41 1110.45 194.41 1111.25 189.93"/>
      <polygon class="cls-1" points="1117.1 189.93 1112.13 189.93 1111.32 194.41 1116.29 194.41 1117.1 189.93"/>
      <polygon class="cls-1" points="1122.01 200.06 1126.98 200.06 1127.78 195.57 1122.82 195.57 1122.01 200.06"/>
      <polygon class="cls-1" points="1109.3 205.7 1114.27 205.7 1115.08 201.21 1110.11 201.21 1109.3 205.7"/>
      <polygon class="cls-1" points="1095.51 212.49 1090.54 212.49 1089.73 216.98 1094.7 216.98 1095.51 212.49"/>
      <polygon class="cls-1" points="1123.02 194.41 1127.99 194.41 1128.79 189.93 1123.83 189.93 1123.02 194.41"/>
      <polygon class="cls-1" points="1119.92 206.85 1114.94 206.85 1114.14 211.34 1119.11 211.34 1119.92 206.85"/>
      <polygon class="cls-1" points="1114.07 206.85 1109.09 206.85 1108.29 211.34 1113.26 211.34 1114.07 206.85"/>
      <polygon class="cls-1" points="1115.15 205.7 1120.12 205.7 1120.93 201.21 1115.96 201.21 1115.15 205.7"/>
      <polygon class="cls-1" points="1110.31 200.06 1115.28 200.06 1116.09 195.57 1111.12 195.57 1110.31 200.06"/>
      <polygon class="cls-1" points="1088.72 222.62 1093.69 222.62 1094.49 218.14 1089.53 218.14 1088.72 222.62"/>
      <polygon class="cls-1" points="1082.87 222.62 1087.84 222.62 1088.64 218.14 1083.68 218.14 1082.87 222.62"/>
      <polygon class="cls-1" points="1089.65 212.49 1084.69 212.49 1083.88 216.98 1088.85 216.98 1089.65 212.49"/>
      <polygon class="cls-1" points="1117.17 194.41 1122.15 194.41 1122.95 189.93 1117.98 189.93 1117.17 194.41"/>
      <polygon class="cls-1" points="1167.37 211.34 1163.35 206.85 1161.26 206.85 1165.25 211.34 1167.37 211.34"/>
      <polygon class="cls-1" points="1160.23 205.7 1162.32 205.7 1158.3 201.21 1156.24 201.21 1160.23 205.7"/>
      <polygon class="cls-1" points="1133.63 195.57 1128.67 195.57 1127.86 200.06 1132.83 200.06 1133.63 195.57"/>
      <polygon class="cls-1" points="1155.37 201.21 1153.49 201.21 1157.39 205.7 1159.36 205.7 1155.37 201.21"/>
      <polygon class="cls-1" points="1157.26 200.06 1153.24 195.57 1151.22 195.57 1155.21 200.06 1157.26 200.06"/>
      <polygon class="cls-1" points="1143.31 206.85 1138.34 206.85 1137.54 211.34 1142.5 211.34 1143.31 206.85"/>
      <polygon class="cls-1" points="1143.52 205.7 1144.32 201.21 1139.35 201.21 1138.55 205.7 1143.52 205.7"/>
      <polygon class="cls-1" points="1116.16 200.06 1121.13 200.06 1121.94 195.57 1116.97 195.57 1116.16 200.06"/>
      <polygon class="cls-1" points="1125.76 206.85 1120.79 206.85 1119.99 211.34 1124.95 211.34 1125.76 206.85"/>
      <polygon class="cls-1" points="1138.47 201.21 1133.51 201.21 1132.7 205.7 1137.67 205.7 1138.47 201.21"/>
      <polygon class="cls-1" points="1100.42 222.62 1105.39 222.62 1106.19 218.14 1101.23 218.14 1100.42 222.62"/>
      <polygon class="cls-1" points="1137.46 206.85 1132.49 206.85 1131.69 211.34 1136.66 211.34 1137.46 206.85"/>
      <polygon class="cls-1" points="1121 205.7 1125.97 205.7 1126.77 201.21 1121.81 201.21 1121 205.7"/>
      <polygon class="cls-1" points="1126.85 205.7 1131.82 205.7 1132.62 201.21 1127.65 201.21 1126.85 205.7"/>
      <polygon class="cls-1" points="1131.61 206.85 1126.64 206.85 1125.84 211.34 1130.81 211.34 1131.61 206.85"/>
      <polygon class="cls-1" points="1153.06 222.62 1158.03 222.62 1158.84 218.14 1153.87 218.14 1153.06 222.62"/>
      <polygon class="cls-1" points="1077.02 222.62 1081.99 222.62 1082.8 218.14 1077.83 218.14 1077.02 222.62"/>
      <polygon class="cls-1" points="1162.03 218.14 1165.71 222.62 1168.29 222.62 1164.47 218.14 1162.03 218.14"/>
      <polygon class="cls-1" points="1130.82 178.64 1125.85 178.64 1125.05 183.13 1130.01 183.13 1130.82 178.64"/>
      <polygon class="cls-1" points="1142.3 212.49 1137.33 212.49 1136.53 216.98 1141.49 216.98 1142.3 212.49"/>
      <polygon class="cls-1" points="1141.36 222.62 1146.33 222.62 1147.14 218.14 1142.17 218.14 1141.36 222.62"/>
      <polygon class="cls-1" points="1148.15 212.49 1143.18 212.49 1142.37 216.98 1147.34 216.98 1148.15 212.49"/>
      <polygon class="cls-1" points="1135.52 222.62 1140.48 222.62 1141.29 218.14 1136.32 218.14 1135.52 222.62"/>
      <polygon class="cls-1" points="1136.45 212.49 1131.48 212.49 1130.68 216.98 1135.64 216.98 1136.45 212.49"/>
      <polygon class="cls-1" points="1165.33 218.14 1169.14 222.62 1171.26 222.62 1167.36 218.14 1165.33 218.14"/>
      <polygon class="cls-1" points="1147.21 222.62 1152.18 222.62 1152.98 218.14 1148.01 218.14 1147.21 222.62"/>
      <polygon class="cls-1" points="1166.35 216.98 1162.44 212.49 1160.53 212.49 1164.35 216.98 1166.35 216.98"/>
      <polygon class="cls-1" points="1148.22 216.98 1153.19 216.98 1153.99 212.49 1149.03 212.49 1148.22 216.98"/>
      <polygon class="cls-1" points="1124.75 212.49 1119.78 212.49 1118.98 216.98 1123.94 216.98 1124.75 212.49"/>
      <polygon class="cls-1" points="1113.05 212.49 1108.08 212.49 1107.28 216.98 1112.25 216.98 1113.05 212.49"/>
      <polygon class="cls-1" points="1112.12 222.62 1117.09 222.62 1117.89 218.14 1112.92 218.14 1112.12 222.62"/>
      <polygon class="cls-1" points="1106.27 222.62 1111.24 222.62 1112.04 218.14 1107.07 218.14 1106.27 222.62"/>
      <polygon class="cls-1" points="1118.9 212.49 1113.93 212.49 1113.13 216.98 1118.1 216.98 1118.9 212.49"/>
      <polygon class="cls-1" points="1130.6 212.49 1125.63 212.49 1124.83 216.98 1129.79 216.98 1130.6 212.49"/>
      <polygon class="cls-1" points="1117.97 222.62 1122.93 222.62 1123.74 218.14 1118.77 218.14 1117.97 222.62"/>
      <polygon class="cls-1" points="1123.82 222.62 1128.78 222.62 1129.59 218.14 1124.62 218.14 1123.82 222.62"/>
      <polygon class="cls-1" points="1168.22 218.14 1172.12 222.62 1174.41 222.62 1170.42 218.14 1168.22 218.14"/>
      <polygon class="cls-1" points="1129.67 222.62 1134.63 222.62 1135.44 218.14 1130.47 218.14 1129.67 222.62"/>
      <polygon class="cls-1" points="1129.88 188.77 1134.85 188.77 1135.66 184.28 1130.69 184.28 1129.88 188.77"/>
      <polygon class="cls-1" points="1107.21 212.49 1102.24 212.49 1101.43 216.98 1106.4 216.98 1107.21 212.49"/>
      <polygon class="cls-1" points="1136.67 178.64 1131.7 178.64 1130.9 183.13 1135.86 183.13 1136.67 178.64"/>
      <polygon class="cls-1" points="1175.88 216.98 1179.05 216.98 1174.97 212.49 1171.88 212.49 1175.88 216.98"/>
      <polygon class="cls-1" points="1176.91 218.14 1180.91 222.62 1184.18 222.62 1180.1 218.14 1176.91 218.14"/>
      <polygon class="cls-1" points="1171.29 218.14 1175.28 222.62 1177.48 222.62 1173.46 218.14 1171.29 218.14"/>
      <polygon class="cls-1" points="1170.85 211.34 1173.92 211.34 1169.84 206.85 1166.86 206.85 1170.85 211.34"/>
      <polygon class="cls-1" points="1148.28 183.13 1144.2 178.64 1141.72 178.64 1145.72 183.13 1148.28 183.13"/>
      <polygon class="cls-1" points="1174.34 218.14 1178.36 222.62 1180.04 222.62 1176.04 218.14 1174.34 218.14"/>
      <polygon class="cls-1" points="1150.75 188.77 1153.4 188.77 1149.32 184.28 1146.75 184.28 1150.75 188.77"/>
      <polygon class="cls-1" points="1155.77 194.41 1158.53 194.41 1154.45 189.93 1151.78 189.93 1155.77 194.41"/>
      <polygon class="cls-1" points="1165.83 205.7 1168.79 205.7 1164.71 201.21 1161.83 201.21 1165.83 205.7"/>
      <polygon class="cls-1" points="1160.8 200.06 1163.66 200.06 1159.58 195.57 1156.8 195.57 1160.8 200.06"/>
      <path class="cls-1" d="M1131.2,160.66l-.29-.32h-.01l-2.15,2.14-1.07,1.07-6.05,6.02-1.07,1.07-6.06,6.03-.56.55-1.42,1.42-4.52,4.5-.62.61-.53.54-.53.53-3.97,3.95-1.16,1.16-.75.74-21.41-23.39-.22-.24-1.61,1.6-.81.8-4.53,4.52-.43.42-.38.38-4.53,4.52-.43.41-1.06,1.07-3.38,3.36-.46.46-.41.4-.39.4-2.98,2.96-.87.86-.68.69-.81.8-.46.46-27.93-30.51-.29-.32-2.15,2.14-1.08,1.07-6.04,6.02-.57.57-.51.5-6.05,6.03-.56.55-1.43,1.42-4.51,4.5-.62.61-.54.54-.53.53h-.01s0-98.89,0-98.89h-48.66v-.1h-39.48v97.47h-2.84v-3.12h0v-3.13h0v-3.02h0v-3.13h0v-3.02h0v-3.13h0v-3.02h0v-3.13h0v-3.02h0v-3.13h0v-3.02h0v-3.13h0v-3.02h0v-3.13h0v-3.02h0v-3.13h0v-3.02h0v-3.13h0v-3.02h0v-3.13h0v-3.02h0v-3.13h0v-3.02h0v-3.13h0v-3.02h0v-3.13h0v-3.02h0v-3.13h0v-3.02h0v-3.13h0v-3.02h0v-3.13h0v-3.02h0v-3.13h0v-3.02h0v-3.13h0v-18.95h-50.48v.26h-27.71v9.34h0v120.21h-2.01v9.28l-4.43-.34v-2.38h0V37.08h-52.77v82.1h-.71v-7.6h-7.44l-8.67-13.51h-28.32l-5.98,5.97h-53.39v9.9h-10.99l-3.58,3.98-20.54-.68h-8.6V46.52h-59.15v-12.94h-24.91v-7.02h-37.09v7.02h-26.01v75.59h-15.64v-2.66h-10.66V2.59h-23.78V0h-42.81v2.59h-28.32v108.62h-7.94v58.85h-3.75v2.4h-9.44v4.41h-4.29v-75.99h-.92v-.36h-2.65v-14.33h-6v-23.69h-12.5v-12.65h-3.9l-17.61-9.44h-30.09l-3.21,2.78h-9.68v5.89h-9.17v8.55h-13.05v31.01h-6.66v21.89h-7.74v-6.8h-18.34v-34.31h-26.09v21.32h-56.52v54.47h-16.89V12.09H23.68v187.72H0v34.88h1199l-67.8-74.04ZM32.1,197.14h-4.75v-4.75h4.75v4.75ZM32.1,191.07h-4.75v-4.76h4.75v4.76ZM32.1,184.99h-4.75v-4.75h4.75v4.75ZM32.1,178.93h-4.75v-4.75h4.75v4.75ZM32.1,172.85h-4.75v-4.75h4.75v4.75ZM32.1,166.78h-4.75v-4.75h4.75v4.75ZM32.1,160.71h-4.75v-4.75h4.75v4.75ZM32.1,154.64h-4.75v-4.75h4.75v4.75ZM32.1,148.56h-4.75v-4.75h4.75v4.75ZM32.1,142.5h-4.75v-4.75h4.75v4.75ZM32.1,136.43h-4.75v-4.76h4.75v4.76ZM32.1,130.35h-4.75v-4.75h4.75v4.75ZM32.1,124.28h-4.75v-4.76h4.75v4.76ZM32.1,118.21h-4.75v-4.75h4.75v4.75ZM32.1,112.14h-4.75v-4.76h4.75v4.76ZM32.1,106.06h-4.75v-4.75h4.75v4.75ZM32.1,100h-4.75v-4.76h4.75v4.76ZM32.1,93.92h-4.75v-4.75h4.75v4.75ZM32.1,87.85h-4.75v-4.75h4.75v4.75ZM32.1,81.77h-4.75v-4.75h4.75v4.75ZM32.1,75.71h-4.75v-4.75h4.75v4.75ZM32.1,69.63h-4.75v-4.75h4.75v4.75ZM32.1,63.56h-4.75v-4.75h4.75v4.75ZM32.1,57.49h-4.75v-4.75h4.75v4.75ZM32.1,51.42h-4.75v-4.75h4.75v4.75ZM32.1,45.35h-4.75v-4.76h4.75v4.76ZM32.1,39.28h-4.75v-4.75h4.75v4.75ZM32.1,33.21h-4.75v-4.76h4.75v4.76ZM32.1,26.2h-4.75v-8.27h4.75v8.27ZM39.72,197.14h-4.75v-4.75h4.75v4.75ZM39.72,191.07h-4.75v-4.76h4.75v4.76ZM39.72,184.99h-4.75v-4.75h4.75v4.75ZM39.72,178.93h-4.75v-4.75h4.75v4.75ZM39.72,172.85h-4.75v-4.75h4.75v4.75ZM39.72,166.78h-4.75v-4.75h4.75v4.75ZM39.72,160.71h-4.75v-4.75h4.75v4.75ZM39.72,154.64h-4.75v-4.75h4.75v4.75ZM39.72,148.56h-4.75v-4.75h4.75v4.75ZM39.72,142.5h-4.75v-4.75h4.75v4.75ZM39.72,136.43h-4.75v-4.76h4.75v4.76ZM39.72,130.35h-4.75v-4.75h4.75v4.75ZM39.72,124.28h-4.75v-4.76h4.75v4.76ZM39.72,118.21h-4.75v-4.75h4.75v4.75ZM39.72,112.14h-4.75v-4.76h4.75v4.76ZM39.72,106.06h-4.75v-4.75h4.75v4.75ZM39.72,100h-4.75v-4.76h4.75v4.76ZM39.72,93.92h-4.75v-4.75h4.75v4.75ZM39.72,87.85h-4.75v-4.75h4.75v4.75ZM39.72,81.77h-4.75v-4.75h4.75v4.75ZM39.72,75.71h-4.75v-4.75h4.75v4.75ZM39.72,69.63h-4.75v-4.75h4.75v4.75ZM39.72,63.56h-4.75v-4.75h4.75v4.75ZM39.72,57.49h-4.75v-4.75h4.75v4.75ZM39.72,51.42h-4.75v-4.75h4.75v4.75ZM39.72,45.35h-4.75v-4.76h4.75v4.76ZM39.72,39.28h-4.75v-4.75h4.75v4.75ZM39.72,33.21h-4.75v-4.76h4.75v4.76ZM39.72,26.2h-4.75v-8.27h4.75v8.27ZM47.34,229.64h-4.75v-8.13h4.75v8.13ZM47.34,218.74h-4.75v-8.14h4.75v8.14ZM47.34,209.28h-4.75v-4.75h4.75v4.75ZM47.34,203.22h-4.75v-4.76h4.75v4.76ZM47.34,197.14h-4.75v-4.75h4.75v4.75ZM47.34,191.07h-4.75v-4.76h4.75v4.76ZM47.34,184.99h-4.75v-4.75h4.75v4.75ZM47.34,178.93h-4.75v-4.75h4.75v4.75ZM47.34,172.85h-4.75v-4.75h4.75v4.75ZM47.34,166.78h-4.75v-4.75h4.75v4.75ZM47.34,160.71h-4.75v-4.75h4.75v4.75ZM47.34,154.64h-4.75v-4.75h4.75v4.75ZM47.34,148.56h-4.75v-4.75h4.75v4.75ZM47.34,142.5h-4.75v-4.75h4.75v4.75ZM47.34,136.43h-4.75v-4.76h4.75v4.76ZM47.34,130.35h-4.75v-4.75h4.75v4.75ZM47.34,124.28h-4.75v-4.76h4.75v4.76ZM47.34,118.21h-4.75v-4.75h4.75v4.75ZM47.34,112.14h-4.75v-4.76h4.75v4.76ZM47.34,106.06h-4.75v-4.75h4.75v4.75ZM47.34,100h-4.75v-4.76h4.75v4.76ZM47.34,93.92h-4.75v-4.75h4.75v4.75ZM47.34,87.85h-4.75v-4.75h4.75v4.75ZM47.34,81.77h-4.75v-4.75h4.75v4.75ZM47.34,75.71h-4.75v-4.75h4.75v4.75ZM47.34,69.63h-4.75v-4.75h4.75v4.75ZM47.34,63.56h-4.75v-4.75h4.75v4.75ZM47.34,57.49h-4.75v-4.75h4.75v4.75ZM47.34,51.42h-4.75v-4.75h4.75v4.75ZM47.34,45.35h-4.75v-4.76h4.75v4.76ZM47.34,39.28h-4.75v-4.75h4.75v4.75ZM47.34,33.21h-4.75v-4.76h4.75v4.76ZM47.34,26.2h-4.75v-8.27h4.75v8.27ZM54.96,229.64h-4.75v-8.13h4.75v8.13ZM54.96,218.74h-4.75v-8.14h4.75v8.14ZM54.96,209.28h-4.75v-4.75h4.75v4.75ZM54.96,203.22h-4.75v-4.76h4.75v4.76ZM54.96,197.14h-4.75v-4.75h4.75v4.75ZM54.96,191.07h-4.75v-4.76h4.75v4.76ZM54.96,184.99h-4.75v-4.75h4.75v4.75ZM54.96,178.93h-4.75v-4.75h4.75v4.75ZM54.96,172.85h-4.75v-4.75h4.75v4.75ZM54.96,166.78h-4.75v-4.75h4.75v4.75ZM54.96,160.71h-4.75v-4.75h4.75v4.75ZM54.96,154.64h-4.75v-4.75h4.75v4.75ZM54.96,148.56h-4.75v-4.75h4.75v4.75ZM54.96,142.5h-4.75v-4.75h4.75v4.75ZM54.96,136.43h-4.75v-4.76h4.75v4.76ZM54.96,130.35h-4.75v-4.75h4.75v4.75ZM54.96,124.28h-4.75v-4.76h4.75v4.76ZM54.96,118.21h-4.75v-4.75h4.75v4.75ZM54.96,112.14h-4.75v-4.76h4.75v4.76ZM54.96,106.06h-4.75v-4.75h4.75v4.75ZM54.96,100h-4.75v-4.76h4.75v4.76ZM54.96,93.92h-4.75v-4.75h4.75v4.75ZM54.96,87.85h-4.75v-4.75h4.75v4.75ZM54.96,81.77h-4.75v-4.75h4.75v4.75ZM54.96,75.71h-4.75v-4.75h4.75v4.75ZM54.96,69.63h-4.75v-4.75h4.75v4.75ZM54.96,63.56h-4.75v-4.75h4.75v4.75ZM54.96,57.49h-4.75v-4.75h4.75v4.75ZM54.96,51.42h-4.75v-4.75h4.75v4.75ZM54.96,45.35h-4.75v-4.76h4.75v4.76ZM54.96,39.28h-4.75v-4.75h4.75v4.75ZM54.96,33.21h-4.75v-4.76h4.75v4.76ZM54.96,26.2h-4.75v-8.27h4.75v8.27ZM62.59,229.64h-4.75v-8.13h4.75v8.13ZM62.59,218.74h-4.75v-8.14h4.75v8.14ZM62.59,209.28h-4.75v-4.75h4.75v4.75ZM62.59,203.22h-4.75v-4.76h4.75v4.76ZM62.59,197.14h-4.75v-4.75h4.75v4.75ZM62.59,191.07h-4.75v-4.76h4.75v4.76ZM62.59,184.99h-4.75v-4.75h4.75v4.75ZM62.59,178.93h-4.75v-4.75h4.75v4.75ZM62.59,172.85h-4.75v-4.75h4.75v4.75ZM62.59,166.78h-4.75v-4.75h4.75v4.75ZM62.59,160.71h-4.75v-4.75h4.75v4.75ZM62.59,154.64h-4.75v-4.75h4.75v4.75ZM62.59,148.56h-4.75v-4.75h4.75v4.75ZM62.59,142.5h-4.75v-4.75h4.75v4.75ZM62.59,136.43h-4.75v-4.76h4.75v4.76ZM62.59,130.35h-4.75v-4.75h4.75v4.75ZM62.59,124.28h-4.75v-4.76h4.75v4.76ZM62.59,118.21h-4.75v-4.75h4.75v4.75ZM62.59,112.14h-4.75v-4.76h4.75v4.76ZM62.59,106.06h-4.75v-4.75h4.75v4.75ZM62.59,100h-4.75v-4.76h4.75v4.76ZM62.59,93.92h-4.75v-4.75h4.75v4.75ZM62.59,87.85h-4.75v-4.75h4.75v4.75ZM62.59,81.77h-4.75v-4.75h4.75v4.75ZM62.59,75.71h-4.75v-4.75h4.75v4.75ZM62.59,69.63h-4.75v-4.75h4.75v4.75ZM62.59,63.56h-4.75v-4.75h4.75v4.75ZM62.59,57.49h-4.75v-4.75h4.75v4.75ZM62.59,51.42h-4.75v-4.75h4.75v4.75ZM62.59,45.35h-4.75v-4.76h4.75v4.76ZM62.59,39.28h-4.75v-4.75h4.75v4.75ZM62.59,33.21h-4.75v-4.76h4.75v4.76ZM62.59,26.2h-4.75v-8.27h4.75v8.27ZM70.21,229.64h-4.75v-8.13h4.75v8.13ZM70.21,218.74h-4.75v-8.14h4.75v8.14ZM70.21,209.28h-4.75v-4.75h4.75v4.75ZM70.21,203.22h-4.75v-4.76h4.75v4.76ZM70.21,197.14h-4.75v-4.75h4.75v4.75ZM70.21,191.07h-4.75v-4.76h4.75v4.76ZM70.21,184.99h-4.75v-4.75h4.75v4.75ZM70.21,178.93h-4.75v-4.75h4.75v4.75ZM70.21,172.85h-4.75v-4.75h4.75v4.75ZM70.21,166.78h-4.75v-4.75h4.75v4.75ZM70.21,160.71h-4.75v-4.75h4.75v4.75ZM70.21,154.64h-4.75v-4.75h4.75v4.75ZM70.21,148.56h-4.75v-4.75h4.75v4.75ZM70.21,142.5h-4.75v-4.75h4.75v4.75ZM70.21,136.43h-4.75v-4.76h4.75v4.76ZM70.21,130.35h-4.75v-4.75h4.75v4.75ZM70.21,124.28h-4.75v-4.76h4.75v4.76ZM70.21,118.21h-4.75v-4.75h4.75v4.75ZM70.21,112.14h-4.75v-4.76h4.75v4.76ZM70.21,106.06h-4.75v-4.75h4.75v4.75ZM70.21,100h-4.75v-4.76h4.75v4.76ZM70.21,93.92h-4.75v-4.75h4.75v4.75ZM70.21,87.85h-4.75v-4.75h4.75v4.75ZM70.21,81.77h-4.75v-4.75h4.75v4.75ZM70.21,75.71h-4.75v-4.75h4.75v4.75ZM70.21,69.63h-4.75v-4.75h4.75v4.75ZM70.21,63.56h-4.75v-4.75h4.75v4.75ZM70.21,57.49h-4.75v-4.75h4.75v4.75ZM70.21,51.42h-4.75v-4.75h4.75v4.75ZM70.21,45.35h-4.75v-4.76h4.75v4.76ZM70.21,39.28h-4.75v-4.75h4.75v4.75ZM70.21,33.21h-4.75v-4.76h4.75v4.76ZM70.21,26.2h-4.75v-8.27h4.75v8.27ZM77.84,209.28h-4.75v-4.75h4.75v4.75ZM77.84,203.22h-4.75v-4.76h4.75v4.76ZM77.84,197.14h-4.75v-4.75h4.75v4.75ZM77.84,191.07h-4.75v-4.76h4.75v4.76ZM77.84,184.99h-4.75v-4.75h4.75v4.75ZM77.84,178.93h-4.75v-4.75h4.75v4.75ZM77.84,172.85h-4.75v-4.75h4.75v4.75ZM77.84,166.78h-4.75v-4.75h4.75v4.75ZM77.84,160.71h-4.75v-4.75h4.75v4.75ZM77.84,154.64h-4.75v-4.75h4.75v4.75ZM77.84,148.56h-4.75v-4.75h4.75v4.75ZM77.84,142.5h-4.75v-4.75h4.75v4.75ZM77.84,136.43h-4.75v-4.76h4.75v4.76ZM77.84,130.35h-4.75v-4.75h4.75v4.75ZM77.84,124.28h-4.75v-4.76h4.75v4.76ZM77.84,118.21h-4.75v-4.75h4.75v4.75ZM77.84,112.14h-4.75v-4.76h4.75v4.76ZM77.84,106.06h-4.75v-4.75h4.75v4.75ZM77.84,100h-4.75v-4.76h4.75v4.76ZM77.84,93.92h-4.75v-4.75h4.75v4.75ZM77.84,87.85h-4.75v-4.75h4.75v4.75ZM77.84,81.77h-4.75v-4.75h4.75v4.75ZM77.84,75.71h-4.75v-4.75h4.75v4.75ZM77.84,69.63h-4.75v-4.75h4.75v4.75ZM77.84,63.56h-4.75v-4.75h4.75v4.75ZM77.84,57.49h-4.75v-4.75h4.75v4.75ZM77.84,51.42h-4.75v-4.75h4.75v4.75ZM77.84,45.35h-4.75v-4.76h4.75v4.76ZM77.84,39.28h-4.75v-4.75h4.75v4.75ZM77.84,33.21h-4.75v-4.76h4.75v4.76ZM77.84,26.2h-4.75v-8.27h4.75v8.27ZM85.46,209.28h-4.75v-4.75h4.75v4.75ZM85.46,203.22h-4.75v-4.76h4.75v4.76ZM85.46,197.14h-4.75v-4.75h4.75v4.75ZM85.46,191.07h-4.75v-4.76h4.75v4.76ZM85.46,184.99h-4.75v-4.75h4.75v4.75ZM85.46,178.93h-4.75v-4.75h4.75v4.75ZM85.46,172.85h-4.75v-4.75h4.75v4.75ZM85.46,166.78h-4.75v-4.75h4.75v4.75ZM85.46,160.71h-4.75v-4.75h4.75v4.75ZM85.46,154.64h-4.75v-4.75h4.75v4.75ZM85.46,148.56h-4.75v-4.75h4.75v4.75ZM85.46,142.5h-4.75v-4.75h4.75v4.75ZM85.46,136.43h-4.75v-4.76h4.75v4.76ZM85.46,130.35h-4.75v-4.75h4.75v4.75ZM85.46,124.28h-4.75v-4.76h4.75v4.76ZM85.46,118.21h-4.75v-4.75h4.75v4.75ZM85.46,112.14h-4.75v-4.76h4.75v4.76ZM85.46,106.06h-4.75v-4.75h4.75v4.75ZM85.46,100h-4.75v-4.76h4.75v4.76ZM85.46,93.92h-4.75v-4.75h4.75v4.75ZM85.46,87.85h-4.75v-4.75h4.75v4.75ZM85.46,81.77h-4.75v-4.75h4.75v4.75ZM85.46,75.71h-4.75v-4.75h4.75v4.75ZM85.46,69.63h-4.75v-4.75h4.75v4.75ZM85.46,63.56h-4.75v-4.75h4.75v4.75ZM85.46,57.49h-4.75v-4.75h4.75v4.75ZM85.46,51.42h-4.75v-4.75h4.75v4.75ZM85.46,45.35h-4.75v-4.76h4.75v4.76ZM85.46,39.28h-4.75v-4.75h4.75v4.75ZM85.46,33.21h-4.75v-4.76h4.75v4.76ZM85.46,26.2h-4.75v-8.27h4.75v8.27ZM116.49,197.67h-5.14v-3.83h5.14v3.83ZM116.49,191.7h-5.14v-3.83h5.14v3.83ZM116.49,185.73h-5.14v-3.83h5.14v3.83ZM116.49,179.76h-5.14v-3.83h5.14v3.83ZM116.49,173.78h-5.14v-3.83h5.14v3.83ZM116.49,167.8h-5.14v-3.83h5.14v3.83ZM116.49,161.84h-5.14v-3.83h5.14v3.83ZM116.49,155.86h-5.14v-3.83h5.14v3.83ZM116.49,149.89h-5.14v-3.83h5.14v3.83ZM116.49,143.92h-5.14v-3.83h5.14v3.83ZM116.49,137.95h-5.14v-3.84h5.14v3.84ZM116.49,131.97h-5.14v-3.83h5.14v3.83ZM116.49,126h-5.14v-3.83h5.14v3.83ZM116.49,120.03h-5.14v-3.83h5.14v3.83ZM116.49,114.05h-5.14v-3.83h5.14v3.83ZM116.49,108.09h-5.14v-3.83h5.14v3.83ZM116.49,103h-5.14v-7.76h5.14v7.76ZM123.74,197.67h-5.15v-3.83h5.15v3.83ZM123.74,191.7h-5.15v-3.83h5.15v3.83ZM123.74,185.73h-5.15v-3.83h5.15v3.83ZM123.74,179.76h-5.15v-3.83h5.15v3.83ZM123.74,173.78h-5.15v-3.83h5.15v3.83ZM123.74,167.8h-5.15v-3.83h5.15v3.83ZM123.74,161.84h-5.15v-3.83h5.15v3.83ZM123.74,155.86h-5.15v-3.83h5.15v3.83ZM123.74,149.89h-5.15v-3.83h5.15v3.83ZM123.74,143.92h-5.15v-3.83h5.15v3.83ZM123.74,137.95h-5.15v-3.84h5.15v3.84ZM123.74,131.97h-5.15v-3.83h5.15v3.83ZM123.74,126h-5.15v-3.83h5.15v3.83ZM123.74,120.03h-5.15v-3.83h5.15v3.83ZM123.74,114.05h-5.15v-3.83h5.15v3.83ZM123.74,108.09h-5.15v-3.83h5.15v3.83ZM123.74,103h-5.15v-7.76h5.15v7.76ZM130.98,221.57h-5.14v-3.83h5.14v3.83ZM130.98,215.59h-5.14v-3.83h5.14v3.83ZM130.98,209.62h-5.14v-3.83h5.14v3.83ZM130.98,203.65h-5.14v-3.83h5.14v3.83ZM130.98,197.67h-5.14v-3.83h5.14v3.83ZM130.98,191.7h-5.14v-3.83h5.14v3.83ZM130.98,185.73h-5.14v-3.83h5.14v3.83ZM130.98,179.76h-5.14v-3.83h5.14v3.83ZM130.98,173.78h-5.14v-3.83h5.14v3.83ZM130.98,167.8h-5.14v-3.83h5.14v3.83ZM130.98,161.84h-5.14v-3.83h5.14v3.83ZM130.98,155.86h-5.14v-3.83h5.14v3.83ZM130.98,149.89h-5.14v-3.83h5.14v3.83ZM130.98,143.92h-5.14v-3.83h5.14v3.83ZM130.98,137.95h-5.14v-3.84h5.14v3.84ZM130.98,131.97h-5.14v-3.83h5.14v3.83ZM130.98,126h-5.14v-3.83h5.14v3.83ZM130.98,120.03h-5.14v-3.83h5.14v3.83ZM130.98,114.05h-5.14v-3.83h5.14v3.83ZM130.98,108.09h-5.14v-3.83h5.14v3.83ZM130.98,103h-5.14v-7.76h5.14v7.76ZM138.23,221.57h-5.15v-3.83h5.15v3.83ZM138.23,215.59h-5.15v-3.83h5.15v3.83ZM138.23,209.62h-5.15v-3.83h5.15v3.83ZM138.23,203.65h-5.15v-3.83h5.15v3.83ZM138.23,197.67h-5.15v-3.83h5.15v3.83ZM138.23,191.7h-5.15v-3.83h5.15v3.83ZM138.23,185.73h-5.15v-3.83h5.15v3.83ZM138.23,179.76h-5.15v-3.83h5.15v3.83ZM138.23,173.78h-5.15v-3.83h5.15v3.83ZM138.23,167.8h-5.15v-3.83h5.15v3.83ZM138.23,161.84h-5.15v-3.83h5.15v3.83ZM138.23,155.86h-5.15v-3.83h5.15v3.83ZM138.23,149.89h-5.15v-3.83h5.15v3.83ZM138.23,143.92h-5.15v-3.83h5.15v3.83ZM138.23,137.95h-5.15v-3.84h5.15v3.84ZM138.23,131.97h-5.15v-3.83h5.15v3.83ZM138.23,126h-5.15v-3.83h5.15v3.83ZM138.23,120.03h-5.15v-3.83h5.15v3.83ZM138.23,114.05h-5.15v-3.83h5.15v3.83ZM138.23,108.09h-5.15v-3.83h5.15v3.83ZM138.23,103h-5.15v-7.76h5.15v7.76ZM145.47,221.57h-5.14v-3.83h5.14v3.83ZM145.47,215.59h-5.14v-3.83h5.14v3.83ZM145.47,209.62h-5.14v-3.83h5.14v3.83ZM145.47,203.65h-5.14v-3.83h5.14v3.83ZM145.47,197.67h-5.14v-3.83h5.14v3.83ZM145.47,191.7h-5.14v-3.83h5.14v3.83ZM145.47,185.73h-5.14v-3.83h5.14v3.83ZM145.47,179.76h-5.14v-3.83h5.14v3.83ZM145.47,173.78h-5.14v-3.83h5.14v3.83ZM145.47,167.8h-5.14v-3.83h5.14v3.83ZM145.47,161.84h-5.14v-3.83h5.14v3.83ZM145.47,155.86h-5.14v-3.83h5.14v3.83ZM145.47,149.89h-5.14v-3.83h5.14v3.83ZM145.47,143.92h-5.14v-3.83h5.14v3.83ZM145.47,137.95h-5.14v-3.84h5.14v3.84ZM145.47,131.97h-5.14v-3.83h5.14v3.83ZM145.47,126h-5.14v-3.83h5.14v3.83ZM145.47,120.03h-5.14v-3.83h5.14v3.83ZM145.47,114.05h-5.14v-3.83h5.14v3.83ZM145.47,108.09h-5.14v-3.83h5.14v3.83ZM145.47,103h-5.14v-7.76h5.14v7.76ZM152.72,209.62h-5.15v-3.83h5.15v3.83ZM152.72,203.65h-5.15v-3.83h5.15v3.83ZM152.72,197.67h-5.15v-3.83h5.15v3.83ZM152.72,191.7h-5.15v-3.83h5.15v3.83ZM152.72,185.73h-5.15v-3.83h5.15v3.83ZM152.72,179.76h-5.15v-3.83h5.15v3.83ZM152.72,173.78h-5.15v-3.83h5.15v3.83ZM152.72,167.8h-5.15v-3.83h5.15v3.83ZM152.72,161.84h-5.15v-3.83h5.15v3.83ZM152.72,155.86h-5.15v-3.83h5.15v3.83ZM152.72,149.89h-5.15v-3.83h5.15v3.83ZM152.72,143.92h-5.15v-3.83h5.15v3.83ZM152.72,137.95h-5.15v-3.84h5.15v3.84ZM152.72,131.97h-5.15v-3.83h5.15v3.83ZM152.72,126h-5.15v-3.83h5.15v3.83ZM152.72,120.03h-5.15v-3.83h5.15v3.83ZM152.72,114.05h-5.15v-3.83h5.15v3.83ZM152.72,108.09h-5.15v-3.83h5.15v3.83ZM152.72,103h-5.15v-7.76h5.15v7.76ZM159.96,209.62h-5.14v-3.83h5.14v3.83ZM159.96,203.65h-5.14v-3.83h5.14v3.83ZM159.96,197.67h-5.14v-3.83h5.14v3.83ZM159.96,191.7h-5.14v-3.83h5.14v3.83ZM159.96,185.73h-5.14v-3.83h5.14v3.83ZM159.96,179.76h-5.14v-3.83h5.14v3.83ZM159.96,173.78h-5.14v-3.83h5.14v3.83ZM159.96,167.8h-5.14v-3.83h5.14v3.83ZM159.96,161.84h-5.14v-3.83h5.14v3.83ZM159.96,155.86h-5.14v-3.83h5.14v3.83ZM159.96,149.89h-5.14v-3.83h5.14v3.83ZM159.96,143.92h-5.14v-3.83h5.14v3.83ZM159.96,137.95h-5.14v-3.84h5.14v3.84ZM159.96,131.97h-5.14v-3.83h5.14v3.83ZM159.96,126h-5.14v-3.83h5.14v3.83ZM159.96,120.03h-5.14v-3.83h5.14v3.83ZM159.96,114.05h-5.14v-3.83h5.14v3.83ZM159.96,108.09h-5.14v-3.83h5.14v3.83ZM159.96,103h-5.14v-7.76h5.14v7.76ZM182.43,75.32h4.99v8.09h-4.99v-8.09ZM182.43,85.61h4.99v3.83h-4.99v-3.83ZM182.43,91.65h4.99v3.83h-4.99v-3.83ZM182.43,97.68h4.99v3.83h-4.99v-3.83ZM182.43,103.72h4.99v3.83h-4.99v-3.83ZM182.43,109.76h4.99v3.83h-4.99v-3.83ZM182.43,115.79h4.99v3.83h-4.99v-3.83ZM182.43,121.83h4.99v3.83h-4.99v-3.83ZM182.43,127.87h4.99v3.83h-4.99v-3.83ZM182.43,133.91h4.99v3.83h-4.99v-3.83ZM171.63,143.78h-5v-3.83h5v3.83ZM171.63,137.74h-5v-3.83h5v3.83ZM171.63,131.7h-5v-3.83h5v3.83ZM171.63,125.67h-5v-3.83h5v3.83ZM171.63,119.63h-5v-3.83h5v3.83ZM171.63,113.59h-5v-3.83h5v3.83ZM171.63,107.55h-5v-3.83h5v3.83ZM171.63,101.52h-5v-3.83h5v3.83ZM171.63,95.48h-5v-3.83h5v3.83ZM171.63,89.44h-5v-3.83h5v3.83ZM171.63,83.41h-5v-8.09h5v8.09ZM179.53,143.78h-5v-3.83h5v3.83ZM179.53,137.74h-5v-3.83h5v3.83ZM179.53,131.7h-5v-3.83h5v3.83ZM179.53,125.67h-5v-3.83h5v3.83ZM179.53,119.63h-5v-3.83h5v3.83ZM179.53,113.59h-5v-3.83h5v3.83ZM179.53,107.55h-5v-3.83h5v3.83ZM179.53,101.52h-5v-3.83h5v3.83ZM179.53,95.48h-5v-3.83h5v3.83ZM179.53,89.44h-5v-3.83h5v3.83ZM179.53,83.41h-5v-8.09h5v8.09ZM182.43,139.94h4.99v3.83h-4.99v-3.83ZM188.43,222.62h-1.97v-3.57h1.97v3.57ZM188.43,216.1h-1.97v-3.57h1.97v3.57ZM188.43,209.58h-1.97v-3.57h1.97v3.57ZM188.43,203.06h-1.97v-3.57h1.97v3.57ZM188.43,196.53h-1.97v-3.57h1.97v3.57ZM188.43,190.01h-1.97v-3.57h1.97v3.57ZM188.43,183.49h-1.97v-3.57h1.97v3.57ZM188.43,176.97h-1.97v-3.57h1.97v3.57ZM188.43,170.45h-1.97v-3.57h1.97v3.57ZM188.43,163.93h-1.97v-3.57h1.97v3.57ZM188.43,157.41h-1.97v-3.57h1.97v3.57ZM191.79,222.62h-1.97v-3.57h1.97v3.57ZM191.79,216.1h-1.97v-3.57h1.97v3.57ZM191.79,209.58h-1.97v-3.57h1.97v3.57ZM191.79,203.06h-1.97v-3.57h1.97v3.57ZM191.79,196.53h-1.97v-3.57h1.97v3.57ZM191.79,190.01h-1.97v-3.57h1.97v3.57ZM191.79,183.49h-1.97v-3.57h1.97v3.57ZM191.79,176.97h-1.97v-3.57h1.97v3.57ZM191.79,170.45h-1.97v-3.57h1.97v3.57ZM191.79,163.93h-1.97v-3.57h1.97v3.57ZM191.79,157.41h-1.97v-3.57h1.97v3.57ZM195.16,222.62h-1.97v-3.57h1.97v3.57ZM195.16,216.1h-1.97v-3.57h1.97v3.57ZM195.16,209.58h-1.97v-3.57h1.97v3.57ZM195.16,203.06h-1.97v-3.57h1.97v3.57ZM195.16,196.53h-1.97v-3.57h1.97v3.57ZM195.16,190.01h-1.97v-3.57h1.97v3.57ZM195.16,183.49h-1.97v-3.57h1.97v3.57ZM195.16,176.97h-1.97v-3.57h1.97v3.57ZM195.16,170.45h-1.97v-3.57h1.97v3.57ZM195.16,163.93h-1.97v-3.57h1.97v3.57ZM195.16,157.41h-1.97v-3.57h1.97v3.57ZM198.53,222.62h-1.97v-3.57h1.97v3.57ZM198.53,216.1h-1.97v-3.57h1.97v3.57ZM198.53,209.58h-1.97v-3.57h1.97v3.57ZM198.53,203.06h-1.97v-3.57h1.97v3.57ZM198.53,196.53h-1.97v-3.57h1.97v3.57ZM198.53,190.01h-1.97v-3.57h1.97v3.57ZM198.53,183.49h-1.97v-3.57h1.97v3.57ZM198.53,176.97h-1.97v-3.57h1.97v3.57ZM198.53,170.45h-1.97v-3.57h1.97v3.57ZM198.53,163.93h-1.97v-3.57h1.97v3.57ZM198.53,157.41h-1.97v-3.57h1.97v3.57ZM201.89,222.62h-1.97v-3.57h1.97v3.57ZM201.89,216.1h-1.97v-3.57h1.97v3.57ZM201.89,209.58h-1.97v-3.57h1.97v3.57ZM201.89,203.06h-1.97v-3.57h1.97v3.57ZM201.89,196.53h-1.97v-3.57h1.97v3.57ZM201.89,190.01h-1.97v-3.57h1.97v3.57ZM201.89,183.49h-1.97v-3.57h1.97v3.57ZM201.89,176.97h-1.97v-3.57h1.97v3.57ZM201.89,170.45h-1.97v-3.57h1.97v3.57ZM201.89,163.93h-1.97v-3.57h1.97v3.57ZM201.89,157.41h-1.97v-3.57h1.97v3.57ZM205.26,222.62h-1.97v-3.57h1.97v3.57ZM205.26,216.1h-1.97v-3.57h1.97v3.57ZM205.26,209.58h-1.97v-3.57h1.97v3.57ZM205.26,203.06h-1.97v-3.57h1.97v3.57ZM205.26,196.53h-1.97v-3.57h1.97v3.57ZM205.26,190.01h-1.97v-3.57h1.97v3.57ZM205.26,183.49h-1.97v-3.57h1.97v3.57ZM205.26,176.97h-1.97v-3.57h1.97v3.57ZM205.26,170.45h-1.97v-3.57h1.97v3.57ZM205.26,163.93h-1.97v-3.57h1.97v3.57ZM205.26,157.41h-1.97v-3.57h1.97v3.57ZM256.3,194.82h-2.45v-2.08h2.45v2.08ZM256.3,189.8h-2.45v-2.08h2.45v2.08ZM256.3,184.78h-2.45v-2.08h2.45v2.08ZM256.3,179.76h-2.45v-2.08h2.45v2.08ZM256.3,174.73h-2.45v-2.08h2.45v2.08ZM256.3,169.71h-2.45v-2.08h2.45v2.08ZM256.3,164.69h-2.45v-2.08h2.45v2.08ZM256.3,159.67h-2.45v-2.08h2.45v2.08ZM256.3,154.65h-2.45v-2.08h2.45v2.08ZM256.3,149.63h-2.45v-2.08h2.45v2.08ZM256.3,144.61h-2.45v-2.08h2.45v2.08ZM256.3,139.58h-2.45v-2.08h2.45v2.08ZM256.3,134.56h-2.45v-2.08h2.45v2.08ZM256.3,129.54h-2.45v-2.08h2.45v2.08ZM256.3,124.52h-2.45v-2.08h2.45v2.08ZM256.3,119.5h-2.45v-2.08h2.45v2.08ZM256.3,114.48h-2.45v-2.08h2.45v2.08ZM256.3,109.45h-2.45v-2.08h2.45v2.08ZM256.3,104.43h-2.45v-2.08h2.45v2.08ZM256.3,99.41h-2.45v-2.08h2.45v2.08ZM256.3,94.39h-2.45v-2.08h2.45v2.08ZM279.39,183.57h.08v1.06h-.08v-1.06ZM268.29,194.82h-2.45v-2.08h2.45v2.08ZM268.29,189.8h-2.45v-2.08h2.45v2.08ZM268.29,184.78h-2.45v-2.08h2.45v2.08ZM268.29,179.76h-2.45v-2.08h2.45v2.08ZM268.29,174.73h-2.45v-2.08h2.45v2.08ZM268.29,169.71h-2.45v-2.08h2.45v2.08ZM268.29,164.69h-2.45v-2.08h2.45v2.08ZM268.29,159.67h-2.45v-2.08h2.45v2.08ZM268.29,154.65h-2.45v-2.08h2.45v2.08ZM268.29,149.63h-2.45v-2.08h2.45v2.08ZM268.29,144.61h-2.45v-2.08h2.45v2.08ZM268.29,139.58h-2.45v-2.08h2.45v2.08ZM268.29,134.56h-2.45v-2.08h2.45v2.08ZM268.29,129.54h-2.45v-2.08h2.45v2.08ZM268.29,124.52h-2.45v-2.08h2.45v2.08ZM268.29,119.5h-2.45v-2.08h2.45v2.08ZM268.29,114.48h-2.45v-2.08h2.45v2.08ZM268.29,109.45h-2.45v-2.08h2.45v2.08ZM268.29,104.43h-2.45v-2.08h2.45v2.08ZM268.29,99.41h-2.45v-2.08h2.45v2.08ZM268.29,94.39h-2.45v-2.08h2.45v2.08ZM280.62,227.86h-1.22v-3.71h1.22v3.71ZM280.62,221.11h-1.22v-3.71h1.22v3.71ZM280.62,214.34h-1.22v-3.71h1.22v3.71ZM280.62,207.58h-1.22v-3.71h1.22v3.71ZM280.62,200.81h-1.22v-3.71h1.22v3.71ZM280.62,194.05h-1.22v-3.71h1.22v3.71ZM280.62,187.29h-1.22v-1.95h.08v1.11h.71v-1.11h.43v1.95ZM280.62,184.63h-.43v-1.06h.43v1.06ZM283.46,227.86h-1.22v-3.71h1.22v3.71ZM283.46,221.11h-1.22v-3.71h1.22v3.71ZM283.46,214.34h-1.22v-3.71h1.22v3.71ZM283.46,207.58h-1.22v-3.71h1.22v3.71ZM283.46,200.81h-1.22v-3.71h1.22v3.71ZM283.46,194.05h-1.22v-3.71h1.22v3.71ZM283.46,187.29h-1.22v-.84h.59v-1.11h.63v1.95ZM283.46,184.63h-.63v-1.06h.63v1.06ZM286.3,227.86h-1.22v-3.71h1.22v3.71ZM286.3,221.11h-1.22v-3.71h1.22v3.71ZM286.3,214.34h-1.22v-3.71h1.22v3.71ZM286.3,207.58h-1.22v-3.71h1.22v3.71ZM286.3,200.81h-1.22v-3.71h1.22v3.71ZM286.3,194.05h-1.22v-3.71h1.22v3.71ZM286.3,187.29h-1.22v-.84h.4v-1.11h.82v1.95ZM286.3,184.63h-.82v-1.06h.82v1.06ZM289.15,227.86h-1.22v-3.71h1.22v3.71ZM289.15,221.11h-1.22v-3.71h1.22v3.71ZM289.15,214.34h-1.22v-3.71h1.22v3.71ZM289.15,207.58h-1.22v-3.71h1.22v3.71ZM289.15,200.81h-1.22v-3.71h1.22v3.71ZM289.15,194.05h-1.22v-3.71h1.22v3.71ZM289.15,187.29h-1.22v-.84h.2v-1.11h1.02v1.95ZM289.15,184.63h-1.02v-1.06h1.02v1.06ZM291.99,227.86h-1.21v-3.71h1.21v3.71ZM291.99,221.11h-1.21v-3.71h1.21v3.71ZM291.99,214.34h-1.21v-3.71h1.21v3.71ZM291.99,207.58h-1.21v-3.71h1.21v3.71ZM291.99,200.81h-1.21v-3.71h1.21v3.71ZM291.99,194.05h-1.21v-3.71h1.21v3.71ZM291.99,187.29h-1.21v-1.95h1.21v1.95ZM291.99,184.63h-1.21v-1.06h1.21v1.06ZM402.18,227.78h-14.37v-2.9h14.37v2.9ZM402.18,220.9h-14.37v-2.9h14.37v2.9ZM402.18,214h-14.37v-2.89h14.37v2.89ZM402.18,207.11h-14.37v-2.9h14.37v2.9ZM402.18,200.22h-14.37v-2.9h14.37v2.9ZM402.18,193.33h-14.37v-2.9h14.37v2.9ZM402.18,186.45h-14.37v-2.9h14.37v2.9ZM402.18,179.56h-14.37v-2.9h14.37v2.9ZM402.18,172.67h-14.37v-2.9h14.37v2.9ZM402.18,165.78h-14.37v-2.9h14.37v2.9ZM402.18,158.89h-14.37v-2.9h14.37v2.9ZM402.18,152.01h-14.37v-2.9h14.37v2.9ZM402.18,145.12h-14.37v-2.9h14.37v2.9ZM402.18,138.22h-14.37v-2.9h14.37v2.9ZM402.18,131.33h-14.37v-2.9h14.37v2.9ZM402.18,124.44h-14.37v-2.9h14.37v2.9ZM420.18,227.78h-14.38v-2.9h14.38v2.9ZM420.18,220.9h-14.38v-2.9h14.38v2.9ZM420.18,214h-14.38v-2.89h14.38v2.89ZM420.18,207.11h-14.38v-2.9h14.38v2.9ZM420.18,200.22h-14.38v-2.9h14.38v2.9ZM420.18,193.33h-14.38v-2.9h14.38v2.9ZM420.18,186.45h-14.38v-2.9h14.38v2.9ZM420.18,179.56h-14.38v-2.9h14.38v2.9ZM420.18,172.67h-14.38v-2.9h14.38v2.9ZM420.18,165.78h-14.38v-2.9h14.38v2.9ZM420.18,158.89h-14.38v-2.9h14.38v2.9ZM420.18,152.01h-14.38v-2.9h14.38v2.9ZM420.18,145.12h-14.38v-2.9h14.38v2.9ZM420.18,138.22h-14.38v-2.9h14.38v2.9ZM420.18,131.33h-14.38v-2.9h14.38v2.9ZM420.18,124.44h-14.38v-2.9h14.38v2.9ZM438.17,207.11h-14.37v-2.9h14.37v2.9ZM438.17,200.22h-14.37v-2.9h14.37v2.9ZM438.17,193.33h-14.37v-2.9h14.37v2.9ZM438.17,186.45h-14.37v-2.9h14.37v2.9ZM438.17,179.56h-14.37v-2.9h14.37v2.9ZM438.17,172.67h-14.37v-2.9h14.37v2.9ZM438.17,165.78h-14.37v-2.9h14.37v2.9ZM438.17,158.89h-14.37v-2.9h14.37v2.9ZM438.17,152.01h-14.37v-2.9h14.37v2.9ZM438.17,145.12h-14.37v-2.9h14.37v2.9ZM438.17,138.22h-14.37v-2.9h14.37v2.9ZM438.17,131.33h-14.37v-2.9h14.37v2.9ZM438.17,124.44h-14.37v-2.9h14.37v2.9ZM456.17,207.11h-14.37v-2.9h14.37v2.9ZM456.17,200.22h-14.37v-2.9h14.37v2.9ZM456.17,193.33h-14.37v-2.9h14.37v2.9ZM456.17,186.45h-14.37v-2.9h14.37v2.9ZM456.17,179.56h-14.37v-2.9h14.37v2.9ZM456.17,172.67h-14.37v-2.9h14.37v2.9ZM456.17,165.78h-14.37v-2.9h14.37v2.9ZM456.17,158.89h-14.37v-2.9h14.37v2.9ZM456.17,152.01h-14.37v-2.9h14.37v2.9ZM456.17,145.12h-14.37v-2.9h14.37v2.9ZM456.17,138.22h-14.37v-2.9h14.37v2.9ZM456.17,131.33h-14.37v-2.9h14.37v2.9ZM456.17,124.44h-14.37v-2.9h14.37v2.9ZM488.26,185.34h-6.9v-2.36h6.9v2.36ZM488.26,177.41h-6.9v-2.35h6.9v2.35ZM488.26,169.48h-6.9v-2.36h6.9v2.36ZM488.26,161.55h-6.9v-2.36h6.9v2.36ZM488.26,153.61h-6.9v-2.36h6.9v2.36ZM488.26,145.68h-6.9v-2.36h6.9v2.36ZM488.26,137.74h-6.9v-2.36h6.9v2.36ZM488.26,129.81h-6.9v-2.36h6.9v2.36ZM488.26,121.87h-6.9v-2.36h6.9v2.36ZM488.26,113.94h-6.9v-2.36h6.9v2.36ZM488.26,106h-6.9v-2.36h6.9v2.36ZM488.26,98.07h-6.9v-2.36h6.9v2.36ZM488.26,90.13h-6.9v-2.36h6.9v2.36ZM488.26,82.21h-6.9v-2.36h6.9v2.36ZM488.26,74.27h-6.9v-2.35h6.9v2.35ZM488.26,66.34h-6.9v-2.36h6.9v2.36ZM488.26,58.4h-6.9v-2.35h6.9v2.35ZM488.26,50.47h-6.9v-2.36h6.9v2.36ZM496.98,185.34h-6.9v-2.36h6.9v2.36ZM496.98,177.41h-6.9v-2.35h6.9v2.35ZM496.98,169.48h-6.9v-2.36h6.9v2.36ZM496.98,161.55h-6.9v-2.36h6.9v2.36ZM496.98,153.61h-6.9v-2.36h6.9v2.36ZM496.98,145.68h-6.9v-2.36h6.9v2.36ZM496.98,137.74h-6.9v-2.36h6.9v2.36ZM496.98,129.81h-6.9v-2.36h6.9v2.36ZM496.98,121.87h-6.9v-2.36h6.9v2.36ZM496.98,113.94h-6.9v-2.36h6.9v2.36ZM496.98,106h-6.9v-2.36h6.9v2.36ZM496.98,98.07h-6.9v-2.36h6.9v2.36ZM496.98,90.13h-6.9v-2.36h6.9v2.36ZM496.98,82.21h-6.9v-2.36h6.9v2.36ZM496.98,74.27h-6.9v-2.35h6.9v2.35ZM496.98,66.34h-6.9v-2.36h6.9v2.36ZM496.98,58.4h-6.9v-2.35h6.9v2.35ZM496.98,50.47h-6.9v-2.36h6.9v2.36ZM505.69,185.34h-6.9v-2.36h6.9v2.36ZM505.69,177.41h-6.9v-2.35h6.9v2.35ZM505.69,169.48h-6.9v-2.36h6.9v2.36ZM505.69,161.55h-6.9v-2.36h6.9v2.36ZM505.69,153.61h-6.9v-2.36h6.9v2.36ZM505.69,145.68h-6.9v-2.36h6.9v2.36ZM505.69,137.74h-6.9v-2.36h6.9v2.36ZM505.69,129.81h-6.9v-2.36h6.9v2.36ZM505.69,121.87h-6.9v-2.36h6.9v2.36ZM505.69,113.94h-6.9v-2.36h6.9v2.36ZM505.69,106h-6.9v-2.36h6.9v2.36ZM505.69,98.07h-6.9v-2.36h6.9v2.36ZM505.69,90.13h-6.9v-2.36h6.9v2.36ZM505.69,82.21h-6.9v-2.36h6.9v2.36ZM505.69,74.27h-6.9v-2.35h6.9v2.35ZM505.69,66.34h-6.9v-2.36h6.9v2.36ZM505.69,58.4h-6.9v-2.35h6.9v2.35ZM505.69,50.47h-6.9v-2.36h6.9v2.36ZM514.41,185.34h-6.9v-2.36h6.9v2.36ZM514.41,177.41h-6.9v-2.35h6.9v2.35ZM514.41,169.48h-6.9v-2.36h6.9v2.36ZM514.41,161.55h-6.9v-2.36h6.9v2.36ZM514.41,153.61h-6.9v-2.36h6.9v2.36ZM514.41,145.68h-6.9v-2.36h6.9v2.36ZM514.41,137.74h-6.9v-2.36h6.9v2.36ZM514.41,129.81h-6.9v-2.36h6.9v2.36ZM514.41,121.87h-6.9v-2.36h6.9v2.36ZM514.41,113.94h-6.9v-2.36h6.9v2.36ZM514.41,106h-6.9v-2.36h6.9v2.36ZM514.41,98.07h-6.9v-2.36h6.9v2.36ZM514.41,90.13h-6.9v-2.36h6.9v2.36ZM514.41,82.21h-6.9v-2.36h6.9v2.36ZM514.41,74.27h-6.9v-2.35h6.9v2.35ZM514.41,66.34h-6.9v-2.36h6.9v2.36ZM514.41,58.4h-6.9v-2.35h6.9v2.35ZM514.41,50.47h-6.9v-2.36h6.9v2.36ZM533.32,193.27h-14.08v-3.94h14.08v3.94ZM533.32,185.34h-14.08v-3.94h14.08v3.94ZM533.32,177.41h-14.08v-3.94h14.08v3.94ZM533.32,169.48h-14.08v-3.94h14.08v3.94ZM533.32,161.55h-14.08v-3.95h14.08v3.95ZM533.32,153.61h-14.08v-3.94h14.08v3.94ZM533.32,145.68h-14.08v-3.95h14.08v3.95ZM533.32,137.74h-14.08v-3.94h14.08v3.94ZM533.32,129.81h-14.08v-3.95h14.08v3.95ZM533.32,121.87h-14.08v-3.94h14.08v3.94ZM533.32,113.94h-14.08v-3.95h14.08v3.95ZM533.32,106h-14.08v-3.94h14.08v3.94ZM533.32,98.07h-14.08v-3.95h14.08v3.95ZM533.32,90.13h-14.08v-3.94h14.08v3.94ZM533.32,82.21h-14.08v-3.94h14.08v3.94ZM533.32,74.27h-14.08v-3.94h14.08v3.94ZM533.32,66.34h-14.08v-3.94h14.08v3.94ZM533.32,58.4h-14.08v-3.94h14.08v3.94ZM533.32,50.47h-14.08v-3.94h14.08v3.94ZM548.59,193.27h-14.08v-3.94h14.08v3.94ZM548.59,185.34h-14.08v-3.94h14.08v3.94ZM548.59,177.41h-14.08v-3.94h14.08v3.94ZM548.59,169.48h-14.08v-3.94h14.08v3.94ZM548.59,161.55h-14.08v-3.95h14.08v3.95ZM548.59,153.61h-14.08v-3.94h14.08v3.94ZM548.59,145.68h-14.08v-3.95h14.08v3.95ZM548.59,137.74h-14.08v-3.94h14.08v3.94ZM548.59,129.81h-14.08v-3.95h14.08v3.95ZM548.59,121.87h-14.08v-3.94h14.08v3.94ZM548.59,113.94h-14.08v-3.95h14.08v3.95ZM548.59,106h-14.08v-3.94h14.08v3.94ZM548.59,98.07h-14.08v-3.95h14.08v3.95ZM548.59,90.13h-14.08v-3.94h14.08v3.94ZM548.59,82.21h-14.08v-3.94h14.08v3.94ZM548.59,74.27h-14.08v-3.94h14.08v3.94ZM548.59,66.34h-14.08v-3.94h14.08v3.94ZM548.59,58.4h-14.08v-3.94h14.08v3.94ZM548.59,50.47h-14.08v-3.94h14.08v3.94ZM563.85,193.27h-14.08v-3.94h14.08v3.94ZM563.85,185.34h-14.08v-3.94h14.08v3.94ZM563.85,177.41h-14.08v-3.94h14.08v3.94ZM563.85,169.48h-14.08v-3.94h14.08v3.94ZM563.85,161.55h-14.08v-3.95h14.08v3.95ZM563.85,153.61h-14.08v-3.94h14.08v3.94ZM563.85,145.68h-14.08v-3.95h14.08v3.95ZM563.85,137.74h-14.08v-3.94h14.08v3.94ZM563.85,129.81h-14.08v-3.95h14.08v3.95ZM563.85,121.87h-14.08v-3.94h14.08v3.94ZM563.85,113.94h-14.08v-3.95h14.08v3.95ZM563.85,106h-14.08v-3.94h14.08v3.94ZM563.85,98.07h-14.08v-3.95h14.08v3.95ZM563.85,90.13h-14.08v-3.94h14.08v3.94ZM563.85,82.21h-14.08v-3.94h14.08v3.94ZM563.85,74.27h-14.08v-3.94h14.08v3.94ZM563.85,66.34h-14.08v-3.94h14.08v3.94ZM563.85,58.4h-14.08v-3.94h14.08v3.94ZM563.85,50.47h-14.08v-3.94h14.08v3.94ZM622.87,113.67v3.57h-14.17v-3.57h14.17ZM622.83,111.21h-14.16v-15.13h14.16v15.13ZM622.8,89.53v3.21h-14.17v-3.21h14.17ZM608.64,86.19v-15.14h14.17v15.14h-14.17ZM608.64,61.14h14.17v2.38h-14.17v-2.38ZM608.6,65.16h14.17v3.21h-14.17v-3.21ZM595.88,61.14h10.56v2.38h-10.56v-2.38ZM579.45,61.14h14.17v2.38h-14.17v-2.38ZM579.41,65.16h14.17v3.21h-14.17v-3.21ZM593.62,71.05v15.14h-14.17v-15.14h14.17ZM579.45,89.53h14.17v3.21h-14.17v-3.21ZM579.48,96.08h14.17v15.13h-14.17v-15.13ZM593.69,127.94l-.44.86h-13.73v-15.13h14.17v14.27ZM595.84,65.16h10.56v3.21h-10.56v-3.21ZM606.44,71.05v15.14h-10.56v-15.14h10.56ZM595.88,89.53h10.56v3.21h-10.56v-3.21ZM595.91,96.08h10.57v15.13h-10.57v-15.13ZM599.25,123.68h-3.3v-10.01h10.56v3.57h-7.26v6.44ZM611.12,230.05h-8.62v-4.14h8.62v4.14ZM611.12,222.62h-8.62v-4.14h8.62v4.14ZM611.12,215.18h-8.62v-4.13h8.62v4.13ZM611.12,207.75h-8.62v-4.13h8.62v4.13ZM623.47,230.05h-8.62v-4.14h8.62v4.14ZM623.47,222.62h-8.62v-4.14h8.62v4.14ZM623.47,215.18h-8.62v-4.13h8.62v4.13ZM623.47,207.75h-8.62v-4.13h8.62v4.13ZM635.83,230.05h-8.61v-4.14h8.61v4.14ZM635.83,222.62h-8.61v-4.14h8.61v4.14ZM635.83,215.18h-8.61v-4.13h8.61v4.13ZM635.83,207.75h-8.61v-4.13h8.61v4.13ZM648.19,230.05h-8.62v-4.14h8.62v4.14ZM648.19,222.62h-8.62v-4.14h8.62v4.14ZM648.19,215.18h-8.62v-4.13h8.62v4.13ZM648.19,207.75h-8.62v-4.13h8.62v4.13ZM660.55,230.05h-8.62v-4.14h8.62v4.14ZM660.55,222.62h-8.62v-4.14h8.62v4.14ZM660.55,215.18h-8.62v-4.13h8.62v4.13ZM660.55,207.75h-8.62v-4.13h8.62v4.13ZM672.9,230.05h-8.61v-4.14h8.61v4.14ZM672.9,222.62h-8.61v-4.14h8.61v4.14ZM672.9,215.18h-8.61v-4.13h8.61v4.13ZM672.9,207.75h-8.61v-4.13h8.61v4.13ZM685.25,230.05h-8.61v-4.14h8.61v4.14ZM685.25,222.62h-8.61v-4.14h8.61v4.14ZM685.25,215.18h-8.61v-4.13h8.61v4.13ZM685.25,207.75h-8.61v-4.13h8.61v4.13ZM697.62,230.05h-8.62v-4.14h8.62v4.14ZM697.62,222.62h-8.62v-4.14h8.62v4.14ZM697.62,215.18h-8.62v-4.13h8.62v4.13ZM697.62,207.75h-8.62v-4.13h8.62v4.13ZM709.97,230.05h-8.62v-4.14h8.62v4.14ZM709.97,222.62h-8.62v-4.14h8.62v4.14ZM709.97,215.18h-8.62v-4.13h8.62v4.13ZM709.97,207.75h-8.62v-4.13h8.62v4.13ZM720.66,232.21h-2.16v-19.09h2.16v19.09ZM729.33,232.16h-2.17v-19.09h2.17v19.09ZM738,232.12h-2.17v-19.1h2.17v19.1ZM746.67,232.07h-2.17v-19.1h2.17v19.1ZM755.34,232.02h-2.17v-19.1h2.17v19.1ZM764.01,231.97h-2.17v-19.1h2.17v19.1ZM772.68,231.92h-2.17v-19.09h2.17v19.09ZM820.61,136.23v2.32h-30.6v-2.32h30.6ZM790.01,133.52v-2.32h30.6v2.32h-30.6ZM820.61,141.26v2.32h-30.6v-2.32h30.6ZM820.61,146.29v2.32h-30.6v-2.32h30.6ZM820.61,151.33v2.32h-30.6v-2.32h30.6ZM820.61,156.36v2.31h-30.6v-2.31h30.6ZM820.61,161.39v2.32h-30.6v-2.32h30.6ZM820.61,166.42v2.32h-30.6v-2.32h30.6ZM820.61,171.45v2.32h-30.6v-2.32h30.6ZM820.61,176.48v2.32h-30.6v-2.32h30.6ZM820.61,181.51v2.32h-30.6v-2.32h30.6ZM820.61,123.46h-39.27v-2.32h39.27v2.32ZM805.13,49.23h7.74v2.4h-7.74v-2.4ZM795.9,49.23h7.74v2.4h-7.74v-2.4ZM786.67,49.23h7.74v2.4h-7.74v-2.4ZM778.93,54.67h41.68v2.32h-41.68v-2.32ZM778.93,60.76h41.68v2.32h-41.68v-2.32ZM778.93,65.79h41.68v2.32h-41.68v-2.32ZM778.93,70.82h41.68v2.32h-41.68v-2.32ZM778.93,75.86h41.68v2.32h-41.68v-2.32ZM778.93,80.89h41.68v2.32h-41.68v-2.32ZM778.93,85.92h41.68v2.32h-41.68v-2.32ZM778.93,90.95h41.68v2.32h-41.68v-2.32ZM778.93,95.98h41.68v2.32h-41.68v-2.32ZM778.93,101.01h41.68v2.32h-41.68v-2.32ZM778.93,106.04h41.68v2.32h-41.68v-2.32ZM778.93,111.08h41.68v2.32h-41.68v-2.32ZM820.61,116.11v2.32h-41.68v-2.32h41.68ZM781.34,231.87h-2.16v-19.09h2.16v19.09ZM781.34,126.17h39.27v2.32h-30.6v-1.31h-8.67v-1.01ZM790.01,231.83h-2.16v-19.1h2.16v19.1ZM790.01,186.55h30.6v2.32h-30.6v-2.32ZM798.68,231.78h-2.16v-19.1h2.16v19.1ZM807.35,231.73h-2.16v-19.1h2.16v19.1ZM816.02,231.68h-2.16v-19.1h2.16v19.1ZM824.69,231.63h-2.16v-19.09h2.16v19.09ZM905.23,174.02h-67.11v-3.13h67.11v3.13ZM905.23,167.87h-67.11v-3.13h67.11v3.13ZM905.23,161.72h-67.11v-3.13h67.11v3.13ZM905.23,155.56h-67.11v-3.13h67.11v3.13ZM905.23,149.41h-67.11v-3.13h67.11v3.13ZM905.23,143.26h-67.11v-3.13h67.11v3.13ZM905.23,137.1h-67.11v-3.13h67.11v3.13ZM905.23,130.95h-67.11v-3.13h67.11v3.13ZM905.23,124.79h-67.11v-3.13h67.11v3.13ZM905.23,118.64h-67.11v-3.13h67.11v3.13ZM905.23,112.49h-67.11v-3.13h67.11v3.13ZM905.23,106.33h-67.11v-3.13h67.11v3.13ZM905.23,100.18h-67.11v-3.13h67.11v3.13ZM905.23,94.03h-67.11v-3.13h67.11v3.13ZM905.23,87.87h-67.11v-3.13h67.11v3.13ZM905.23,81.72h-67.11v-3.13h67.11v3.13ZM905.23,72.43v3.13h-67.11v-3.13h67.11ZM833.36,231.58h-2.17v-19.09h2.17v19.09ZM842.03,231.54h-2.17v-19.1h2.17v19.1ZM850.7,231.49h-2.17v-19.1h2.17v19.1ZM838.13,180.18v-3.13h67.11v3.13h-67.11ZM926.15,183.29h-10.64v-79.05h10.64v79.05ZM938.69,183.29h-10.65v-79.05h10.65v79.05ZM951.21,212.61h-10.64v-108.37h10.64v108.37ZM1088.63,179.89h1.08l.79.87h-1.08l3.05,3.36h1.1l.79.86h-1.1l3.05,3.36h1.13l.79.86h-1.13l2.27,2.5-.19.19-.16.16-2.58-2.85h-2.01l3,3.36h1.08l-.92.92-.05-.05h-1.36l.69.77-.2.2-.15.14-.99-1.11h-1.51l1.7,1.91-.22.21-.13.13-2.01-2.25h-.59l-.46-.87h.29l-.71-.79-.96-1.81,2.32,2.6h1.5l-3.01-3.36h-1.21l-.45-.86h.89l-2.18-2.44-.95-1.78h1.41l-2.99-3.36h-.2l-.45-.87-.78-1.47,1.31,1.47h1.83l-5.67-6.24-.92-1.74,7.25,7.98ZM1094.65,196.44l-.19.18-.43-.81.04-.04.58.67ZM1059.09,192.57l.6-3.36h-1.81l.86-.86h1.11l.24-1.36.81-.82-.39,2.18h3.72l.6-3.36h-2.77l.86-.86h2.06l.46-2.55.8-.81-.6,3.36h3.72l.6-3.36h-3.71l.85-.87h3.01l.67-3.71.81-.82-.82,4.54h3.72l1.64-9.12.8-.82-1.78,9.94h3.72l1.51-8.43.49.94-1.34,7.49h3.72l.39-2.17.49.94-.22,1.23h.87l.45.87h-1.47l-.61,3.36h3.72l.03-.16.08.16.41.78.04.08h-.06l-.6,3.36h2.41l.46.86h-3.02l-.6,3.36h3.71l.43-2.36.49.95-.25,1.41h.99l.45.87h-1.6l-.6,3.36h3.72l.06-.34.17.34.22.42-.65.64.04-.2h-3.72l-.6,3.36h1.12l-.18.18-.69.68h-.4l-.09.49-.8.8.23-1.29h-3.72l-.6,3.36h2l-.87.87h-1.29l-.28,1.57-.8.8.42-2.37h-3.72l-.6,3.36h2.9l-.87.86h-2.18l-.48,2.65-.17.16-1.41,1.41h-.39l-.79-.86h1.97l.6-3.36h-3.71l-.32,1.76-.56-.6.21-1.16h-1.27l-.79-.86h2.22l.6-3.36h-3.72l-.36,1.98-.54-.59.25-1.39h-1.52l-.8-.87h2.47l.6-3.36h-3.72l-.4,2.22-.54-.6.29-1.62h-1.78l-.79-.86h2.72l.6-3.36h-3.72l-.44,2.44-.55-.6.34-1.84h-2.02l-.79-.86h2.96l.6-3.36h-3.72l-.48,2.67-.55-.61.37-2.06h-2.26l-.79-.87h3.21ZM1055.54,191.57l-.1.54-.21-.23.31-.31ZM986.3,104.34h13.13v82.8l-1.64,1.63-1.16,1.16-.91.91-1.07,1.06-2.52,2.51-1.16,1.15-2.37,2.36-1.06,1.07-1.07,1.05-.15.15v-95.86ZM970.87,104.34h13.12v98.18l-2.51,2.48-1.83,1.84-4.52,4.49-1.27,1.27h-2.98v-108.27ZM955.42,104.34h13.13v108.27l-13.13-.09v-108.18ZM959.05,232.19h-.88l.35-1.97,1.07-1.07-.54,3.04ZM1052.64,232.19h-.88l1.51-8.41h-4.98l-1.5,8.41h-.88l1.51-8.41h-4.98l-1.51,8.41h-.87l1.5-8.41h-4.97l-1.51,8.41h-.88l1.51-8.41h-4.97l-1.51,8.41h-.88l1.51-8.41h-4.97l-1.51,8.41h-.88l1.5-8.41h-4.97l-1.5,8.41h-.89l1.51-8.41h-4.97l-1.51,8.41h-.87l1.5-8.41h-4.97l-1.31,7.3-.2,1.11h-.88l1.08-6.02.43-2.39h-4.98l-1.5,8.41h-.88l1.51-8.41h-4.97l-1.51,8.41h-.88l1.5-8.41h-4.97l-1.5,8.41h-.89l1.51-8.41h-4.97l-1.51,8.41h-.88l1.5-8.41h-4.96l-1.51,8.41h-.88l1.51-8.41h-4.98l-1.5,8.41h-.88l1.5-8.41h-4.97l-1.51,8.41h-.87l1.5-8.41h-.63l1.15-1.15.69-.71-.13.71h4.98l.8-4.5h-1.89l1.13-1.15h.97l.21-1.19,1.08-1.08-.41,2.27h4.97l.79-4.38.02-.11h-3.18l1.15-1.16h2.23l.5-2.75,1.07-1.09-.69,3.84h4.97l.8-4.49h-4.45l1.15-1.15h3.5l.77-4.32.17-.16.37-.37.55-.56.22-.23h4.79l.81-4.49h-1.15l1.15-1.15h.2l.05-.25,1.07-1.1-.24,1.35h4.98l.8-4.49h-2.41l1.14-1.16h1.48l.32-1.82,1.08-1.09-.52,2.91h4.97l.8-4.49h-3.69l1.14-1.15h2.76l.61-3.4,1.06-1.08-.8,4.49h4.98l.8-4.5h-4.97l1.15-1.15h4.02l.89-4.97,1.07-1.08-1.08,6.05h4.97l2.18-12.17,1.08-1.1-2.38,13.28h4.97l2.01-11.25.66,1.26-1.79,9.99h4.97l.52-2.9.66,1.25-.29,1.65h1.15l.61,1.15h-1.97l-.8,4.5h4.97l.04-.21.1.21.55,1.05.05.1h-.07l-.81,4.49h3.22l.61,1.16h-4.03l-.81,4.49h4.98l.56-3.15.66,1.26-.34,1.89h1.33l.6,1.15h-2.14l-.8,4.49h4.97l.08-.45.24.45.41.81.18.35h-.24l-.8,4.49h3.39l.59,1.15h-4.19l-.8,4.49h4.97l.61-3.39.65,1.26-.38,2.13h1.49l.61,1.16h-2.3l-.81,4.49h4.97l.13-.69.36.69.3.56.3.59h-.41l-.8,4.5h3.55l.6,1.15h-4.37l-1.51,8.41ZM1058.49,232.19h-.88l1.35-7.57.66,1.27-1.13,6.3ZM1063.6,232.19h-.87l.34-1.97,1.08-1.07-.55,3.04ZM1067.18,223.78h-1.61l.74.87-.46.46-1.13-1.33h-2.61l2.28,2.78-.46.46-2.66-3.24h-.31l2.73,3.48-.47.47-3.09-3.95h-.19l-.61-1.15h.99l-2.8-3.43-1.53-2.88.55.67h2.41l-3.45-4.06-.36-.42h-1.17l-.61-1.16h.8l-2.11-2.48-.85-1.6.2-.17,3.61,4.26h1.89l-3.9-4.49h-2.01l-.61-1.15h1.62l-3.91-4.49h-.08l-1.32-2.49.06-.05,1.2,1.38h1.86l-3.99-4.49h-.8l-.61-1.15h.38l-.93-1.06-1.28-2.41,3.08,3.47h2.02l-4.02-4.49h-1.62l-.61-1.16h1.2l-2.92-3.25-1.26-2.38h1.88l-4-4.5h-.25l-.61-1.15-1.04-1.96,1.75,1.96h2.45l-7.57-8.32-1.1-2.08-.13-.24,9.68,10.64h1.43l1.05,1.15h-1.44l4.08,4.5h1.47l1.05,1.15h-1.47l4.07,4.49h1.5l1.06,1.16h-1.51l4.07,4.49h1.54l1.05,1.15h-1.54l4.08,4.49h1.56l.48.52.58.64h-1.57l4.07,4.49h1.61l.39.43h0l.66.72h-1.6l4.07,4.49h1.63l1.06,1.16h-1.64l3.43,3.76-.46.46-3.85-4.22h-3.08l3.99,4.49h2.68l-1.15,1.15h-.5l.23.26-.46.46-.64-.72h-1.7l1.45,1.61-.46.46-1.86-2.07h-2.17l2.87,3.23-.46.46-3.28-3.69h-2.2l3.9,4.5h.77l-1.16,1.15ZM1157.19,232.19h-.87l1.5-8.41h-4.97l-1.51,8.41h-.88l1.51-8.41h-4.98l-1.5,8.41h-.88l1.51-8.41h-4.98l-1.51,8.41h-.87l1.5-8.41h-4.97l-1.5,8.41h-.89l1.51-8.41h-4.97l-1.51,8.41h-.88l1.51-8.41h-4.97l-1.51,8.41h-.88l1.5-8.41h-4.97l-1.5,8.41h-.88l1.51-8.41h-4.98l-1.51,8.41h-.87l1.5-8.41h-4.97l-1.51,8.41h-.88l1.51-8.41h-4.97l-1.51,8.41h-.88l1.51-8.41h-4.97l-1.51,8.41h-.88l1.5-8.41h-4.97l-1.5,8.41h-.89l1.51-8.41h-4.97l-1.51,8.41h-.87l1.5-8.41h-4.97l-1.51,8.41h-.88l1.51-8.41h-4.98l-1.5,8.41h-.88l1.5-8.41h-.62l.76-.77.38-.38.69-.71-.12.71h4.97l.81-4.5h-1.9l1.14-1.15h.96l.21-1.19,1.08-1.08-.41,2.27h4.98l.8-4.49h-3.18l1.15-1.16h2.24l.49-2.75,1.08-1.09-.69,3.84h4.96l.81-4.49h-4.45l1.14-1.15h3.5l.78-4.32.16-.16.18-.18h.65l.14-.8.18-.18h4.79l.8-4.49h-1.14l1.14-1.15h.21l.04-.25,1.08-1.1-.24,1.35h4.97l.8-4.49h-2.41l1.14-1.16h1.48l.33-1.82,1.07-1.09-.52,2.91h4.97l.81-4.49h-3.7l1.15-1.15h2.75l.61-3.4,1.07-1.08-.8,4.49h4.97l.8-4.5h-4.96l1.14-1.15h4.02l.89-4.97,1.07-1.08-1.08,6.05h4.97l2.18-12.17,1.08-1.1-2.38,13.28h4.97l2.02-11.25.65,1.26-1.78,9.99h4.97l.52-2.9.66,1.25-.3,1.65h1.15l.61,1.15h-1.97l-.8,4.5h4.97l.04-.21.1.21.55,1.05.05.1h-.07l-.8,4.49h3.21l.61,1.16h-4.03l-.8,4.49h4.97l.56-3.15.66,1.26-.34,1.89h1.33l.6,1.15h-2.13l-.81,4.49h4.98l.08-.45.23.45.42.81.18.35h-.25l-.8,4.49h3.39l.6,1.15h-4.2l-.8,4.49h4.97l.61-3.39.66,1.26-.38,2.13h1.49l.61,1.16h-2.31l-.8,4.49h4.97l.12-.69.37.69.29.56.3.59h-.4l-.81,4.5h3.56l.59,1.15h-4.36l-1.51,8.41ZM1163.05,232.19h-.89l1.36-7.57.66,1.27-1.13,6.3ZM1189.43,232.19h-.87l-7.49-8.41h-1.67l7.53,8.41h-.87l-7.54-8.41h-2.2l7.48,8.41h-.87l-7.48-8.41h-2.31l7.32,8.41h-.86l-7.32-8.41h-2.15l7.15,8.41h-.85l-7.15-8.41h-2.61l6.91,8.41h-.84l-6.91-8.41h-.31l6.58,8.41h-.82l-6.58-8.41h-.2l-.61-1.15h1l-2.81-3.43-1.53-2.88.55.67h2.41l-3.81-4.49h-1.16l-.61-1.16h.79l-2.11-2.48-.85-1.6.2-.17,3.62,4.26h1.88l-3.9-4.49h-2.01l-.61-1.15h1.62l-3.9-4.49h-.09l-1.32-2.49.06-.05,1.21,1.38h1.85l-3.99-4.49h-.79l-.61-1.15h.38l-.94-1.06-1.28-2.41,3.09,3.47h2.01l-4.02-4.49h-1.61l-.61-1.16h1.19l-2.92-3.25-1.26-2.38h1.88l-3.99-4.5h-.26l-.61-1.15-1.04-1.96,1.75,1.96h2.45l-7.57-8.32-1.22-2.32,9.67,10.64h1.43l1.06,1.15h-1.44l4.07,4.5h1.47l1.06,1.15h-1.48l4.08,4.49h1.5l1.05,1.16h-1.51l4.08,4.49h1.54l1.05,1.15h-1.54l4.07,4.49h1.57l1.06,1.16h-1.58l4.07,4.49h1.61l1.06,1.15h-1.62l4.08,4.49h1.64l1.05,1.16h-1.64l4.07,4.49h1.68l1.05,1.15h-1.68l4.07,4.5h1.71l1.06,1.15h-1.72l7.65,8.41h-.88l-7.65-8.41h-3.28l7.49,8.41Z"/>
      <polygon class="cls-1" points="1085.99 189.21 1082.27 189.21 1081.66 192.58 1085.39 192.58 1085.99 189.21"/>
      <polygon class="cls-1" points="1092.41 189.21 1095.42 192.58 1096.79 192.58 1093.79 189.21 1092.41 189.21"/>
      <polygon class="cls-1" points="1082.42 188.35 1086.14 188.35 1086.75 184.98 1083.03 184.98 1082.42 188.35"/>
      <polygon class="cls-1" points="1090.02 184.98 1088.62 184.98 1091.63 188.35 1093.02 188.35 1090.02 184.98"/>
      <polygon class="cls-1" points="1080.91 196.8 1084.63 196.8 1085.23 193.44 1081.51 193.44 1080.91 196.8"/>
      <polygon class="cls-1" points="1085.29 196.8 1089.01 196.8 1089.61 193.44 1085.89 193.44 1085.29 196.8"/>
      <polygon class="cls-1" points="1077.28 192.58 1081 192.58 1081.6 189.21 1077.88 189.21 1077.28 192.58"/>
      <polygon class="cls-1" points="1074.36 180.76 1070.63 180.76 1070.03 184.12 1073.75 184.12 1074.36 180.76"/>
      <polygon class="cls-1" points="1073.6 184.98 1069.87 184.98 1069.27 188.35 1072.99 188.35 1073.6 184.98"/>
      <polygon class="cls-1" points="1073.65 188.35 1077.37 188.35 1077.98 184.98 1074.26 184.98 1073.65 188.35"/>
      <polygon class="cls-1" points="1069.21 184.98 1065.49 184.98 1064.89 188.35 1068.61 188.35 1069.21 184.98"/>
      <polygon class="cls-1" points="1064.07 189.21 1060.35 189.21 1059.75 192.58 1063.47 192.58 1064.07 189.21"/>
      <polygon class="cls-1" points="1068.45 189.21 1064.73 189.21 1064.13 192.58 1067.85 192.58 1068.45 189.21"/>
      <polygon class="cls-1" points="1072.14 196.8 1075.86 196.8 1076.46 193.44 1072.74 193.44 1072.14 196.8"/>
      <polygon class="cls-1" points="1072.9 192.58 1076.62 192.58 1077.22 189.21 1073.5 189.21 1072.9 192.58"/>
      <polygon class="cls-1" points="1071.32 197.67 1067.6 197.67 1066.99 201.03 1070.72 201.03 1071.32 197.67"/>
      <polygon class="cls-1" points="1067.7 193.44 1063.97 193.44 1063.37 196.8 1067.09 196.8 1067.7 193.44"/>
      <polygon class="cls-1" points="1068.51 192.58 1072.24 192.58 1072.84 189.21 1069.11 189.21 1068.51 192.58"/>
      <polygon class="cls-1" points="1080.85 193.44 1077.12 193.44 1076.52 196.8 1080.24 196.8 1080.85 193.44"/>
      <polygon class="cls-1" points="1084.53 201.03 1088.25 201.03 1088.85 197.67 1085.13 197.67 1084.53 201.03"/>
      <polygon class="cls-1" points="1067.75 196.8 1071.48 196.8 1072.08 193.44 1068.36 193.44 1067.75 196.8"/>
      <polygon class="cls-1" points="1074.94 201.9 1071.22 201.9 1070.62 205.26 1074.34 205.26 1074.94 201.9"/>
      <polygon class="cls-1" points="1080.15 201.03 1083.87 201.03 1084.47 197.67 1080.75 197.67 1080.15 201.03"/>
      <polygon class="cls-1" points="1079.39 205.26 1083.11 205.26 1083.71 201.9 1079.99 201.9 1079.39 205.26"/>
      <polygon class="cls-1" points="1071.38 201.03 1075.1 201.03 1075.7 197.67 1071.98 197.67 1071.38 201.03"/>
      <polygon class="cls-1" points="1075.76 201.03 1079.48 201.03 1080.09 197.67 1076.37 197.67 1075.76 201.03"/>
      <polygon class="cls-1" points="1075 205.26 1078.73 205.26 1079.33 201.9 1075.61 201.9 1075 205.26"/>
      <polygon class="cls-1" points="1078.73 180.76 1075.01 180.76 1074.41 184.12 1078.13 184.12 1078.73 180.76"/>
      <polygon class="cls-1" points="1074.25 209.49 1077.97 209.49 1078.57 206.13 1074.85 206.13 1074.25 209.49"/>
      <polygon class="cls-1" points="1078.04 188.35 1081.76 188.35 1082.36 184.98 1078.64 184.98 1078.04 188.35"/>
      <polygon class="cls-1" points="1083.12 180.76 1079.4 180.76 1078.79 184.12 1082.52 184.12 1083.12 180.76"/>
      <polygon class="cls-1" points="1089.9 184.12 1091.82 184.12 1088.76 180.76 1086.91 180.76 1089.9 184.12"/>
      <polygon class="cls-1" points="1093.67 188.35 1095.66 188.35 1092.61 184.98 1090.67 184.98 1093.67 188.35"/>
      <polygon class="cls-1" points="1054.61 201.21 1058.64 205.7 1060.4 205.7 1056.4 201.21 1054.61 201.21"/>
      <polygon class="cls-1" points="1064.73 212.49 1068.75 216.98 1070.46 216.98 1066.46 212.49 1064.73 212.49"/>
      <polygon class="cls-1" points="1049.56 195.57 1053.58 200.06 1055.37 200.06 1051.38 195.57 1049.56 195.57"/>
      <polygon class="cls-1" points="1065.43 211.34 1061.43 206.85 1059.67 206.85 1063.69 211.34 1065.43 211.34"/>
      <polygon class="cls-1" points="1035.94 189.93 1030.97 189.93 1030.17 194.41 1035.14 194.41 1035.94 189.93"/>
      <polygon class="cls-1" points="1061.72 212.49 1065.71 216.98 1067.87 216.98 1063.85 212.49 1061.72 212.49"/>
      <polygon class="cls-1" points="1050.35 194.41 1046.35 189.93 1044.5 189.93 1048.52 194.41 1050.35 194.41"/>
      <polygon class="cls-1" points="1031.18 188.77 1036.15 188.77 1036.95 184.28 1031.99 184.28 1031.18 188.77"/>
      <polygon class="cls-1" points="1041.32 184.28 1039.45 184.28 1043.47 188.77 1045.32 188.77 1041.32 184.28"/>
      <polygon class="cls-1" points="1059.82 211.34 1055.83 206.85 1053.84 206.85 1057.75 211.34 1059.82 211.34"/>
      <polygon class="cls-1" points="1058.75 212.49 1062.66 216.98 1064.84 216.98 1060.85 212.49 1058.75 212.49"/>
      <polygon class="cls-1" points="1044.61 206.85 1039.64 206.85 1038.83 211.34 1043.8 211.34 1044.61 206.85"/>
      <polygon class="cls-1" points="1039.84 205.7 1044.81 205.7 1045.62 201.21 1040.65 201.21 1039.84 205.7"/>
      <polygon class="cls-1" points="1029.16 200.06 1034.13 200.06 1034.93 195.57 1029.96 195.57 1029.16 200.06"/>
      <polygon class="cls-1" points="1035.01 200.06 1039.97 200.06 1040.78 195.57 1035.81 195.57 1035.01 200.06"/>
      <polygon class="cls-1" points="998.83 201.21 993.86 201.21 993.05 205.7 998.02 205.7 998.83 201.21"/>
      <polygon class="cls-1" points="999.84 195.57 994.87 195.57 994.06 200.06 999.03 200.06 999.84 195.57"/>
      <polygon class="cls-1" points="1003.66 206.85 998.7 206.85 997.89 211.34 1002.86 211.34 1003.66 206.85"/>
      <polygon class="cls-1" points="997.81 206.85 992.85 206.85 992.04 211.34 997.01 211.34 997.81 206.85"/>
      <polygon class="cls-1" points="990.02 222.62 994.98 222.62 995.79 218.14 990.82 218.14 990.02 222.62"/>
      <polygon class="cls-1" points="1004.67 201.21 999.71 201.21 998.9 205.7 1003.87 205.7 1004.67 201.21"/>
      <polygon class="cls-1" points="991.03 216.98 996 216.98 996.8 212.49 991.83 212.49 991.03 216.98"/>
      <polygon class="cls-1" points="992.98 201.21 988.01 201.21 987.2 205.7 992.17 205.7 992.98 201.21"/>
      <polygon class="cls-1" points="1024.32 194.41 1029.28 194.41 1030.09 189.93 1025.12 189.93 1024.32 194.41"/>
      <polygon class="cls-1" points="991.96 206.85 986.99 206.85 986.19 211.34 991.16 211.34 991.96 206.85"/>
      <polygon class="cls-1" points="1020.42 178.64 1015.45 178.64 1014.64 183.13 1019.61 183.13 1020.42 178.64"/>
      <polygon class="cls-1" points="1019.41 184.28 1014.44 184.28 1013.63 188.77 1018.6 188.77 1019.41 184.28"/>
      <polygon class="cls-1" points="1005.69 195.57 1000.72 195.57 999.91 200.06 1004.88 200.06 1005.69 195.57"/>
      <polygon class="cls-1" points="1019.48 188.77 1024.44 188.77 1025.25 184.28 1020.29 184.28 1019.48 188.77"/>
      <polygon class="cls-1" points="1013.55 184.28 1008.59 184.28 1007.78 188.77 1012.75 188.77 1013.55 184.28"/>
      <polygon class="cls-1" points="1006.7 189.93 1001.73 189.93 1000.93 194.41 1005.89 194.41 1006.7 189.93"/>
      <polygon class="cls-1" points="1012.54 189.93 1007.57 189.93 1006.77 194.41 1011.74 194.41 1012.54 189.93"/>
      <polygon class="cls-1" points="1017.46 200.06 1022.42 200.06 1023.23 195.57 1018.26 195.57 1017.46 200.06"/>
      <polygon class="cls-1" points="1004.75 205.7 1009.72 205.7 1010.52 201.21 1005.55 201.21 1004.75 205.7"/>
      <polygon class="cls-1" points="990.95 212.49 985.98 212.49 985.18 216.98 990.15 216.98 990.95 212.49"/>
      <polygon class="cls-1" points="1018.47 194.41 1023.43 194.41 1024.24 189.93 1019.27 189.93 1018.47 194.41"/>
      <polygon class="cls-1" points="1015.36 206.85 1010.39 206.85 1009.58 211.34 1014.56 211.34 1015.36 206.85"/>
      <polygon class="cls-1" points="1009.51 206.85 1004.54 206.85 1003.73 211.34 1008.71 211.34 1009.51 206.85"/>
      <polygon class="cls-1" points="1010.6 205.7 1015.57 205.7 1016.37 201.21 1011.4 201.21 1010.6 205.7"/>
      <polygon class="cls-1" points="1005.76 200.06 1010.73 200.06 1011.53 195.57 1006.56 195.57 1005.76 200.06"/>
      <polygon class="cls-1" points="984.17 222.62 989.13 222.62 989.94 218.14 984.97 218.14 984.17 222.62"/>
      <polygon class="cls-1" points="978.32 222.62 983.28 222.62 984.08 218.14 979.12 218.14 978.32 222.62"/>
      <polygon class="cls-1" points="985.1 212.49 980.13 212.49 979.33 216.98 984.29 216.98 985.1 212.49"/>
      <polygon class="cls-1" points="1012.62 194.41 1017.59 194.41 1018.39 189.93 1013.42 189.93 1012.62 194.41"/>
      <polygon class="cls-1" points="1062.82 211.34 1058.8 206.85 1056.7 206.85 1060.69 211.34 1062.82 211.34"/>
      <polygon class="cls-1" points="1055.67 205.7 1057.76 205.7 1053.74 201.21 1051.68 201.21 1055.67 205.7"/>
      <polygon class="cls-1" points="1029.08 195.57 1024.11 195.57 1023.31 200.06 1028.27 200.06 1029.08 195.57"/>
      <polygon class="cls-1" points="1050.81 201.21 1048.93 201.21 1052.84 205.7 1054.8 205.7 1050.81 201.21"/>
      <polygon class="cls-1" points="1052.71 200.06 1048.68 195.57 1046.66 195.57 1050.66 200.06 1052.71 200.06"/>
      <polygon class="cls-1" points="1038.75 206.85 1033.79 206.85 1032.98 211.34 1037.95 211.34 1038.75 206.85"/>
      <polygon class="cls-1" points="1038.96 205.7 1039.76 201.21 1034.8 201.21 1033.99 205.7 1038.96 205.7"/>
      <polygon class="cls-1" points="1011.61 200.06 1016.58 200.06 1017.38 195.57 1012.41 195.57 1011.61 200.06"/>
      <polygon class="cls-1" points="1021.2 206.85 1016.24 206.85 1015.43 211.34 1020.4 211.34 1021.2 206.85"/>
      <polygon class="cls-1" points="1033.92 201.21 1028.95 201.21 1028.15 205.7 1033.11 205.7 1033.92 201.21"/>
      <polygon class="cls-1" points="995.87 222.62 1000.83 222.62 1001.64 218.14 996.67 218.14 995.87 222.62"/>
      <polygon class="cls-1" points="1032.91 206.85 1027.94 206.85 1027.14 211.34 1032.1 211.34 1032.91 206.85"/>
      <polygon class="cls-1" points="1016.45 205.7 1021.41 205.7 1022.21 201.21 1017.25 201.21 1016.45 205.7"/>
      <polygon class="cls-1" points="1022.3 205.7 1027.26 205.7 1028.07 201.21 1023.1 201.21 1022.3 205.7"/>
      <polygon class="cls-1" points="1027.05 206.85 1022.09 206.85 1021.28 211.34 1026.25 211.34 1027.05 206.85"/>
      <polygon class="cls-1" points="1048.51 222.62 1053.48 222.62 1054.28 218.14 1049.31 218.14 1048.51 222.62"/>
      <polygon class="cls-1" points="972.47 222.62 977.44 222.62 978.24 218.14 973.27 218.14 972.47 222.62"/>
      <polygon class="cls-1" points="1057.47 218.14 1061.15 222.62 1063.73 222.62 1059.92 218.14 1057.47 218.14"/>
      <polygon class="cls-1" points="1026.26 178.64 1021.3 178.64 1020.49 183.13 1025.46 183.13 1026.26 178.64"/>
      <polygon class="cls-1" points="1037.74 212.49 1032.78 212.49 1031.97 216.98 1036.94 216.98 1037.74 212.49"/>
      <polygon class="cls-1" points="1036.81 222.62 1041.78 222.62 1042.58 218.14 1037.61 218.14 1036.81 222.62"/>
      <polygon class="cls-1" points="1043.59 212.49 1038.62 212.49 1037.82 216.98 1042.79 216.98 1043.59 212.49"/>
      <polygon class="cls-1" points="1030.96 222.62 1035.93 222.62 1036.73 218.14 1031.77 218.14 1030.96 222.62"/>
      <polygon class="cls-1" points="1031.89 212.49 1026.93 212.49 1026.12 216.98 1031.09 216.98 1031.89 212.49"/>
      <polygon class="cls-1" points="1060.77 218.14 1064.58 222.62 1066.71 222.62 1062.8 218.14 1060.77 218.14"/>
      <polygon class="cls-1" points="1042.65 222.62 1047.63 222.62 1048.43 218.14 1043.46 218.14 1042.65 222.62"/>
      <polygon class="cls-1" points="1061.8 216.98 1057.89 212.49 1055.98 212.49 1059.79 216.98 1061.8 216.98"/>
      <polygon class="cls-1" points="1043.67 216.98 1048.64 216.98 1049.44 212.49 1044.47 212.49 1043.67 216.98"/>
      <polygon class="cls-1" points="1020.19 212.49 1015.23 212.49 1014.42 216.98 1019.39 216.98 1020.19 212.49"/>
      <polygon class="cls-1" points="1008.5 212.49 1003.53 212.49 1002.72 216.98 1007.69 216.98 1008.5 212.49"/>
      <polygon class="cls-1" points="1007.56 222.62 1012.53 222.62 1013.34 218.14 1008.37 218.14 1007.56 222.62"/>
      <polygon class="cls-1" points="1001.71 222.62 1006.68 222.62 1007.49 218.14 1002.51 218.14 1001.71 222.62"/>
      <polygon class="cls-1" points="1014.35 212.49 1009.38 212.49 1008.57 216.98 1013.55 216.98 1014.35 212.49"/>
      <polygon class="cls-1" points="1026.04 212.49 1021.08 212.49 1020.27 216.98 1025.24 216.98 1026.04 212.49"/>
      <polygon class="cls-1" points="1013.41 222.62 1018.38 222.62 1019.18 218.14 1014.22 218.14 1013.41 222.62"/>
      <polygon class="cls-1" points="1019.26 222.62 1024.23 222.62 1025.03 218.14 1020.07 218.14 1019.26 222.62"/>
      <polygon class="cls-1" points="1025.11 222.62 1030.08 222.62 1030.88 218.14 1025.92 218.14 1025.11 222.62"/>
      <polygon class="cls-1" points="1025.33 188.77 1030.3 188.77 1031.1 184.28 1026.13 184.28 1025.33 188.77"/>
      <polygon class="cls-1" points="1002.65 212.49 997.68 212.49 996.88 216.98 1001.85 216.98 1002.65 212.49"/>
      <polygon class="cls-1" points="1032.11 178.64 1027.15 178.64 1026.34 183.13 1031.31 183.13 1032.11 178.64"/>
      <polygon class="cls-1" points="1066.3 211.34 1069.36 211.34 1065.29 206.85 1062.3 206.85 1066.3 211.34"/>
      <polygon class="cls-1" points="1043.72 183.13 1039.64 178.64 1037.17 178.64 1041.17 183.13 1043.72 183.13"/>
      <polygon class="cls-1" points="1046.19 188.77 1048.85 188.77 1044.77 184.28 1042.19 184.28 1046.19 188.77"/>
      <polygon class="cls-1" points="1051.22 194.41 1053.98 194.41 1049.9 189.93 1047.22 189.93 1051.22 194.41"/>
      <polygon class="cls-1" points="1061.27 205.7 1064.24 205.7 1060.16 201.21 1057.27 201.21 1061.27 205.7"/>
      <polygon class="cls-1" points="1056.25 200.06 1059.11 200.06 1055.03 195.57 1052.25 195.57 1056.25 200.06"/>
    </g>
  </g>
</svg>