<?xml version="1.0" encoding="UTF-8"?>
<svg id="Layer_2" data-name="Layer 2" xmlns="http://www.w3.org/2000/svg" viewBox="0 0 1200 188.49">
  <defs>
    <style>
      .cls-1 {
        fill: #1d1d1b;
        stroke-width: 0px;
      }
    </style>
  </defs>
  <g id="Layer_1-2" data-name="Layer 1">
    <g>
      <path class="cls-1" d="M102.22,47.86h-.35c.05,1.15.09,1.97.09,1.97h-1.74s.04-.82.09-1.97h-.35v-.5h.38c.13-2.81.34-7.08.37-7.54.04-.69.38-.54.38-.54,0,0,.34-.15.38.54.03.46.24,4.73.37,7.54h.38v.5Z"/>
      <rect class="cls-1" x="53.29" y="133.23" width="1.76" height="4.06"/>
      <rect class="cls-1" x="55.91" y="133.23" width="1.82" height="4.06"/>
      <rect class="cls-1" x="53.29" y="128.8" width="1.76" height="3.68"/>
      <rect class="cls-1" x="55.91" y="128.8" width="1.82" height="3.68"/>
      <rect class="cls-1" x="66.74" y="128.8" width="1.77" height="3.68"/>
      <rect class="cls-1" x="66.74" y="133.23" width="1.77" height="4.06"/>
      <rect class="cls-1" x="69.36" y="128.8" width="1.82" height="3.68"/>
      <rect class="cls-1" x="69.36" y="133.23" width="1.82" height="4.06"/>
      <rect class="cls-1" x="80.19" y="128.8" width="1.77" height="3.68"/>
      <rect class="cls-1" x="80.19" y="133.23" width="1.77" height="4.06"/>
      <rect class="cls-1" x="82.81" y="128.8" width="1.82" height="3.68"/>
      <rect class="cls-1" x="82.81" y="133.23" width="1.82" height="4.06"/>
      <path class="cls-1" d="M1186.87,176.93c-15.71-10-23.77-5.78-34.19-12.66-10.42-6.88-5.94-5.78-26.97-4.53-1.26.07-2.36.13-3.34.18v-.94h-.39v-2.96h-.67l-5.54-41.94,2.6-2.58v-.82h-3.97v-10.21h-3.31c1.39-.01,4.52-.03,4.58,0l-6.61-3.87h-.57v-3.48h-1.14v3.48h-.49l-7.3,3.87h1.26v10.21h-3.57v.82l2.82,2.47-2.66,30.17-8.15,2.82v12.02h-.53v1.07c-8.19.78-14.94,1.8-14.94,1.8v.14h-5.58v-1.75h-1.36v-5.04h1.26l-7.05-6.31-7.06,6.31s.56,0,1.44,0v5.03h-1.26v1.75h-24.03v-11.76h-6.83V46.97l-16.78-16.78v-8.63h-12.9v-11.2h-34.14v11.2h-14.07v9.17l-13.62,11.64v109.45h-19.24v1.84h-45.03v-82.65l-15.43-12.11v-7.98h-15.06v-10.98h-26.98v10.76h-19.12v7.23l-13.71,13.72v72.64h-13.9v-18h-24.1v-55.58h-14.11v-5.7h-36.89v5.7h-13.86v39.48h-10.51v-3.71h-34.85v3.71h-4.33v-2.42h-4.76v-4.74h-14.32v4.74h-7.95v14.36h-9.15v-5.46h-15.87v-.06h-3.92v-16.93h-5.38l-.05-44.77h-6.78v-3.2h-12.4v-4.7h-16.87v4.7h-7.3v3.2h-11.18v54.86h-14.79v-12.4h-27.41v-25.33h-41.36v25.33h-6.75v12.4h-9.6V8.65h-24.49V0h-38.56v8.65h-20.59v50.99h-22.17V27.63h-25.34v-2.73h-6.79v-.05h-27.04v.05h-6.79v2.73h-25.34v144.42h-1.23v-8.58h-8.33v-26.51l-5.64-13.91-17.7-16.55-.02.02-16.78,15.68h-49.86v-11.51h-.74v-15.08h.73v-1.86h-1.51v-9.16h1.9v-.9h-1.18l-9.42-33.86h-1.74l-9.42,33.86h-1.18v.9h1.9v9.16h-1.51v1.86h.73v15.08h-.74v11.51h-49.86l-16.78-15.68-.02-.02-17.7,16.55-5.64,13.91v51.53h94.74v-19.99h12.7v19.99h1092.37s2.77-1.56-12.94-11.56ZM1064.15,156.49h1.18v2.93h-1.18v-2.93ZM1061.37,156.49h1.17v2.93h-1.17v-2.93ZM1057.09,156.49h1.7v2.93h-1.7v-2.93ZM10.28,183.74h-4.98v-15.93h4.98v15.93ZM10.28,160.45h-4.99v-12.29s0-.11.01-.3c.01-.12.02-.26.05-.43.15-.94.66-2.45,2.44-2.45s2.28,1.51,2.43,2.45c.03.17.04.31.05.43.01.19.01.3.01.3v12.29ZM16.09,125.17h2.3v12.13h-2.3v-12.13ZM18.45,183.74h-2.3v-15.93h2.3v15.93ZM18.45,160.45h-2.3v-15.81h2.3v15.81ZM20.55,125.17h2.3v12.13h-2.3v-12.13ZM22.91,183.74h-2.3v-15.93h2.3v15.93ZM22.91,160.45h-2.3v-15.81h2.3v15.81ZM26.08,183.74h-2.3v-15.93h2.3v15.93ZM26.08,160.45h-2.3v-15.81h2.3v15.81ZM26.14,137.3h-2.3v-12.13h2.3v12.13ZM30.54,183.74h-2.3v-15.93h2.3v15.93ZM30.54,160.45h-2.3v-15.81h2.3v15.81ZM30.6,137.3h-2.31v-12.13h2.31v12.13ZM41.39,183.74h-4.98v-15.93h4.98v15.93ZM41.39,160.45h-4.98v-12.29s0-.11,0-.3c.01-.12.02-.26.05-.43.15-.94.66-2.45,2.43-2.45s2.29,1.51,2.43,2.45c.03.17.04.31.05.43.01.19.01.3.01.3v12.29ZM58,183.81h-4.98v-14.57h4.98v14.57ZM58,149.51v12.3h-4.98v-12.3s-.08-3.18,2.49-3.18,2.49,3.18,2.49,3.18ZM58.97,138.28h-7.13v-10.22h7.13v10.22ZM71.45,183.81h-4.98v-14.57h4.98v14.57ZM71.45,149.51v12.3h-4.98v-12.3s-.08-3.18,2.49-3.18,2.49,3.18,2.49,3.18ZM72.43,138.28h-7.14v-10.22h7.14v10.22ZM84.9,183.81h-4.98v-14.57h4.98v14.57ZM84.9,149.51v12.3h-4.98v-12.3s-.08-3.18,2.49-3.18,2.49,3.18,2.49,3.18ZM85.88,138.28h-7.14v-10.22h7.14v10.22ZM101.09,66.79c.88,0,1.58.71,1.58,1.58s-.7,1.59-1.58,1.59-1.58-.71-1.58-1.59.7-1.58,1.58-1.58ZM102.11,82.82c0,.7-.46,1.27-1.02,1.27s-1.02-.57-1.02-1.27.46-1.27,1.02-1.27,1.02.57,1.02,1.27ZM101.09,86c1.6,0,2.9,1.3,2.9,2.9s-1.3,2.9-2.9,2.9-2.9-1.29-2.9-2.9,1.3-2.9,2.9-2.9ZM101.09,99.05c3.9,0,3.7,3.74,3.7,3.74v10.25h-7.4v-10.25s-.2-3.74,3.7-3.74ZM104.98,123.55v11.42h-3.14v-11.42h3.14ZM97.2,123.55h3.14v11.42h-3.14v-11.42ZM91.97,129.78h2.12v4.41h-2.12v-4.41ZM96.38,161.1h-2.61v-15.23h2.61v15.23ZM100.28,161.1h-2.61v-15.23h2.61v15.23ZM104.51,161.1h-2.61v-15.23h2.61v15.23ZM108.41,161.1h-2.61v-15.23h2.61v15.23ZM92.43,141.04l8.66-3.68,8.66,3.68h-17.32ZM110.21,134.19h-2.12v-4.41h2.12v4.41ZM122.26,183.81h-4.98v-14.57h4.98v14.57ZM122.26,149.51v12.3h-4.98v-12.3s-.09-3.18,2.49-3.18,2.49,3.18,2.49,3.18ZM123.44,138.28h-7.14v-10.22h7.14v10.22ZM135.71,183.81h-4.98v-14.57h4.98v14.57ZM135.71,149.51v12.3h-4.98v-12.3s-.09-3.18,2.49-3.18,2.49,3.18,2.49,3.18ZM136.89,138.28h-7.14v-10.22h7.14v10.22ZM149.16,183.81h-4.98v-14.57h4.98v14.57ZM149.16,149.51v12.3h-4.98v-12.3s-.08-3.18,2.49-3.18,2.49,3.18,2.49,3.18ZM150.34,138.28h-7.13v-10.22h7.13v10.22ZM165.77,183.74h-4.98v-15.93h4.98v15.93ZM165.77,160.45h-4.98v-12.29s0-.11.01-.3c.01-.12.02-.26.05-.43.14-.94.65-2.45,2.43-2.45s2.28,1.51,2.43,2.45c.03.17.04.31.05.43,0,.19,0,.3,0,.3v12.29ZM171.58,125.17h2.31v12.13h-2.31v-12.13ZM173.94,183.74h-2.3v-15.93h2.3v15.93ZM173.94,160.45h-2.3v-15.81h2.3v15.81ZM176.04,125.17h2.3v12.13h-2.3v-12.13ZM178.4,183.74h-2.3v-15.93h2.3v15.93ZM178.4,160.45h-2.3v-15.81h2.3v15.81ZM181.57,183.74h-2.3v-15.93h2.3v15.93ZM181.57,160.45h-2.3v-15.81h2.3v15.81ZM181.63,137.3h-2.3v-12.13h2.3v12.13ZM186.03,183.74h-2.3v-15.93h2.3v15.93ZM186.03,160.45h-2.3v-15.81h2.3v15.81ZM186.09,137.3h-2.3v-12.13h2.3v12.13ZM196.88,183.74h-4.98v-15.93h4.98v15.93ZM196.89,160.45h-4.99v-12.29s0-.11,0-.3c0-.12.02-.26.05-.43.15-.94.66-2.45,2.43-2.45s2.29,1.51,2.44,2.45c.03.17.04.31.05.43.01.19.01.3.01.3v12.29ZM215.54,169.1h-1.46v-3.16h1.46v3.16ZM215.54,161.24h-1.46v-3.15h1.46v3.15ZM215.54,153.39h-1.46v-3.16h1.46v3.16ZM215.54,145.53h-1.46v-3.15h1.46v3.15ZM215.54,137.68h-1.46v-3.16h1.46v3.16ZM215.54,129.82h-1.46v-3.15h1.46v3.15ZM215.54,121.97h-1.46v-3.16h1.46v3.16ZM215.54,114.11h-1.46v-3.16h1.46v3.16ZM215.54,106.26h-1.46v-3.16h1.46v3.16ZM215.54,98.4h-1.46v-3.16h1.46v3.16ZM215.54,90.55h-1.46v-3.16h1.46v3.16ZM215.54,82.69h-1.46v-3.16h1.46v3.16ZM215.54,74.84h-1.46v-3.16h1.46v3.16ZM215.54,66.98h-1.46v-3.16h1.46v3.16ZM215.54,59.12h-1.46v-3.15h1.46v3.15ZM215.54,51.27h-1.46v-3.16h1.46v3.16ZM215.54,43.41h-1.46v-3.15h1.46v3.15ZM219.65,169.1h-1.46v-3.16h1.46v3.16ZM219.65,161.24h-1.46v-3.15h1.46v3.15ZM219.65,153.39h-1.46v-3.16h1.46v3.16ZM219.65,145.53h-1.46v-3.15h1.46v3.15ZM219.65,137.68h-1.46v-3.16h1.46v3.16ZM219.65,129.82h-1.46v-3.15h1.46v3.15ZM219.65,121.97h-1.46v-3.16h1.46v3.16ZM219.65,114.11h-1.46v-3.16h1.46v3.16ZM219.65,106.26h-1.46v-3.16h1.46v3.16ZM219.65,98.4h-1.46v-3.16h1.46v3.16ZM219.65,90.55h-1.46v-3.16h1.46v3.16ZM219.65,82.69h-1.46v-3.16h1.46v3.16ZM219.65,74.84h-1.46v-3.16h1.46v3.16ZM219.65,66.98h-1.46v-3.16h1.46v3.16ZM219.65,59.12h-1.46v-3.15h1.46v3.15ZM219.65,51.27h-1.46v-3.16h1.46v3.16ZM219.65,43.41h-1.46v-3.15h1.46v3.15ZM223.76,169.1h-1.46v-3.16h1.46v3.16ZM223.76,161.24h-1.46v-3.15h1.46v3.15ZM223.76,153.39h-1.46v-3.16h1.46v3.16ZM223.76,145.53h-1.46v-3.15h1.46v3.15ZM223.76,137.68h-1.46v-3.16h1.46v3.16ZM223.76,129.82h-1.46v-3.15h1.46v3.15ZM223.76,121.97h-1.46v-3.16h1.46v3.16ZM223.76,114.11h-1.46v-3.16h1.46v3.16ZM223.76,106.26h-1.46v-3.16h1.46v3.16ZM223.76,98.4h-1.46v-3.16h1.46v3.16ZM223.76,90.55h-1.46v-3.16h1.46v3.16ZM223.76,82.69h-1.46v-3.16h1.46v3.16ZM223.76,74.84h-1.46v-3.16h1.46v3.16ZM223.76,66.98h-1.46v-3.16h1.46v3.16ZM223.76,59.12h-1.46v-3.15h1.46v3.15ZM223.76,51.27h-1.46v-3.16h1.46v3.16ZM223.76,43.41h-1.46v-3.15h1.46v3.15ZM227.87,169.1h-1.47v-3.16h1.47v3.16ZM227.87,161.24h-1.47v-3.15h1.47v3.15ZM227.87,153.39h-1.47v-3.16h1.47v3.16ZM227.87,145.53h-1.47v-3.15h1.47v3.15ZM227.87,137.68h-1.47v-3.16h1.47v3.16ZM227.87,129.82h-1.47v-3.15h1.47v3.15ZM227.87,121.97h-1.47v-3.16h1.47v3.16ZM227.87,114.11h-1.47v-3.16h1.47v3.16ZM227.87,106.26h-1.47v-3.16h1.47v3.16ZM227.87,98.4h-1.47v-3.16h1.47v3.16ZM227.87,90.55h-1.47v-3.16h1.47v3.16ZM227.87,82.69h-1.47v-3.16h1.47v3.16ZM227.87,74.84h-1.47v-3.16h1.47v3.16ZM227.87,66.98h-1.47v-3.16h1.47v3.16ZM227.87,59.12h-1.47v-3.15h1.47v3.15ZM227.87,51.27h-1.47v-3.16h1.47v3.16ZM227.87,43.41h-1.47v-3.15h1.47v3.15ZM231.97,169.1h-1.46v-3.16h1.46v3.16ZM231.97,161.24h-1.46v-3.15h1.46v3.15ZM231.97,153.39h-1.46v-3.16h1.46v3.16ZM231.97,145.53h-1.46v-3.15h1.46v3.15ZM231.97,137.68h-1.46v-3.16h1.46v3.16ZM231.97,129.82h-1.46v-3.15h1.46v3.15ZM231.97,121.97h-1.46v-3.16h1.46v3.16ZM231.97,114.11h-1.46v-3.16h1.46v3.16ZM231.97,106.26h-1.46v-3.16h1.46v3.16ZM231.97,98.4h-1.46v-3.16h1.46v3.16ZM231.97,90.55h-1.46v-3.16h1.46v3.16ZM231.97,82.69h-1.46v-3.16h1.46v3.16ZM231.97,74.84h-1.46v-3.16h1.46v3.16ZM231.97,66.98h-1.46v-3.16h1.46v3.16ZM231.97,59.12h-1.46v-3.15h1.46v3.15ZM231.97,51.27h-1.46v-3.16h1.46v3.16ZM231.97,43.41h-1.46v-3.15h1.46v3.15ZM236.08,169.1h-1.46v-3.16h1.46v3.16ZM236.08,161.24h-1.46v-3.15h1.46v3.15ZM236.08,153.39h-1.46v-3.16h1.46v3.16ZM236.08,145.53h-1.46v-3.15h1.46v3.15ZM236.08,137.68h-1.46v-3.16h1.46v3.16ZM236.08,129.82h-1.46v-3.15h1.46v3.15ZM236.08,121.97h-1.46v-3.16h1.46v3.16ZM236.08,114.11h-1.46v-3.16h1.46v3.16ZM236.08,106.26h-1.46v-3.16h1.46v3.16ZM236.08,98.4h-1.46v-3.16h1.46v3.16ZM236.08,90.55h-1.46v-3.16h1.46v3.16ZM236.08,82.69h-1.46v-3.16h1.46v3.16ZM236.08,74.84h-1.46v-3.16h1.46v3.16ZM236.08,66.98h-1.46v-3.16h1.46v3.16ZM236.08,59.12h-1.46v-3.15h1.46v3.15ZM236.08,51.27h-1.46v-3.16h1.46v3.16ZM236.08,43.41h-1.46v-3.15h1.46v3.15ZM247.9,169.1h-1.46v-3.16h1.46v3.16ZM247.9,161.24h-1.46v-3.15h1.46v3.15ZM247.9,153.39h-1.46v-3.16h1.46v3.16ZM247.9,145.53h-1.46v-3.15h1.46v3.15ZM247.9,137.68h-1.46v-3.16h1.46v3.16ZM247.9,129.82h-1.46v-3.15h1.46v3.15ZM247.9,121.97h-1.46v-3.16h1.46v3.16ZM247.9,114.11h-1.46v-3.16h1.46v3.16ZM247.9,106.26h-1.46v-3.16h1.46v3.16ZM247.9,98.4h-1.46v-3.16h1.46v3.16ZM247.9,90.55h-1.46v-3.16h1.46v3.16ZM247.9,82.69h-1.46v-3.16h1.46v3.16ZM247.9,74.84h-1.46v-3.16h1.46v3.16ZM247.9,66.98h-1.46v-3.16h1.46v3.16ZM247.9,59.12h-1.46v-3.15h1.46v3.15ZM247.9,51.27h-1.46v-3.16h1.46v3.16ZM247.9,43.41h-1.46v-3.15h1.46v3.15ZM252.01,169.1h-1.46v-3.16h1.46v3.16ZM252.01,161.24h-1.46v-3.15h1.46v3.15ZM252.01,153.39h-1.46v-3.16h1.46v3.16ZM252.01,145.53h-1.46v-3.15h1.46v3.15ZM252.01,137.68h-1.46v-3.16h1.46v3.16ZM252.01,129.82h-1.46v-3.15h1.46v3.15ZM252.01,121.97h-1.46v-3.16h1.46v3.16ZM252.01,114.11h-1.46v-3.16h1.46v3.16ZM252.01,106.26h-1.46v-3.16h1.46v3.16ZM252.01,98.4h-1.46v-3.16h1.46v3.16ZM252.01,90.55h-1.46v-3.16h1.46v3.16ZM252.01,82.69h-1.46v-3.16h1.46v3.16ZM252.01,74.84h-1.46v-3.16h1.46v3.16ZM252.01,66.98h-1.46v-3.16h1.46v3.16ZM252.01,59.12h-1.46v-3.15h1.46v3.15ZM252.01,51.27h-1.46v-3.16h1.46v3.16ZM252.01,43.41h-1.46v-3.15h1.46v3.15ZM256.12,169.1h-1.47v-3.16h1.47v3.16ZM256.12,161.24h-1.47v-3.15h1.47v3.15ZM256.12,153.39h-1.47v-3.16h1.47v3.16ZM256.12,145.53h-1.47v-3.15h1.47v3.15ZM256.12,137.68h-1.47v-3.16h1.47v3.16ZM256.12,129.82h-1.47v-3.15h1.47v3.15ZM256.12,121.97h-1.47v-3.16h1.47v3.16ZM256.12,114.11h-1.47v-3.16h1.47v3.16ZM256.12,106.26h-1.47v-3.16h1.47v3.16ZM256.12,98.4h-1.47v-3.16h1.47v3.16ZM256.12,90.55h-1.47v-3.16h1.47v3.16ZM256.12,82.69h-1.47v-3.16h1.47v3.16ZM256.12,74.84h-1.47v-3.16h1.47v3.16ZM256.12,66.98h-1.47v-3.16h1.47v3.16ZM256.12,59.12h-1.47v-3.15h1.47v3.15ZM256.12,51.27h-1.47v-3.16h1.47v3.16ZM256.12,43.41h-1.47v-3.15h1.47v3.15ZM260.13,169.1h-1.47v-3.16h1.47v3.16ZM260.13,161.24h-1.47v-3.15h1.47v3.15ZM260.13,153.39h-1.47v-3.16h1.47v3.16ZM260.13,145.53h-1.47v-3.15h1.47v3.15ZM260.13,137.68h-1.47v-3.16h1.47v3.16ZM260.13,129.82h-1.47v-3.15h1.47v3.15ZM260.13,121.97h-1.47v-3.16h1.47v3.16ZM260.13,114.11h-1.47v-3.16h1.47v3.16ZM260.13,106.26h-1.47v-3.16h1.47v3.16ZM260.13,98.4h-1.47v-3.16h1.47v3.16ZM260.13,90.55h-1.47v-3.16h1.47v3.16ZM260.13,82.69h-1.47v-3.16h1.47v3.16ZM260.13,74.84h-1.47v-3.16h1.47v3.16ZM260.13,66.98h-1.47v-3.16h1.47v3.16ZM260.13,59.12h-1.47v-3.15h1.47v3.15ZM260.13,51.27h-1.47v-3.16h1.47v3.16ZM260.13,43.41h-1.47v-3.15h1.47v3.15ZM264.23,169.1h-1.46v-3.16h1.46v3.16ZM264.23,161.24h-1.46v-3.15h1.46v3.15ZM264.23,153.39h-1.46v-3.16h1.46v3.16ZM264.23,145.53h-1.46v-3.15h1.46v3.15ZM264.23,137.68h-1.46v-3.16h1.46v3.16ZM264.23,129.82h-1.46v-3.15h1.46v3.15ZM264.23,121.97h-1.46v-3.16h1.46v3.16ZM264.23,114.11h-1.46v-3.16h1.46v3.16ZM264.23,106.26h-1.46v-3.16h1.46v3.16ZM264.23,98.4h-1.46v-3.16h1.46v3.16ZM264.23,90.55h-1.46v-3.16h1.46v3.16ZM264.23,82.69h-1.46v-3.16h1.46v3.16ZM264.23,74.84h-1.46v-3.16h1.46v3.16ZM264.23,66.98h-1.46v-3.16h1.46v3.16ZM264.23,59.12h-1.46v-3.15h1.46v3.15ZM264.23,51.27h-1.46v-3.16h1.46v3.16ZM264.23,43.41h-1.46v-3.15h1.46v3.15ZM268.34,169.1h-1.46v-3.16h1.46v3.16ZM268.34,161.24h-1.46v-3.15h1.46v3.15ZM268.34,153.39h-1.46v-3.16h1.46v3.16ZM268.34,145.53h-1.46v-3.15h1.46v3.15ZM268.34,137.68h-1.46v-3.16h1.46v3.16ZM268.34,129.82h-1.46v-3.15h1.46v3.15ZM268.34,121.97h-1.46v-3.16h1.46v3.16ZM268.34,114.11h-1.46v-3.16h1.46v3.16ZM268.34,106.26h-1.46v-3.16h1.46v3.16ZM268.34,98.4h-1.46v-3.16h1.46v3.16ZM268.34,90.55h-1.46v-3.16h1.46v3.16ZM268.34,82.69h-1.46v-3.16h1.46v3.16ZM268.34,74.84h-1.46v-3.16h1.46v3.16ZM268.34,66.98h-1.46v-3.16h1.46v3.16ZM268.34,59.12h-1.46v-3.15h1.46v3.15ZM268.34,51.27h-1.46v-3.16h1.46v3.16ZM268.34,43.41h-1.46v-3.15h1.46v3.15ZM280.16,169.1h-1.46v-3.16h1.46v3.16ZM280.16,161.24h-1.46v-3.15h1.46v3.15ZM280.16,153.39h-1.46v-3.16h1.46v3.16ZM280.16,145.53h-1.46v-3.15h1.46v3.15ZM280.16,137.68h-1.46v-3.16h1.46v3.16ZM280.16,129.82h-1.46v-3.15h1.46v3.15ZM280.16,121.97h-1.46v-3.16h1.46v3.16ZM280.16,114.11h-1.46v-3.16h1.46v3.16ZM280.16,106.26h-1.46v-3.16h1.46v3.16ZM280.16,98.4h-1.46v-3.16h1.46v3.16ZM280.16,90.55h-1.46v-3.16h1.46v3.16ZM280.16,82.69h-1.46v-3.16h1.46v3.16ZM280.16,74.84h-1.46v-3.16h1.46v3.16ZM280.16,66.98h-1.46v-3.16h1.46v3.16ZM280.16,59.12h-1.46v-3.15h1.46v3.15ZM280.16,51.27h-1.46v-3.16h1.46v3.16ZM280.16,43.41h-1.46v-3.15h1.46v3.15ZM284.27,169.1h-1.46v-3.16h1.46v3.16ZM284.27,161.24h-1.46v-3.15h1.46v3.15ZM284.27,153.39h-1.46v-3.16h1.46v3.16ZM284.27,145.53h-1.46v-3.15h1.46v3.15ZM284.27,137.68h-1.46v-3.16h1.46v3.16ZM284.27,129.82h-1.46v-3.15h1.46v3.15ZM284.27,121.97h-1.46v-3.16h1.46v3.16ZM284.27,114.11h-1.46v-3.16h1.46v3.16ZM284.27,106.26h-1.46v-3.16h1.46v3.16ZM284.27,98.4h-1.46v-3.16h1.46v3.16ZM284.27,90.55h-1.46v-3.16h1.46v3.16ZM284.27,82.69h-1.46v-3.16h1.46v3.16ZM284.27,74.84h-1.46v-3.16h1.46v3.16ZM284.27,66.98h-1.46v-3.16h1.46v3.16ZM284.27,59.12h-1.46v-3.15h1.46v3.15ZM284.27,51.27h-1.46v-3.16h1.46v3.16ZM284.27,43.41h-1.46v-3.15h1.46v3.15ZM288.38,169.1h-1.47v-3.16h1.47v3.16ZM288.38,161.24h-1.47v-3.15h1.47v3.15ZM288.38,153.39h-1.47v-3.16h1.47v3.16ZM288.38,145.53h-1.47v-3.15h1.47v3.15ZM288.38,137.68h-1.47v-3.16h1.47v3.16ZM288.38,129.82h-1.47v-3.15h1.47v3.15ZM288.38,121.97h-1.47v-3.16h1.47v3.16ZM288.38,114.11h-1.47v-3.16h1.47v3.16ZM288.38,106.26h-1.47v-3.16h1.47v3.16ZM288.38,98.4h-1.47v-3.16h1.47v3.16ZM288.38,90.55h-1.47v-3.16h1.47v3.16ZM288.38,82.69h-1.47v-3.16h1.47v3.16ZM288.38,74.84h-1.47v-3.16h1.47v3.16ZM288.38,66.98h-1.47v-3.16h1.47v3.16ZM288.38,59.12h-1.47v-3.15h1.47v3.15ZM288.38,51.27h-1.47v-3.16h1.47v3.16ZM288.38,43.41h-1.47v-3.15h1.47v3.15ZM292.48,169.1h-1.46v-3.16h1.46v3.16ZM292.48,161.24h-1.46v-3.15h1.46v3.15ZM292.48,153.39h-1.46v-3.16h1.46v3.16ZM292.48,145.53h-1.46v-3.15h1.46v3.15ZM292.48,137.68h-1.46v-3.16h1.46v3.16ZM292.48,129.82h-1.46v-3.15h1.46v3.15ZM292.48,121.97h-1.46v-3.16h1.46v3.16ZM292.48,114.11h-1.46v-3.16h1.46v3.16ZM292.48,106.26h-1.46v-3.16h1.46v3.16ZM292.48,98.4h-1.46v-3.16h1.46v3.16ZM292.48,90.55h-1.46v-3.16h1.46v3.16ZM292.48,82.69h-1.46v-3.16h1.46v3.16ZM292.48,74.84h-1.46v-3.16h1.46v3.16ZM292.48,66.98h-1.46v-3.16h1.46v3.16ZM292.48,59.12h-1.46v-3.15h1.46v3.15ZM292.48,51.27h-1.46v-3.16h1.46v3.16ZM292.48,43.41h-1.46v-3.15h1.46v3.15ZM296.59,59.12h-1.46v-3.15h1.46v3.15ZM296.59,51.27h-1.46v-3.16h1.46v3.16ZM296.59,43.41h-1.46v-3.15h1.46v3.15ZM298.82,146.36h-1.42v-2.85h1.42v2.85ZM298.82,139.04h-1.42v-2.85h1.42v2.85ZM298.82,131.72h-1.42v-2.85h1.42v2.85ZM298.82,124.41h-1.42v-2.85h1.42v2.85ZM298.82,117.09h-1.42v-2.85h1.42v2.85ZM298.82,109.77h-1.42v-2.85h1.42v2.85ZM298.82,102.46h-1.42v-2.85h1.42v2.85ZM298.82,95.14h-1.42v-2.85h1.42v2.85ZM298.82,87.82h-1.42v-2.84h1.42v2.84ZM300.7,59.12h-1.46v-3.15h1.46v3.15ZM300.7,51.27h-1.46v-3.16h1.46v3.16ZM300.7,43.41h-1.46v-3.15h1.46v3.15ZM302.36,146.36h-1.42v-2.85h1.42v2.85ZM302.36,139.04h-1.42v-2.85h1.42v2.85ZM302.36,131.72h-1.42v-2.85h1.42v2.85ZM302.36,124.41h-1.42v-2.85h1.42v2.85ZM302.36,117.09h-1.42v-2.85h1.42v2.85ZM302.36,109.77h-1.42v-2.85h1.42v2.85ZM302.36,102.46h-1.42v-2.85h1.42v2.85ZM302.36,95.14h-1.42v-2.85h1.42v2.85ZM302.36,87.82h-1.42v-2.84h1.42v2.84ZM305.91,146.36h-1.43v-2.85h1.43v2.85ZM305.91,139.04h-1.43v-2.85h1.43v2.85ZM305.91,131.72h-1.43v-2.85h1.43v2.85ZM305.91,124.41h-1.43v-2.85h1.43v2.85ZM305.91,117.09h-1.43v-2.85h1.43v2.85ZM305.91,109.77h-1.43v-2.85h1.43v2.85ZM305.91,102.46h-1.43v-2.85h1.43v2.85ZM305.91,95.14h-1.43v-2.85h1.43v2.85ZM305.91,87.82h-1.43v-2.84h1.43v2.84ZM309.45,146.36h-1.43v-2.85h1.43v2.85ZM309.45,139.04h-1.43v-2.85h1.43v2.85ZM309.45,131.72h-1.43v-2.85h1.43v2.85ZM309.45,124.41h-1.43v-2.85h1.43v2.85ZM309.45,117.09h-1.43v-2.85h1.43v2.85ZM309.45,109.77h-1.43v-2.85h1.43v2.85ZM309.45,102.46h-1.43v-2.85h1.43v2.85ZM309.45,95.14h-1.43v-2.85h1.43v2.85ZM309.45,87.82h-1.43v-2.84h1.43v2.84ZM312.99,146.36h-1.42v-2.85h1.42v2.85ZM312.99,139.04h-1.42v-2.85h1.42v2.85ZM312.99,131.72h-1.42v-2.85h1.42v2.85ZM312.99,124.41h-1.42v-2.85h1.42v2.85ZM312.99,117.09h-1.42v-2.85h1.42v2.85ZM312.99,109.77h-1.42v-2.85h1.42v2.85ZM312.99,102.46h-1.42v-2.85h1.42v2.85ZM312.99,95.14h-1.42v-2.85h1.42v2.85ZM312.99,87.82h-1.42v-2.84h1.42v2.84ZM316.53,146.36h-1.42v-2.85h1.42v2.85ZM316.53,139.04h-1.42v-2.85h1.42v2.85ZM316.53,131.72h-1.42v-2.85h1.42v2.85ZM316.53,124.41h-1.42v-2.85h1.42v2.85ZM316.53,117.09h-1.42v-2.85h1.42v2.85ZM316.53,109.77h-1.42v-2.85h1.42v2.85ZM316.53,102.46h-1.42v-2.85h1.42v2.85ZM316.53,95.14h-1.42v-2.85h1.42v2.85ZM316.53,87.82h-1.42v-2.84h1.42v2.84ZM320.08,146.36h-1.43v-2.85h1.43v2.85ZM320.08,139.04h-1.43v-2.85h1.43v2.85ZM320.08,131.72h-1.43v-2.85h1.43v2.85ZM320.08,124.41h-1.43v-2.85h1.43v2.85ZM320.08,117.09h-1.43v-2.85h1.43v2.85ZM320.08,109.77h-1.43v-2.85h1.43v2.85ZM320.08,102.46h-1.43v-2.85h1.43v2.85ZM320.08,95.14h-1.43v-2.85h1.43v2.85ZM320.08,87.82h-1.43v-2.84h1.43v2.84ZM323.62,146.36h-1.42v-2.85h1.42v2.85ZM323.62,139.04h-1.42v-2.85h1.42v2.85ZM323.62,131.72h-1.42v-2.85h1.42v2.85ZM323.62,124.41h-1.42v-2.85h1.42v2.85ZM323.62,117.09h-1.42v-2.85h1.42v2.85ZM323.62,109.77h-1.42v-2.85h1.42v2.85ZM323.62,102.46h-1.42v-2.85h1.42v2.85ZM323.62,95.14h-1.42v-2.85h1.42v2.85ZM323.62,87.82h-1.42v-2.84h1.42v2.84ZM511.9,111.81h-1.87v-2.58h1.87v2.58ZM511.9,105.88h-1.87v-2.58h1.87v2.58ZM511.9,99.95h-1.87v-2.58h1.87v2.58ZM511.9,94.02h-1.87v-2.58h1.87v2.58ZM511.9,88.09h-1.87v-2.58h1.87v2.58ZM511.9,82.16h-1.87v-2.58h1.87v2.58ZM511.9,76.23h-1.87v-2.58h1.87v2.58ZM511.9,70.3h-1.87v-2.58h1.87v2.58ZM511.9,64.37h-1.87v-2.58h1.87v2.58ZM514.58,111.81h-1.87v-2.58h1.87v2.58ZM514.58,105.88h-1.87v-2.58h1.87v2.58ZM514.58,99.95h-1.87v-2.58h1.87v2.58ZM514.58,94.02h-1.87v-2.58h1.87v2.58ZM514.58,88.09h-1.87v-2.58h1.87v2.58ZM514.58,82.16h-1.87v-2.58h1.87v2.58ZM514.58,76.23h-1.87v-2.58h1.87v2.58ZM514.58,70.3h-1.87v-2.58h1.87v2.58ZM514.58,64.37h-1.87v-2.58h1.87v2.58ZM517.26,111.81h-1.87v-2.58h1.87v2.58ZM517.26,105.88h-1.87v-2.58h1.87v2.58ZM517.26,99.95h-1.87v-2.58h1.87v2.58ZM517.26,94.02h-1.87v-2.58h1.87v2.58ZM517.26,88.09h-1.87v-2.58h1.87v2.58ZM517.26,82.16h-1.87v-2.58h1.87v2.58ZM517.26,76.23h-1.87v-2.58h1.87v2.58ZM517.26,70.3h-1.87v-2.58h1.87v2.58ZM517.26,64.37h-1.87v-2.58h1.87v2.58ZM519.94,111.81h-1.87v-2.58h1.87v2.58ZM519.94,105.88h-1.87v-2.58h1.87v2.58ZM519.94,99.95h-1.87v-2.58h1.87v2.58ZM519.94,94.02h-1.87v-2.58h1.87v2.58ZM519.94,88.09h-1.87v-2.58h1.87v2.58ZM519.94,82.16h-1.87v-2.58h1.87v2.58ZM519.94,76.23h-1.87v-2.58h1.87v2.58ZM519.94,70.3h-1.87v-2.58h1.87v2.58ZM519.94,64.37h-1.87v-2.58h1.87v2.58ZM545.46,129.29h3.71v2.14h-3.71v-2.14ZM545.46,135.67h3.71v2.14h-3.71v-2.14ZM545.46,142.04h3.71v2.15h-3.71v-2.15ZM545.46,148.42h3.71v2.15h-3.71v-2.15ZM545.46,154.8h3.71v2.15h-3.71v-2.15ZM545.46,161.18h3.71v2.15h-3.71v-2.15ZM530.59,61.79h2.58v2.58h-2.58v-2.58ZM530.59,67.72h2.58v2.58h-2.58v-2.58ZM530.59,73.65h2.58v2.58h-2.58v-2.58ZM530.59,79.58h2.58v2.58h-2.58v-2.58ZM530.59,85.51h2.58v2.58h-2.58v-2.58ZM530.59,91.44h2.58v2.58h-2.58v-2.58ZM530.59,97.37h2.58v2.58h-2.58v-2.58ZM530.59,103.3h2.58v2.58h-2.58v-2.58ZM530.59,109.23h2.58v2.58h-2.58v-2.58ZM530.59,115.16h2.58v2.58h-2.58v-2.58ZM530.59,121.09h2.58v2.58h-2.58v-2.58ZM527.24,156.95v-2.15h3.71v2.15h-3.71ZM530.95,161.18v2.15h-3.71v-2.15h3.71ZM527.24,150.57v-2.15h3.71v2.15h-3.71ZM527.24,144.19v-2.15h3.71v2.15h-3.71ZM527.24,137.81v-2.14h3.71v2.14h-3.71ZM527.24,131.43v-2.14h3.71v2.14h-3.71ZM526.9,61.79h2.58v2.58h-2.58v-2.58ZM526.9,67.72h2.58v2.58h-2.58v-2.58ZM526.9,73.65h2.58v2.58h-2.58v-2.58ZM526.9,79.58h2.58v2.58h-2.58v-2.58ZM526.9,85.51h2.58v2.58h-2.58v-2.58ZM526.9,91.44h2.58v2.58h-2.58v-2.58ZM526.9,97.37h2.58v2.58h-2.58v-2.58ZM526.9,103.3h2.58v2.58h-2.58v-2.58ZM526.9,109.23h2.58v2.58h-2.58v-2.58ZM526.9,115.16h2.58v2.58h-2.58v-2.58ZM526.9,121.09h2.58v2.58h-2.58v-2.58ZM522.62,111.81h-1.87v-2.58h1.87v2.58ZM522.62,105.88h-1.87v-2.58h1.87v2.58ZM522.62,99.95h-1.87v-2.58h1.87v2.58ZM522.62,94.02h-1.87v-2.58h1.87v2.58ZM522.62,88.09h-1.87v-2.58h1.87v2.58ZM522.62,82.16h-1.87v-2.58h1.87v2.58ZM522.62,76.23h-1.87v-2.58h1.87v2.58ZM522.62,70.3h-1.87v-2.58h1.87v2.58ZM522.62,64.37h-1.87v-2.58h1.87v2.58ZM528.17,186.38h-1.49v-2.97h1.49v2.97ZM528.17,181.68h-1.49v-2.97h1.49v2.97ZM533.07,186.38h-2.51v-2.97h2.51v2.97ZM533.07,181.68h-2.51v-2.97h2.51v2.97ZM537.97,186.38h-2.51v-2.97h2.51v2.97ZM537.97,181.68h-2.51v-2.97h2.51v2.97ZM526.68,176.31v-.88l6.98-6.07,4.14,6.68.17.27h-11.29ZM540.06,163.33h-3.71v-2.15h3.71v2.15ZM540.06,156.95h-3.71v-2.15h3.71v2.15ZM540.06,150.57h-3.71v-2.15h3.71v2.15ZM540.06,144.19h-3.71v-2.15h3.71v2.15ZM540.06,137.81h-3.71v-2.14h3.71v2.14ZM540.06,131.43h-3.71v-2.14h3.71v2.14ZM544.79,186.38h-2.51v-2.97h2.51v2.97ZM544.79,181.68h-2.51v-2.97h2.51v2.97ZM549.69,186.38h-2.51v-2.97h2.51v2.97ZM549.69,181.68h-2.51v-2.97h2.51v2.97ZM554.59,186.38h-2.51v-2.97h2.51v2.97ZM554.59,181.68h-2.51v-2.97h2.51v2.97ZM542.28,176.31l.31-.27.51-.44,7.18-6.24,1.3,2.1,2.84,4.58.17.27h-12.31ZM648.78,114.93h7.72v2.12h-7.72v-2.12ZM646.39,131.6v-2.31h2.31v2.31h-2.31ZM648.7,133.95v2.31h-2.31v-2.31h2.31ZM646.39,126.94v-2.31h2.31v2.31h-2.31ZM646.39,122.28v-2.31h2.31v2.31h-2.31ZM639.6,114.93h7.72v2.12h-7.72v-2.12ZM638.22,119.97h2.31v2.31h-2.31v-2.31ZM638.22,124.63h2.31v2.31h-2.31v-2.31ZM638.22,129.29h2.31v2.31h-2.31v-2.31ZM638.22,133.95h2.31v2.31h-2.31v-2.31ZM638.22,138.61h2.31v2.31h-2.31v-2.31ZM633.59,119.28h2.01v2.31h-2.01v-2.31ZM633.59,123.94h2.01v2.31h-2.01v-2.31ZM633.59,128.6h2.01v2.31h-2.01v-2.31ZM633.59,133.26h2.01v2.31h-2.01v-2.31ZM633.59,137.92h2.01v2.31h-2.01v-2.31ZM632.9,159.83h3.04v3.5h-3.04v-3.5ZM630.03,119.28h2.02v2.31h-2.02v-2.31ZM630.03,123.94h2.02v2.31h-2.02v-2.31ZM630.03,128.6h2.02v2.31h-2.02v-2.31ZM630.03,133.26h2.02v2.31h-2.02v-2.31ZM630.03,137.92h2.02v2.31h-2.02v-2.31ZM626.48,119.28h2.01v2.31h-2.01v-2.31ZM626.48,123.94h2.01v2.31h-2.01v-2.31ZM626.48,128.6h2.01v2.31h-2.01v-2.31ZM626.48,133.26h2.01v2.31h-2.01v-2.31ZM626.48,137.92h2.01v2.31h-2.01v-2.31ZM606.15,123.78h1.3v1.31h-1.3v-1.31ZM606.15,127.27h1.3v1.31h-1.3v-1.31ZM606.15,130.76h1.3v1.31h-1.3v-1.31ZM606.15,134.25h1.3v1.31h-1.3v-1.31ZM606.15,137.74h1.3v1.31h-1.3v-1.31ZM606.15,141.23h1.3v1.31h-1.3v-1.31ZM602.42,123.78h1.31v1.31h-1.31v-1.31ZM602.42,127.27h1.31v1.31h-1.31v-1.31ZM602.42,130.76h1.31v1.31h-1.31v-1.31ZM602.42,134.25h1.31v1.31h-1.31v-1.31ZM602.42,137.74h1.31v1.31h-1.31v-1.31ZM602.42,141.23h1.31v1.31h-1.31v-1.31ZM598.7,123.78h1.31v1.31h-1.31v-1.31ZM598.7,127.27h1.31v1.31h-1.31v-1.31ZM598.7,130.76h1.31v1.31h-1.31v-1.31ZM598.7,134.25h1.31v1.31h-1.31v-1.31ZM598.7,137.74h1.31v1.31h-1.31v-1.31ZM598.7,141.23h1.31v1.31h-1.31v-1.31ZM591.26,123.78h1.31v1.31h-1.31v-1.31ZM591.26,127.27h1.31v1.31h-1.31v-1.31ZM591.26,130.76h1.31v1.31h-1.31v-1.31ZM591.26,134.25h1.31v1.31h-1.31v-1.31ZM591.26,137.74h1.31v1.31h-1.31v-1.31ZM591.26,141.23h1.31v1.31h-1.31v-1.31ZM568.92,123.78h1.31v1.31h-1.31v-1.31ZM568.92,127.27h1.31v1.31h-1.31v-1.31ZM568.92,130.76h1.31v1.31h-1.31v-1.31ZM568.92,134.25h1.31v1.31h-1.31v-1.31ZM568.92,137.74h1.31v1.31h-1.31v-1.31ZM568.92,141.23h1.31v1.31h-1.31v-1.31ZM565.2,123.78h1.31v1.31h-1.31v-1.31ZM565.2,127.27h1.31v1.31h-1.31v-1.31ZM565.2,130.76h1.31v1.31h-1.31v-1.31ZM565.2,134.25h1.31v1.31h-1.31v-1.31ZM565.2,137.74h1.31v1.31h-1.31v-1.31ZM565.2,141.23h1.31v1.31h-1.31v-1.31ZM561.42,186.38h-2.51v-2.97h2.51v2.97ZM561.42,181.68h-2.51v-2.97h2.51v2.97ZM566.32,186.38h-2.51v-2.97h2.51v2.97ZM566.32,181.68h-2.51v-2.97h2.51v2.97ZM571.22,186.38h-2.51v-2.97h2.51v2.97ZM571.22,181.68h-2.51v-2.97h2.51v2.97ZM558.91,176.31l.31-.27,7.68-6.68,4.15,6.68.17.27h-12.31ZM573.95,142.54h-1.31v-1.31h1.31v1.31ZM573.95,139.05h-1.31v-1.31h1.31v1.31ZM573.95,135.56h-1.31v-1.31h1.31v1.31ZM573.95,132.07h-1.31v-1.31h1.31v1.31ZM573.95,128.58h-1.31v-1.31h1.31v1.31ZM573.95,125.09h-1.31v-1.31h1.31v1.31ZM577.68,142.54h-1.31v-1.31h1.31v1.31ZM577.68,139.05h-1.31v-1.31h1.31v1.31ZM577.68,135.56h-1.31v-1.31h1.31v1.31ZM577.68,132.07h-1.31v-1.31h1.31v1.31ZM577.68,128.58h-1.31v-1.31h1.31v1.31ZM577.68,125.09h-1.31v-1.31h1.31v1.31ZM581.4,142.54h-1.31v-1.31h1.31v1.31ZM581.4,139.05h-1.31v-1.31h1.31v1.31ZM581.4,135.56h-1.31v-1.31h1.31v1.31ZM581.4,132.07h-1.31v-1.31h1.31v1.31ZM581.4,128.58h-1.31v-1.31h1.31v1.31ZM581.4,125.09h-1.31v-1.31h1.31v1.31ZM585.12,142.54h-1.31v-1.31h1.31v1.31ZM585.12,139.05h-1.31v-1.31h1.31v1.31ZM585.12,135.56h-1.31v-1.31h1.31v1.31ZM585.12,132.07h-1.31v-1.31h1.31v1.31ZM585.12,128.58h-1.31v-1.31h1.31v1.31ZM585.12,125.09h-1.31v-1.31h1.31v1.31ZM588.84,142.54h-1.31v-1.31h1.31v1.31ZM588.84,139.05h-1.31v-1.31h1.31v1.31ZM588.84,135.56h-1.31v-1.31h1.31v1.31ZM588.84,132.07h-1.31v-1.31h1.31v1.31ZM588.84,128.58h-1.31v-1.31h1.31v1.31ZM588.84,125.09h-1.31v-1.31h1.31v1.31ZM591.78,186.38h-1.75v-3.59h1.75v3.59ZM593.53,178.44h-3.5v-4.27h3.5v4.27ZM595.52,186.38h-1.76v-3.59h1.76v3.59ZM596.29,142.54h-1.31v-1.31h1.31v1.31ZM596.29,139.05h-1.31v-1.31h1.31v1.31ZM596.29,135.56h-1.31v-1.31h1.31v1.31ZM596.29,132.07h-1.31v-1.31h1.31v1.31ZM596.29,128.58h-1.31v-1.31h1.31v1.31ZM596.29,125.09h-1.31v-1.31h1.31v1.31ZM599.25,186.38h-1.75v-3.59h1.75v3.59ZM602.99,186.38h-1.76v-3.59h1.76v3.59ZM604.12,178.44h-6.66v-4.27h6.66v4.27ZM606.72,186.38h-1.75v-3.59h1.75v3.59ZM608.63,178.44h-2.7v-4h2.7v4ZM610.46,186.38h-1.75v-3.59h1.75v3.59ZM611.18,142.54h-1.31v-1.31h1.31v1.31ZM611.18,139.05h-1.31v-1.31h1.31v1.31ZM611.18,135.56h-1.31v-1.31h1.31v1.31ZM611.18,132.07h-1.31v-1.31h1.31v1.31ZM611.18,128.58h-1.31v-1.31h1.31v1.31ZM611.18,125.09h-1.31v-1.31h1.31v1.31ZM614.19,186.38h-1.75v-3.59h1.75v3.59ZM615.48,178.44h-2.69v-4h2.69v4ZM617.93,186.38h-1.75v-3.59h1.75v3.59ZM617.93,174.44h21.54v4h-21.54v-4ZM621.66,186.38h-1.75v-3.59h1.75v3.59ZM625.4,186.38h-1.75v-3.59h1.75v3.59ZM629.13,186.38h-1.75v-3.59h1.75v3.59ZM640.09,186.38h-8.97v-3.78h8.97v3.78ZM640.95,163.33h-3.04v-3.5h3.04v3.5ZM632.9,156.48l4.03-6.97,4.02,6.97h-8.05ZM644.62,140.92h-2.31v-2.31h2.31v2.31ZM644.62,136.26h-2.31v-2.31h2.31v2.31ZM644.62,131.6h-2.31v-2.31h2.31v2.31ZM644.62,126.94h-2.31v-2.31h2.31v2.31ZM644.62,122.28h-2.31v-2.31h2.31v2.31ZM646.39,138.61h2.31v2.31h-2.31v-2.31ZM650.27,181.35h-3.04v-7.08h3.04v7.08ZM650.27,169.34h-3.04v-3.51h3.04v3.51ZM650.27,163.33h-3.04v-3.5h3.04v3.5ZM655.27,181.35h-3.04v-7.08h3.04v7.08ZM655.27,169.34h-3.04v-3.51h3.04v3.51ZM655.27,163.33h-3.04v-3.5h3.04v3.5ZM647.23,156.48l4.02-6.97,4.02,6.97h-8.04ZM656.74,140.92h-2.31v-2.31h2.31v2.31ZM656.74,136.26h-2.31v-2.31h2.31v2.31ZM656.74,131.6h-2.31v-2.31h2.31v2.31ZM656.74,126.94h-2.31v-2.31h2.31v2.31ZM656.74,122.28h-2.31v-2.31h2.31v2.31ZM659.24,114.93h7.73v2.12h-7.73v-2.12ZM664.59,181.35h-3.04v-7.08h3.04v7.08ZM664.59,169.34h-3.04v-3.51h3.04v3.51ZM664.59,163.33h-3.04v-3.5h3.04v3.5ZM669.6,181.35h-3.04v-7.08h3.04v7.08ZM669.6,169.34h-3.04v-3.51h3.04v3.51ZM669.6,163.33h-3.04v-3.5h3.04v3.5ZM661.55,156.48l4.02-6.97,4.03,6.97h-8.05ZM676.67,75.69h60.53v2.14h-60.53v-2.14ZM676.67,80.47h60.53v2.14h-60.53v-2.14ZM676.67,85.24h60.53v2.14h-60.53v-2.14ZM676.67,90.02h60.53v2.14h-60.53v-2.14ZM676.67,94.79h60.53v2.14h-60.53v-2.14ZM676.67,99.57h60.53v2.14h-60.53v-2.14ZM676.67,104.34h60.53v2.14h-60.53v-2.14ZM676.67,109.12h60.53v2.14h-60.53v-2.14ZM676.67,113.89h60.53v2.14h-60.53v-2.14ZM676.67,118.66h60.53v2.15h-60.53v-2.15ZM676.67,123.44h60.53v2.14h-60.53v-2.14ZM676.67,128.21h60.53v2.15h-60.53v-2.15ZM678.92,181.35h-3.04v-7.08h3.04v7.08ZM678.92,169.34h-3.04v-3.51h3.04v3.51ZM678.92,163.33h-3.04v-3.5h3.04v3.5ZM683.92,181.35h-3.04v-7.08h3.04v7.08ZM683.92,169.34h-3.04v-3.51h3.04v3.51ZM683.92,163.33h-3.04v-3.5h3.04v3.5ZM675.88,156.48l4.02-6.97,4.02,6.97h-8.04ZM693.24,181.35h-3.04v-7.08h3.04v7.08ZM693.24,169.34h-3.04v-3.51h3.04v3.51ZM693.24,163.33h-3.04v-3.5h3.04v3.5ZM698.25,181.35h-3.04v-7.08h3.04v7.08ZM698.25,169.34h-3.04v-3.51h3.04v3.51ZM698.25,163.33h-3.04v-3.5h3.04v3.5ZM690.2,156.48l4.02-6.97,4.03,6.97h-8.05ZM707.57,181.35h-3.05v-7.08h3.05v7.08ZM707.57,169.34h-3.05v-3.51h3.05v3.51ZM707.57,163.33h-3.05v-3.5h3.05v3.5ZM712.57,181.35h-3.04v-7.08h3.04v7.08ZM712.57,169.34h-3.04v-3.51h3.04v3.51ZM712.57,163.33h-3.04v-3.5h3.04v3.5ZM704.52,156.48l4.03-6.97,4.02,6.97h-8.05ZM713.56,139.91h-36.89v-2.15h36.89v2.15ZM713.56,135.13h-36.89v-2.14h36.89v2.14ZM721.89,181.35h-3.04v-7.08h3.04v7.08ZM721.89,169.34h-3.04v-3.51h3.04v3.51ZM721.89,163.33h-3.04v-3.5h3.04v3.5ZM726.9,181.35h-3.04v-7.08h3.04v7.08ZM726.9,169.34h-3.04v-3.51h3.04v3.51ZM726.9,163.33h-3.04v-3.5h3.04v3.5ZM718.85,156.48l4.02-6.97,4.03,6.97h-8.05ZM736.22,181.35h-3.05v-7.08h3.05v7.08ZM736.22,169.34h-3.05v-3.51h3.05v3.51ZM736.22,163.33h-3.05v-3.5h3.05v3.5ZM741.22,181.35h-3.04v-7.08h3.04v7.08ZM741.22,169.34h-3.04v-3.51h3.04v3.51ZM741.22,163.33h-3.04v-3.5h3.04v3.5ZM733.17,156.48l4.03-6.97,4.02,6.97h-8.05ZM750.54,181.35h-3.04v-7.08h3.04v7.08ZM750.54,169.34h-3.04v-3.51h3.04v3.51ZM750.54,163.33h-3.04v-3.5h3.04v3.5ZM755.55,181.35h-3.05v-7.08h3.05v7.08ZM755.55,169.34h-3.05v-3.51h3.05v3.51ZM755.55,163.33h-3.05v-3.5h3.05v3.5ZM747.5,156.48l4.02-6.97,4.03,6.97h-8.05ZM764.87,181.35h-3.05v-7.08h3.05v7.08ZM764.87,169.34h-3.05v-3.51h3.05v3.51ZM764.87,163.33h-3.05v-3.5h3.05v3.5ZM769.87,181.35h-3.04v-7.08h3.04v7.08ZM769.87,169.34h-3.04v-3.51h3.04v3.51ZM769.87,163.33h-3.04v-3.5h3.04v3.5ZM761.82,156.48l4.03-6.97,4.02,6.97h-8.05ZM805.48,54.04h1.07v4h-1.07v-4ZM805.48,61.93h1.07v9.08h-1.07v-9.08ZM805.48,71.42h1.07v.23h-1.07v-.23ZM805.48,75.45l1.16-1.15v2.24h-1.16v-1.09ZM805.48,76.96h1.16v5.11h-1.16v-5.11ZM805.48,82.49h1.16v5.11h-1.16v-5.11ZM805.48,88.02h1.16v5.1h-1.16v-5.1ZM805.48,93.54h1.16v5.11h-1.16v-5.11ZM805.48,99.07h1.16v5.11h-1.16v-5.11ZM805.48,104.6h1.16v5.1h-1.16v-5.1ZM805.48,110.12h1.16v5.11h-1.16v-5.11ZM805.48,115.65h1.16v5.12h-1.16v-5.12ZM805.48,121.18h1.16v5.11h-1.16v-5.11ZM805.48,126.71h1.16v5.11h-1.16v-5.11ZM805.48,132.23h1.16v5.12h-1.16v-5.12ZM805.48,137.76h1.16v5.12h-1.16v-5.12ZM805.48,143.29h1.16v5.11h-1.16v-5.11ZM805.48,148.82h1.16v5.06l-1.16-1.2v-3.86ZM796.7,54.04h2.16v4h-2.16v-4ZM796.7,61.93h2.16v9.08h-2.16v-9.08ZM796.7,71.42h2.16v.23h-2.16v-.23ZM796.72,142.88v-5.12h1.51v5.12h-1.51ZM798.23,143.29v4.33h-1.51v-4.33h1.51ZM796.72,137.35v-5.12h1.51v5.12h-1.51ZM796.72,131.82v-5.11h1.51v5.11h-1.51ZM796.72,126.29v-5.11h1.51v5.11h-1.51ZM796.72,120.77v-5.12h1.51v5.12h-1.51ZM796.72,115.23v-5.11h1.51v5.11h-1.51ZM796.72,109.7v-5.1h1.51v5.1h-1.51ZM796.72,104.18v-5.11h1.51v5.11h-1.51ZM796.72,98.65v-5.11h1.51v5.11h-1.51ZM796.72,93.12v-5.1h1.51v5.1h-1.51ZM796.72,87.6v-5.11h1.51v5.11h-1.51ZM796.72,82.07v-1h1.51v1h-1.51ZM794.09,54.04h1.98v4h-1.98v-4ZM793.88,61.93h2.19v9.08h-2.19v-9.08ZM782.73,142.88v-5.12h2.06v5.12h-2.06ZM784.79,143.29v4.35h-2.06v-4.35h2.06ZM782.73,137.35v-5.12h2.06v5.12h-2.06ZM782.73,131.82v-5.11h2.06v5.11h-2.06ZM782.73,126.29v-5.11h2.06v5.11h-2.06ZM782.73,120.77v-5.12h2.06v5.12h-2.06ZM782.73,115.23v-5.11h2.06v5.11h-2.06ZM782.73,109.7v-5.1h2.06v5.1h-2.06ZM782.73,104.18v-5.11h2.06v5.11h-2.06ZM782.73,98.65v-5.11h2.06v5.11h-2.06ZM782.73,93.12v-5.1h2.06v5.1h-2.06ZM782.73,87.6v-5.11h2.06v5.11h-2.06ZM782.73,82.07v-.97h2.06v.97h-2.06ZM782.1,177.22h-1.86v-.77h1.86v.77ZM782.1,176.04h-1.86v-5.12h1.86v5.12ZM782.1,170.51h-1.86v-5.11h1.86v5.11ZM782.1,164.99h-1.86v-.74h1.86v.74ZM782.1,147.64h-1.86v-4.35h1.86v4.35ZM782.1,142.88h-1.86v-5.12h1.86v5.12ZM782.1,137.35h-1.86v-5.12h1.86v5.12ZM782.1,131.82h-1.86v-5.11h1.86v5.11ZM782.1,126.29h-1.86v-5.11h1.86v5.11ZM782.1,120.77h-1.86v-5.12h1.86v5.12ZM782.1,115.23h-1.86v-5.11h1.86v5.11ZM782.1,109.7h-1.86v-5.1h1.86v5.1ZM782.1,104.18h-1.86v-5.11h1.86v5.11ZM782.1,98.65h-1.86v-5.11h1.86v5.11ZM782.1,93.12h-1.86v-5.1h1.86v5.1ZM782.1,87.6h-1.86v-5.11h1.86v5.11ZM782.1,82.07h-1.86v-.97h1.86v.97ZM780.69,77.15c0-.07.01-.13.02-.19.02-.15.06-.29.13-.42.22-.47.7-.8,1.26-.8s1.04.33,1.26.8c.07.13.11.27.13.42,0,.06.01.12.01.19,0,.77-.62,1.4-1.4,1.4s-1.41-.63-1.41-1.4ZM788.7,177.22h-5.97v-.77h5.97v.77ZM788.7,176.04h-5.97v-5.12h5.97v5.12ZM788.7,170.51h-5.97v-5.11h5.97v5.11ZM788.7,164.99h-5.97v-.74h5.97v.74ZM788.7,150.19l-1.31-1.37h1.31v1.37ZM788.7,148.4h-1.71l-.73-.76v-4.35h2.44v5.11ZM788.7,142.88h-2.44v-5.12h2.44v5.12ZM788.7,137.35h-2.44v-5.12h2.44v5.12ZM788.7,131.82h-2.44v-5.11h2.44v5.11ZM788.7,126.29h-2.44v-5.11h2.44v5.11ZM788.7,120.77h-2.44v-5.12h2.44v5.12ZM788.7,115.23h-2.44v-5.11h2.44v5.11ZM788.7,109.7h-2.44v-5.1h2.44v5.1ZM788.7,104.18h-2.44v-5.11h2.44v5.11ZM788.7,98.65h-2.44v-5.11h2.44v5.11ZM788.7,93.12h-2.44v-5.1h2.44v5.1ZM788.7,87.6h-2.44v-5.11h2.44v5.11ZM788.7,82.07h-2.44v-1.72l2.44-2.44v4.16ZM792.29,177.22h-2.96v-.77h2.96v.77ZM792.29,176.04h-2.96v-5.12h2.96v5.12ZM792.29,170.51h-2.96v-5.11h2.96v5.11ZM792.29,164.99h-2.96v-.74h2.96v.74ZM792.29,153.92l-2.96-3.08v-2.02h2.96v5.1ZM792.29,148.4h-2.96v-5.11h2.96v5.11ZM792.29,142.88h-2.96v-5.12h2.96v5.12ZM792.29,137.35h-2.96v-5.12h2.96v5.12ZM792.29,131.82h-2.96v-5.11h2.96v5.11ZM792.29,126.29h-2.96v-5.11h2.96v5.11ZM792.29,120.77h-2.96v-5.12h2.96v5.12ZM792.29,115.23h-2.96v-5.11h2.96v5.11ZM792.29,109.7h-2.96v-5.1h2.96v5.1ZM792.29,104.18h-2.96v-5.11h2.96v5.11ZM792.29,98.65h-2.96v-5.11h2.96v5.11ZM792.29,93.12h-2.96v-5.1h2.96v5.1ZM792.29,87.6h-2.96v-5.11h2.96v5.11ZM792.29,82.07h-2.96v-4.79l.32-.32h2.64v5.11ZM792.29,76.54h-2.22l2.22-2.22v2.22ZM793.88,71.42h2.19v.23h-2.19v-.23ZM796.09,177.22h-.53v-.77h.53v.77ZM796.09,176.04h-.53v-5.12h.53v5.12ZM796.09,170.51h-.53v-5.11h.53v5.11ZM796.09,164.99h-.53v-.74h.53v.74ZM796.09,161.3h-.53v-1.43h.53v1.43ZM796.09,159.46h-.53v-2.92h.53v2.92ZM796.09,147.62h-1.5v-4.33h1.5v4.33ZM796.09,142.88h-1.5v-5.12h1.5v5.12ZM796.09,137.35h-1.5v-5.12h1.5v5.12ZM796.09,131.82h-1.5v-5.11h1.5v5.11ZM796.09,126.29h-1.5v-5.11h1.5v5.11ZM796.09,120.77h-1.5v-5.12h1.5v5.12ZM796.09,115.23h-1.5v-5.11h1.5v5.11ZM796.09,109.7h-1.5v-5.1h1.5v5.1ZM796.09,104.18h-1.5v-5.11h1.5v5.11ZM796.09,98.65h-1.5v-5.11h1.5v5.11ZM796.09,93.12h-1.5v-5.1h1.5v5.1ZM796.09,87.6h-1.5v-5.11h1.5v5.11ZM796.09,82.07h-1.5v-1h1.5v1ZM794.97,77.15c0-.07.01-.13.02-.19.01-.15.06-.29.12-.42.22-.47.71-.8,1.26-.8s1.04.33,1.26.8c.07.13.12.27.13.42,0,.06.02.12.02.19,0,.77-.63,1.4-1.41,1.4s-1.4-.63-1.4-1.4ZM799.07,177.22h-2.35v-.77h2.35v.77ZM799.07,176.04h-2.35v-5.12h2.35v5.12ZM799.07,170.51h-2.35v-5.11h2.35v5.11ZM799.07,164.99h-2.35v-.74h2.35v.74ZM799.07,161.3h-2.35v-1.43h2.35v1.43ZM799.07,159.46h-2.35v-2.92h2.35v2.92ZM802.06,177.22h-2.35v-.77h2.35v.77ZM802.06,176.04h-2.35v-5.12h2.35v5.12ZM802.06,170.51h-2.35v-5.11h2.35v5.11ZM802.06,164.99h-2.35v-.74h2.35v.74ZM802.06,161.3h-2.35v-1.43h2.35v1.43ZM802.06,159.46h-2.35v-2.92h2.35v2.92ZM802.06,149.12l-.29-.3h.29v.3ZM802.06,148.4h-.69l-.75-.78h-.91v-4.33h2.35v5.11ZM802.06,142.88h-2.35v-5.12h2.35v5.12ZM802.06,137.35h-2.35v-5.12h2.35v5.12ZM802.06,131.82h-2.35v-5.11h2.35v5.11ZM802.06,126.29h-2.35v-5.11h2.35v5.11ZM802.06,120.77h-2.35v-5.12h2.35v5.12ZM802.06,115.23h-2.35v-5.11h2.35v5.11ZM802.06,109.7h-2.35v-5.1h2.35v5.1ZM802.06,104.18h-2.35v-5.11h2.35v5.11ZM802.06,98.65h-2.35v-5.11h2.35v5.11ZM802.06,93.12h-2.35v-5.1h2.35v5.1ZM802.06,87.6h-2.35v-5.11h2.35v5.11ZM802.06,82.07h-2.35v-1h.16l2.19-2.19v3.19ZM802.06,71.65h-2.58v-.23h2.58v.23ZM802.06,71.01h-2.58v-9.08h2.58v9.08ZM802.06,58.04h-2.58v-4h2.58v4ZM804.85,177.22h-2.15v-.77h2.15v.77ZM804.85,176.04h-2.15v-5.12h2.15v5.12ZM804.85,170.51h-2.15v-5.11h2.15v5.11ZM804.85,164.99h-2.15v-.74h2.15v.74ZM804.85,161.3h-2.15v-1.43h2.15v1.43ZM804.85,159.46h-2.15v-2.92h2.15v2.92ZM804.85,152.02l-2.15-2.24v-.96h2.15v3.2ZM804.85,148.4h-2.15v-5.11h2.15v5.11ZM804.85,142.88h-2.15v-5.12h2.15v5.12ZM804.85,137.35h-2.15v-5.12h2.15v5.12ZM804.85,131.82h-2.15v-5.11h2.15v5.11ZM804.85,126.29h-2.15v-5.11h2.15v5.11ZM804.85,120.77h-2.15v-5.12h2.15v5.12ZM804.85,115.23h-2.15v-5.11h2.15v5.11ZM804.85,109.7h-2.15v-5.1h2.15v5.1ZM804.85,104.18h-2.15v-5.11h2.15v5.11ZM804.85,98.65h-2.15v-5.11h2.15v5.11ZM804.85,93.12h-2.15v-5.1h2.15v5.1ZM804.85,87.6h-2.15v-5.11h2.15v5.11ZM804.85,82.07h-2.15v-3.82l1.28-1.29h.87v5.11ZM804.85,76.54h-.45l.45-.45v.45ZM804.85,71.65h-2.15v-.23h2.15v.23ZM804.85,71.01h-2.15v-9.08h2.15v9.08ZM804.85,58.04h-2.15v-4h2.15v4ZM807.61,177.22h-2.13v-.77h2.13v.77ZM807.61,176.04h-2.13v-5.12h2.13v5.12ZM807.61,170.51h-2.13v-5.11h2.13v5.11ZM807.61,164.99h-2.13v-.74h2.13v.74ZM807.61,161.3h-2.13v-1.43h2.13v1.43ZM807.61,159.46h-2.13v-2.92h2.13v2.92ZM811.01,177.22h-2.06v-.77h2.06v.77ZM811.01,176.04h-2.06v-5.12h2.06v5.12ZM811.01,170.51h-2.06v-5.11h2.06v5.11ZM811.01,164.99h-2.06v-5.12h2.06v5.12ZM811.01,159.46h-2.06v-5.12h2.06v5.12ZM811.01,153.93h-2.06v-5.11h2.06v5.11ZM811.01,148.4h-2.06v-5.11h2.06v5.11ZM811.01,142.88h-2.06v-5.12h2.06v5.12ZM811.01,137.35h-2.06v-5.12h2.06v5.12ZM811.01,131.82h-2.06v-5.11h2.06v5.11ZM811.01,126.29h-2.06v-5.11h2.06v5.11ZM811.01,120.77h-2.06v-5.12h2.06v5.12ZM811.01,115.23h-2.06v-5.11h2.06v5.11ZM811.01,109.7h-2.06v-5.1h2.06v5.1ZM811.01,104.18h-2.06v-5.11h2.06v5.11ZM811.01,98.65h-2.06v-5.11h2.06v5.11ZM811.01,93.12h-2.06v-5.1h2.06v5.1ZM811.01,87.6h-2.06v-5.11h2.06v5.11ZM811.01,82.07h-2.06v-5.11h2.06v5.11ZM811.01,76.54h-2.06v-5.12h2.06v5.12ZM811.01,71.01h-2.06v-2.44h2.06v2.44ZM811.01,64.25h-2.06v-2.32h2.06v2.32ZM811.01,57.61h-2.06v-2.32h2.06v2.32ZM814.19,177.22h-2.55v-.77h2.55v.77ZM814.19,176.04h-2.55v-5.12h2.55v5.12ZM814.19,170.51h-2.55v-5.11h2.55v5.11ZM814.19,164.99h-2.55v-5.12h2.55v5.12ZM814.19,159.46h-2.55v-5.12h2.55v5.12ZM814.19,153.93h-2.55v-5.11h2.55v5.11ZM814.19,148.4h-2.55v-5.11h2.55v5.11ZM814.19,142.88h-2.55v-5.12h2.55v5.12ZM814.19,137.35h-2.55v-5.12h2.55v5.12ZM814.19,131.82h-2.55v-5.11h2.55v5.11ZM814.19,126.29h-2.55v-5.11h2.55v5.11ZM814.19,120.77h-2.55v-5.12h2.55v5.12ZM814.19,115.23h-2.55v-5.11h2.55v5.11ZM814.19,109.7h-2.55v-5.1h2.55v5.1ZM814.19,104.18h-2.55v-5.11h2.55v5.11ZM814.19,98.65h-2.55v-5.11h2.55v5.11ZM814.19,93.12h-2.55v-5.1h2.55v5.1ZM814.19,87.6h-2.55v-5.11h2.55v5.11ZM814.19,82.07h-2.55v-5.11h2.55v5.11ZM814.19,76.54h-2.55v-5.12h2.55v5.12ZM814.19,71.01h-2.55v-2.44h2.55v2.44ZM814.19,64.25h-2.55v-2.32h2.55v2.32ZM814.19,57.61h-2.55v-2.32h2.55v2.32ZM817.37,177.22h-2.55v-.77h2.55v.77ZM817.37,176.04h-2.55v-5.12h2.55v5.12ZM817.37,170.51h-2.55v-5.11h2.55v5.11ZM817.37,164.99h-2.55v-5.12h2.55v5.12ZM817.37,159.46h-2.55v-5.12h2.55v5.12ZM817.37,153.93h-2.55v-5.11h2.55v5.11ZM817.37,148.4h-2.55v-5.11h2.55v5.11ZM817.37,142.88h-2.55v-5.12h2.55v5.12ZM817.37,137.35h-2.55v-5.12h2.55v5.12ZM817.37,131.82h-2.55v-5.11h2.55v5.11ZM817.37,126.29h-2.55v-5.11h2.55v5.11ZM817.37,120.77h-2.55v-5.12h2.55v5.12ZM817.37,115.23h-2.55v-5.11h2.55v5.11ZM817.37,109.7h-2.55v-5.1h2.55v5.1ZM817.37,104.18h-2.55v-5.11h2.55v5.11ZM817.37,98.65h-2.55v-5.11h2.55v5.11ZM817.37,93.12h-2.55v-5.1h2.55v5.1ZM817.37,82.07h-2.55v-5.11h2.55v5.11ZM817.37,76.54h-2.55v-5.12h2.55v5.12ZM817.37,71.01h-2.55v-2.44h2.55v2.44ZM817.37,64.25h-2.55v-2.32h2.55v2.32ZM817.37,57.61h-2.55v-2.32h2.55v2.32ZM820.52,177.22h-2.53v-.77h2.53v.77ZM820.52,176.04h-2.53v-5.12h2.53v5.12ZM820.52,170.51h-2.53v-5.11h2.53v5.11ZM820.52,164.99h-2.53v-5.12h2.53v5.12ZM820.52,159.46h-2.53v-5.12h2.53v5.12ZM820.52,153.93h-2.53v-5.11h2.53v5.11ZM820.52,148.4h-2.53v-5.11h2.53v5.11ZM820.52,142.88h-2.53v-5.12h2.53v5.12ZM820.52,137.35h-2.53v-5.12h2.53v5.12ZM820.52,131.82h-2.53v-5.11h2.53v5.11ZM820.52,126.29h-2.53v-5.11h2.53v5.11ZM820.52,120.77h-2.53v-5.12h2.53v5.12ZM820.52,115.23h-2.53v-5.11h2.53v5.11ZM820.52,109.7h-2.53v-5.1h2.53v5.1ZM820.52,104.18h-2.53v-5.11h2.53v5.11ZM820.52,98.65h-2.53v-5.11h2.53v5.11ZM820.52,93.12h-2.53v-5.1h2.53v5.1ZM820.52,87.6h-2.53v-5.11h2.53v5.11ZM820.52,82.07h-2.53v-5.11h2.53v5.11ZM820.52,76.54h-2.53v-5.12h2.53v5.12ZM820.52,71.01h-2.53v-2.44h2.53v2.44ZM820.52,64.25h-2.53v-2.32h2.53v2.32ZM820.52,57.61h-2.53v-2.32h2.53v2.32ZM825.63,177.22h-2.06v-.77h2.06v.77ZM825.63,176.04h-2.06v-5.12h2.06v5.12ZM825.63,170.51h-2.06v-5.11h2.06v5.11ZM825.63,164.99h-2.06v-5.12h2.06v5.12ZM825.63,159.46h-2.06v-5.12h2.06v5.12ZM825.63,153.93h-2.06v-5.11h2.06v5.11ZM825.63,148.4h-2.06v-5.11h2.06v5.11ZM825.63,142.88h-2.06v-5.12h2.06v5.12ZM825.63,137.35h-2.06v-5.12h2.06v5.12ZM825.63,131.82h-2.06v-5.11h2.06v5.11ZM825.63,126.29h-2.06v-5.11h2.06v5.11ZM825.63,120.77h-2.06v-5.12h2.06v5.12ZM825.63,115.23h-2.06v-5.11h2.06v5.11ZM825.63,109.7h-2.06v-5.1h2.06v5.1ZM825.63,104.18h-2.06v-5.11h2.06v5.11ZM825.63,98.65h-2.06v-5.11h2.06v5.11ZM825.63,93.12h-2.06v-5.1h2.06v5.1ZM825.63,87.6h-2.06v-5.11h2.06v5.11ZM825.63,82.07h-2.06v-5.11h2.06v5.11ZM825.63,76.54h-2.06v-5.12h2.06v5.12ZM825.63,71.01h-2.06v-2.44h2.06v2.44ZM825.63,64.25h-2.06v-2.32h2.06v2.32ZM825.63,57.61h-2.06v-2.32h2.06v2.32ZM828.81,177.22h-2.55v-.77h2.55v.77ZM828.81,176.04h-2.55v-5.12h2.55v5.12ZM828.81,170.51h-2.55v-5.11h2.55v5.11ZM828.81,164.99h-2.55v-5.12h2.55v5.12ZM828.81,159.46h-2.55v-5.12h2.55v5.12ZM828.81,153.93h-2.55v-5.11h2.55v5.11ZM828.81,148.4h-2.55v-5.11h2.55v5.11ZM828.81,142.88h-2.55v-5.12h2.55v5.12ZM828.81,137.35h-2.55v-5.12h2.55v5.12ZM828.81,131.82h-2.55v-5.11h2.55v5.11ZM828.81,126.29h-2.55v-5.11h2.55v5.11ZM828.81,120.77h-2.55v-5.12h2.55v5.12ZM828.81,115.23h-2.55v-5.11h2.55v5.11ZM828.81,109.7h-2.55v-5.1h2.55v5.1ZM828.81,104.18h-2.55v-5.11h2.55v5.11ZM828.81,98.65h-2.55v-5.11h2.55v5.11ZM828.81,93.12h-2.55v-5.1h2.55v5.1ZM828.81,87.6h-2.55v-5.11h2.55v5.11ZM828.81,82.07h-2.55v-5.11h2.55v5.11ZM828.81,76.54h-2.55v-5.12h2.55v5.12ZM828.81,71.01h-2.55v-2.44h2.55v2.44ZM828.81,64.25h-2.55v-2.32h2.55v2.32ZM828.81,57.61h-2.55v-2.32h2.55v2.32ZM831.99,177.22h-2.55v-.77h2.55v.77ZM831.99,176.04h-2.55v-5.12h2.55v5.12ZM831.99,170.51h-2.55v-5.11h2.55v5.11ZM831.99,164.99h-2.55v-5.12h2.55v5.12ZM831.99,159.46h-2.55v-5.12h2.55v5.12ZM831.99,153.93h-2.55v-5.11h2.55v5.11ZM831.99,148.4h-2.55v-5.11h2.55v5.11ZM831.99,142.88h-2.55v-5.12h2.55v5.12ZM831.99,137.35h-2.55v-5.12h2.55v5.12ZM831.99,131.82h-2.55v-5.11h2.55v5.11ZM831.99,126.29h-2.55v-5.11h2.55v5.11ZM831.99,120.77h-2.55v-5.12h2.55v5.12ZM831.99,115.23h-2.55v-5.11h2.55v5.11ZM831.99,109.7h-2.55v-5.1h2.55v5.1ZM831.99,104.18h-2.55v-5.11h2.55v5.11ZM831.99,98.65h-2.55v-5.11h2.55v5.11ZM831.99,93.12h-2.55v-5.1h2.55v5.1ZM831.99,87.6h-2.55v-5.11h2.55v5.11ZM831.99,82.07h-2.55v-5.11h2.55v5.11ZM831.99,76.54h-2.55v-5.12h2.55v5.12ZM831.99,71.01h-2.55v-2.44h2.55v2.44ZM831.99,64.25h-2.55v-2.32h2.55v2.32ZM831.99,57.61h-2.55v-2.32h2.55v2.32ZM835.14,177.22h-2.53v-.77h2.53v.77ZM835.14,176.04h-2.53v-5.12h2.53v5.12ZM835.14,170.51h-2.53v-5.11h2.53v5.11ZM835.14,164.99h-2.53v-5.12h2.53v5.12ZM835.14,159.46h-2.53v-5.12h2.53v5.12ZM835.14,153.93h-2.53v-5.11h2.53v5.11ZM835.14,148.4h-2.53v-5.11h2.53v5.11ZM835.14,142.88h-2.53v-5.12h2.53v5.12ZM835.14,137.35h-2.53v-5.12h2.53v5.12ZM835.14,131.82h-2.53v-5.11h2.53v5.11ZM835.14,126.29h-2.53v-5.11h2.53v5.11ZM835.14,120.77h-2.53v-5.12h2.53v5.12ZM835.14,115.23h-2.53v-5.11h2.53v5.11ZM835.14,109.7h-2.53v-5.1h2.53v5.1ZM835.14,104.18h-2.53v-5.11h2.53v5.11ZM835.14,98.65h-2.53v-5.11h2.53v5.11ZM835.14,93.12h-2.53v-5.1h2.53v5.1ZM835.14,87.6h-2.53v-5.11h2.53v5.11ZM835.14,82.07h-2.53v-5.11h2.53v5.11ZM835.14,76.54h-2.53v-5.12h2.53v5.12ZM835.14,71.01h-2.53v-2.44h2.53v2.44ZM835.14,64.25h-2.53v-2.32h2.53v2.32ZM835.14,57.61h-2.53v-2.32h2.53v2.32ZM840.26,177.22h-2.08v-.77h2.08v.77ZM840.26,176.04h-2.08v-5.12h2.08v5.12ZM840.26,170.51h-2.08v-5.11h2.08v5.11ZM840.26,164.99h-2.08v-5.12h2.08v5.12ZM840.26,159.46h-2.08v-5.12h2.08v5.12ZM840.26,153.93h-2.08v-5.11h2.08v5.11ZM840.26,148.4h-2.08v-5.11h2.08v5.11ZM840.26,142.88h-2.08v-5.12h2.08v5.12ZM840.26,137.35h-2.08v-5.12h2.08v5.12ZM840.26,131.82h-2.08v-5.11h2.08v5.11ZM840.26,126.29h-2.08v-5.11h2.08v5.11ZM840.26,120.77h-2.08v-5.12h2.08v5.12ZM840.26,115.23h-2.08v-5.11h2.08v5.11ZM840.26,109.7h-2.08v-5.1h2.08v5.1ZM840.26,104.18h-2.08v-5.11h2.08v5.11ZM840.26,98.65h-2.08v-5.11h2.08v5.11ZM840.26,93.12h-2.08v-5.1h2.08v5.1ZM840.26,87.6h-2.08v-5.11h2.08v5.11ZM840.26,82.07h-2.08v-5.11h2.08v5.11ZM840.26,76.54h-2.08v-5.12h2.08v5.12ZM840.26,71.01h-2.08v-2.44h2.08v2.44ZM840.26,64.25h-2.08v-2.32h2.08v2.32ZM840.26,57.61h-2.08v-2.32h2.08v2.32ZM843.44,177.22h-2.56v-.77h2.56v.77ZM843.44,176.04h-2.56v-5.12h2.56v5.12ZM843.44,170.51h-2.56v-5.11h2.56v5.11ZM843.44,164.99h-2.56v-5.12h2.56v5.12ZM843.44,159.46h-2.56v-5.12h2.56v5.12ZM843.44,153.93h-2.56v-5.11h2.56v5.11ZM843.44,148.4h-2.56v-5.11h2.56v5.11ZM843.44,142.88h-2.56v-5.12h2.56v5.12ZM843.44,137.35h-2.56v-5.12h2.56v5.12ZM843.44,131.82h-2.56v-5.11h2.56v5.11ZM843.44,126.29h-2.56v-5.11h2.56v5.11ZM843.44,120.77h-2.56v-5.12h2.56v5.12ZM843.44,115.23h-2.56v-5.11h2.56v5.11ZM843.44,109.7h-2.56v-5.1h2.56v5.1ZM843.44,104.18h-2.56v-5.11h2.56v5.11ZM843.44,98.65h-2.56v-5.11h2.56v5.11ZM843.44,93.12h-2.56v-5.1h2.56v5.1ZM843.44,87.6h-2.56v-5.11h2.56v5.11ZM843.44,82.07h-2.56v-5.11h2.56v5.11ZM843.44,76.54h-2.56v-5.12h2.56v5.12ZM843.44,71.01h-2.56v-2.44h2.56v2.44ZM843.44,64.25h-2.56v-2.32h2.56v2.32ZM843.44,57.61h-2.56v-2.32h2.56v2.32ZM846.62,177.22h-2.56v-.77h2.56v.77ZM846.62,176.04h-2.56v-5.12h2.56v5.12ZM846.62,170.51h-2.56v-5.11h2.56v5.11ZM846.62,164.99h-2.56v-5.12h2.56v5.12ZM846.62,159.46h-2.56v-5.12h2.56v5.12ZM846.62,153.93h-2.56v-5.11h2.56v5.11ZM846.62,148.4h-2.56v-5.11h2.56v5.11ZM846.62,142.88h-2.56v-5.12h2.56v5.12ZM846.62,137.35h-2.56v-5.12h2.56v5.12ZM846.62,131.82h-2.56v-5.11h2.56v5.11ZM846.62,126.29h-2.56v-5.11h2.56v5.11ZM846.62,120.77h-2.56v-5.12h2.56v5.12ZM846.62,115.23h-2.56v-5.11h2.56v5.11ZM846.62,109.7h-2.56v-5.1h2.56v5.1ZM846.62,104.18h-2.56v-5.11h2.56v5.11ZM846.62,98.65h-2.56v-5.11h2.56v5.11ZM846.62,93.12h-2.56v-5.1h2.56v5.1ZM846.62,87.6h-2.56v-5.11h2.56v5.11ZM846.62,82.07h-2.56v-5.11h2.56v5.11ZM846.62,76.54h-2.56v-5.12h2.56v5.12ZM846.62,71.01h-2.56v-2.44h2.56v2.44ZM846.62,64.25h-2.56v-2.32h2.56v2.32ZM846.62,57.61h-2.56v-2.32h2.56v2.32ZM849.75,177.22h-2.51v-.77h2.51v.77ZM849.75,176.04h-2.51v-5.12h2.51v5.12ZM849.75,170.51h-2.51v-5.11h2.51v5.11ZM849.75,164.99h-2.51v-5.12h2.51v5.12ZM849.75,159.46h-2.51v-5.12h2.51v5.12ZM849.75,153.93h-2.51v-5.11h2.51v5.11ZM849.75,148.4h-2.51v-5.11h2.51v5.11ZM849.75,142.88h-2.51v-5.12h2.51v5.12ZM849.75,137.35h-2.51v-5.12h2.51v5.12ZM849.75,131.82h-2.51v-5.11h2.51v5.11ZM849.75,126.29h-2.51v-5.11h2.51v5.11ZM849.75,120.77h-2.51v-5.12h2.51v5.12ZM849.75,115.23h-2.51v-5.11h2.51v5.11ZM849.75,109.7h-2.51v-5.1h2.51v5.1ZM849.75,104.18h-2.51v-5.11h2.51v5.11ZM849.75,98.65h-2.51v-5.11h2.51v5.11ZM849.75,93.12h-2.51v-5.1h2.51v5.1ZM849.75,87.6h-2.51v-5.11h2.51v5.11ZM849.75,82.07h-2.51v-5.11h2.51v5.11ZM849.75,76.54h-2.51v-5.12h2.51v5.12ZM849.75,71.01h-2.51v-2.44h2.51v2.44ZM849.75,64.25h-2.51v-2.32h2.51v2.32ZM849.75,57.61h-2.51v-2.32h2.51v2.32ZM861.61,76.54c.05-.73.66-1.3,1.4-1.3s1.35.57,1.4,1.3c.01.04.01.07.01.1,0,.11-.01.22-.04.32-.14.63-.7,1.09-1.37,1.09s-1.23-.46-1.37-1.09c-.03-.1-.04-.21-.04-.32,0-.03,0-.06.01-.1ZM854.88,75.81l1.21.73h-1.21v-.73ZM854.25,147.92h-1.87v-4.63h1.87v4.63ZM854.25,142.88h-1.87v-5.12h1.87v5.12ZM854.25,137.35h-1.87v-5.12h1.87v5.12ZM854.25,131.82h-1.87v-5.11h1.87v5.11ZM854.25,126.29h-1.87v-5.11h1.87v5.11ZM854.25,120.77h-1.87v-5.12h1.87v5.12ZM854.25,115.23h-1.87v-5.11h1.87v5.11ZM854.25,109.7h-1.87v-5.1h1.87v5.1ZM854.25,104.18h-1.87v-5.11h1.87v5.11ZM854.25,98.65h-1.87v-5.11h1.87v5.11ZM854.25,93.12h-1.87v-5.1h1.87v5.1ZM854.25,87.6h-1.87v-5.11h1.87v5.11ZM854.25,82.07h-1.87v-5.11h1.87v5.11ZM854.25,76.54h-1.87v-2.24l1.87,1.13v1.11ZM857.43,162.26h-1.19v-2.39h1.19v2.39ZM857.43,159.46h-1.19v-2.92h1.19v2.92ZM857.43,147.92h-2.55v-4.63h2.55v4.63ZM857.43,142.88h-2.55v-5.12h2.55v5.12ZM857.43,137.35h-2.55v-5.12h2.55v5.12ZM857.43,131.82h-2.55v-5.11h2.55v5.11ZM857.43,126.29h-2.55v-5.11h2.55v5.11ZM857.43,120.77h-2.55v-5.12h2.55v5.12ZM857.43,115.23h-2.55v-5.11h2.55v5.11ZM857.43,109.7h-2.55v-5.1h2.55v5.1ZM857.43,104.18h-2.55v-5.11h2.55v5.11ZM857.43,98.65h-2.55v-5.11h2.55v5.11ZM857.43,93.12h-2.55v-5.1h2.55v5.1ZM857.43,87.6h-2.55v-5.11h2.55v5.11ZM857.43,82.07h-2.55v-5.11h1.9l.65.4v4.71ZM859.24,162.26h-1.18v-2.39h1.18v2.39ZM859.24,159.46h-1.18v-2.92h1.18v2.92ZM860.61,147.92h-2.55v-4.63h2.55v4.63ZM860.61,142.88h-2.55v-5.12h2.55v5.12ZM860.61,137.35h-2.55v-5.12h2.55v5.12ZM860.61,131.82h-2.55v-5.11h2.55v5.11ZM860.61,126.29h-2.55v-5.11h2.55v5.11ZM860.61,120.77h-2.55v-5.12h2.55v5.12ZM860.61,115.23h-2.55v-5.11h2.55v5.11ZM860.61,109.7h-2.55v-5.1h2.55v5.1ZM860.61,104.18h-2.55v-5.11h2.55v5.11ZM860.61,98.65h-2.55v-5.11h2.55v5.11ZM860.61,93.12h-2.55v-5.1h2.55v5.1ZM860.61,87.6h-2.55v-5.11h2.55v5.11ZM860.61,82.07h-2.55v-4.33l2.55,1.54v2.79ZM864.43,162.26h-3v-2.39h3v2.39ZM864.43,159.46h-3v-2.92h3v2.92ZM864.43,147.92h-3.19v-4.63h3.19v4.63ZM864.43,142.88h-3.19v-5.12h3.19v5.12ZM864.43,137.35h-3.19v-5.12h3.19v5.12ZM864.43,131.82h-3.19v-5.11h3.19v5.11ZM864.43,126.29h-3.19v-5.11h3.19v5.11ZM864.43,120.77h-3.19v-5.12h3.19v5.12ZM864.43,115.23h-3.19v-5.11h3.19v5.11ZM864.43,109.7h-3.19v-5.1h3.19v5.1ZM864.43,104.18h-3.19v-5.11h3.19v5.11ZM864.43,98.65h-3.19v-5.11h3.19v5.11ZM864.43,93.12h-3.19v-5.1h3.19v5.1ZM864.43,87.6h-3.19v-5.11h3.19v5.11ZM864.43,82.07h-3.19v-2.4l3.19,1.94v.46ZM1002.39,33.03h3.29v2.19h-3.29v-2.19ZM1002.39,39.3h3.29v3.28h-3.29v-3.28ZM1002.39,43.22h3.29v5.21h-3.29v-5.21ZM1002.39,49.07h3.29v5.21h-3.29v-5.21ZM1002.39,54.92h3.29v5.2h-3.29v-5.2ZM1002.39,60.76h3.29v5.21h-3.29v-5.21ZM1002.39,66.61h3.29v5.21h-3.29v-5.21ZM1002.39,72.46h3.29v5.2h-3.29v-5.2ZM1002.39,78.3h3.29v5.2h-3.29v-5.2ZM1002.39,84.14h3.29v5.21h-3.29v-5.21ZM1002.39,89.99h3.29v5.21h-3.29v-5.21ZM1002.39,95.84h3.29v5.2h-3.29v-5.2ZM1002.39,101.68h3.29v5.21h-3.29v-5.21ZM1002.39,107.53h3.29v5.21h-3.29v-5.21ZM1002.39,113.37h3.29v5.21h-3.29v-5.21ZM1002.39,119.22h3.29v5.2h-3.29v-5.2ZM1002.39,125.07h3.29v5.2h-3.29v-5.2ZM1002.39,130.91h3.29v5.2h-3.29v-5.2ZM1002.39,136.75h3.29v5.21h-3.29v-5.21ZM1002.39,142.6h3.29v5.21h-3.29v-5.21ZM1002.39,148.45h3.29v.68h-3.29v-.68ZM1002.39,150.71h3.29v2.94h-3.29v-2.94ZM1002.39,154.29h3.29v.17h-3.29v-.17ZM1002.39,157.55h3.29v1.95h-3.29v-1.95ZM1002.39,160.14h3.29v5.21h-3.29v-5.21ZM1002.39,165.99h3.29v3.15h-3.29v-3.15ZM987.94,26.75h3.01v2.2h-3.01v-2.2ZM987.94,33.03h3.01v2.19h-3.01v-2.19ZM987.94,39.3h3.01v3.28h-3.01v-3.28ZM987.94,43.22h3.01v5.21h-3.01v-5.21ZM987.94,49.07h3.01v5.21h-3.01v-5.21ZM987.94,54.92h3.01v5.2h-3.01v-5.2ZM987.94,60.76h3.01v5.21h-3.01v-5.21ZM987.94,66.61h3.01v5.21h-3.01v-5.21ZM987.94,72.46h3.01v5.2h-3.01v-5.2ZM987.94,78.3h3.01v5.2h-3.01v-5.2ZM987.94,84.14h3.01v5.21h-3.01v-5.21ZM987.94,89.99h3.01v5.21h-3.01v-5.21ZM987.94,95.84h3.01v5.2h-3.01v-5.2ZM987.94,101.68h3.01v5.21h-3.01v-5.21ZM987.94,107.53h3.01v5.21h-3.01v-5.21ZM987.94,113.37h3.01v5.21h-3.01v-5.21ZM987.94,119.22h3.01v5.2h-3.01v-5.2ZM987.94,125.07h3.01v5.2h-3.01v-5.2ZM987.94,130.91h3.01v5.2h-3.01v-5.2ZM987.94,136.75h3.01v5.21h-3.01v-5.21ZM987.94,142.6h3.01v5.21h-3.01v-5.21ZM987.94,148.45h3.01v.68h-3.01v-.68ZM987.94,150.71h3.01v2.94h-3.01v-2.94ZM987.94,154.29h3.01v.17h-3.01v-.17ZM987.94,157.55h3.01v1.95h-3.01v-1.95ZM987.94,160.14h3.01v5.21h-3.01v-5.21ZM987.94,165.99h3.01v3.15h-3.01v-3.15ZM973.5,26.75h2.72v2.2h-2.72v-2.2ZM973.5,33.03h2.72v2.19h-2.72v-2.19ZM973.5,39.3h2.72v3.28h-2.72v-3.28ZM973.5,43.22h2.72v5.21h-2.72v-5.21ZM973.5,49.07h2.72v5.21h-2.72v-5.21ZM973.5,54.92h2.72v5.2h-2.72v-5.2ZM973.5,60.76h2.72v5.21h-2.72v-5.21ZM973.5,66.61h2.72v5.21h-2.72v-5.21ZM973.5,72.46h2.72v5.2h-2.72v-5.2ZM973.5,78.3h2.72v5.2h-2.72v-5.2ZM973.5,84.14h2.72v5.21h-2.72v-5.21ZM973.5,89.99h2.72v5.21h-2.72v-5.21ZM973.5,95.84h2.72v5.2h-2.72v-5.2ZM973.5,101.68h2.72v5.21h-2.72v-5.21ZM973.5,107.53h2.72v5.21h-2.72v-5.21ZM973.5,113.37h2.72v5.21h-2.72v-5.21ZM973.5,119.22h2.72v5.2h-2.72v-5.2ZM973.5,125.07h2.72v5.2h-2.72v-5.2ZM973.5,130.91h2.72v5.2h-2.72v-5.2ZM973.5,136.75h2.72v5.21h-2.72v-5.21ZM973.5,142.6h2.72v5.21h-2.72v-5.21ZM973.5,148.45h2.72v.68h-2.72v-.68ZM973.5,150.71h2.72v2.94h-2.72v-2.94ZM973.5,154.29h2.72v.17h-2.72v-.17ZM973.5,157.55h2.72v1.95h-2.72v-1.95ZM973.5,160.14h2.72v5.21h-2.72v-5.21ZM973.5,165.99h2.72v3.15h-2.72v-3.15ZM958.4,26.75h3.09v2.2h-3.09v-2.2ZM958.4,31.95h3.09v4.79h-3.09v-4.79ZM958.4,37.39h3.09v4.98h-3.09v-4.98ZM958.4,48.17l3.09-3.09v3.35h-3.09v-.26ZM958.4,49.07h3.09v5.21h-3.09v-5.21ZM958.4,54.92h3.09v5.2h-3.09v-5.2ZM958.4,60.76h3.09v5.21h-3.09v-5.21ZM958.4,66.61h3.09v5.21h-3.09v-5.21ZM958.4,72.46h3.09v5.2h-3.09v-5.2ZM958.4,78.3h3.09v5.2h-3.09v-5.2ZM958.4,84.14h3.09v5.21h-3.09v-5.21ZM958.4,89.99h3.09v5.21h-3.09v-5.21ZM958.4,95.84h3.09v5.2h-3.09v-5.2ZM958.4,101.68h3.09v5.21h-3.09v-5.21ZM958.4,107.53h3.09v5.21h-3.09v-5.21ZM958.4,113.37h3.09v5.21h-3.09v-5.21ZM958.4,119.22h3.09v5.2h-3.09v-5.2ZM958.4,125.07h3.09v5.2h-3.09v-5.2ZM958.4,130.91h3.09v5.2h-3.09v-5.2ZM958.4,136.75h3.09v5.21h-3.09v-5.21ZM958.4,142.6h3.09v4.88l-3.09-2.94v-1.94ZM958.4,150.71h3.09v2.94h-3.09v-2.94ZM958.4,154.29h3.09v.17h-3.09v-.17ZM958.4,157.55h3.09v1.95h-3.09v-1.95ZM958.4,160.14h3.09v5.21h-3.09v-5.21ZM958.4,165.99h3.09v3.15h-3.09v-3.15ZM949.45,26.75h1.7v2.2h-1.7v-2.2ZM949.45,31.95h1.7v4.79h-1.7v-4.79ZM949.45,37.39h1.7v4.98h-1.7v-4.98ZM944.68,47.83l2.75-2.75v3.35h-2.75v-.6ZM944.68,49.07h2.75v5.21h-2.75v-5.21ZM944.68,54.92h2.75v5.2h-2.75v-5.2ZM944.68,60.76h2.75v5.21h-2.75v-5.21ZM944.68,66.61h2.75v5.21h-2.75v-5.21ZM944.68,72.46h2.75v5.2h-2.75v-5.2ZM944.68,78.3h2.75v5.2h-2.75v-5.2ZM944.68,84.14h2.75v5.21h-2.75v-5.21ZM944.68,89.99h2.75v5.21h-2.75v-5.21ZM944.68,95.84h2.75v5.2h-2.75v-5.2ZM944.68,101.68h2.75v5.21h-2.75v-5.21ZM944.68,107.53h2.75v5.21h-2.75v-5.21ZM944.68,113.37h2.75v5.21h-2.75v-5.21ZM944.68,119.22h2.75v5.2h-2.75v-5.2ZM944.68,125.07h2.75v5.2h-2.75v-5.2ZM944.68,130.91h2.75v5.2h-2.75v-5.2ZM944.68,136.75h2.75v5.21h-2.75v-5.21ZM944.68,142.6h2.75v4.88l-2.75-2.62v-2.26ZM944.68,157.55h2.75v1.95h-2.75v-1.95ZM944.68,160.14h2.75v5.21h-2.75v-5.21ZM944.68,165.99h2.75v3.15h-2.75v-3.15ZM938.02,136.11v-5.2h1.99v5.2h-1.99ZM940.01,136.75v5.21h-1.99v-5.21h1.99ZM938.02,130.27v-5.2h1.99v5.2h-1.99ZM938.02,124.42v-5.2h1.99v5.2h-1.99ZM938.02,118.58v-5.21h1.99v5.21h-1.99ZM938.02,112.74v-5.21h1.99v5.21h-1.99ZM938.02,106.89v-5.21h1.99v5.21h-1.99ZM938.02,101.04v-5.2h1.99v5.2h-1.99ZM938.02,95.2v-5.21h1.99v5.21h-1.99ZM938.02,89.35v-5.21h1.99v5.21h-1.99ZM938.02,83.5v-5.2h1.99v5.2h-1.99ZM938.02,77.66v-5.2h1.99v5.2h-1.99ZM938.02,71.82v-5.21h1.99v5.21h-1.99ZM938.02,65.97v-5.21h1.99v5.21h-1.99ZM938.02,60.12v-5.2h1.99v5.2h-1.99ZM938.02,54.28v-3.21h1.99v3.21h-1.99ZM937.73,46.46c.78,0,1.42.64,1.42,1.42,0,.19-.05.38-.12.55-.11.27-.3.49-.54.64-.22.15-.49.23-.76.23-.29,0-.54-.08-.76-.23-.25-.15-.43-.37-.55-.64-.07-.17-.11-.36-.11-.55,0-.78.63-1.42,1.42-1.42ZM935.38,51.07h2.05v3.21h-2.05v-3.21ZM935.38,54.92h2.05v5.2h-2.05v-5.2ZM935.38,60.76h2.05v5.21h-2.05v-5.21ZM935.38,66.61h2.05v5.21h-2.05v-5.21ZM935.38,72.46h2.05v5.2h-2.05v-5.2ZM935.38,78.3h2.05v5.2h-2.05v-5.2ZM935.38,84.14h2.05v5.21h-2.05v-5.21ZM935.38,89.99h2.05v5.21h-2.05v-5.21ZM935.38,95.84h2.05v5.2h-2.05v-5.2ZM935.38,101.68h2.05v5.21h-2.05v-5.21ZM935.38,107.53h2.05v5.21h-2.05v-5.21ZM935.38,113.37h2.05v5.21h-2.05v-5.21ZM935.38,119.22h2.05v5.2h-2.05v-5.2ZM935.38,125.07h2.05v5.2h-2.05v-5.2ZM935.38,130.91h2.05v5.2h-2.05v-5.2ZM935.38,136.75h2.05v5.21h-2.05v-5.21ZM937.43,175.41h-1.98v-1.96h1.98v1.96ZM937.43,172.8h-1.98v-1.49h1.98v1.49ZM937.43,169.14h-2.05v-3.15h2.05v3.15ZM937.43,165.35h-2.05v-5.21h2.05v5.21ZM937.43,159.5h-2.05v-1.95h2.05v1.95ZM937.43,146.4c-.11-.2-.16-.42-.16-.64s.05-.45.16-.64c.12-.26.33-.47.59-.6.2-.12.43-.18.67-.18.78,0,1.41.63,1.41,1.42s-.63,1.41-1.41,1.41c-.24,0-.47-.06-.67-.17-.26-.13-.46-.34-.59-.6ZM944.08,175.41h-6.06v-1.96h6.06v1.96ZM944.08,172.8h-6.06v-1.49h6.06v1.49ZM944.08,169.14h-6.06v-3.15h6.06v3.15ZM944.08,165.35h-6.06v-5.21h6.06v5.21ZM944.08,159.5h-6.06v-1.95h6.06v1.95ZM944.08,144.3l-1.78-1.7h1.78v1.7ZM944.08,141.96h-2.68v-5.21h2.68v5.21ZM944.08,136.11h-2.68v-5.2h2.68v5.2ZM944.08,130.27h-2.68v-5.2h2.68v5.2ZM944.08,124.42h-2.68v-5.2h2.68v5.2ZM944.08,118.58h-2.68v-5.21h2.68v5.21ZM944.08,112.74h-2.68v-5.21h2.68v5.21ZM944.08,106.89h-2.68v-5.21h2.68v5.21ZM944.08,101.04h-2.68v-5.2h2.68v5.2ZM944.08,95.2h-2.68v-5.21h2.68v5.21ZM944.08,89.35h-2.68v-5.21h2.68v5.21ZM944.08,83.5h-2.68v-5.2h2.68v5.2ZM944.08,77.66h-2.68v-5.2h2.68v5.2ZM944.08,71.82h-2.68v-5.21h2.68v5.21ZM944.08,65.97h-2.68v-5.21h2.68v5.21ZM944.08,60.12h-2.68v-5.2h2.68v5.2ZM944.08,54.28h-2.68v-3.21h.03l2-2h.65v5.21ZM944.08,48.43h-.01v-.02s.01.02.01.02ZM943.66,42.58c-.21.13-.44.19-.69.19s-.49-.06-.69-.19c-.44-.23-.73-.69-.73-1.23,0-.78.63-1.41,1.42-1.41s1.41.63,1.41,1.41c0,.54-.29,1-.72,1.23ZM947.5,175.41h-2.82v-1.96h2.82v1.96ZM947.5,172.8h-2.82v-1.49h2.82v1.49ZM951.15,175.41h-1.62v-1.96h1.62v1.96ZM951.15,172.8h-1.62v-1.49h1.62v1.49ZM951.15,169.14h-1.7v-3.15h1.7v3.15ZM951.15,165.35h-1.7v-5.21h1.7v5.21ZM951.15,159.5h-1.7v-1.95h1.7v1.95ZM951.15,154.46h-1.7v-.17h1.7v.17ZM951.15,153.65h-1.7v-2.94h1.7v2.94ZM951.15,141.96h-1.7v-5.21h1.7v5.21ZM951.15,136.11h-1.7v-5.2h1.7v5.2ZM951.15,130.27h-1.7v-5.2h1.7v5.2ZM951.15,124.42h-1.7v-5.2h1.7v5.2ZM951.15,118.58h-1.7v-5.21h1.7v5.21ZM951.15,112.74h-1.7v-5.21h1.7v5.21ZM951.15,106.89h-1.7v-5.21h1.7v5.21ZM951.15,101.04h-1.7v-5.2h1.7v5.2ZM951.15,95.2h-1.7v-5.21h1.7v5.21ZM951.15,89.35h-1.7v-5.21h1.7v5.21ZM951.15,83.5h-1.7v-5.2h1.7v5.2ZM951.15,77.66h-1.7v-5.2h1.7v5.2ZM951.15,71.82h-1.7v-5.21h1.7v5.21ZM951.15,65.97h-1.7v-5.21h1.7v5.21ZM951.15,60.12h-1.7v-5.2h1.7v5.2ZM951.15,54.28h-1.7v-3.21h1.7v3.21ZM951.07,49.07c-.2-.16-.35-.38-.43-.64-.04-.13-.06-.27-.06-.42,0-.47.23-.88.57-1.13.17-.13.38-.22.6-.25.08-.03.16-.04.25-.04.78,0,1.41.63,1.41,1.42,0,.15-.02.29-.07.42-.06.25-.22.48-.41.64-.25.23-.58.36-.93.36-.09,0-.17,0-.25-.04-.22-.03-.43-.12-.6-.25-.03-.02-.05-.04-.08-.07ZM951.75,136.11v-5.2h2.34v5.2h-2.34ZM954.09,136.75v5.21h-2.34v-5.21h2.34ZM951.75,130.27v-5.2h2.34v5.2h-2.34ZM951.75,124.42v-5.2h2.34v5.2h-2.34ZM951.75,118.58v-5.21h2.34v5.21h-2.34ZM951.75,112.74v-5.21h2.34v5.21h-2.34ZM951.75,106.89v-5.21h2.34v5.21h-2.34ZM951.75,101.04v-5.2h2.34v5.2h-2.34ZM951.75,95.2v-5.21h2.34v5.21h-2.34ZM951.75,89.35v-5.21h2.34v5.21h-2.34ZM951.75,83.5v-5.2h2.34v5.2h-2.34ZM951.75,77.66v-5.2h2.34v5.2h-2.34ZM951.75,71.82v-5.21h2.34v5.21h-2.34ZM951.75,65.97v-5.21h2.34v5.21h-2.34ZM951.75,60.12v-5.2h2.34v5.2h-2.34ZM951.75,54.28v-3.21h2.34v3.21h-2.34ZM951.75,145.03c.25-.26.61-.42,1.01-.42.78,0,1.41.63,1.41,1.42s-.63,1.41-1.41,1.41c-.4,0-.76-.16-1.01-.42-.26-.26-.41-.61-.41-.99s.15-.74.41-1ZM954.63,175.41h-2.88v-1.96h2.88v1.96ZM954.63,172.8h-2.88v-1.49h2.88v1.49ZM954.63,169.14h-2.88v-3.15h2.88v3.15ZM954.63,165.35h-2.88v-5.21h2.88v5.21ZM954.63,159.5h-2.88v-1.95h2.88v1.95ZM954.63,154.46h-2.88v-.17h2.88v.17ZM954.63,153.65h-2.88v-2.94h2.88v2.94ZM954.63,42.37h-2.88v-4.98h2.88v4.98ZM954.63,36.74h-2.88v-4.79h2.88v4.79ZM954.63,28.95h-2.88v-2.2h2.88v2.2ZM957.81,175.41h-2.59v-1.96h2.59v1.96ZM957.81,172.8h-2.59v-1.49h2.59v1.49ZM957.81,169.14h-2.59v-3.15h2.59v3.15ZM957.81,165.35h-2.59v-5.21h2.59v5.21ZM957.81,159.5h-2.59v-1.95h2.59v1.95ZM957.81,154.46h-2.59v-.17h2.59v.17ZM957.81,153.65h-2.59v-2.94h2.59v2.94ZM957.81,143.98l-1.44-1.38h1.44v1.38ZM957.81,141.96h-2.34v-5.21h2.34v5.21ZM957.81,136.11h-2.34v-5.2h2.34v5.2ZM957.81,130.27h-2.34v-5.2h2.34v5.2ZM957.81,124.42h-2.34v-5.2h2.34v5.2ZM957.81,118.58h-2.34v-5.21h2.34v5.21ZM957.81,112.74h-2.34v-5.21h2.34v5.21ZM957.81,106.89h-2.34v-5.21h2.34v5.21ZM957.81,101.04h-2.34v-5.2h2.34v5.2ZM957.81,95.2h-2.34v-5.21h2.34v5.21ZM957.81,89.35h-2.34v-5.21h2.34v5.21ZM957.81,83.5h-2.34v-5.2h2.34v5.2ZM957.81,77.66h-2.34v-5.2h2.34v5.2ZM957.81,71.82h-2.34v-5.21h2.34v5.21ZM957.81,65.97h-2.34v-5.21h2.34v5.21ZM957.81,60.12h-2.34v-5.2h2.34v5.2ZM957.81,54.28h-2.34v-3.21h.03l2-2h.31v5.21ZM957.81,42.37h-2.59v-4.98h2.59v4.98ZM957.81,36.74h-2.59v-4.79h2.59v4.79ZM957.81,28.95h-2.59v-2.2h2.59v2.2ZM961.57,175.41h-3.17v-1.96h3.17v1.96ZM961.57,172.8h-3.17v-1.49h3.17v1.49ZM966.9,175.41h-2.64v-1.96h2.64v1.96ZM966.9,172.8h-2.64v-1.49h2.64v1.49ZM966.9,169.14h-2.72v-3.15h2.72v3.15ZM966.9,165.35h-2.72v-5.21h2.72v5.21ZM966.9,159.5h-2.72v-1.95h2.72v1.95ZM966.9,154.46h-2.72v-.17h2.72v.17ZM966.9,153.65h-2.72v-2.94h2.72v2.94ZM966.9,149.13h-2.72v-.68h2.72v.68ZM966.9,147.81h-2.72v-5.21h2.72v5.21ZM966.9,141.96h-2.72v-5.21h2.72v5.21ZM966.9,136.11h-2.72v-5.2h2.72v5.2ZM966.9,130.27h-2.72v-5.2h2.72v5.2ZM966.9,124.42h-2.72v-5.2h2.72v5.2ZM966.9,118.58h-2.72v-5.21h2.72v5.21ZM966.9,112.74h-2.72v-5.21h2.72v5.21ZM966.9,106.89h-2.72v-5.21h2.72v5.21ZM966.9,101.04h-2.72v-5.2h2.72v5.2ZM966.9,95.2h-2.72v-5.21h2.72v5.21ZM966.9,89.35h-2.72v-5.21h2.72v5.21ZM966.9,83.5h-2.72v-5.2h2.72v5.2ZM966.9,77.66h-2.72v-5.2h2.72v5.2ZM966.9,71.82h-2.72v-5.21h2.72v5.21ZM966.9,65.97h-2.72v-5.21h2.72v5.21ZM966.9,60.12h-2.72v-5.2h2.72v5.2ZM966.9,54.28h-2.72v-5.21h2.72v5.21ZM966.9,48.43h-2.72v-5.21h2.72v5.21ZM966.9,42.58h-2.72v-3.28h2.72v3.28ZM966.9,35.22h-2.72v-2.19h2.72v2.19ZM966.9,28.95h-2.72v-2.2h2.72v2.2ZM969.91,175.41h-2.41v-1.96h2.41v1.96ZM969.91,172.8h-2.41v-1.49h2.41v1.49ZM969.91,169.14h-2.41v-3.15h2.41v3.15ZM969.91,165.35h-2.41v-5.21h2.41v5.21ZM969.91,159.5h-2.41v-1.95h2.41v1.95ZM969.91,154.46h-2.41v-.17h2.41v.17ZM969.91,153.65h-2.41v-2.94h2.41v2.94ZM969.91,149.13h-2.41v-.68h2.41v.68ZM969.91,147.81h-2.41v-5.21h2.41v5.21ZM969.91,141.96h-2.41v-5.21h2.41v5.21ZM969.91,136.11h-2.41v-5.2h2.41v5.2ZM969.91,130.27h-2.41v-5.2h2.41v5.2ZM969.91,124.42h-2.41v-5.2h2.41v5.2ZM969.91,118.58h-2.41v-5.21h2.41v5.21ZM969.91,112.74h-2.41v-5.21h2.41v5.21ZM969.91,106.89h-2.41v-5.21h2.41v5.21ZM969.91,101.04h-2.41v-5.2h2.41v5.2ZM969.91,95.2h-2.41v-5.21h2.41v5.21ZM969.91,89.35h-2.41v-5.21h2.41v5.21ZM969.91,83.5h-2.41v-5.2h2.41v5.2ZM969.91,77.66h-2.41v-5.2h2.41v5.2ZM969.91,71.82h-2.41v-5.21h2.41v5.21ZM969.91,65.97h-2.41v-5.21h2.41v5.21ZM969.91,60.12h-2.41v-5.2h2.41v5.2ZM969.91,54.28h-2.41v-5.21h2.41v5.21ZM969.91,48.43h-2.41v-5.21h2.41v5.21ZM969.91,42.58h-2.41v-3.28h2.41v3.28ZM969.91,35.22h-2.41v-2.19h2.41v2.19ZM969.91,28.95h-2.41v-2.2h2.41v2.2ZM972.91,175.41h-2.41v-1.96h2.41v1.96ZM972.91,172.8h-2.41v-1.49h2.41v1.49ZM972.91,169.14h-2.41v-3.15h2.41v3.15ZM972.91,165.35h-2.41v-5.21h2.41v5.21ZM972.91,159.5h-2.41v-1.95h2.41v1.95ZM972.91,154.46h-2.41v-.17h2.41v.17ZM972.91,153.65h-2.41v-2.94h2.41v2.94ZM972.91,149.13h-2.41v-.68h2.41v.68ZM972.91,147.81h-2.41v-5.21h2.41v5.21ZM972.91,141.96h-2.41v-5.21h2.41v5.21ZM972.91,136.11h-2.41v-5.2h2.41v5.2ZM972.91,130.27h-2.41v-5.2h2.41v5.2ZM972.91,124.42h-2.41v-5.2h2.41v5.2ZM972.91,118.58h-2.41v-5.21h2.41v5.21ZM972.91,112.74h-2.41v-5.21h2.41v5.21ZM972.91,106.89h-2.41v-5.21h2.41v5.21ZM972.91,101.04h-2.41v-5.2h2.41v5.2ZM972.91,95.2h-2.41v-5.21h2.41v5.21ZM972.91,89.35h-2.41v-5.21h2.41v5.21ZM972.91,83.5h-2.41v-5.2h2.41v5.2ZM972.91,77.66h-2.41v-5.2h2.41v5.2ZM972.91,71.82h-2.41v-5.21h2.41v5.21ZM972.91,65.97h-2.41v-5.21h2.41v5.21ZM972.91,60.12h-2.41v-5.2h2.41v5.2ZM972.91,54.28h-2.41v-5.21h2.41v5.21ZM972.91,48.43h-2.41v-5.21h2.41v5.21ZM972.91,42.58h-2.41v-3.28h2.41v3.28ZM972.91,35.22h-2.41v-2.19h2.41v2.19ZM972.91,28.95h-2.41v-2.2h2.41v2.2ZM976.3,175.41h-2.8v-1.96h2.8v1.96ZM976.3,172.8h-2.8v-1.49h2.8v1.49ZM981.34,175.41h-2.36v-1.96h2.36v1.96ZM981.34,172.8h-2.36v-1.49h2.36v1.49ZM981.34,169.14h-2.43v-3.15h2.43v3.15ZM981.34,165.35h-2.43v-5.21h2.43v5.21ZM981.34,159.5h-2.43v-1.95h2.43v1.95ZM981.34,154.46h-2.43v-.17h2.43v.17ZM981.34,153.65h-2.43v-2.94h2.43v2.94ZM981.34,149.13h-2.43v-.68h2.43v.68ZM981.34,147.81h-2.43v-5.21h2.43v5.21ZM981.34,141.96h-2.43v-5.21h2.43v5.21ZM981.34,136.11h-2.43v-5.2h2.43v5.2ZM981.34,130.27h-2.43v-5.2h2.43v5.2ZM981.34,124.42h-2.43v-5.2h2.43v5.2ZM981.34,118.58h-2.43v-5.21h2.43v5.21ZM981.34,112.74h-2.43v-5.21h2.43v5.21ZM981.34,106.89h-2.43v-5.21h2.43v5.21ZM981.34,101.04h-2.43v-5.2h2.43v5.2ZM981.34,95.2h-2.43v-5.21h2.43v5.21ZM981.34,89.35h-2.43v-5.21h2.43v5.21ZM981.34,83.5h-2.43v-5.2h2.43v5.2ZM981.34,77.66h-2.43v-5.2h2.43v5.2ZM981.34,71.82h-2.43v-5.21h2.43v5.21ZM981.34,65.97h-2.43v-5.21h2.43v5.21ZM981.34,60.12h-2.43v-5.2h2.43v5.2ZM981.34,54.28h-2.43v-5.21h2.43v5.21ZM981.34,48.43h-2.43v-5.21h2.43v5.21ZM981.34,42.58h-2.43v-3.28h2.43v3.28ZM981.34,35.22h-2.43v-2.19h2.43v2.19ZM981.34,28.95h-2.43v-2.2h2.43v2.2ZM984.35,175.41h-2.41v-1.96h2.41v1.96ZM984.35,172.8h-2.41v-1.49h2.41v1.49ZM984.35,169.14h-2.41v-3.15h2.41v3.15ZM984.35,165.35h-2.41v-5.21h2.41v5.21ZM984.35,159.5h-2.41v-1.95h2.41v1.95ZM984.35,154.46h-2.41v-.17h2.41v.17ZM984.35,153.65h-2.41v-2.94h2.41v2.94ZM984.35,149.13h-2.41v-.68h2.41v.68ZM984.35,147.81h-2.41v-5.21h2.41v5.21ZM984.35,141.96h-2.41v-5.21h2.41v5.21ZM984.35,136.11h-2.41v-5.2h2.41v5.2ZM984.35,130.27h-2.41v-5.2h2.41v5.2ZM984.35,124.42h-2.41v-5.2h2.41v5.2ZM984.35,118.58h-2.41v-5.21h2.41v5.21ZM984.35,112.74h-2.41v-5.21h2.41v5.21ZM984.35,106.89h-2.41v-5.21h2.41v5.21ZM984.35,101.04h-2.41v-5.2h2.41v5.2ZM984.35,95.2h-2.41v-5.21h2.41v5.21ZM984.35,89.35h-2.41v-5.21h2.41v5.21ZM984.35,83.5h-2.41v-5.2h2.41v5.2ZM984.35,77.66h-2.41v-5.2h2.41v5.2ZM984.35,71.82h-2.41v-5.21h2.41v5.21ZM984.35,65.97h-2.41v-5.21h2.41v5.21ZM984.35,60.12h-2.41v-5.2h2.41v5.2ZM984.35,54.28h-2.41v-5.21h2.41v5.21ZM984.35,48.43h-2.41v-5.21h2.41v5.21ZM984.35,42.58h-2.41v-3.28h2.41v3.28ZM984.35,35.22h-2.41v-2.19h2.41v2.19ZM984.35,28.95h-2.41v-2.2h2.41v2.2ZM987.35,175.41h-2.41v-1.96h2.41v1.96ZM987.35,172.8h-2.41v-1.49h2.41v1.49ZM987.35,169.14h-2.41v-3.15h2.41v3.15ZM987.35,165.35h-2.41v-5.21h2.41v5.21ZM987.35,159.5h-2.41v-1.95h2.41v1.95ZM987.35,154.46h-2.41v-.17h2.41v.17ZM987.35,153.65h-2.41v-2.94h2.41v2.94ZM987.35,149.13h-2.41v-.68h2.41v.68ZM987.35,147.81h-2.41v-5.21h2.41v5.21ZM987.35,141.96h-2.41v-5.21h2.41v5.21ZM987.35,136.11h-2.41v-5.2h2.41v5.2ZM987.35,130.27h-2.41v-5.2h2.41v5.2ZM987.35,124.42h-2.41v-5.2h2.41v5.2ZM987.35,118.58h-2.41v-5.21h2.41v5.21ZM987.35,112.74h-2.41v-5.21h2.41v5.21ZM987.35,106.89h-2.41v-5.21h2.41v5.21ZM987.35,101.04h-2.41v-5.2h2.41v5.2ZM987.35,95.2h-2.41v-5.21h2.41v5.21ZM987.35,89.35h-2.41v-5.21h2.41v5.21ZM987.35,83.5h-2.41v-5.2h2.41v5.2ZM987.35,77.66h-2.41v-5.2h2.41v5.2ZM987.35,71.82h-2.41v-5.21h2.41v5.21ZM987.35,65.97h-2.41v-5.21h2.41v5.21ZM987.35,60.12h-2.41v-5.2h2.41v5.2ZM987.35,54.28h-2.41v-5.21h2.41v5.21ZM987.35,48.43h-2.41v-5.21h2.41v5.21ZM987.35,42.58h-2.41v-3.28h2.41v3.28ZM987.35,35.22h-2.41v-2.19h2.41v2.19ZM987.35,28.95h-2.41v-2.2h2.41v2.2ZM991.03,175.41h-3.09v-1.96h3.09v1.96ZM991.03,172.8h-3.09v-1.49h3.09v1.49ZM995.79,175.41h-2.08v-1.96h2.08v1.96ZM995.79,172.8h-2.08v-1.49h2.08v1.49ZM995.79,169.14h-2.15v-3.15h2.15v3.15ZM995.79,165.35h-2.15v-5.21h2.15v5.21ZM995.79,159.5h-2.15v-1.95h2.15v1.95ZM995.79,154.46h-2.15v-.17h2.15v.17ZM995.79,153.65h-2.15v-2.94h2.15v2.94ZM995.79,149.13h-2.15v-.68h2.15v.68ZM995.79,147.81h-2.15v-5.21h2.15v5.21ZM995.79,141.96h-2.15v-5.21h2.15v5.21ZM995.79,136.11h-2.15v-5.2h2.15v5.2ZM995.79,130.27h-2.15v-5.2h2.15v5.2ZM995.79,124.42h-2.15v-5.2h2.15v5.2ZM995.79,118.58h-2.15v-5.21h2.15v5.21ZM995.79,112.74h-2.15v-5.21h2.15v5.21ZM995.79,106.89h-2.15v-5.21h2.15v5.21ZM995.79,101.04h-2.15v-5.2h2.15v5.2ZM995.79,95.2h-2.15v-5.21h2.15v5.21ZM995.79,89.35h-2.15v-5.21h2.15v5.21ZM995.79,83.5h-2.15v-5.2h2.15v5.2ZM995.79,77.66h-2.15v-5.2h2.15v5.2ZM995.79,71.82h-2.15v-5.21h2.15v5.21ZM995.79,65.97h-2.15v-5.21h2.15v5.21ZM995.79,60.12h-2.15v-5.2h2.15v5.2ZM995.79,54.28h-2.15v-5.21h2.15v5.21ZM995.79,48.43h-2.15v-5.21h2.15v5.21ZM995.79,42.58h-2.15v-3.28h2.15v3.28ZM995.79,35.22h-2.15v-2.19h2.15v2.19ZM998.79,175.41h-2.41v-1.96h2.41v1.96ZM998.79,172.8h-2.41v-1.49h2.41v1.49ZM998.79,169.14h-2.41v-3.15h2.41v3.15ZM998.79,165.35h-2.41v-5.21h2.41v5.21ZM998.79,159.5h-2.41v-1.95h2.41v1.95ZM998.79,154.46h-2.41v-.17h2.41v.17ZM998.79,153.65h-2.41v-2.94h2.41v2.94ZM998.79,149.13h-2.41v-.68h2.41v.68ZM998.79,147.81h-2.41v-5.21h2.41v5.21ZM998.79,141.96h-2.41v-5.21h2.41v5.21ZM998.79,136.11h-2.41v-5.2h2.41v5.2ZM998.79,130.27h-2.41v-5.2h2.41v5.2ZM998.79,124.42h-2.41v-5.2h2.41v5.2ZM998.79,118.58h-2.41v-5.21h2.41v5.21ZM998.79,112.74h-2.41v-5.21h2.41v5.21ZM998.79,106.89h-2.41v-5.21h2.41v5.21ZM998.79,101.04h-2.41v-5.2h2.41v5.2ZM998.79,95.2h-2.41v-5.21h2.41v5.21ZM998.79,89.35h-2.41v-5.21h2.41v5.21ZM998.79,83.5h-2.41v-5.2h2.41v5.2ZM998.79,77.66h-2.41v-5.2h2.41v5.2ZM998.79,71.82h-2.41v-5.21h2.41v5.21ZM998.79,65.97h-2.41v-5.21h2.41v5.21ZM998.79,60.12h-2.41v-5.2h2.41v5.2ZM998.79,54.28h-2.41v-5.21h2.41v5.21ZM998.79,48.43h-2.41v-5.21h2.41v5.21ZM998.79,42.58h-2.41v-3.28h2.41v3.28ZM998.79,35.22h-2.41v-2.19h2.41v2.19ZM1001.79,175.41h-2.41v-1.96h2.41v1.96ZM1001.79,172.8h-2.41v-1.49h2.41v1.49ZM1001.79,169.14h-2.41v-3.15h2.41v3.15ZM1001.79,165.35h-2.41v-5.21h2.41v5.21ZM1001.79,159.5h-2.41v-1.95h2.41v1.95ZM1001.79,154.46h-2.41v-.17h2.41v.17ZM1001.79,153.65h-2.41v-2.94h2.41v2.94ZM1001.79,149.13h-2.41v-.68h2.41v.68ZM1001.79,147.81h-2.41v-5.21h2.41v5.21ZM1001.79,141.96h-2.41v-5.21h2.41v5.21ZM1001.79,136.11h-2.41v-5.2h2.41v5.2ZM1001.79,130.27h-2.41v-5.2h2.41v5.2ZM1001.79,124.42h-2.41v-5.2h2.41v5.2ZM1001.79,118.58h-2.41v-5.21h2.41v5.21ZM1001.79,112.74h-2.41v-5.21h2.41v5.21ZM1001.79,106.89h-2.41v-5.21h2.41v5.21ZM1001.79,101.04h-2.41v-5.2h2.41v5.2ZM1001.79,95.2h-2.41v-5.21h2.41v5.21ZM1001.79,89.35h-2.41v-5.21h2.41v5.21ZM1001.79,83.5h-2.41v-5.2h2.41v5.2ZM1001.79,77.66h-2.41v-5.2h2.41v5.2ZM1001.79,71.82h-2.41v-5.21h2.41v5.21ZM1001.79,65.97h-2.41v-5.21h2.41v5.21ZM1001.79,60.12h-2.41v-5.2h2.41v5.2ZM1001.79,54.28h-2.41v-5.21h2.41v5.21ZM1001.79,48.43h-2.41v-5.21h2.41v5.21ZM1001.79,42.58h-2.41v-3.28h2.41v3.28ZM1001.79,35.22h-2.41v-2.19h2.41v2.19ZM1005.76,175.41h-3.37v-1.96h3.37v1.96ZM1005.76,172.93h-3.37v-1.62h3.37v1.62ZM1013.82,47.97l.55.46h-.55v-.46ZM1010.16,175.42h-1.54v-3.87h1.54v3.87ZM1010.23,169.42h-1.61v-3.43h1.61v3.43ZM1010.23,165.35h-1.61v-5.21h1.61v5.21ZM1010.23,159.5h-1.61v-1.68h1.61v1.68ZM1010.23,154.74h-1.61v-.45h1.61v.45ZM1010.23,153.65h-1.61v-2.65h1.61v2.65ZM1010.23,149.13h-1.54v-.68h1.54v.68ZM1010.23,147.81h-1.54v-5.21h1.54v5.21ZM1010.23,141.96h-1.55v-5.21h1.55v5.21ZM1010.23,136.11h-1.55v-5.2h1.55v5.2ZM1010.23,130.27h-1.55v-5.2s1.55,0,1.55,0v5.2ZM1010.23,124.42h-1.56v-5.2h1.56v5.2ZM1010.23,118.58h-1.56v-5.21s1.56,0,1.56,0v5.21ZM1010.23,112.74h-1.57v-5.21h1.57v5.21ZM1010.23,106.89h-1.57v-5.21h1.57v5.21ZM1010.23,101.04h-1.57v-5.2h1.57v5.2ZM1010.23,95.2h-1.57v-5.21h1.57v5.21ZM1010.23,89.35h-1.58v-5.21h1.58v5.21ZM1010.23,83.5h-1.58v-5.2h1.58v5.2ZM1010.23,77.66h-1.58v-5.2s1.58,0,1.58,0v5.2ZM1010.23,71.82h-1.59v-5.21h1.59v5.21ZM1010.23,65.97h-1.59v-5.21s1.59,0,1.59,0v5.21ZM1010.23,60.12h-1.6v-5.2h1.6v5.2ZM1010.23,54.28h-1.6v-5.21s1.6,0,1.6,0v5.21ZM1010.23,48.43h-1.61v-4.87l1.61,1.36v3.51ZM1013.16,175.42h-2.41v-3.87h2.41v3.87ZM1013.23,169.42h-2.41v-3.43h2.41v3.43ZM1013.23,165.35h-2.41v-5.21h2.41v5.21ZM1013.23,159.5h-2.41v-1.68h2.41v1.68ZM1013.23,154.74h-2.41v-.45h2.41v.45ZM1013.23,153.65h-2.41v-2.65h2.41v2.65ZM1013.23,149.13h-2.41v-.68h2.41v.68ZM1013.23,147.81h-2.41v-5.21h2.41v5.21ZM1013.23,141.96h-2.41v-5.21h2.41v5.21ZM1013.23,136.11h-2.41v-5.2h2.41v5.2ZM1013.23,130.27h-2.41v-5.2h2.41v5.2ZM1013.23,124.42h-2.41v-5.2h2.41v5.2ZM1013.23,118.58h-2.41v-5.21h2.41v5.21ZM1013.23,112.74h-2.41v-5.21h2.41v5.21ZM1013.23,106.89h-2.41v-5.21h2.41v5.21ZM1013.23,101.04h-2.41v-5.2h2.41v5.2ZM1013.23,95.2h-2.41v-5.21h2.41v5.21ZM1013.23,89.35h-2.41v-5.21h2.41v5.21ZM1013.23,83.5h-2.41v-5.2h2.41v5.2ZM1013.23,77.66h-2.41v-5.2h2.41v5.2ZM1013.23,71.82h-2.41v-5.21h2.41v5.21ZM1013.23,65.97h-2.41v-5.21h2.41v5.21ZM1013.23,60.12h-2.41v-5.2h2.41v5.2ZM1013.23,54.28h-2.41v-5.21h2.41v5.21ZM1013.23,48.43h-2.41v-3.01l2.41,2.05v.96ZM1015.12,175.42h-1.37v-3.87h1.37v3.87ZM1015.12,169.42h-1.3v-3.43h1.3v3.43ZM1015.12,165.35h-1.3v-5.21h1.3v5.21ZM1015.12,159.5h-1.3v-1.68h1.3v1.68ZM1015.12,154.74h-1.3v-.45h1.3v.45ZM1015.12,153.65h-1.3v-2.65h1.3v2.65ZM1016.24,149.13h-2.42v-.68h2.42v.68ZM1016.24,147.81h-2.42v-5.21h2.42v5.21ZM1016.24,141.96h-2.42v-5.21h2.42v5.21ZM1016.24,136.11h-2.42v-5.2h2.42v5.2ZM1016.24,130.27h-2.42v-5.2h2.42v5.2ZM1016.24,124.42h-2.42v-5.2h2.42v5.2ZM1016.24,118.58h-2.42v-5.21h2.42v5.21ZM1016.24,112.74h-2.42v-5.21h2.42v5.21ZM1016.24,106.89h-2.42v-5.21h2.42v5.21ZM1016.24,101.04h-2.42v-5.2h2.42v5.2ZM1016.24,95.2h-2.42v-5.21h2.42v5.21ZM1016.24,89.35h-2.42v-5.21h2.42v5.21ZM1016.24,83.5h-2.42v-5.2h2.42v5.2ZM1016.24,77.66h-2.42v-5.2h2.42v5.2ZM1016.24,71.82h-2.42v-5.21h2.42v5.21ZM1016.24,65.97h-2.42v-5.21h2.42v5.21ZM1016.24,60.12h-2.42v-5.2h2.42v5.2ZM1016.24,54.28h-2.42v-5.21h1.3l1.12.95v4.26ZM1015.97,48.43c-.31-.26-.5-.65-.5-1.08,0-.55.3-1.02.77-1.25.17-.1.38-.16.59-.16h.05c.78,0,1.42.63,1.42,1.41,0,.44-.2.83-.51,1.08-.24.22-.57.34-.91.34-.01,0-.04,0-.05-.01-.21,0-.42-.05-.59-.15-.1-.05-.19-.11-.27-.18ZM1020.67,149.13h-3.84v-.68h3.84v.68ZM1020.67,147.81h-3.84v-5.21h3.84v5.21ZM1020.67,141.96h-3.84v-5.21h3.84v5.21ZM1020.67,136.11h-3.84v-5.2h3.84v5.2ZM1020.67,130.27h-3.84v-5.2h3.84v5.2ZM1020.67,124.42h-3.84v-5.2h3.84v5.2ZM1020.67,118.58h-3.84v-5.21h3.84v5.21ZM1020.67,112.74h-3.84v-5.21h3.84v5.21ZM1020.67,106.89h-3.84v-5.21h3.84v5.21ZM1020.67,101.04h-3.84v-5.2h3.84v5.2ZM1020.67,95.2h-3.84v-5.21h3.84v5.21ZM1020.67,89.35h-3.84v-5.21h3.84v5.21ZM1020.67,83.5h-3.84v-5.2h3.84v5.2ZM1020.67,77.66h-3.84v-5.2h3.84v5.2ZM1020.67,71.82h-3.84v-5.21h3.84v5.21ZM1020.67,65.97h-3.84v-5.21h3.84v5.21ZM1020.67,60.12h-3.84v-5.2h3.84v5.2ZM1020.67,54.28h-3.84v-3.76l3.84,3.26v.5ZM1094.65,158.5h-3.76v-10.12h3.76v10.12ZM1103.36,105.86h-1.86v-4.44h1.86v4.44ZM1108.35,152.66h-2.31v-5.43h2.31v5.43ZM1108.35,137.67h-2.31v-5.44h2.31v5.44ZM1108.35,122.67h-2.31v-5.43h2.31v5.43ZM1109.63,105.86h-4.35v-4.44h4.35v4.44ZM1113.5,105.86h-2.41v-4.44h2.41v4.44Z"/>
      <rect class="cls-1" x="147.13" y="133.23" width="1.76" height="4.06"/>
      <rect class="cls-1" x="144.45" y="133.23" width="1.82" height="4.06"/>
      <rect class="cls-1" x="147.13" y="128.8" width="1.76" height="3.68"/>
      <rect class="cls-1" x="144.45" y="128.8" width="1.82" height="3.68"/>
      <rect class="cls-1" x="133.67" y="128.8" width="1.77" height="3.68"/>
      <rect class="cls-1" x="133.67" y="133.23" width="1.77" height="4.06"/>
      <rect class="cls-1" x="131" y="128.8" width="1.82" height="3.68"/>
      <rect class="cls-1" x="131" y="133.23" width="1.82" height="4.06"/>
      <rect class="cls-1" x="120.22" y="128.8" width="1.77" height="3.68"/>
      <rect class="cls-1" x="120.22" y="133.23" width="1.77" height="4.06"/>
      <rect class="cls-1" x="117.55" y="128.8" width="1.82" height="3.68"/>
      <rect class="cls-1" x="117.55" y="133.23" width="1.82" height="4.06"/>
    </g>
  </g>
</svg>