<?xml version="1.0" encoding="UTF-8"?>
<svg xmlns="http://www.w3.org/2000/svg" viewBox="0 0 1920 400">
  <defs>
    <style>
      .cls-1 {
        fill: #38643e;
      }

      .cls-1, .cls-2, .cls-3, .cls-4, .cls-5, .cls-6, .cls-7, .cls-8 {
        stroke-width: 0px;
      }

      .cls-9 {
        isolation: isolate;
      }

      .cls-2 {
        fill: #efeeea;
      }

      .cls-3 {
        fill: #fff1c0;
      }

      .cls-4 {
        fill: #4f813b;
      }

      .cls-5 {
        fill: #2f2914;
      }

      .cls-5, .cls-6 {
        mix-blend-mode: screen;
      }

      .cls-6 {
        fill: #473d16;
      }

      .cls-7 {
        fill: #d5cbe5;
        mix-blend-mode: multiply;
      }

      .cls-8 {
        fill: #ab672a;
      }

      .cls-10 {
        fill: #83d1d6;
        stroke: #231f20;
        stroke-miterlimit: 10;
      }
    </style>
  </defs>
  <g class="cls-9">
    <g id="Layer_1" data-name="Layer 1">
      <rect class="cls-10" width="1920" height="400"/>
      <ellipse class="cls-1" cx="922.43" cy="479.57" rx="1148.57" ry="170"/>
      <circle class="cls-3" cx="1759.57" cy="95.29" r="58.57"/>
      <g>
        <circle class="cls-2" cx="434.05" cy="55.17" r="20.8"/>
        <circle class="cls-2" cx="476.19" cy="58.9" r="19.2"/>
        <circle class="cls-2" cx="452.72" cy="50.9" r="23.47"/>
      </g>
      <g>
        <ellipse class="cls-2" cx="1021.75" cy="107.18" rx="36.87" ry="36.01"/>
        <ellipse class="cls-2" cx="1096.44" cy="113.65" rx="34.03" ry="33.24"/>
        <ellipse class="cls-2" cx="1054.84" cy="99.8" rx="41.6" ry="40.62"/>
      </g>
      <g>
        <circle class="cls-2" cx="611.26" cy="76.04" r="14.47"/>
        <circle class="cls-2" cx="640.57" cy="78.63" r="13.36"/>
        <circle class="cls-2" cx="624.24" cy="73.07" r="16.33"/>
      </g>
      <g>
        <circle class="cls-2" cx="76.83" cy="66.85" r="14.83"/>
        <circle class="cls-2" cx="106.88" cy="69.51" r="13.69"/>
        <circle class="cls-2" cx="90.14" cy="63.81" r="16.73"/>
      </g>
      <g>
        <path class="cls-7" d="M221.76,356.81c-57.4,3.95-88.21,25.54-38.18,19.22s73.86-17.21,73.86-17.21l-13.36-13.2s-20.01,2.63-20.01,3.23-2.3,7.97-2.3,7.97Z"/>
        <g>
          <path class="cls-8" d="M239.14,147.99l-17.12,208.82c3.42-1.05,4.21,1.32,4.21,1.32,6.85-4.21,6.58,1.58,6.58,1.58,7.9-3.42,13.43,2.37,13.43,2.37,2.63-5.53,11.32-3.16,11.32-3.16l-18.43-210.92Z"/>
          <path class="cls-7" d="M239.14,147.99l-11.59,142.72c.79,22.38,18.7,0,18.7,0l-7.11-142.72Z"/>
          <path class="cls-5" d="M257.57,358.91l-18.43-210.92,10.54,211.03c3.49-1.31,7.89-.11,7.89-.11Z"/>
          <polygon class="cls-4" points="195.69 290.71 286.28 290.71 274.95 255.16 199.11 280.18 195.69 290.71"/>
          <polygon class="cls-4" points="202.01 269.65 274.16 253.58 271.53 245.95 213.86 231.2 209.38 245.68 235.45 247.53 206.75 253.32 202.01 269.65"/>
          <polygon class="cls-4" points="214.39 228.57 270.48 242.26 264.68 225.67 242.83 227.25 263.63 223.3 261.26 215.4 216.76 221.19 214.39 228.57"/>
          <polygon class="cls-4" points="218.6 215.4 260.47 213.29 259.68 210.4 224.66 195.65 218.6 215.4"/>
          <polygon class="cls-4" points="225.45 193.02 256.78 201.97 248.88 178.27 225.97 190.39 225.45 193.02"/>
          <polygon class="cls-4" points="228.61 183.01 248.88 176.96 239.14 147.99 235.19 160.63 240.19 166.42 233.87 165.11 228.61 183.01"/>
          <polygon class="cls-6" points="262.2 290.71 286.28 290.71 274.95 255.16 257.39 260.96 262.2 290.71"/>
          <polygon class="cls-6" points="271.53 245.95 254.25 241.53 256.82 257.44 274.16 253.58 271.53 245.95"/>
          <g>
            <polygon class="cls-6" points="261.26 215.4 250.26 216.83 251.67 225.57 263.63 223.3 261.26 215.4"/>
            <polygon class="cls-6" points="264.68 225.67 251.84 226.6 253.71 238.17 270.48 242.26 264.68 225.67"/>
          </g>
          <polygon class="cls-6" points="248.46 205.67 249.78 213.83 260.47 213.29 259.68 210.4 248.46 205.67"/>
          <polygon class="cls-6" points="244.41 180.64 247.43 199.3 256.78 201.97 248.88 178.27 244.41 180.64"/>
          <polygon class="cls-6" points="248.88 176.96 239.14 147.99 244.05 178.4 248.88 176.96"/>
          <polygon class="cls-7" points="220.8 273.03 199.11 280.18 195.69 290.71 218.2 290.71 220.8 273.03"/>
          <g>
            <polygon class="cls-7" points="209.38 245.68 224.65 246.76 226.46 234.42 213.86 231.2 209.38 245.68"/>
            <polygon class="cls-7" points="224.21 249.8 206.75 253.32 202.01 269.65 221.95 265.21 224.21 249.8"/>
          </g>
          <polygon class="cls-7" points="228.63 219.65 216.76 221.19 214.39 228.57 226.87 231.62 228.63 219.65"/>
          <polygon class="cls-7" points="224.66 195.65 218.6 215.4 229.33 214.86 231.71 198.62 224.66 195.65"/>
          <polygon class="cls-7" points="225.97 190.39 225.45 193.02 232.25 194.96 233.51 186.4 225.97 190.39"/>
          <g>
            <polygon class="cls-7" points="233.87 165.11 228.61 183.01 234.25 181.33 236.55 165.66 233.87 165.11"/>
            <polygon class="cls-7" points="236.98 162.7 239.14 147.99 235.19 160.63 236.98 162.7"/>
          </g>
        </g>
      </g>
      <g>
        <path class="cls-7" d="M335.97,342.22c-44.24,3.04-67.98,19.68-29.42,14.81,38.55-4.87,56.92-13.27,56.92-13.27l-10.3-10.17s-15.42,2.03-15.42,2.49-1.78,6.14-1.78,6.14Z"/>
        <g>
          <path class="cls-8" d="M349.36,181.31l-13.19,160.91c2.64-.81,3.25,1.01,3.25,1.01,5.28-3.25,5.07,1.22,5.07,1.22,6.09-2.64,10.35,1.83,10.35,1.83,2.03-4.26,8.73-2.43,8.73-2.43l-14.2-162.53Z"/>
          <path class="cls-7" d="M349.36,181.31l-8.93,109.98c.61,17.25,14.41,0,14.41,0l-5.48-109.98Z"/>
          <path class="cls-5" d="M363.57,343.85l-14.2-162.53,8.12,162.62c2.69-1.01,6.08-.08,6.08-.08Z"/>
          <polygon class="cls-4" points="315.88 291.29 385.68 291.29 376.96 263.9 318.52 283.18 315.88 291.29"/>
          <polygon class="cls-4" points="320.75 275.06 376.35 262.68 374.32 256.8 329.88 245.43 326.43 256.59 346.52 258.01 324.4 262.48 320.75 275.06"/>
          <polygon class="cls-4" points="330.29 243.4 373.51 253.96 369.04 241.17 352.2 242.39 368.23 239.35 366.41 233.26 332.11 237.72 330.29 243.4"/>
          <polygon class="cls-4" points="333.53 233.26 365.8 231.63 365.19 229.4 338.2 218.04 333.53 233.26"/>
          <polygon class="cls-4" points="338.81 216.01 362.96 222.91 356.87 204.65 339.22 213.98 338.81 216.01"/>
          <polygon class="cls-4" points="341.25 208.3 356.87 203.63 349.36 181.31 346.32 191.05 350.17 195.52 345.3 194.5 341.25 208.3"/>
          <polygon class="cls-6" points="367.13 291.29 385.68 291.29 376.96 263.9 363.43 268.36 367.13 291.29"/>
          <polygon class="cls-6" points="374.32 256.8 361.01 253.39 362.99 265.66 376.35 262.68 374.32 256.8"/>
          <g>
            <polygon class="cls-6" points="366.41 233.26 357.93 234.36 359.02 241.09 368.23 239.35 366.41 233.26"/>
            <polygon class="cls-6" points="369.04 241.17 359.15 241.89 360.59 250.8 373.51 253.96 369.04 241.17"/>
          </g>
          <polygon class="cls-6" points="356.54 225.76 357.56 232.05 365.8 231.63 365.19 229.4 356.54 225.76"/>
          <polygon class="cls-6" points="353.43 206.47 355.75 220.85 362.96 222.91 356.87 204.65 353.43 206.47"/>
          <polygon class="cls-6" points="356.87 203.63 349.36 181.31 353.15 204.74 356.87 203.63"/>
          <polygon class="cls-7" points="335.23 277.66 318.52 283.18 315.88 291.29 333.23 291.29 335.23 277.66"/>
          <g>
            <polygon class="cls-7" points="326.43 256.59 338.2 257.43 339.59 247.92 329.88 245.43 326.43 256.59"/>
            <polygon class="cls-7" points="337.85 259.76 324.4 262.48 320.75 275.06 336.11 271.64 337.85 259.76"/>
          </g>
          <polygon class="cls-7" points="341.26 236.53 332.11 237.72 330.29 243.4 339.91 245.75 341.26 236.53"/>
          <polygon class="cls-7" points="338.2 218.04 333.53 233.26 341.8 232.84 343.64 220.33 338.2 218.04"/>
          <polygon class="cls-7" points="339.22 213.98 338.81 216.01 344.05 217.51 345.02 210.91 339.22 213.98"/>
          <g>
            <polygon class="cls-7" points="345.3 194.5 341.25 208.3 345.59 207 347.36 194.93 345.3 194.5"/>
            <polygon class="cls-7" points="347.7 192.65 349.36 181.31 346.32 191.05 347.7 192.65"/>
          </g>
        </g>
      </g>
      <g>
        <ellipse class="cls-2" cx="1548.49" cy="127.21" rx="36.87" ry="20.56"/>
        <ellipse class="cls-2" cx="1623.18" cy="130.9" rx="34.03" ry="18.98"/>
        <ellipse class="cls-2" cx="1581.58" cy="122.99" rx="41.6" ry="23.19"/>
      </g>
      <g>
        <circle class="cls-2" cx="1371.36" cy="93.7" r="14.83"/>
        <circle class="cls-2" cx="1401.41" cy="96.37" r="13.69"/>
        <circle class="cls-2" cx="1384.67" cy="90.66" r="16.73"/>
      </g>
      <g>
        <circle class="cls-2" cx="260.06" cy="84.87" r="14.47"/>
        <circle class="cls-2" cx="289.38" cy="87.47" r="13.36"/>
        <circle class="cls-2" cx="273.05" cy="81.9" r="16.33"/>
      </g>
      <g>
        <path class="cls-7" d="M404.13,377.2c-57.4,3.95-88.21,25.54-38.18,19.22s73.86-17.21,73.86-17.21l-13.36-13.2s-20.01,2.63-20.01,3.23-2.3,7.97-2.3,7.97Z"/>
        <g>
          <path class="cls-8" d="M421.51,168.39l-17.12,208.82c3.42-1.05,4.21,1.32,4.21,1.32,6.85-4.21,6.58,1.58,6.58,1.58,7.9-3.42,13.43,2.37,13.43,2.37,2.63-5.53,11.32-3.16,11.32-3.16l-18.43-210.92Z"/>
          <path class="cls-7" d="M421.51,168.39l-11.59,142.72c.79,22.38,18.7,0,18.7,0l-7.11-142.72Z"/>
          <path class="cls-5" d="M439.94,379.31l-18.43-210.92,10.54,211.03c3.49-1.31,7.89-.11,7.89-.11Z"/>
          <polygon class="cls-4" points="378.06 311.11 468.64 311.11 457.32 275.56 381.48 300.58 378.06 311.11"/>
          <polygon class="cls-4" points="384.38 290.04 456.53 273.98 453.89 266.34 396.23 251.6 391.75 266.08 417.82 267.92 389.12 273.72 384.38 290.04"/>
          <polygon class="cls-4" points="396.75 248.96 452.84 262.66 447.05 246.07 425.19 247.65 446 243.7 443.63 235.8 399.12 241.59 396.75 248.96"/>
          <polygon class="cls-4" points="400.97 235.8 442.84 233.69 442.05 230.8 407.02 216.05 400.97 235.8"/>
          <polygon class="cls-4" points="407.81 213.42 439.15 222.37 431.25 198.67 408.34 210.78 407.81 213.42"/>
          <polygon class="cls-4" points="410.97 203.41 431.25 197.35 421.51 168.39 417.56 181.03 422.56 186.82 416.24 185.5 410.97 203.41"/>
          <polygon class="cls-6" points="444.56 311.11 468.64 311.11 457.32 275.56 439.76 281.35 444.56 311.11"/>
          <polygon class="cls-6" points="453.89 266.34 436.62 261.93 439.19 277.84 456.53 273.98 453.89 266.34"/>
          <g>
            <polygon class="cls-6" points="443.63 235.8 432.63 237.23 434.04 245.97 446 243.7 443.63 235.8"/>
            <polygon class="cls-6" points="447.05 246.07 434.21 247 436.08 258.56 452.84 262.66 447.05 246.07"/>
          </g>
          <polygon class="cls-6" points="430.83 226.07 432.14 234.23 442.84 233.69 442.05 230.8 430.83 226.07"/>
          <polygon class="cls-6" points="426.78 201.03 429.8 219.7 439.15 222.37 431.25 198.67 426.78 201.03"/>
          <polygon class="cls-6" points="431.25 197.35 421.51 168.39 426.42 198.8 431.25 197.35"/>
          <polygon class="cls-7" points="403.16 293.42 381.48 300.58 378.06 311.11 400.57 311.11 403.16 293.42"/>
          <g>
            <polygon class="cls-7" points="391.75 266.08 407.02 267.16 408.83 254.82 396.23 251.6 391.75 266.08"/>
            <polygon class="cls-7" points="406.57 270.19 389.12 273.72 384.38 290.04 404.31 285.61 406.57 270.19"/>
          </g>
          <polygon class="cls-7" points="410.99 240.05 399.12 241.59 396.75 248.96 409.24 252.01 410.99 240.05"/>
          <polygon class="cls-7" points="407.02 216.05 400.97 235.8 411.7 235.26 414.08 219.02 407.02 216.05"/>
          <polygon class="cls-7" points="408.34 210.78 407.81 213.42 414.62 215.36 415.87 206.8 408.34 210.78"/>
          <g>
            <polygon class="cls-7" points="416.24 185.5 410.97 203.41 416.62 201.72 418.91 186.06 416.24 185.5"/>
            <polygon class="cls-7" points="419.35 183.1 421.51 168.39 417.56 181.03 419.35 183.1"/>
          </g>
        </g>
      </g>
      <g>
        <path class="cls-7" d="M509.05,358.41c-57.4,3.95-88.21,25.54-38.18,19.22s73.86-17.21,73.86-17.21l-13.36-13.2s-20.01,2.63-20.01,3.23-2.3,7.97-2.3,7.97Z"/>
        <g>
          <path class="cls-8" d="M526.43,149.59l-17.12,208.82c3.42-1.05,4.21,1.32,4.21,1.32,6.85-4.21,6.58,1.58,6.58,1.58,7.9-3.42,13.43,2.37,13.43,2.37,2.63-5.53,11.32-3.16,11.32-3.16l-18.43-210.92Z"/>
          <path class="cls-7" d="M526.43,149.59l-11.59,142.72c.79,22.38,18.7,0,18.7,0l-7.11-142.72Z"/>
          <path class="cls-5" d="M544.86,360.51l-18.43-210.92,10.54,211.03c3.49-1.31,7.89-.11,7.89-.11Z"/>
          <polygon class="cls-4" points="482.98 292.31 573.56 292.31 562.24 256.76 486.4 281.78 482.98 292.31"/>
          <polygon class="cls-4" points="489.3 271.25 561.45 255.18 558.82 247.55 501.15 232.8 496.67 247.28 522.74 249.13 494.04 254.92 489.3 271.25"/>
          <polygon class="cls-4" points="501.68 230.17 557.76 243.86 551.97 227.27 530.12 228.85 550.92 224.9 548.55 217 504.05 222.79 501.68 230.17"/>
          <polygon class="cls-4" points="505.89 217 547.76 214.89 546.97 212 511.95 197.25 505.89 217"/>
          <polygon class="cls-4" points="512.74 194.62 544.07 203.57 536.17 179.87 513.26 191.99 512.74 194.62"/>
          <polygon class="cls-4" points="515.9 184.61 536.17 178.56 526.43 149.59 522.48 162.23 527.48 168.02 521.16 166.71 515.9 184.61"/>
          <polygon class="cls-6" points="549.49 292.31 573.56 292.31 562.24 256.76 544.68 262.56 549.49 292.31"/>
          <polygon class="cls-6" points="558.82 247.55 541.54 243.13 544.11 259.04 561.45 255.18 558.82 247.55"/>
          <g>
            <polygon class="cls-6" points="548.55 217 537.55 218.43 538.96 227.17 550.92 224.9 548.55 217"/>
            <polygon class="cls-6" points="551.97 227.27 539.13 228.2 541 239.77 557.76 243.86 551.97 227.27"/>
          </g>
          <polygon class="cls-6" points="535.75 207.27 537.07 215.43 547.76 214.89 546.97 212 535.75 207.27"/>
          <polygon class="cls-6" points="531.7 182.24 534.72 200.9 544.07 203.57 536.17 179.87 531.7 182.24"/>
          <polygon class="cls-6" points="536.17 178.56 526.43 149.59 531.34 180 536.17 178.56"/>
          <polygon class="cls-7" points="508.09 274.63 486.4 281.78 482.98 292.31 505.49 292.31 508.09 274.63"/>
          <g>
            <polygon class="cls-7" points="496.67 247.28 511.94 248.36 513.75 236.02 501.15 232.8 496.67 247.28"/>
            <polygon class="cls-7" points="511.49 251.4 494.04 254.92 489.3 271.25 509.23 266.81 511.49 251.4"/>
          </g>
          <polygon class="cls-7" points="515.92 221.25 504.05 222.79 501.68 230.17 514.16 233.22 515.92 221.25"/>
          <polygon class="cls-7" points="511.95 197.25 505.89 217 516.62 216.46 519 200.22 511.95 197.25"/>
          <polygon class="cls-7" points="513.26 191.99 512.74 194.62 519.54 196.56 520.79 188 513.26 191.99"/>
          <g>
            <polygon class="cls-7" points="521.16 166.71 515.9 184.61 521.54 182.93 523.84 167.26 521.16 166.71"/>
            <polygon class="cls-7" points="524.27 164.3 526.43 149.59 522.48 162.23 524.27 164.3"/>
          </g>
        </g>
      </g>
      <g>
        <path class="cls-7" d="M-.26,403.59c-57.4,3.95-88.21,25.54-38.18,19.22s73.86-17.21,73.86-17.21l-13.36-13.2s-20.01,2.63-20.01,3.23-2.3,7.97-2.3,7.97Z"/>
        <g>
          <path class="cls-8" d="M17.12,194.78L0,403.59c3.42-1.05,4.21,1.32,4.21,1.32,6.85-4.21,6.58,1.58,6.58,1.58,7.9-3.42,13.43,2.37,13.43,2.37,2.63-5.53,11.32-3.16,11.32-3.16l-18.43-210.92Z"/>
          <path class="cls-7" d="M17.12,194.78l-11.59,142.72c.79,22.38,18.7,0,18.7,0l-7.11-142.72Z"/>
          <path class="cls-5" d="M35.55,405.7l-18.43-210.92,10.54,211.03c3.49-1.31,7.89-.11,7.89-.11Z"/>
          <polygon class="cls-4" points="-26.33 337.5 64.25 337.5 52.93 301.95 -22.91 326.96 -26.33 337.5"/>
          <polygon class="cls-4" points="-20.01 316.43 52.14 300.37 49.51 292.73 -8.16 277.99 -12.64 292.47 13.43 294.31 -15.27 300.11 -20.01 316.43"/>
          <polygon class="cls-4" points="-7.63 275.35 48.45 289.05 42.66 272.46 20.81 274.04 41.61 270.09 39.24 262.19 -5.26 267.98 -7.63 275.35"/>
          <polygon class="cls-4" points="-3.42 262.19 38.45 260.08 37.66 257.18 2.64 242.44 -3.42 262.19"/>
          <polygon class="cls-4" points="3.43 239.8 34.76 248.76 26.86 225.06 3.95 237.17 3.43 239.8"/>
          <polygon class="cls-4" points="6.59 229.8 26.86 223.74 17.12 194.78 13.17 207.42 18.17 213.21 11.85 211.89 6.59 229.8"/>
          <polygon class="cls-6" points="40.18 337.5 64.25 337.5 52.93 301.95 35.37 307.74 40.18 337.5"/>
          <polygon class="cls-6" points="49.51 292.73 32.23 288.31 34.8 304.23 52.14 300.37 49.51 292.73"/>
          <g>
            <polygon class="cls-6" points="39.24 262.19 28.24 263.62 29.65 272.36 41.61 270.09 39.24 262.19"/>
            <polygon class="cls-6" points="42.66 272.46 29.82 273.38 31.69 284.95 48.45 289.05 42.66 272.46"/>
          </g>
          <polygon class="cls-6" points="26.44 252.46 27.76 260.62 38.45 260.08 37.66 257.18 26.44 252.46"/>
          <polygon class="cls-6" points="22.39 227.42 25.41 246.09 34.76 248.76 26.86 225.06 22.39 227.42"/>
          <polygon class="cls-6" points="26.86 223.74 17.12 194.78 22.03 225.18 26.86 223.74"/>
          <g>
            <polygon class="cls-7" points="-12.64 292.47 2.63 293.55 4.44 281.21 -8.16 277.99 -12.64 292.47"/>
            <polygon class="cls-7" points="2.18 296.58 -15.27 300.11 -20.01 316.43 -.08 311.99 2.18 296.58"/>
          </g>
          <polygon class="cls-7" points="6.61 266.43 -5.26 267.98 -7.63 275.35 4.85 278.4 6.61 266.43"/>
          <polygon class="cls-7" points="2.64 242.44 -3.42 262.19 7.31 261.65 9.69 245.41 2.64 242.44"/>
          <polygon class="cls-7" points="3.95 237.17 3.43 239.8 10.23 241.75 11.48 233.19 3.95 237.17"/>
          <g>
            <polygon class="cls-7" points="11.85 211.89 6.59 229.8 12.23 228.11 14.53 212.45 11.85 211.89"/>
            <polygon class="cls-7" points="14.96 209.49 17.12 194.78 13.17 207.42 14.96 209.49"/>
          </g>
        </g>
      </g>
      <g>
        <path class="cls-7" d="M97.26,392.44c-44.24,3.04-67.98,19.68-29.42,14.81,38.55-4.87,56.92-13.27,56.92-13.27l-10.3-10.17s-15.42,2.03-15.42,2.49-1.78,6.14-1.78,6.14Z"/>
        <g>
          <path class="cls-8" d="M110.65,231.53l-13.19,160.91c2.64-.81,3.25,1.01,3.25,1.01,5.28-3.25,5.07,1.22,5.07,1.22,6.09-2.64,10.35,1.83,10.35,1.83,2.03-4.26,8.73-2.43,8.73-2.43l-14.2-162.53Z"/>
          <path class="cls-7" d="M110.65,231.53l-8.93,109.98c.61,17.25,14.41,0,14.41,0l-5.48-109.98Z"/>
          <path class="cls-5" d="M124.85,394.07l-14.2-162.53,8.12,162.62c2.69-1.01,6.08-.08,6.08-.08Z"/>
          <polygon class="cls-4" points="77.17 341.51 146.97 341.51 138.25 314.12 79.81 333.4 77.17 341.51"/>
          <polygon class="cls-4" points="82.04 325.28 137.64 312.9 135.61 307.02 91.17 295.65 87.72 306.81 107.81 308.23 85.69 312.7 82.04 325.28"/>
          <polygon class="cls-4" points="91.58 293.62 134.8 304.18 130.33 291.39 113.49 292.61 129.52 289.57 127.69 283.48 93.4 287.94 91.58 293.62"/>
          <polygon class="cls-4" points="94.82 283.48 127.09 281.86 126.48 279.62 99.49 268.26 94.82 283.48"/>
          <polygon class="cls-4" points="100.1 266.23 124.24 273.13 118.16 254.87 100.5 264.2 100.1 266.23"/>
          <polygon class="cls-4" points="102.53 258.52 118.16 253.85 110.65 231.53 107.61 241.27 111.46 245.74 106.59 244.72 102.53 258.52"/>
          <polygon class="cls-6" points="128.42 341.51 146.97 341.51 138.25 314.12 124.71 318.58 128.42 341.51"/>
          <polygon class="cls-6" points="135.61 307.02 122.3 303.61 124.28 315.88 137.64 312.9 135.61 307.02"/>
          <g>
            <polygon class="cls-6" points="127.69 283.48 119.22 284.58 120.31 291.32 129.52 289.57 127.69 283.48"/>
            <polygon class="cls-6" points="130.33 291.39 120.44 292.11 121.88 301.02 134.8 304.18 130.33 291.39"/>
          </g>
          <polygon class="cls-6" points="117.83 275.98 118.85 282.27 127.09 281.86 126.48 279.62 117.83 275.98"/>
          <polygon class="cls-6" points="114.71 256.69 117.04 271.07 124.24 273.13 118.16 254.87 114.71 256.69"/>
          <polygon class="cls-6" points="118.16 253.85 110.65 231.53 114.44 254.96 118.16 253.85"/>
          <polygon class="cls-7" points="96.52 327.88 79.81 333.4 77.17 341.51 94.52 341.51 96.52 327.88"/>
          <g>
            <polygon class="cls-7" points="87.72 306.81 99.48 307.65 100.88 298.14 91.17 295.65 87.72 306.81"/>
            <polygon class="cls-7" points="99.14 309.98 85.69 312.7 82.04 325.28 97.4 321.86 99.14 309.98"/>
          </g>
          <polygon class="cls-7" points="102.55 286.75 93.4 287.94 91.58 293.62 101.2 295.97 102.55 286.75"/>
          <polygon class="cls-7" points="99.49 268.26 94.82 283.48 103.09 283.06 104.93 270.55 99.49 268.26"/>
          <polygon class="cls-7" points="100.5 264.2 100.1 266.23 105.34 267.73 106.31 261.13 100.5 264.2"/>
          <g>
            <polygon class="cls-7" points="106.59 244.72 102.53 258.52 106.88 257.22 108.65 245.15 106.59 244.72"/>
            <polygon class="cls-7" points="108.99 242.87 110.65 231.53 107.61 241.27 108.99 242.87"/>
          </g>
        </g>
      </g>
      <g>
        <path class="cls-8" d="M192.36,212.2l-17.12,208.82c3.42-1.05,4.21,1.32,4.21,1.32,6.85-4.21,6.58,1.58,6.58,1.58,7.9-3.42,13.43,2.37,13.43,2.37,2.63-5.53,11.32-3.16,11.32-3.16l-18.43-210.92Z"/>
        <path class="cls-7" d="M192.36,212.2l-11.59,142.72c.79,22.38,18.7,0,18.7,0l-7.11-142.72Z"/>
        <path class="cls-5" d="M210.79,423.12l-18.43-210.92,10.54,211.03c3.49-1.31,7.89-.11,7.89-.11Z"/>
        <polygon class="cls-4" points="148.91 354.92 239.5 354.92 228.17 319.37 152.33 344.39 148.91 354.92"/>
        <polygon class="cls-4" points="155.23 333.85 227.38 317.79 224.75 310.15 167.08 295.41 162.6 309.89 188.67 311.73 159.97 317.53 155.23 333.85"/>
        <polygon class="cls-4" points="167.61 292.77 223.7 306.47 217.9 289.88 196.05 291.46 216.85 287.51 214.48 279.61 169.98 285.4 167.61 292.77"/>
        <polygon class="cls-4" points="171.82 279.61 213.69 277.5 212.9 274.61 177.88 259.86 171.82 279.61"/>
        <polygon class="cls-4" points="178.67 257.23 210 266.18 202.1 242.48 179.19 254.59 178.67 257.23"/>
        <polygon class="cls-4" points="181.83 247.22 202.1 241.16 192.36 212.2 188.41 224.84 193.41 230.63 187.09 229.31 181.83 247.22"/>
        <polygon class="cls-6" points="215.42 354.92 239.5 354.92 228.17 319.37 210.61 325.16 215.42 354.92"/>
        <polygon class="cls-6" points="224.75 310.15 207.47 305.74 210.04 321.65 227.38 317.79 224.75 310.15"/>
        <g>
          <polygon class="cls-6" points="214.48 279.61 203.48 281.04 204.89 289.78 216.85 287.51 214.48 279.61"/>
          <polygon class="cls-6" points="217.9 289.88 205.06 290.81 206.93 302.37 223.7 306.47 217.9 289.88"/>
        </g>
        <polygon class="cls-6" points="201.68 269.88 203 278.04 213.69 277.5 212.9 274.61 201.68 269.88"/>
        <polygon class="cls-6" points="197.63 244.84 200.65 263.51 210 266.18 202.1 242.48 197.63 244.84"/>
        <polygon class="cls-6" points="202.1 241.16 192.36 212.2 197.27 242.61 202.1 241.16"/>
        <polygon class="cls-7" points="174.02 337.23 152.33 344.39 148.91 354.92 171.42 354.92 174.02 337.23"/>
        <g>
          <polygon class="cls-7" points="162.6 309.89 177.87 310.97 179.68 298.63 167.08 295.41 162.6 309.89"/>
          <polygon class="cls-7" points="177.43 314 159.97 317.53 155.23 333.85 175.17 329.42 177.43 314"/>
        </g>
        <polygon class="cls-7" points="181.85 283.86 169.98 285.4 167.61 292.77 180.09 295.82 181.85 283.86"/>
        <polygon class="cls-7" points="177.88 259.86 171.82 279.61 182.55 279.07 184.93 262.83 177.88 259.86"/>
        <polygon class="cls-7" points="179.19 254.59 178.67 257.23 185.47 259.17 186.73 250.61 179.19 254.59"/>
        <g>
          <polygon class="cls-7" points="187.09 229.31 181.83 247.22 187.47 245.53 189.77 229.87 187.09 229.31"/>
          <polygon class="cls-7" points="190.2 226.91 192.36 212.2 188.41 224.84 190.2 226.91"/>
        </g>
      </g>
      <g>
        <path class="cls-7" d="M287.03,405.19c-57.4,3.95-88.21,25.54-38.18,19.22s73.86-17.21,73.86-17.21l-13.36-13.2s-20.01,2.63-20.01,3.23-2.3,7.97-2.3,7.97Z"/>
        <g>
          <path class="cls-8" d="M304.41,196.38l-17.12,208.82c3.42-1.05,4.21,1.32,4.21,1.32,6.85-4.21,6.58,1.58,6.58,1.58,7.9-3.42,13.43,2.37,13.43,2.37,2.63-5.53,11.32-3.16,11.32-3.16l-18.43-210.92Z"/>
          <path class="cls-7" d="M304.41,196.38l-11.59,142.72c.79,22.38,18.7,0,18.7,0l-7.11-142.72Z"/>
          <path class="cls-5" d="M322.84,407.3l-18.43-210.92,10.54,211.03c3.49-1.31,7.89-.11,7.89-.11Z"/>
          <polygon class="cls-4" points="260.96 339.1 351.54 339.1 340.22 303.55 264.38 328.56 260.96 339.1"/>
          <polygon class="cls-4" points="267.28 318.03 339.43 301.97 336.8 294.33 279.13 279.59 274.65 294.07 300.72 295.91 272.02 301.71 267.28 318.03"/>
          <polygon class="cls-4" points="279.65 276.95 335.74 290.65 329.95 274.06 308.09 275.64 328.9 271.69 326.53 263.79 282.02 269.58 279.65 276.95"/>
          <polygon class="cls-4" points="283.87 263.79 325.74 261.68 324.95 258.78 289.92 244.04 283.87 263.79"/>
          <polygon class="cls-4" points="290.71 241.4 322.05 250.36 314.15 226.66 291.24 238.77 290.71 241.4"/>
          <polygon class="cls-4" points="293.87 231.4 314.15 225.34 304.41 196.38 300.46 209.02 305.46 214.81 299.14 213.49 293.87 231.4"/>
          <polygon class="cls-6" points="327.47 339.1 351.54 339.1 340.22 303.55 322.66 309.34 327.47 339.1"/>
          <polygon class="cls-6" points="336.8 294.33 319.52 289.91 322.09 305.83 339.43 301.97 336.8 294.33"/>
          <g>
            <polygon class="cls-6" points="326.53 263.79 315.53 265.22 316.94 273.96 328.9 271.69 326.53 263.79"/>
            <polygon class="cls-6" points="329.95 274.06 317.11 274.98 318.98 286.55 335.74 290.65 329.95 274.06"/>
          </g>
          <polygon class="cls-6" points="313.73 254.06 315.04 262.22 325.74 261.68 324.95 258.78 313.73 254.06"/>
          <polygon class="cls-6" points="309.68 229.02 312.7 247.68 322.05 250.36 314.15 226.66 309.68 229.02"/>
          <polygon class="cls-6" points="314.15 225.34 304.41 196.38 309.32 226.78 314.15 225.34"/>
          <polygon class="cls-7" points="286.07 321.41 264.38 328.56 260.96 339.1 283.47 339.1 286.07 321.41"/>
          <g>
            <polygon class="cls-7" points="274.65 294.07 289.92 295.15 291.73 282.81 279.13 279.59 274.65 294.07"/>
            <polygon class="cls-7" points="289.47 298.18 272.02 301.71 267.28 318.03 287.21 313.59 289.47 298.18"/>
          </g>
          <polygon class="cls-7" points="293.9 268.03 282.02 269.58 279.65 276.95 292.14 280 293.9 268.03"/>
          <polygon class="cls-7" points="289.92 244.04 283.87 263.79 294.6 263.25 296.98 247.01 289.92 244.04"/>
          <polygon class="cls-7" points="291.24 238.77 290.71 241.4 297.52 243.35 298.77 234.79 291.24 238.77"/>
          <g>
            <polygon class="cls-7" points="299.14 213.49 293.87 231.4 299.52 229.71 301.81 214.05 299.14 213.49"/>
            <polygon class="cls-7" points="302.25 211.09 304.41 196.38 300.46 209.02 302.25 211.09"/>
          </g>
        </g>
      </g>
      <g>
        <path class="cls-7" d="M1378.18,340.19c-57.4,3.95-88.21,25.54-38.18,19.22,50.03-6.32,73.86-17.21,73.86-17.21l-13.36-13.2s-20.01,2.63-20.01,3.23-2.3,7.97-2.3,7.97Z"/>
        <g>
          <path class="cls-8" d="M1395.56,131.38l-17.12,208.82c3.42-1.05,4.21,1.32,4.21,1.32,6.85-4.21,6.58,1.58,6.58,1.58,7.9-3.42,13.43,2.37,13.43,2.37,2.63-5.53,11.32-3.16,11.32-3.16l-18.43-210.92Z"/>
          <path class="cls-7" d="M1395.56,131.38l-11.59,142.72c.79,22.38,18.7,0,18.7,0l-7.11-142.72Z"/>
          <path class="cls-5" d="M1413.99,342.3l-18.43-210.92,10.54,211.03c3.49-1.31,7.89-.11,7.89-.11Z"/>
          <polygon class="cls-4" points="1352.11 274.1 1442.69 274.1 1431.37 238.55 1355.53 263.57 1352.11 274.1"/>
          <polygon class="cls-4" points="1358.43 253.03 1430.58 236.97 1427.95 229.33 1370.28 214.59 1365.8 229.07 1391.87 230.91 1363.17 236.71 1358.43 253.03"/>
          <polygon class="cls-4" points="1370.81 211.95 1426.89 225.65 1421.1 209.06 1399.25 210.64 1420.05 206.69 1417.68 198.79 1373.18 204.58 1370.81 211.95"/>
          <polygon class="cls-4" points="1375.02 198.79 1416.89 196.68 1416.1 193.78 1381.08 179.04 1375.02 198.79"/>
          <polygon class="cls-4" points="1381.87 176.41 1413.2 185.36 1405.3 161.66 1382.39 173.77 1381.87 176.41"/>
          <polygon class="cls-4" points="1385.03 166.4 1405.3 160.34 1395.56 131.38 1391.61 144.02 1396.61 149.81 1390.29 148.49 1385.03 166.4"/>
          <polygon class="cls-6" points="1418.62 274.1 1442.69 274.1 1431.37 238.55 1413.81 244.34 1418.62 274.1"/>
          <polygon class="cls-6" points="1427.95 229.33 1410.67 224.92 1413.24 240.83 1430.58 236.97 1427.95 229.33"/>
          <g>
            <polygon class="cls-6" points="1417.68 198.79 1406.68 200.22 1408.09 208.96 1420.05 206.69 1417.68 198.79"/>
            <polygon class="cls-6" points="1421.1 209.06 1408.26 209.99 1410.13 221.55 1426.89 225.65 1421.1 209.06"/>
          </g>
          <polygon class="cls-6" points="1404.88 189.06 1406.2 197.22 1416.89 196.68 1416.1 193.78 1404.88 189.06"/>
          <polygon class="cls-6" points="1400.83 164.02 1403.85 182.69 1413.2 185.36 1405.3 161.66 1400.83 164.02"/>
          <polygon class="cls-6" points="1405.3 160.34 1395.56 131.38 1400.47 161.79 1405.3 160.34"/>
          <polygon class="cls-7" points="1377.22 256.41 1355.53 263.57 1352.11 274.1 1374.62 274.1 1377.22 256.41"/>
          <g>
            <polygon class="cls-7" points="1365.8 229.07 1381.07 230.15 1382.88 217.81 1370.28 214.59 1365.8 229.07"/>
            <polygon class="cls-7" points="1380.62 233.18 1363.17 236.71 1358.43 253.03 1378.36 248.59 1380.62 233.18"/>
          </g>
          <polygon class="cls-7" points="1385.05 203.04 1373.18 204.58 1370.81 211.95 1383.29 215 1385.05 203.04"/>
          <polygon class="cls-7" points="1381.08 179.04 1375.02 198.79 1385.75 198.25 1388.13 182.01 1381.08 179.04"/>
          <polygon class="cls-7" points="1382.39 173.77 1381.87 176.41 1388.67 178.35 1389.92 169.79 1382.39 173.77"/>
          <g>
            <polygon class="cls-7" points="1390.29 148.49 1385.03 166.4 1390.67 164.71 1392.97 149.05 1390.29 148.49"/>
            <polygon class="cls-7" points="1393.4 146.09 1395.56 131.38 1391.61 144.02 1393.4 146.09"/>
          </g>
        </g>
      </g>
      <g>
        <path class="cls-7" d="M1542.82,355.93c-44.24,3.04-67.98,19.68-29.42,14.81,38.55-4.87,56.92-13.27,56.92-13.27l-10.3-10.17s-15.42,2.03-15.42,2.49-1.78,6.14-1.78,6.14Z"/>
        <g>
          <path class="cls-8" d="M1556.21,195.02l-13.19,160.91c2.64-.81,3.25,1.01,3.25,1.01,5.28-3.25,5.07,1.22,5.07,1.22,6.09-2.64,10.35,1.83,10.35,1.83,2.03-4.26,8.73-2.43,8.73-2.43l-14.2-162.53Z"/>
          <path class="cls-7" d="M1556.21,195.02l-8.93,109.98c.61,17.25,14.41,0,14.41,0l-5.48-109.98Z"/>
          <path class="cls-5" d="M1570.41,357.55l-14.2-162.53,8.12,162.62c2.69-1.01,6.08-.08,6.08-.08Z"/>
          <polygon class="cls-4" points="1522.73 305 1592.53 305 1583.81 277.61 1525.37 296.88 1522.73 305"/>
          <polygon class="cls-4" points="1527.6 288.77 1583.2 276.39 1581.17 270.5 1536.73 259.14 1533.28 270.3 1553.37 271.72 1531.25 276.18 1527.6 288.77"/>
          <polygon class="cls-4" points="1537.14 257.11 1580.36 267.66 1575.89 254.88 1559.05 256.1 1575.08 253.05 1573.26 246.96 1538.96 251.43 1537.14 257.11"/>
          <polygon class="cls-4" points="1540.38 246.96 1572.65 245.34 1572.04 243.11 1545.05 231.75 1540.38 246.96"/>
          <polygon class="cls-4" points="1545.66 229.72 1569.81 236.62 1563.72 218.35 1546.06 227.69 1545.66 229.72"/>
          <polygon class="cls-4" points="1548.09 222.01 1563.72 217.34 1556.21 195.02 1553.17 204.76 1557.02 209.22 1552.15 208.21 1548.09 222.01"/>
          <polygon class="cls-6" points="1573.98 305 1592.53 305 1583.81 277.61 1570.27 282.07 1573.98 305"/>
          <polygon class="cls-6" points="1581.17 270.5 1567.86 267.1 1569.84 279.36 1583.2 276.39 1581.17 270.5"/>
          <g>
            <polygon class="cls-6" points="1573.26 246.96 1564.78 248.07 1565.87 254.8 1575.08 253.05 1573.26 246.96"/>
            <polygon class="cls-6" points="1575.89 254.88 1566 255.59 1567.44 264.51 1580.36 267.66 1575.89 254.88"/>
          </g>
          <polygon class="cls-6" points="1563.39 239.47 1564.41 245.76 1572.65 245.34 1572.04 243.11 1563.39 239.47"/>
          <polygon class="cls-6" points="1560.27 220.17 1562.6 234.56 1569.81 236.62 1563.72 218.35 1560.27 220.17"/>
          <polygon class="cls-6" points="1563.72 217.34 1556.21 195.02 1560 218.45 1563.72 217.34"/>
          <polygon class="cls-7" points="1542.08 291.37 1525.37 296.88 1522.73 305 1540.08 305 1542.08 291.37"/>
          <g>
            <polygon class="cls-7" points="1533.28 270.3 1545.05 271.13 1546.44 261.62 1536.73 259.14 1533.28 270.3"/>
            <polygon class="cls-7" points="1544.7 273.47 1531.25 276.18 1527.6 288.77 1542.96 285.35 1544.7 273.47"/>
          </g>
          <polygon class="cls-7" points="1548.11 250.24 1538.96 251.43 1537.14 257.11 1546.76 259.46 1548.11 250.24"/>
          <polygon class="cls-7" points="1545.05 231.75 1540.38 246.96 1548.65 246.55 1550.49 234.04 1545.05 231.75"/>
          <polygon class="cls-7" points="1546.06 227.69 1545.66 229.72 1550.9 231.21 1551.87 224.62 1546.06 227.69"/>
          <g>
            <polygon class="cls-7" points="1552.15 208.21 1548.09 222.01 1552.44 220.71 1554.21 208.64 1552.15 208.21"/>
            <polygon class="cls-7" points="1554.55 206.36 1556.21 195.02 1553.17 204.76 1554.55 206.36"/>
          </g>
        </g>
      </g>
      <g>
        <path class="cls-7" d="M1630.77,407.13c-57.4,3.95-88.21,25.54-38.18,19.22,50.03-6.32,73.86-17.21,73.86-17.21l-13.36-13.2s-20.01,2.63-20.01,3.23-2.3,7.97-2.3,7.97Z"/>
        <g>
          <path class="cls-8" d="M1648.15,198.31l-17.12,208.82c3.42-1.05,4.21,1.32,4.21,1.32,6.85-4.21,6.58,1.58,6.58,1.58,7.9-3.42,13.43,2.37,13.43,2.37,2.63-5.53,11.32-3.16,11.32-3.16l-18.43-210.92Z"/>
          <path class="cls-7" d="M1648.15,198.31l-11.59,142.72c.79,22.38,18.7,0,18.7,0l-7.11-142.72Z"/>
          <path class="cls-5" d="M1666.58,409.23l-18.43-210.92,10.54,211.03c3.49-1.31,7.89-.11,7.89-.11Z"/>
          <polygon class="cls-4" points="1604.7 341.03 1695.28 341.03 1683.96 305.48 1608.12 330.5 1604.7 341.03"/>
          <polygon class="cls-4" points="1611.02 319.97 1683.17 303.9 1680.54 296.27 1622.87 281.52 1618.39 296 1644.46 297.85 1615.76 303.64 1611.02 319.97"/>
          <polygon class="cls-4" points="1623.39 278.89 1679.48 292.58 1673.69 275.99 1651.83 277.57 1672.64 273.62 1670.27 265.72 1625.76 271.51 1623.39 278.89"/>
          <polygon class="cls-4" points="1627.61 265.72 1669.48 263.61 1668.69 260.72 1633.66 245.97 1627.61 265.72"/>
          <polygon class="cls-4" points="1634.45 243.34 1665.79 252.29 1657.89 228.59 1634.98 240.71 1634.45 243.34"/>
          <polygon class="cls-4" points="1637.61 233.33 1657.89 227.28 1648.15 198.31 1644.2 210.95 1649.2 216.74 1642.88 215.43 1637.61 233.33"/>
          <polygon class="cls-6" points="1671.21 341.03 1695.28 341.03 1683.96 305.48 1666.4 311.28 1671.21 341.03"/>
          <polygon class="cls-6" points="1680.54 296.27 1663.26 291.85 1665.83 307.76 1683.17 303.9 1680.54 296.27"/>
          <g>
            <polygon class="cls-6" points="1670.27 265.72 1659.27 267.15 1660.68 275.89 1672.64 273.62 1670.27 265.72"/>
            <polygon class="cls-6" points="1673.69 275.99 1660.85 276.92 1662.72 288.49 1679.48 292.58 1673.69 275.99"/>
          </g>
          <polygon class="cls-6" points="1657.47 255.99 1658.78 264.15 1669.48 263.61 1668.69 260.72 1657.47 255.99"/>
          <polygon class="cls-6" points="1653.42 230.96 1656.44 249.62 1665.79 252.29 1657.89 228.59 1653.42 230.96"/>
          <polygon class="cls-6" points="1657.89 227.28 1648.15 198.31 1653.06 228.72 1657.89 227.28"/>
          <polygon class="cls-7" points="1629.8 323.35 1608.12 330.5 1604.7 341.03 1627.21 341.03 1629.8 323.35"/>
          <g>
            <polygon class="cls-7" points="1618.39 296 1633.66 297.08 1635.47 284.74 1622.87 281.52 1618.39 296"/>
            <polygon class="cls-7" points="1633.21 300.12 1615.76 303.64 1611.02 319.97 1630.95 315.53 1633.21 300.12"/>
          </g>
          <polygon class="cls-7" points="1637.63 269.97 1625.76 271.51 1623.39 278.89 1635.88 281.94 1637.63 269.97"/>
          <polygon class="cls-7" points="1633.66 245.97 1627.61 265.72 1638.34 265.18 1640.72 248.94 1633.66 245.97"/>
          <polygon class="cls-7" points="1634.98 240.71 1634.45 243.34 1641.26 245.28 1642.51 236.72 1634.98 240.71"/>
          <g>
            <polygon class="cls-7" points="1642.88 215.43 1637.61 233.33 1643.26 231.65 1645.55 215.98 1642.88 215.43"/>
            <polygon class="cls-7" points="1645.99 213.02 1648.15 198.31 1644.2 210.95 1645.99 213.02"/>
          </g>
        </g>
      </g>
      <g>
        <path class="cls-7" d="M1760.5,395.81c-57.4,3.95-88.21,25.54-38.18,19.22s73.86-17.21,73.86-17.21l-13.36-13.2s-20.01,2.63-20.01,3.23-2.3,7.97-2.3,7.97Z"/>
        <g>
          <path class="cls-8" d="M1777.88,186.99l-17.12,208.82c3.42-1.05,4.21,1.32,4.21,1.32,6.85-4.21,6.58,1.58,6.58,1.58,7.9-3.42,13.43,2.37,13.43,2.37,2.63-5.53,11.32-3.16,11.32-3.16l-18.43-210.92Z"/>
          <path class="cls-7" d="M1777.88,186.99l-11.59,142.72c.79,22.38,18.7,0,18.7,0l-7.11-142.72Z"/>
          <path class="cls-5" d="M1796.31,397.92l-18.43-210.92,10.54,211.03c3.49-1.31,7.89-.11,7.89-.11Z"/>
          <polygon class="cls-4" points="1734.43 329.71 1825.01 329.71 1813.69 294.17 1737.85 319.18 1734.43 329.71"/>
          <polygon class="cls-4" points="1740.75 308.65 1812.9 292.59 1810.27 284.95 1752.6 270.2 1748.12 284.69 1774.19 286.53 1745.49 292.32 1740.75 308.65"/>
          <polygon class="cls-4" points="1753.13 267.57 1809.21 281.26 1803.42 264.67 1781.57 266.25 1802.37 262.3 1800 254.4 1755.5 260.2 1753.13 267.57"/>
          <polygon class="cls-4" points="1757.34 254.4 1799.21 252.3 1798.42 249.4 1763.4 234.65 1757.34 254.4"/>
          <polygon class="cls-4" points="1764.19 232.02 1795.52 240.97 1787.62 217.27 1764.71 229.39 1764.19 232.02"/>
          <polygon class="cls-4" points="1767.35 222.01 1787.62 215.96 1777.88 186.99 1773.93 199.63 1778.93 205.43 1772.61 204.11 1767.35 222.01"/>
          <polygon class="cls-6" points="1800.94 329.71 1825.01 329.71 1813.69 294.17 1796.13 299.96 1800.94 329.71"/>
          <polygon class="cls-6" points="1810.27 284.95 1792.99 280.53 1795.56 296.45 1812.9 292.59 1810.27 284.95"/>
          <g>
            <polygon class="cls-6" points="1800 254.4 1789 255.83 1790.41 264.57 1802.37 262.3 1800 254.4"/>
            <polygon class="cls-6" points="1803.42 264.67 1790.58 265.6 1792.45 277.17 1809.21 281.26 1803.42 264.67"/>
          </g>
          <polygon class="cls-6" points="1787.2 244.68 1788.52 252.83 1799.21 252.3 1798.42 249.4 1787.2 244.68"/>
          <polygon class="cls-6" points="1783.15 219.64 1786.17 238.3 1795.52 240.97 1787.62 217.27 1783.15 219.64"/>
          <polygon class="cls-6" points="1787.62 215.96 1777.88 186.99 1782.79 217.4 1787.62 215.96"/>
          <polygon class="cls-7" points="1759.54 312.03 1737.85 319.18 1734.43 329.71 1756.94 329.71 1759.54 312.03"/>
          <g>
            <polygon class="cls-7" points="1748.12 284.69 1763.39 285.77 1765.2 273.42 1752.6 270.2 1748.12 284.69"/>
            <polygon class="cls-7" points="1762.94 288.8 1745.49 292.32 1740.75 308.65 1760.68 304.21 1762.94 288.8"/>
          </g>
          <polygon class="cls-7" points="1767.37 258.65 1755.5 260.2 1753.13 267.57 1765.61 270.62 1767.37 258.65"/>
          <polygon class="cls-7" points="1763.4 234.65 1757.34 254.4 1768.07 253.86 1770.45 237.62 1763.4 234.65"/>
          <polygon class="cls-7" points="1764.71 229.39 1764.19 232.02 1770.99 233.96 1772.24 225.41 1764.71 229.39"/>
          <g>
            <polygon class="cls-7" points="1772.61 204.11 1767.35 222.01 1772.99 220.33 1775.29 204.67 1772.61 204.11"/>
            <polygon class="cls-7" points="1775.72 201.71 1777.88 186.99 1773.93 199.63 1775.72 201.71"/>
          </g>
        </g>
      </g>
      <g>
        <path class="cls-8" d="M1240.66,205.05l-17.12,208.82c3.42-1.05,4.21,1.32,4.21,1.32,6.85-4.21,6.58,1.58,6.58,1.58,7.9-3.42,13.43,2.37,13.43,2.37,2.63-5.53,11.32-3.16,11.32-3.16l-18.43-210.92Z"/>
        <path class="cls-7" d="M1240.66,205.05l-11.59,142.72c.79,22.38,18.7,0,18.7,0l-7.11-142.72Z"/>
        <path class="cls-5" d="M1259.09,415.97l-18.43-210.92,10.54,211.03c3.49-1.31,7.89-.11,7.89-.11Z"/>
        <polygon class="cls-4" points="1197.21 347.77 1287.79 347.77 1276.47 312.22 1200.63 337.24 1197.21 347.77"/>
        <polygon class="cls-4" points="1203.53 326.7 1275.68 310.64 1273.05 303 1215.38 288.26 1210.9 302.74 1236.97 304.58 1208.27 310.38 1203.53 326.7"/>
        <polygon class="cls-4" points="1215.91 285.63 1271.99 299.32 1266.2 282.73 1244.34 284.31 1265.15 280.36 1262.78 272.46 1218.28 278.25 1215.91 285.63"/>
        <polygon class="cls-4" points="1220.12 272.46 1261.99 270.35 1261.2 267.46 1226.17 252.71 1220.12 272.46"/>
        <polygon class="cls-4" points="1226.96 250.08 1258.3 259.03 1250.4 235.33 1227.49 247.44 1226.96 250.08"/>
        <polygon class="cls-4" points="1230.12 240.07 1250.4 234.01 1240.66 205.05 1236.71 217.69 1241.71 223.48 1235.39 222.16 1230.12 240.07"/>
        <polygon class="cls-6" points="1263.72 347.77 1287.79 347.77 1276.47 312.22 1258.91 318.01 1263.72 347.77"/>
        <polygon class="cls-6" points="1273.05 303 1255.77 298.59 1258.34 314.5 1275.68 310.64 1273.05 303"/>
        <g>
          <polygon class="cls-6" points="1262.78 272.46 1251.78 273.89 1253.19 282.63 1265.15 280.36 1262.78 272.46"/>
          <polygon class="cls-6" points="1266.2 282.73 1253.36 283.66 1255.23 295.22 1271.99 299.32 1266.2 282.73"/>
        </g>
        <polygon class="cls-6" points="1249.98 262.73 1251.3 270.89 1261.99 270.35 1261.2 267.46 1249.98 262.73"/>
        <polygon class="cls-6" points="1245.93 237.69 1248.95 256.36 1258.3 259.03 1250.4 235.33 1245.93 237.69"/>
        <polygon class="cls-6" points="1250.4 234.01 1240.66 205.05 1245.57 235.46 1250.4 234.01"/>
        <polygon class="cls-7" points="1222.32 330.08 1200.63 337.24 1197.21 347.77 1219.72 347.77 1222.32 330.08"/>
        <g>
          <polygon class="cls-7" points="1210.9 302.74 1226.17 303.82 1227.98 291.48 1215.38 288.26 1210.9 302.74"/>
          <polygon class="cls-7" points="1225.72 306.85 1208.27 310.38 1203.53 326.7 1223.46 322.27 1225.72 306.85"/>
        </g>
        <polygon class="cls-7" points="1230.15 276.71 1218.28 278.25 1215.91 285.63 1228.39 288.67 1230.15 276.71"/>
        <polygon class="cls-7" points="1226.17 252.71 1220.12 272.46 1230.85 271.92 1233.23 255.68 1226.17 252.71"/>
        <polygon class="cls-7" points="1227.49 247.44 1226.96 250.08 1233.77 252.02 1235.02 243.46 1227.49 247.44"/>
        <g>
          <polygon class="cls-7" points="1235.39 222.16 1230.12 240.07 1235.77 238.38 1238.07 222.72 1235.39 222.16"/>
          <polygon class="cls-7" points="1238.5 219.76 1240.66 205.05 1236.71 217.69 1238.5 219.76"/>
        </g>
      </g>
      <g>
        <path class="cls-7" d="M1320.8,402.72c-44.24,3.04-67.98,19.68-29.42,14.81,38.55-4.87,56.92-13.27,56.92-13.27l-10.3-10.17s-15.42,2.03-15.42,2.49-1.78,6.14-1.78,6.14Z"/>
        <g>
          <path class="cls-8" d="M1334.19,241.8l-13.19,160.91c2.64-.81,3.25,1.01,3.25,1.01,5.28-3.25,5.07,1.22,5.07,1.22,6.09-2.64,10.35,1.83,10.35,1.83,2.03-4.26,8.73-2.43,8.73-2.43l-14.2-162.53Z"/>
          <path class="cls-7" d="M1334.19,241.8l-8.93,109.98c.61,17.25,14.41,0,14.41,0l-5.48-109.98Z"/>
          <path class="cls-5" d="M1348.39,404.34l-14.2-162.53,8.12,162.62c2.69-1.01,6.08-.08,6.08-.08Z"/>
          <polygon class="cls-4" points="1300.71 351.78 1370.51 351.78 1361.79 324.39 1303.35 343.67 1300.71 351.78"/>
          <polygon class="cls-4" points="1305.58 335.55 1361.18 323.17 1359.15 317.29 1314.71 305.93 1311.26 317.09 1331.35 318.51 1309.23 322.97 1305.58 335.55"/>
          <polygon class="cls-4" points="1315.11 303.9 1358.34 314.45 1353.87 301.66 1337.03 302.88 1353.06 299.84 1351.23 293.75 1316.94 298.21 1315.11 303.9"/>
          <polygon class="cls-4" points="1318.36 293.75 1350.62 292.13 1350.02 289.9 1323.03 278.53 1318.36 293.75"/>
          <polygon class="cls-4" points="1323.64 276.5 1347.78 283.4 1341.7 265.14 1324.04 274.47 1323.64 276.5"/>
          <polygon class="cls-4" points="1326.07 268.79 1341.7 264.12 1334.19 241.8 1331.15 251.54 1335 256.01 1330.13 254.99 1326.07 268.79"/>
          <polygon class="cls-6" points="1351.96 351.78 1370.51 351.78 1361.79 324.39 1348.25 328.85 1351.96 351.78"/>
          <polygon class="cls-6" points="1359.15 317.29 1345.83 313.88 1347.82 326.15 1361.18 323.17 1359.15 317.29"/>
          <g>
            <polygon class="cls-6" points="1351.23 293.75 1342.76 294.85 1343.85 301.59 1353.06 299.84 1351.23 293.75"/>
            <polygon class="cls-6" points="1353.87 301.66 1343.98 302.38 1345.42 311.29 1358.34 314.45 1353.87 301.66"/>
          </g>
          <polygon class="cls-6" points="1341.37 286.25 1342.39 292.54 1350.62 292.13 1350.02 289.9 1341.37 286.25"/>
          <polygon class="cls-6" points="1338.25 266.96 1340.58 281.34 1347.78 283.4 1341.7 265.14 1338.25 266.96"/>
          <polygon class="cls-6" points="1341.7 264.12 1334.19 241.8 1337.97 265.24 1341.7 264.12"/>
          <polygon class="cls-7" points="1320.05 338.16 1303.35 343.67 1300.71 351.78 1318.06 351.78 1320.05 338.16"/>
          <g>
            <polygon class="cls-7" points="1311.26 317.09 1323.02 317.92 1324.42 308.41 1314.71 305.93 1311.26 317.09"/>
            <polygon class="cls-7" points="1322.68 320.26 1309.23 322.97 1305.58 335.55 1320.94 332.13 1322.68 320.26"/>
          </g>
          <polygon class="cls-7" points="1326.09 297.02 1316.94 298.21 1315.11 303.9 1324.74 306.24 1326.09 297.02"/>
          <polygon class="cls-7" points="1323.03 278.53 1318.36 293.75 1326.63 293.33 1328.47 280.82 1323.03 278.53"/>
          <polygon class="cls-7" points="1324.04 274.47 1323.64 276.5 1328.88 278 1329.85 271.4 1324.04 274.47"/>
          <g>
            <polygon class="cls-7" points="1330.13 254.99 1326.07 268.79 1330.42 267.49 1332.19 255.42 1330.13 254.99"/>
            <polygon class="cls-7" points="1332.53 253.14 1334.19 241.8 1331.15 251.54 1332.53 253.14"/>
          </g>
        </g>
      </g>
      <g>
        <path class="cls-8" d="M1415.9,222.47l-17.12,208.82c3.42-1.05,4.21,1.32,4.21,1.32,6.85-4.21,6.58,1.58,6.58,1.58,7.9-3.42,13.43,2.37,13.43,2.37,2.63-5.53,11.32-3.16,11.32-3.16l-18.43-210.92Z"/>
        <path class="cls-7" d="M1415.9,222.47l-11.59,142.72c.79,22.38,18.7,0,18.7,0l-7.11-142.72Z"/>
        <path class="cls-5" d="M1434.33,433.39l-18.43-210.92,10.54,211.03c3.49-1.31,7.89-.11,7.89-.11Z"/>
        <polygon class="cls-4" points="1372.45 365.19 1463.03 365.19 1451.71 329.64 1375.87 354.66 1372.45 365.19"/>
        <polygon class="cls-4" points="1378.77 344.13 1450.92 328.06 1448.29 320.43 1390.62 305.68 1386.14 320.16 1412.21 322.01 1383.51 327.8 1378.77 344.13"/>
        <polygon class="cls-4" points="1391.15 303.05 1447.23 316.74 1441.44 300.15 1419.59 301.73 1440.39 297.78 1438.02 289.88 1393.52 295.67 1391.15 303.05"/>
        <polygon class="cls-4" points="1395.36 289.88 1437.23 287.77 1436.44 284.88 1401.42 270.13 1395.36 289.88"/>
        <polygon class="cls-4" points="1402.21 267.5 1433.54 276.45 1425.64 252.75 1402.73 264.86 1402.21 267.5"/>
        <polygon class="cls-4" points="1405.37 257.49 1425.64 251.43 1415.9 222.47 1411.95 235.11 1416.95 240.9 1410.63 239.59 1405.37 257.49"/>
        <polygon class="cls-6" points="1438.96 365.19 1463.03 365.19 1451.71 329.64 1434.15 335.43 1438.96 365.19"/>
        <polygon class="cls-6" points="1448.29 320.43 1431.01 316.01 1433.58 331.92 1450.92 328.06 1448.29 320.43"/>
        <g>
          <polygon class="cls-6" points="1438.02 289.88 1427.02 291.31 1428.43 300.05 1440.39 297.78 1438.02 289.88"/>
          <polygon class="cls-6" points="1441.44 300.15 1428.6 301.08 1430.47 312.65 1447.23 316.74 1441.44 300.15"/>
        </g>
        <polygon class="cls-6" points="1425.22 280.15 1426.54 288.31 1437.23 287.77 1436.44 284.88 1425.22 280.15"/>
        <polygon class="cls-6" points="1421.17 255.11 1424.19 273.78 1433.54 276.45 1425.64 252.75 1421.17 255.11"/>
        <polygon class="cls-6" points="1425.64 251.44 1415.9 222.47 1420.81 252.88 1425.64 251.44"/>
        <polygon class="cls-7" points="1397.56 347.51 1375.87 354.66 1372.45 365.19 1394.96 365.19 1397.56 347.51"/>
        <g>
          <polygon class="cls-7" points="1386.14 320.16 1401.41 321.24 1403.22 308.9 1390.62 305.68 1386.14 320.16"/>
          <polygon class="cls-7" points="1400.97 324.28 1383.51 327.8 1378.77 344.13 1398.7 339.69 1400.97 324.28"/>
        </g>
        <polygon class="cls-7" points="1405.39 294.13 1393.52 295.67 1391.15 303.05 1403.63 306.09 1405.39 294.13"/>
        <polygon class="cls-7" points="1401.42 270.13 1395.36 289.88 1406.09 289.34 1408.47 273.1 1401.42 270.13"/>
        <polygon class="cls-7" points="1402.73 264.86 1402.21 267.5 1409.01 269.44 1410.26 260.88 1402.73 264.86"/>
        <g>
          <polygon class="cls-7" points="1410.63 239.59 1405.37 257.49 1411.01 255.81 1413.31 240.14 1410.63 239.59"/>
          <polygon class="cls-7" points="1413.74 237.18 1415.9 222.47 1411.95 235.11 1413.74 237.18"/>
        </g>
      </g>
      <g>
        <path class="cls-8" d="M1527.95,206.65l-17.12,208.82c3.42-1.05,4.21,1.32,4.21,1.32,6.85-4.21,6.58,1.58,6.58,1.58,7.9-3.42,13.43,2.37,13.43,2.37,2.63-5.53,11.32-3.16,11.32-3.16l-18.43-210.92Z"/>
        <path class="cls-7" d="M1527.95,206.65l-11.59,142.72c.79,22.38,18.7,0,18.7,0l-7.11-142.72Z"/>
        <path class="cls-5" d="M1546.38,417.57l-18.43-210.92,10.54,211.03c3.49-1.31,7.89-.11,7.89-.11Z"/>
        <polygon class="cls-4" points="1484.5 349.37 1575.08 349.37 1563.76 313.82 1487.92 338.84 1484.5 349.37"/>
        <polygon class="cls-4" points="1490.82 328.3 1562.97 312.24 1560.34 304.6 1502.67 289.86 1498.19 304.34 1524.26 306.18 1495.56 311.98 1490.82 328.3"/>
        <polygon class="cls-4" points="1503.19 287.22 1559.28 300.92 1553.49 284.33 1531.63 285.91 1552.44 281.96 1550.07 274.06 1505.56 279.85 1503.19 287.22"/>
        <polygon class="cls-4" points="1507.41 274.06 1549.28 271.95 1548.49 269.06 1513.46 254.31 1507.41 274.06"/>
        <polygon class="cls-4" points="1514.25 251.68 1545.59 260.63 1537.69 236.93 1514.78 249.04 1514.25 251.68"/>
        <polygon class="cls-4" points="1517.41 241.67 1537.69 235.61 1527.95 206.65 1524 219.29 1529 225.08 1522.68 223.76 1517.41 241.67"/>
        <polygon class="cls-6" points="1551.01 349.37 1575.08 349.37 1563.76 313.82 1546.2 319.61 1551.01 349.37"/>
        <polygon class="cls-6" points="1560.34 304.6 1543.06 300.19 1545.63 316.1 1562.97 312.24 1560.34 304.6"/>
        <g>
          <polygon class="cls-6" points="1550.07 274.06 1539.07 275.49 1540.48 284.23 1552.44 281.96 1550.07 274.06"/>
          <polygon class="cls-6" points="1553.49 284.33 1540.65 285.26 1542.52 296.82 1559.28 300.92 1553.49 284.33"/>
        </g>
        <polygon class="cls-6" points="1537.27 264.33 1538.58 272.49 1549.28 271.95 1548.49 269.06 1537.27 264.33"/>
        <polygon class="cls-6" points="1533.22 239.29 1536.24 257.96 1545.59 260.63 1537.69 236.93 1533.22 239.29"/>
        <polygon class="cls-6" points="1537.69 235.61 1527.95 206.65 1532.86 237.06 1537.69 235.61"/>
        <polygon class="cls-7" points="1509.6 331.68 1487.92 338.84 1484.5 349.37 1507.01 349.37 1509.6 331.68"/>
        <g>
          <polygon class="cls-7" points="1498.19 304.34 1513.46 305.42 1515.27 293.08 1502.67 289.86 1498.19 304.34"/>
          <polygon class="cls-7" points="1513.01 308.45 1495.56 311.98 1490.82 328.3 1510.75 323.87 1513.01 308.45"/>
        </g>
        <polygon class="cls-7" points="1517.43 278.31 1505.56 279.85 1503.19 287.22 1515.68 290.27 1517.43 278.31"/>
        <polygon class="cls-7" points="1513.46 254.31 1507.41 274.06 1518.14 273.52 1520.52 257.28 1513.46 254.31"/>
        <polygon class="cls-7" points="1514.78 249.04 1514.25 251.68 1521.06 253.62 1522.31 245.06 1514.78 249.04"/>
        <g>
          <polygon class="cls-7" points="1522.68 223.76 1517.41 241.67 1523.06 239.98 1525.35 224.32 1522.68 223.76"/>
          <polygon class="cls-7" points="1525.79 221.36 1527.95 206.65 1524 219.29 1525.79 221.36"/>
        </g>
      </g>
      <g>
        <path class="cls-7" d="M622.79,356.11c-57.4,3.95-88.21,25.54-38.18,19.22,50.03-6.32,73.86-17.21,73.86-17.21l-13.36-13.2s-20.01,2.63-20.01,3.23-2.3,7.97-2.3,7.97Z"/>
        <g>
          <path class="cls-8" d="M640.17,147.3l-17.12,208.82c3.42-1.05,4.21,1.32,4.21,1.32,6.85-4.21,6.58,1.58,6.58,1.58,7.9-3.42,13.43,2.37,13.43,2.37,2.63-5.53,11.32-3.16,11.32-3.16l-18.43-210.92Z"/>
          <path class="cls-7" d="M640.17,147.3l-11.59,142.72c.79,22.38,18.7,0,18.7,0l-7.11-142.72Z"/>
          <path class="cls-5" d="M658.6,358.22l-18.43-210.92,10.54,211.03c3.49-1.31,7.89-.11,7.89-.11Z"/>
          <polygon class="cls-4" points="596.72 290.02 687.3 290.02 675.98 254.47 600.14 279.49 596.72 290.02"/>
          <polygon class="cls-4" points="603.04 268.95 675.19 252.89 672.56 245.25 614.89 230.51 610.41 244.99 636.48 246.83 607.78 252.63 603.04 268.95"/>
          <polygon class="cls-4" points="615.41 227.88 671.5 241.57 665.71 224.98 643.85 226.56 664.66 222.61 662.29 214.71 617.78 220.5 615.41 227.88"/>
          <polygon class="cls-4" points="619.63 214.71 661.5 212.6 660.71 209.71 625.68 194.96 619.63 214.71"/>
          <polygon class="cls-4" points="626.47 192.33 657.81 201.28 649.91 177.58 627 189.69 626.47 192.33"/>
          <polygon class="cls-4" points="629.63 182.32 649.91 176.26 640.17 147.3 636.22 159.94 641.22 165.73 634.9 164.41 629.63 182.32"/>
          <polygon class="cls-6" points="663.23 290.02 687.3 290.02 675.98 254.47 658.42 260.26 663.23 290.02"/>
          <polygon class="cls-6" points="672.56 245.25 655.28 240.84 657.85 256.75 675.19 252.89 672.56 245.25"/>
          <g>
            <polygon class="cls-6" points="662.29 214.71 651.29 216.14 652.7 224.88 664.66 222.61 662.29 214.71"/>
            <polygon class="cls-6" points="665.71 224.98 652.87 225.91 654.74 237.47 671.5 241.57 665.71 224.98"/>
          </g>
          <polygon class="cls-6" points="649.49 204.98 650.81 213.14 661.5 212.6 660.71 209.71 649.49 204.98"/>
          <polygon class="cls-6" points="645.44 179.94 648.46 198.61 657.81 201.28 649.91 177.58 645.44 179.94"/>
          <polygon class="cls-6" points="649.91 176.26 640.17 147.3 645.08 177.71 649.91 176.26"/>
          <polygon class="cls-7" points="621.83 272.33 600.14 279.49 596.72 290.02 619.23 290.02 621.83 272.33"/>
          <g>
            <polygon class="cls-7" points="610.41 244.99 625.68 246.07 627.49 233.73 614.89 230.51 610.41 244.99"/>
            <polygon class="cls-7" points="625.23 249.1 607.78 252.63 603.04 268.95 622.97 264.52 625.23 249.1"/>
          </g>
          <polygon class="cls-7" points="629.66 218.96 617.78 220.5 615.41 227.88 627.9 230.92 629.66 218.96"/>
          <polygon class="cls-7" points="625.68 194.96 619.63 214.71 630.36 214.17 632.74 197.93 625.68 194.96"/>
          <polygon class="cls-7" points="627 189.69 626.47 192.33 633.28 194.27 634.53 185.71 627 189.69"/>
          <g>
            <polygon class="cls-7" points="634.9 164.41 629.63 182.32 635.28 180.63 637.57 164.97 634.9 164.41"/>
            <polygon class="cls-7" points="638.01 162.01 640.17 147.3 636.22 159.94 638.01 162.01"/>
          </g>
        </g>
      </g>
      <g>
        <path class="cls-7" d="M1033.68,327.08c-44.24,3.04-67.98,19.68-29.42,14.81,38.55-4.87,56.92-13.27,56.92-13.27l-10.3-10.17s-15.42,2.03-15.42,2.49-1.78,6.14-1.78,6.14Z"/>
        <g>
          <path class="cls-8" d="M1047.07,166.17l-13.19,160.91c2.64-.81,3.25,1.01,3.25,1.01,5.28-3.25,5.07,1.22,5.07,1.22,6.09-2.64,10.35,1.83,10.35,1.83,2.03-4.26,8.73-2.43,8.73-2.43l-14.2-162.53Z"/>
          <path class="cls-7" d="M1047.07,166.17l-8.93,109.98c.61,17.25,14.41,0,14.41,0l-5.48-109.98Z"/>
          <path class="cls-5" d="M1061.28,328.7l-14.2-162.53,8.12,162.62c2.69-1.01,6.08-.08,6.08-.08Z"/>
          <polygon class="cls-4" points="1013.59 276.15 1083.4 276.15 1074.67 248.75 1016.23 268.03 1013.59 276.15"/>
          <polygon class="cls-4" points="1018.46 259.91 1074.06 247.53 1072.03 241.65 1027.59 230.29 1024.14 241.45 1044.23 242.87 1022.12 247.33 1018.46 259.91"/>
          <polygon class="cls-4" points="1028 228.26 1071.22 238.81 1066.76 226.03 1049.91 227.24 1065.94 224.2 1064.12 218.11 1029.83 222.58 1028 228.26"/>
          <polygon class="cls-4" points="1031.25 218.11 1063.51 216.49 1062.9 214.26 1035.91 202.89 1031.25 218.11"/>
          <polygon class="cls-4" points="1036.52 200.86 1060.67 207.76 1054.58 189.5 1036.93 198.83 1036.52 200.86"/>
          <polygon class="cls-4" points="1038.96 193.15 1054.58 188.49 1047.07 166.17 1044.03 175.91 1047.89 180.37 1043.02 179.36 1038.96 193.15"/>
          <polygon class="cls-6" points="1064.84 276.15 1083.4 276.15 1074.67 248.75 1061.14 253.22 1064.84 276.15"/>
          <polygon class="cls-6" points="1072.03 241.65 1058.72 238.25 1060.7 250.51 1074.06 247.53 1072.03 241.65"/>
          <g>
            <polygon class="cls-6" points="1064.12 218.11 1055.64 219.21 1056.73 225.95 1065.94 224.2 1064.12 218.11"/>
            <polygon class="cls-6" points="1066.76 226.03 1056.86 226.74 1058.3 235.65 1071.22 238.81 1066.76 226.03"/>
          </g>
          <polygon class="cls-6" points="1054.26 210.62 1055.27 216.9 1063.51 216.49 1062.9 214.26 1054.26 210.62"/>
          <polygon class="cls-6" points="1051.14 191.32 1053.46 205.7 1060.67 207.76 1054.58 189.5 1051.14 191.32"/>
          <polygon class="cls-6" points="1054.58 188.49 1047.07 166.17 1050.86 189.6 1054.58 188.49"/>
          <polygon class="cls-7" points="1032.94 262.52 1016.23 268.03 1013.59 276.15 1030.94 276.15 1032.94 262.52"/>
          <g>
            <polygon class="cls-7" points="1024.14 241.45 1035.91 242.28 1037.3 232.77 1027.59 230.29 1024.14 241.45"/>
            <polygon class="cls-7" points="1035.57 244.62 1022.12 247.33 1018.46 259.91 1033.82 256.49 1035.57 244.62"/>
          </g>
          <polygon class="cls-7" points="1038.97 221.39 1029.83 222.58 1028 228.26 1037.62 230.61 1038.97 221.39"/>
          <polygon class="cls-7" points="1035.91 202.89 1031.25 218.11 1039.51 217.7 1041.35 205.18 1035.91 202.89"/>
          <polygon class="cls-7" points="1036.93 198.83 1036.52 200.86 1041.76 202.36 1042.73 195.77 1036.93 198.83"/>
          <g>
            <polygon class="cls-7" points="1043.02 179.36 1038.96 193.15 1043.31 191.85 1045.08 179.78 1043.02 179.36"/>
            <polygon class="cls-7" points="1045.41 177.5 1047.07 166.17 1044.03 175.91 1045.41 177.5"/>
          </g>
        </g>
      </g>
      <g>
        <path class="cls-7" d="M1169.12,349.58c-57.4,3.95-88.21,25.54-38.18,19.22s73.86-17.21,73.86-17.21l-13.36-13.2s-20.01,2.63-20.01,3.23-2.3,7.97-2.3,7.97Z"/>
        <g>
          <path class="cls-8" d="M1186.5,140.77l-17.12,208.82c3.42-1.05,4.21,1.32,4.21,1.32,6.85-4.21,6.58,1.58,6.58,1.58,7.9-3.42,13.43,2.37,13.43,2.37,2.63-5.53,11.32-3.16,11.32-3.16l-18.43-210.92Z"/>
          <path class="cls-7" d="M1186.5,140.77l-11.59,142.72c.79,22.38,18.7,0,18.7,0l-7.11-142.72Z"/>
          <path class="cls-5" d="M1204.93,351.69l-18.43-210.92,10.54,211.03c3.49-1.31,7.89-.11,7.89-.11Z"/>
          <polygon class="cls-4" points="1143.05 283.49 1233.63 283.49 1222.31 247.94 1146.47 272.96 1143.05 283.49"/>
          <polygon class="cls-4" points="1149.37 262.42 1221.52 246.36 1218.88 238.73 1161.22 223.98 1156.74 238.46 1182.81 240.3 1154.11 246.1 1149.37 262.42"/>
          <polygon class="cls-4" points="1161.74 221.35 1217.83 235.04 1212.04 218.45 1190.18 220.03 1210.99 216.08 1208.62 208.18 1164.11 213.97 1161.74 221.35"/>
          <polygon class="cls-4" points="1165.96 208.18 1207.83 206.07 1207.04 203.18 1172.01 188.43 1165.96 208.18"/>
          <polygon class="cls-4" points="1172.8 185.8 1204.14 194.75 1196.24 171.05 1173.33 183.16 1172.8 185.8"/>
          <polygon class="cls-4" points="1175.96 175.79 1196.24 169.73 1186.5 140.77 1182.55 153.41 1187.55 159.2 1181.23 157.88 1175.96 175.79"/>
          <polygon class="cls-6" points="1209.55 283.49 1233.63 283.49 1222.31 247.94 1204.75 253.73 1209.55 283.49"/>
          <polygon class="cls-6" points="1218.88 238.73 1201.61 234.31 1204.18 250.22 1221.52 246.36 1218.88 238.73"/>
          <g>
            <polygon class="cls-6" points="1208.62 208.18 1197.62 209.61 1199.03 218.35 1210.99 216.08 1208.62 208.18"/>
            <polygon class="cls-6" points="1212.04 218.45 1199.2 219.38 1201.07 230.95 1217.83 235.04 1212.04 218.45"/>
          </g>
          <polygon class="cls-6" points="1195.82 198.45 1197.13 206.61 1207.83 206.07 1207.04 203.18 1195.82 198.45"/>
          <polygon class="cls-6" points="1191.77 173.41 1194.79 192.08 1204.14 194.75 1196.24 171.05 1191.77 173.41"/>
          <polygon class="cls-6" points="1196.24 169.73 1186.5 140.77 1191.41 171.18 1196.24 169.73"/>
          <polygon class="cls-7" points="1168.15 265.8 1146.47 272.96 1143.05 283.49 1165.56 283.49 1168.15 265.8"/>
          <g>
            <polygon class="cls-7" points="1156.74 238.46 1172.01 239.54 1173.82 227.2 1161.22 223.98 1156.74 238.46"/>
            <polygon class="cls-7" points="1171.56 242.58 1154.11 246.1 1149.37 262.42 1169.3 257.99 1171.56 242.58"/>
          </g>
          <polygon class="cls-7" points="1175.98 212.43 1164.11 213.97 1161.74 221.35 1174.23 224.39 1175.98 212.43"/>
          <polygon class="cls-7" points="1172.01 188.43 1165.96 208.18 1176.69 207.64 1179.07 191.4 1172.01 188.43"/>
          <polygon class="cls-7" points="1173.33 183.16 1172.8 185.8 1179.61 187.74 1180.86 179.18 1173.33 183.16"/>
          <g>
            <polygon class="cls-7" points="1181.23 157.88 1175.96 175.79 1181.61 174.11 1183.9 158.44 1181.23 157.88"/>
            <polygon class="cls-7" points="1184.34 155.48 1186.5 140.77 1182.55 153.41 1184.34 155.48"/>
          </g>
        </g>
      </g>
      <g>
        <path class="cls-7" d="M1105.19,394.81c-57.4,3.95-88.21,25.54-38.18,19.22,50.03-6.32,73.86-17.21,73.86-17.21l-13.36-13.2s-20.01,2.63-20.01,3.23-2.3,7.97-2.3,7.97Z"/>
        <g>
          <path class="cls-8" d="M1122.57,185.99l-17.12,208.82c3.42-1.05,4.21,1.32,4.21,1.32,6.85-4.21,6.58,1.58,6.58,1.58,7.9-3.42,13.43,2.37,13.43,2.37,2.63-5.53,11.32-3.16,11.32-3.16l-18.43-210.92Z"/>
          <path class="cls-7" d="M1122.57,185.99l-11.59,142.72c.79,22.38,18.7,0,18.7,0l-7.11-142.72Z"/>
          <path class="cls-5" d="M1141.01,396.91l-18.43-210.92,10.54,211.03c3.49-1.31,7.89-.11,7.89-.11Z"/>
          <polygon class="cls-4" points="1079.12 328.71 1169.71 328.71 1158.38 293.17 1082.55 318.18 1079.12 328.71"/>
          <polygon class="cls-4" points="1085.44 307.65 1157.59 291.59 1154.96 283.95 1097.29 269.2 1092.82 283.69 1118.89 285.53 1090.18 291.32 1085.44 307.65"/>
          <polygon class="cls-4" points="1097.82 266.57 1153.91 280.26 1148.12 263.67 1126.26 265.25 1147.06 261.3 1144.69 253.4 1100.19 259.2 1097.82 266.57"/>
          <polygon class="cls-4" points="1102.03 253.4 1143.9 251.3 1143.11 248.4 1108.09 233.65 1102.03 253.4"/>
          <polygon class="cls-4" points="1108.88 231.02 1140.22 239.97 1132.32 216.27 1109.41 228.39 1108.88 231.02"/>
          <polygon class="cls-4" points="1112.04 221.01 1132.32 214.96 1122.57 185.99 1118.62 198.63 1123.63 204.42 1117.31 203.11 1112.04 221.01"/>
          <polygon class="cls-6" points="1145.63 328.71 1169.71 328.71 1158.38 293.17 1140.82 298.96 1145.63 328.71"/>
          <polygon class="cls-6" points="1154.96 283.95 1137.69 279.53 1140.26 295.45 1157.59 291.59 1154.96 283.95"/>
          <g>
            <polygon class="cls-6" points="1144.69 253.4 1133.7 254.83 1135.11 263.57 1147.06 261.3 1144.69 253.4"/>
            <polygon class="cls-6" points="1148.12 263.67 1135.27 264.6 1137.14 276.17 1153.91 280.26 1148.12 263.67"/>
          </g>
          <polygon class="cls-6" points="1131.89 243.68 1133.21 251.83 1143.9 251.3 1143.11 248.4 1131.89 243.68"/>
          <polygon class="cls-6" points="1127.85 218.64 1130.86 237.3 1140.22 239.97 1132.32 216.27 1127.85 218.64"/>
          <polygon class="cls-6" points="1132.32 214.96 1122.57 185.99 1127.49 216.4 1132.32 214.96"/>
          <polygon class="cls-7" points="1104.23 311.03 1082.55 318.18 1079.12 328.71 1101.64 328.71 1104.23 311.03"/>
          <g>
            <polygon class="cls-7" points="1092.82 283.69 1108.08 284.76 1109.89 272.42 1097.29 269.2 1092.82 283.69"/>
            <polygon class="cls-7" points="1107.64 287.8 1090.18 291.32 1085.44 307.65 1105.38 303.21 1107.64 287.8"/>
          </g>
          <polygon class="cls-7" points="1112.06 257.65 1100.19 259.2 1097.82 266.57 1110.31 269.62 1112.06 257.65"/>
          <polygon class="cls-7" points="1108.09 233.65 1102.03 253.4 1112.76 252.86 1115.15 236.62 1108.09 233.65"/>
          <polygon class="cls-7" points="1109.41 228.39 1108.88 231.02 1115.68 232.96 1116.94 224.41 1109.41 228.39"/>
          <g>
            <polygon class="cls-7" points="1117.31 203.11 1112.04 221.01 1117.68 219.33 1119.98 203.67 1117.31 203.11"/>
            <polygon class="cls-7" points="1120.41 200.71 1122.57 185.99 1118.62 198.63 1120.41 200.71"/>
          </g>
        </g>
      </g>
      <g>
        <path class="cls-8" d="M493.53,220.83l-17.12,208.82c3.42-1.05,4.21,1.32,4.21,1.32,6.85-4.21,6.58,1.58,6.58,1.58,7.9-3.42,13.43,2.37,13.43,2.37,2.63-5.53,11.32-3.16,11.32-3.16l-18.43-210.92Z"/>
        <path class="cls-7" d="M493.53,220.83l-11.59,142.72c.79,22.38,18.7,0,18.7,0l-7.11-142.72Z"/>
        <path class="cls-5" d="M511.96,431.75l-18.43-210.92,10.54,211.03c3.49-1.31,7.89-.11,7.89-.11Z"/>
        <polygon class="cls-4" points="450.08 363.55 540.66 363.55 529.34 328 453.5 353.01 450.08 363.55"/>
        <polygon class="cls-4" points="456.4 342.48 528.55 326.42 525.92 318.78 468.25 304.04 463.77 318.52 489.84 320.36 461.14 326.16 456.4 342.48"/>
        <polygon class="cls-4" points="468.77 301.4 524.86 315.1 519.07 298.51 497.21 300.09 518.02 296.14 515.65 288.24 471.14 294.03 468.77 301.4"/>
        <polygon class="cls-4" points="472.99 288.24 514.86 286.13 514.07 283.23 479.04 268.49 472.99 288.24"/>
        <polygon class="cls-4" points="479.83 265.85 511.17 274.81 503.27 251.11 480.36 263.22 479.83 265.85"/>
        <polygon class="cls-4" points="482.99 255.85 503.27 249.79 493.53 220.83 489.58 233.47 494.58 239.26 488.26 237.94 482.99 255.85"/>
        <polygon class="cls-6" points="516.58 363.55 540.66 363.55 529.34 328 511.78 333.79 516.58 363.55"/>
        <polygon class="cls-6" points="525.91 318.78 508.64 314.36 511.21 330.28 528.55 326.42 525.91 318.78"/>
        <g>
          <polygon class="cls-6" points="515.65 288.24 504.65 289.67 506.06 298.41 518.02 296.14 515.65 288.24"/>
          <polygon class="cls-6" points="519.07 298.51 506.23 299.43 508.1 311 524.86 315.1 519.07 298.51"/>
        </g>
        <polygon class="cls-6" points="502.85 278.51 504.16 286.67 514.86 286.13 514.07 283.23 502.85 278.51"/>
        <polygon class="cls-6" points="498.8 253.47 501.82 272.13 511.17 274.81 503.27 251.11 498.8 253.47"/>
        <polygon class="cls-6" points="503.27 249.79 493.53 220.83 498.44 251.23 503.27 249.79"/>
        <polygon class="cls-7" points="475.18 345.86 453.5 353.01 450.08 363.55 472.59 363.55 475.18 345.86"/>
        <g>
          <polygon class="cls-7" points="463.77 318.52 479.04 319.6 480.85 307.26 468.25 304.04 463.77 318.52"/>
          <polygon class="cls-7" points="478.59 322.63 461.14 326.16 456.4 342.48 476.33 338.04 478.59 322.63"/>
        </g>
        <polygon class="cls-7" points="483.01 292.48 471.14 294.03 468.77 301.4 481.26 304.45 483.01 292.48"/>
        <polygon class="cls-7" points="479.04 268.49 472.99 288.24 483.72 287.7 486.1 271.46 479.04 268.49"/>
        <polygon class="cls-7" points="480.36 263.22 479.83 265.85 486.64 267.8 487.89 259.24 480.36 263.22"/>
        <g>
          <polygon class="cls-7" points="488.26 237.94 482.99 255.85 488.64 254.16 490.93 238.5 488.26 237.94"/>
          <polygon class="cls-7" points="491.37 235.54 493.53 220.83 489.58 233.47 491.37 235.54"/>
        </g>
      </g>
      <g>
        <path class="cls-8" d="M587.06,257.58l-13.19,160.91c2.64-.81,3.25,1.01,3.25,1.01,5.28-3.25,5.07,1.22,5.07,1.22,6.09-2.64,10.35,1.83,10.35,1.83,2.03-4.26,8.73-2.43,8.73-2.43l-14.2-162.53Z"/>
        <path class="cls-7" d="M587.06,257.58l-8.93,109.98c.61,17.25,14.41,0,14.41,0l-5.48-109.98Z"/>
        <path class="cls-5" d="M601.26,420.12l-14.2-162.53,8.12,162.62c2.69-1.01,6.08-.08,6.08-.08Z"/>
        <polygon class="cls-4" points="553.58 367.56 623.38 367.56 614.65 340.17 556.21 359.45 553.58 367.56"/>
        <polygon class="cls-4" points="558.45 351.33 614.04 338.95 612.02 333.07 567.58 321.7 564.13 332.86 584.22 334.28 562.1 338.75 558.45 351.33"/>
        <polygon class="cls-4" points="567.98 319.67 611.2 330.23 606.74 317.44 589.9 318.66 605.93 315.62 604.1 309.53 569.81 313.99 567.98 319.67"/>
        <polygon class="cls-4" points="571.23 309.53 603.49 307.9 602.88 305.67 575.9 294.31 571.23 309.53"/>
        <polygon class="cls-4" points="576.51 292.28 600.65 299.18 594.57 280.92 576.91 290.25 576.51 292.28"/>
        <polygon class="cls-4" points="578.94 284.57 594.57 279.9 587.06 257.58 584.01 267.32 587.87 271.79 583 270.77 578.94 284.57"/>
        <polygon class="cls-6" points="604.83 367.56 623.38 367.56 614.65 340.17 601.12 344.63 604.83 367.56"/>
        <polygon class="cls-6" points="612.02 333.07 598.7 329.66 600.68 341.93 614.05 338.95 612.02 333.07"/>
        <g>
          <polygon class="cls-6" points="604.1 309.53 595.63 310.63 596.72 317.36 605.93 315.62 604.1 309.53"/>
          <polygon class="cls-6" points="606.74 317.44 596.84 318.16 598.28 327.07 611.2 330.23 606.74 317.44"/>
        </g>
        <polygon class="cls-6" points="594.24 302.03 595.25 308.32 603.49 307.9 602.88 305.67 594.24 302.03"/>
        <polygon class="cls-6" points="591.12 282.74 593.45 297.12 600.65 299.18 594.57 280.92 591.12 282.74"/>
        <polygon class="cls-6" points="594.57 279.9 587.06 257.58 590.84 281.01 594.57 279.9"/>
        <polygon class="cls-7" points="572.92 353.93 556.21 359.45 553.58 367.56 570.92 367.56 572.92 353.93"/>
        <g>
          <polygon class="cls-7" points="564.13 332.86 575.89 333.7 577.29 324.19 567.58 321.7 564.13 332.86"/>
          <polygon class="cls-7" points="575.55 336.03 562.1 338.75 558.45 351.33 573.81 347.91 575.55 336.03"/>
        </g>
        <polygon class="cls-7" points="578.96 312.8 569.81 313.99 567.98 319.67 577.6 322.02 578.96 312.8"/>
        <polygon class="cls-7" points="575.9 294.31 571.23 309.53 579.5 309.11 581.33 296.6 575.9 294.31"/>
        <polygon class="cls-7" points="576.91 290.25 576.51 292.28 581.75 293.78 582.72 287.18 576.91 290.25"/>
        <g>
          <polygon class="cls-7" points="583 270.77 578.94 284.57 583.29 283.27 585.06 271.2 583 270.77"/>
          <polygon class="cls-7" points="585.39 268.92 587.06 257.58 584.01 267.32 585.39 268.92"/>
        </g>
      </g>
      <g>
        <path class="cls-8" d="M670.62,213.4l-17.12,208.82c3.42-1.05,4.21,1.32,4.21,1.32,6.85-4.21,6.58,1.58,6.58,1.58,7.9-3.42,13.43,2.37,13.43,2.37,2.63-5.53,11.32-3.16,11.32-3.16l-18.43-210.92Z"/>
        <path class="cls-7" d="M670.62,213.4l-11.59,142.72c.79,22.38,18.7,0,18.7,0l-7.11-142.72Z"/>
        <path class="cls-5" d="M689.05,424.33l-18.43-210.92,10.54,211.03c3.49-1.31,7.89-.11,7.89-.11Z"/>
        <polygon class="cls-4" points="627.17 356.13 717.76 356.13 706.43 320.58 630.6 345.59 627.17 356.13"/>
        <polygon class="cls-4" points="633.49 335.06 705.64 319 703.01 311.36 645.34 296.61 640.87 311.1 666.94 312.94 638.23 318.73 633.49 335.06"/>
        <polygon class="cls-4" points="645.87 293.98 701.96 307.67 696.16 291.08 674.31 292.66 695.11 288.71 692.74 280.81 648.24 286.61 645.87 293.98"/>
        <polygon class="cls-4" points="650.08 280.81 691.95 278.71 691.16 275.81 656.14 261.07 650.08 280.81"/>
        <polygon class="cls-4" points="656.93 258.43 688.26 267.39 680.36 243.69 657.46 255.8 656.93 258.43"/>
        <polygon class="cls-4" points="660.09 248.43 680.36 242.37 670.62 213.4 666.67 226.04 671.68 231.84 665.36 230.52 660.09 248.43"/>
        <polygon class="cls-6" points="693.68 356.13 717.76 356.13 706.43 320.58 688.87 326.37 693.68 356.13"/>
        <polygon class="cls-6" points="703.01 311.36 685.73 306.94 688.31 322.86 705.64 319 703.01 311.36"/>
        <g>
          <polygon class="cls-6" points="692.74 280.81 681.74 282.25 683.16 290.98 695.11 288.71 692.74 280.81"/>
          <polygon class="cls-6" points="696.16 291.08 683.32 292.01 685.19 303.58 701.96 307.67 696.16 291.08"/>
        </g>
        <polygon class="cls-6" points="679.94 271.09 681.26 279.25 691.95 278.71 691.16 275.81 679.94 271.09"/>
        <polygon class="cls-6" points="675.9 246.05 678.91 264.71 688.26 267.39 680.36 243.69 675.9 246.05"/>
        <polygon class="cls-6" points="680.36 242.37 670.62 213.4 675.53 243.81 680.36 242.37"/>
        <polygon class="cls-7" points="652.28 338.44 630.6 345.59 627.17 356.13 649.69 356.13 652.28 338.44"/>
        <g>
          <polygon class="cls-7" points="640.87 311.1 656.13 312.18 657.94 299.84 645.34 296.61 640.87 311.1"/>
          <polygon class="cls-7" points="655.69 315.21 638.23 318.73 633.49 335.06 653.43 330.62 655.69 315.21"/>
        </g>
        <polygon class="cls-7" points="660.11 285.06 648.24 286.61 645.87 293.98 658.35 297.03 660.11 285.06"/>
        <polygon class="cls-7" points="656.14 261.07 650.08 280.81 660.81 280.27 663.19 264.04 656.14 261.07"/>
        <polygon class="cls-7" points="657.46 255.8 656.93 258.43 663.73 260.38 664.99 251.82 657.46 255.8"/>
        <g>
          <polygon class="cls-7" points="665.36 230.52 660.09 248.43 665.73 246.74 668.03 231.08 665.36 230.52"/>
          <polygon class="cls-7" points="668.46 228.12 670.62 213.4 666.67 226.04 668.46 228.12"/>
        </g>
      </g>
      <g>
        <path class="cls-7" d="M715.31,324.1c-57.4,3.95-88.21,25.54-38.18,19.22s73.86-17.21,73.86-17.21l-13.36-13.2s-20.01,2.63-20.01,3.23-2.3,7.97-2.3,7.97Z"/>
        <g>
          <path class="cls-8" d="M732.69,115.28l-17.12,208.82c3.42-1.05,4.21,1.32,4.21,1.32,6.85-4.21,6.58,1.58,6.58,1.58,7.9-3.42,13.43,2.37,13.43,2.37,2.63-5.53,11.32-3.16,11.32-3.16l-18.43-210.92Z"/>
          <path class="cls-7" d="M732.69,115.28l-11.59,142.72c.79,22.38,18.7,0,18.7,0l-7.11-142.72Z"/>
          <path class="cls-5" d="M751.12,326.2l-18.43-210.92,10.54,211.03c3.49-1.31,7.89-.11,7.89-.11Z"/>
          <polygon class="cls-4" points="689.24 258 779.83 258 768.5 222.45 692.67 247.47 689.24 258"/>
          <polygon class="cls-4" points="695.56 236.94 767.71 220.87 765.08 213.24 707.41 198.49 702.94 212.97 729 214.82 700.3 220.61 695.56 236.94"/>
          <polygon class="cls-4" points="707.94 195.86 764.03 209.55 758.23 192.96 736.38 194.54 757.18 190.59 754.81 182.69 710.31 188.48 707.94 195.86"/>
          <polygon class="cls-4" points="712.15 182.69 754.02 180.58 753.23 177.69 718.21 162.94 712.15 182.69"/>
          <polygon class="cls-4" points="719 160.31 750.33 169.26 742.43 145.56 719.52 157.67 719 160.31"/>
          <polygon class="cls-4" points="722.16 150.3 742.43 144.25 732.69 115.28 728.74 127.92 733.74 133.71 727.42 132.4 722.16 150.3"/>
          <polygon class="cls-6" points="755.75 258 779.83 258 768.5 222.45 750.94 228.25 755.75 258"/>
          <polygon class="cls-6" points="765.08 213.24 747.8 208.82 750.37 224.73 767.71 220.87 765.08 213.24"/>
          <g>
            <polygon class="cls-6" points="754.81 182.69 743.81 184.12 745.23 192.86 757.18 190.59 754.81 182.69"/>
            <polygon class="cls-6" points="758.23 192.96 745.39 193.89 747.26 205.46 764.03 209.55 758.23 192.96"/>
          </g>
          <polygon class="cls-6" points="742.01 172.96 743.33 181.12 754.02 180.58 753.23 177.69 742.01 172.96"/>
          <polygon class="cls-6" points="737.97 147.92 740.98 166.59 750.33 169.26 742.43 145.56 737.97 147.92"/>
          <polygon class="cls-6" points="742.43 144.25 732.69 115.28 737.6 145.69 742.43 144.25"/>
          <polygon class="cls-7" points="714.35 240.32 692.67 247.47 689.24 258 711.76 258 714.35 240.32"/>
          <g>
            <polygon class="cls-7" points="702.94 212.97 718.2 214.05 720.01 201.71 707.41 198.49 702.94 212.97"/>
            <polygon class="cls-7" points="717.76 217.09 700.3 220.61 695.56 236.94 715.5 232.5 717.76 217.09"/>
          </g>
          <polygon class="cls-7" points="722.18 186.94 710.31 188.48 707.94 195.86 720.42 198.91 722.18 186.94"/>
          <polygon class="cls-7" points="718.21 162.94 712.15 182.69 722.88 182.15 725.26 165.91 718.21 162.94"/>
          <polygon class="cls-7" points="719.52 157.68 719 160.31 725.8 162.25 727.06 153.69 719.52 157.68"/>
          <g>
            <polygon class="cls-7" points="727.42 132.4 722.16 150.3 727.8 148.62 730.1 132.95 727.42 132.4"/>
            <polygon class="cls-7" points="730.53 129.99 732.69 115.28 728.74 127.92 730.53 129.99"/>
          </g>
        </g>
      </g>
    </g>
  </g>
</svg>