<?xml version="1.0" encoding="UTF-8"?>
<svg id="Layer_2" data-name="Layer 2" xmlns="http://www.w3.org/2000/svg" viewBox="0 0 1160 282.86">
  <defs>
    <style>
      .cls-1 {
        fill: #1d1d1b;
        stroke-width: 0px;
      }
    </style>
  </defs>
  <g id="Layer_1-2" data-name="Layer 1">
    <g>
      <polygon class="cls-1" points="1105.05 164.43 1099.08 171.8 1104.23 174.28 1105.05 164.43"/>
      <path class="cls-1" d="M995.97,203.64l-2.79,2.38,6.12-1.07-3.28-1.26s-.03-.03-.05-.04Z"/>
      <path class="cls-1" d="M990.94,165.27l.9,2.57,6.66-5.88-1.88-4.29h-.02s-5.49,6.97-5.49,6.97l.03.05c.09.15.06.35-.07.47l-.12.11Z"/>
      <polygon class="cls-1" points="964.81 231.25 973.94 231.25 973.94 223.69 951.2 218.03 964.81 231.25"/>
      <polygon class="cls-1" points="1098.89 170.88 1104.85 163.52 1099.08 159.16 1098.89 170.88"/>
      <path class="cls-1" d="M1043.75,218.23c1.36-.48,3.89-1.39,6.03-2.16l-3.57-2.71-2.46,4.88Z"/>
      <polygon class="cls-1" points="1046.77 194.85 1050.54 201.83 1051.08 192.49 1046.77 194.85"/>
      <path class="cls-1" d="M995.59,195.5l-4.43,5.18.06.28,4.77,1.96s.06.04.08.06c.07-.02.15-.02.22,0l3.64,1.42-4.34-8.9Z"/>
      <path class="cls-1" d="M1050.85,215.69s.04,0,.07-.01l-.41-10.84-3.96,7.84,4.06,3.09c.08-.03.16-.06.24-.08Z"/>
      <polygon class="cls-1" points="974.92 231.25 980.72 231.25 985.74 226.61 974.92 223.92 974.92 231.25"/>
      <polygon class="cls-1" points="1110.74 201.42 1110.74 199.16 1109.56 199.5 1110.74 201.42"/>
      <path class="cls-1" d="M1040.77,185.8l-9.88-6.22c.47,7.06.6,10.05.58,11.34l9.31-5.12Z"/>
      <path class="cls-1" d="M1097.07,174.81l-1.71,11.69,8.25-4.87c-3.54-3.8-5.71-6.12-6.43-6.93-.03.03-.07.08-.1.11Z"/>
      <path class="cls-1" d="M991.78,190.29l.43-1.28-6.29-3.93,1.72,4.58c.02.07.03.14.01.21l-1.28,5.1,5.41-4.68Z"/>
      <polygon class="cls-1" points="1056.15 145.04 1051.04 137.5 1047.24 142.67 1056.15 145.04"/>
      <path class="cls-1" d="M1050.74,136.43c.06.03.1.05.13.07l.18-.24-.31.17Z"/>
      <path class="cls-1" d="M1105.7,190.21l-1.42-2.43s-.05-.1-.05-.15l-.38-5.29-8.21,4.85,8.7,4.37,1.36-1.35Z"/>
      <path class="cls-1" d="M1091.89,179.85c2.56-3.13,3.83-4.63,4.49-5.35v-.08s-9.9-3.87-9.9-3.87l5.14,9.46.27-.15Z"/>
      <polygon class="cls-1" points="960.76 233.72 960.76 231.25 963.41 231.25 952.56 220.72 960.76 233.72"/>
      <polygon class="cls-1" points="1085.85 200.68 1084.33 196.81 1081.76 198.15 1085.85 200.68"/>
      <polygon class="cls-1" points="1062.48 199.49 1062.92 208.99 1069.79 204.19 1062.48 199.49"/>
      <polygon class="cls-1" points="1081.41 186.81 1081.4 187.28 1084.72 195.78 1091.14 192.4 1081.41 186.81"/>
      <path class="cls-1" d="M1097.4,173.88s.07.06.1.1c.15.18,3.96,4.27,6.58,7.08l3.22-.99,1.95-1.73-4.87-3.2-5.77-2.76-1.21,1.5Z"/>
      <path class="cls-1" d="M1022.1,186.82l-.06-.4-6.06-3.27-3.62,8.42,7.89,4.97v-.09s-.01-.07,0-.11l1.85-9.51Z"/>
      <path class="cls-1" d="M1062.95,209.99l-.05.15,1.97,1.32,3.87-5.65-5.79,4.04v.03s-.01.07-.01.11Z"/>
      <rect class="cls-1" x="1075.74" y="240.4" width="4.63" height="5.16"/>
      <polygon class="cls-1" points="1091.36 191.68 1091.31 180.99 1081.64 186.1 1091.36 191.68"/>
      <rect class="cls-1" x="1075.74" y="245.98" width="4.63" height="5.16"/>
      <rect class="cls-1" x="1080.74" y="257.13" width="1.84" height="5.16"/>
      <rect class="cls-1" x="1080.74" y="251.55" width="1.84" height="5.16"/>
      <rect class="cls-1" x="1080.74" y="240.4" width="1.84" height="5.16"/>
      <rect class="cls-1" x="1080.74" y="245.98" width="1.84" height="5.16"/>
      <rect class="cls-1" x="1068.69" y="245.98" width="1.69" height="5.16"/>
      <rect class="cls-1" x="1075.74" y="251.55" width="4.63" height="5.16"/>
      <rect class="cls-1" x="1070.75" y="251.55" width="4.63" height="5.16"/>
      <rect class="cls-1" x="1070.75" y="257.13" width="4.63" height="5.16"/>
      <rect class="cls-1" x="1075.74" y="257.13" width="4.63" height="5.16"/>
      <rect class="cls-1" x="1068.69" y="240.4" width="1.69" height="5.16"/>
      <rect class="cls-1" x="1070.75" y="245.98" width="4.63" height="5.16"/>
      <rect class="cls-1" x="1119.09" y="242.41" width="1.84" height="5.16"/>
      <rect class="cls-1" x="1070.75" y="240.4" width="4.63" height="5.16"/>
      <rect class="cls-1" x="1114.09" y="247.98" width="4.63" height="5.15"/>
      <rect class="cls-1" x="1114.09" y="259.12" width="4.63" height="5.16"/>
      <rect class="cls-1" x="1114.09" y="253.55" width="4.63" height="5.16"/>
      <rect class="cls-1" x="1114.09" y="242.41" width="4.63" height="5.16"/>
      <rect class="cls-1" x="1119.09" y="259.12" width="1.84" height="5.16"/>
      <rect class="cls-1" x="1119.09" y="247.98" width="1.84" height="5.15"/>
      <rect class="cls-1" x="1107.05" y="253.55" width="1.68" height="5.16"/>
      <rect class="cls-1" x="1119.09" y="253.55" width="1.84" height="5.16"/>
      <rect class="cls-1" x="1109.09" y="242.41" width="4.63" height="5.16"/>
      <rect class="cls-1" x="1107.05" y="247.98" width="1.68" height="5.15"/>
      <rect class="cls-1" x="1109.09" y="259.12" width="4.63" height="5.16"/>
      <rect class="cls-1" x="1107.05" y="242.41" width="1.68" height="5.16"/>
      <rect class="cls-1" x="1109.09" y="247.98" width="4.63" height="5.15"/>
      <rect class="cls-1" x="1109.09" y="253.55" width="4.63" height="5.16"/>
      <rect class="cls-1" x="1107.05" y="259.12" width="1.68" height="5.16"/>
      <polygon class="cls-1" points="1080.28 162.49 1080.6 162.24 1085.32 156.94 1085.32 156.5 1075.19 155.98 1080.28 162.49"/>
      <path class="cls-1" d="M1085.32,158.03l-4.19,4.72s-.03.03-.05.04l-.75.58,4.99,5.52v-10.87Z"/>
      <polygon class="cls-1" points="1085.09 169.75 1080.46 164.62 1082.33 172.7 1085.09 169.75"/>
      <path class="cls-1" d="M1074.13,155.32l-.06.07-2.61,2.95,7.36,3.47-4.69-6.02c-.08-.11-.1-.26-.03-.38.01-.03.03-.06.06-.08.06-.08.17-.13.28-.12l10.34.54-4.43-7.47-6.21,7.04Z"/>
      <polygon class="cls-1" points="1079.56 163.97 1071.84 169.93 1081.69 173.19 1079.56 163.97"/>
      <polygon class="cls-1" points="1066.73 149.54 1073.1 154.26 1070.26 144.49 1066.73 149.54"/>
      <polygon class="cls-1" points="1058.07 145.21 1070.18 143.08 1063.03 137.65 1058.07 145.21"/>
      <polygon class="cls-1" points="1070.99 144.39 1073.91 154.45 1079.94 147.62 1079.84 147.45 1070.99 144.39"/>
      <polygon class="cls-1" points="1052.36 168.8 1057.27 161.8 1052.49 159.13 1052.24 159.16 1052.36 168.8"/>
      <polygon class="cls-1" points="1072.66 180.62 1062.47 186.21 1073.21 192.85 1072.66 180.62"/>
      <polygon class="cls-1" points="1062.59 174.3 1062.02 165.08 1052.4 169.97 1061.98 174.62 1062.59 174.3"/>
      <polygon class="cls-1" points="1052.64 158.38 1059.22 157.67 1054.33 150 1052.28 158.19 1052.64 158.38"/>
      <polygon class="cls-1" points="1052.52 179.64 1061.18 175.05 1052.39 170.78 1052.52 179.64"/>
      <polygon class="cls-1" points="1054.98 148.75 1064.08 149.06 1057.32 146.23 1054.98 148.75"/>
      <polygon class="cls-1" points="1072.51 179.86 1063.17 176.01 1061.99 185.64 1072.51 179.86"/>
      <polygon class="cls-1" points="1005.05 165 1003.81 174.95 1013.37 169.91 1005.05 165"/>
      <polygon class="cls-1" points="1003.08 174.92 1004.12 166.61 1000.98 173.24 1003.08 174.92"/>
      <polygon class="cls-1" points="1004.4 187.2 1003.11 176.2 996.24 182.72 1004.4 187.2"/>
      <polygon class="cls-1" points="1008.97 179.37 1003.89 176.62 1005.14 187.22 1008.97 179.37"/>
      <path class="cls-1" d="M1057.17,145.24l5.1-7.77c-3.34-.07-8.43-.18-10.51-.22l5.41,7.99Z"/>
      <polygon class="cls-1" points="1030.51 191.44 1023.64 187.29 1027.16 193.28 1030.51 191.44"/>
      <polygon class="cls-1" points="1013.12 170.87 1003.83 175.75 1009.3 178.71 1013.12 170.87"/>
      <polygon class="cls-1" points="1040.57 144.52 1044.52 143.2 1039.98 143.1 1040.57 144.52"/>
      <path class="cls-1" d="M1040.23,142.29v.09l6.22.13,3.99-5.42c-.11-.06-.26-.13-.46-.24l-9.75,5.44Z"/>
      <path class="cls-1" d="M1043.73,154.35c.05-.02.09-.03.14-.03,0-.01-.01-.01-.01-.02l-3.71-8.87-4.1,1.38,7.68,7.55Z"/>
      <polygon class="cls-1" points="1041.26 174.82 1031.38 179.03 1041.13 185.16 1041.26 174.82"/>
      <path class="cls-1" d="M1030.15,179.53l-7.1,6.55,7.7,4.65c-.03-2.06-.35-7.53-.6-11.2Z"/>
      <polygon class="cls-1" points="1041.27 173.92 1033.73 169.26 1031.16 178.33 1041.27 174.02 1041.27 173.92"/>
      <polygon class="cls-1" points="1079.97 186.3 1073.38 180.33 1073.91 192.3 1079.97 186.3"/>
      <polygon class="cls-1" points="1046.27 160.52 1043.97 156.47 1042.47 162.25 1046.27 160.52"/>
      <polygon class="cls-1" points="1040.85 145.19 1044.09 152.94 1046.14 143.43 1040.85 145.19"/>
      <polygon class="cls-1" points="1062.2 186.89 1066.69 195.96 1072.46 193.25 1062.2 186.89"/>
      <polygon class="cls-1" points="1069.41 203.09 1066.36 196.92 1062.59 198.69 1069.41 203.09"/>
      <polygon class="cls-1" points="1051.5 158.97 1051.47 158.95 1047.31 160.85 1051.64 168.44 1051.5 158.97"/>
      <polygon class="cls-1" points="1046.64 161.16 1042.5 163.05 1051.19 169.14 1046.64 161.16"/>
      <polygon class="cls-1" points="1042 173.53 1042.19 173.64 1050.99 169.89 1042.12 163.67 1042 173.53"/>
      <polygon class="cls-1" points="1058.41 145.9 1066.13 149.13 1069.8 143.89 1058.41 145.9"/>
      <polygon class="cls-1" points="1094.3 162.97 1086.23 169.66 1096.49 173.67 1094.59 163.2 1094.3 162.97"/>
      <polygon class="cls-1" points="1086.04 157.21 1086.04 168.88 1093.71 162.51 1086.39 156.82 1086.04 157.21"/>
      <polygon class="cls-1" points="1092.08 191.37 1094.55 187.06 1092.05 182.19 1092.08 191.37"/>
      <path class="cls-1" d="M1096.19,175.84c-1.09,1.27-2.66,3.18-3.78,4.54-.03.03-.07.06-.11.09l-.24.12,2.67,5.21,1.47-9.97Z"/>
      <polygon class="cls-1" points="1082.54 173.54 1090.37 179.25 1085.53 170.34 1082.54 173.54"/>
      <polygon class="cls-1" points="1071.14 170.46 1070.87 170.67 1073.46 178.92 1081.35 173.84 1071.14 170.46"/>
      <polygon class="cls-1" points="1044.26 155.31 1044.23 155.46 1046.94 160.21 1050.64 158.53 1044.29 155.29 1044.26 155.31"/>
      <polygon class="cls-1" points="1067.11 150.74 1070.88 157.9 1073.22 155.25 1067.11 150.74"/>
      <path class="cls-1" d="M1046.87,143.54l-2.31,10.69s-.02.04-.03.06l9-5.26-6.67-5.49Z"/>
      <polygon class="cls-1" points="1069.76 170.48 1062.76 165.44 1063.3 173.91 1069.76 170.48"/>
      <polygon class="cls-1" points="1079.62 163 1071.5 159.17 1070.83 169.59 1071 169.64 1079.62 163"/>
      <polygon class="cls-1" points="1060.96 157.8 1070.18 158.14 1066.12 150.41 1060.96 157.8"/>
      <polygon class="cls-1" points="1070.78 159 1062.79 164.56 1070.08 169.83 1070.78 159"/>
      <polygon class="cls-1" points="1072.77 179.18 1070.23 171.06 1063.33 174.72 1063.27 175.25 1063.36 175.3 1072.77 179.18"/>
      <polygon class="cls-1" points="1061.26 163.2 1060.13 158.98 1058.32 161.56 1061.26 163.2"/>
      <polygon class="cls-1" points="1054.85 149.47 1060.12 157.72 1065.63 149.84 1054.85 149.47"/>
      <polygon class="cls-1" points="1056.62 145.92 1048.17 143.66 1054.14 148.59 1056.62 145.92"/>
      <polygon class="cls-1" points="1062.49 163.89 1069.69 158.86 1060.76 158.52 1062.15 163.7 1062.49 163.89"/>
      <polygon class="cls-1" points="1057.69 161.21 1059.68 158.35 1053.74 159 1057.69 161.21"/>
      <polygon class="cls-1" points="1061.6 164.47 1061.52 164.18 1057.91 162.16 1053.37 168.65 1061.6 164.47"/>
      <rect class="cls-1" x="963.12" y="246.38" width="3.66" height="5.16"/>
      <rect class="cls-1" x="643.1" y="171.21" width="5.92" height="3.24"/>
      <rect class="cls-1" x="643.1" y="175.73" width="5.92" height="3.24"/>
      <rect class="cls-1" x="643.1" y="216.41" width="5.92" height="3.24"/>
      <rect class="cls-1" x="643.1" y="157.66" width="5.92" height="3.24"/>
      <rect class="cls-1" x="643.1" y="184.77" width="5.92" height="3.24"/>
      <rect class="cls-1" x="643.1" y="162.17" width="5.92" height="3.24"/>
      <rect class="cls-1" x="643.1" y="166.69" width="5.92" height="3.24"/>
      <rect class="cls-1" x="643.1" y="211.89" width="5.92" height="3.24"/>
      <rect class="cls-1" x="643.1" y="207.37" width="5.92" height="3.24"/>
      <rect class="cls-1" x="643.1" y="202.85" width="5.92" height="3.24"/>
      <rect class="cls-1" x="643.1" y="198.33" width="5.92" height="3.24"/>
      <rect class="cls-1" x="643.1" y="193.81" width="5.92" height="3.24"/>
      <rect class="cls-1" x="643.1" y="189.29" width="5.92" height="3.24"/>
      <rect class="cls-1" x="643.1" y="180.25" width="5.92" height="3.24"/>
      <rect class="cls-1" x="942.51" y="258.64" width="2.13" height="5.16"/>
      <rect class="cls-1" x="941.57" y="247.5" width=".77" height="5.16"/>
      <rect class="cls-1" x="941.57" y="253.07" width=".77" height="5.16"/>
      <rect class="cls-1" x="942.51" y="247.5" width="2.13" height="5.16"/>
      <rect class="cls-1" x="942.51" y="253.07" width="2.13" height="5.16"/>
      <rect class="cls-1" x="941.57" y="258.64" width=".77" height="5.16"/>
      <rect class="cls-1" x="643.1" y="139.58" width="5.92" height="3.24"/>
      <rect class="cls-1" x="643.1" y="148.61" width="5.92" height="3.24"/>
      <rect class="cls-1" x="643.1" y="135.05" width="5.92" height="3.24"/>
      <rect class="cls-1" x="643.1" y="144.09" width="5.92" height="3.24"/>
      <rect class="cls-1" x="643.1" y="130.53" width="5.92" height="3.24"/>
      <rect class="cls-1" x="643.1" y="153.13" width="5.92" height="3.24"/>
      <rect class="cls-1" x="621.9" y="193.81" width="19.91" height="3.24"/>
      <rect class="cls-1" x="621.9" y="198.33" width="19.91" height="3.24"/>
      <rect class="cls-1" x="621.9" y="202.85" width="19.91" height="3.24"/>
      <rect class="cls-1" x="621.9" y="180.25" width="19.91" height="3.24"/>
      <rect class="cls-1" x="621.9" y="207.37" width="19.91" height="3.24"/>
      <rect class="cls-1" x="621.9" y="175.73" width="19.91" height="3.24"/>
      <rect class="cls-1" x="621.9" y="184.77" width="19.91" height="3.24"/>
      <rect class="cls-1" x="621.9" y="189.29" width="19.91" height="3.24"/>
      <rect class="cls-1" x="621.9" y="229.97" width="19.91" height="3.24"/>
      <rect class="cls-1" x="621.9" y="211.89" width="19.91" height="3.24"/>
      <rect class="cls-1" x="643.1" y="220.93" width="5.92" height="3.24"/>
      <rect class="cls-1" x="621.9" y="234.49" width="19.91" height="3.23"/>
      <rect class="cls-1" x="621.9" y="216.41" width="19.91" height="3.24"/>
      <rect class="cls-1" x="621.9" y="220.93" width="19.91" height="3.24"/>
      <rect class="cls-1" x="621.9" y="225.45" width="19.91" height="3.24"/>
      <rect class="cls-1" x="621.9" y="130.53" width="19.91" height="3.24"/>
      <rect class="cls-1" x="621.9" y="135.05" width="19.91" height="3.24"/>
      <rect class="cls-1" x="621.9" y="171.21" width="19.91" height="3.24"/>
      <rect class="cls-1" x="643.1" y="225.45" width="5.92" height="3.24"/>
      <rect class="cls-1" x="643.1" y="229.97" width="5.92" height="3.24"/>
      <rect class="cls-1" x="621.9" y="139.58" width="19.91" height="3.24"/>
      <rect class="cls-1" x="643.1" y="234.49" width="5.92" height="3.23"/>
      <rect class="cls-1" x="621.9" y="157.66" width="19.91" height="3.24"/>
      <rect class="cls-1" x="621.9" y="144.09" width="19.91" height="3.24"/>
      <rect class="cls-1" x="621.9" y="166.69" width="19.91" height="3.24"/>
      <rect class="cls-1" x="621.9" y="162.17" width="19.91" height="3.24"/>
      <rect class="cls-1" x="621.9" y="148.61" width="19.91" height="3.24"/>
      <rect class="cls-1" x="621.9" y="153.13" width="19.91" height="3.24"/>
      <rect class="cls-1" x="947.12" y="247.5" width=".85" height="5.16"/>
      <rect class="cls-1" x="1005.15" y="245.35" width="1.84" height="5.16"/>
      <rect class="cls-1" x="1005.15" y="250.93" width="1.84" height="5.16"/>
      <rect class="cls-1" x="1005.15" y="256.5" width="1.84" height="5.16"/>
      <rect class="cls-1" x="1031.62" y="248.71" width="1.69" height="5.16"/>
      <rect class="cls-1" x="1031.62" y="259.85" width="1.69" height="5.16"/>
      <rect class="cls-1" x="1031.62" y="243.13" width="1.69" height="5.16"/>
      <rect class="cls-1" x="1031.62" y="254.27" width="1.69" height="5.16"/>
      <rect class="cls-1" x="1000.15" y="245.35" width="4.63" height="5.16"/>
      <rect class="cls-1" x="995.15" y="250.93" width="4.63" height="5.16"/>
      <rect class="cls-1" x="995.15" y="245.35" width="4.63" height="5.16"/>
      <rect class="cls-1" x="1000.15" y="250.93" width="4.63" height="5.16"/>
      <rect class="cls-1" x="1000.15" y="256.5" width="4.63" height="5.16"/>
      <rect class="cls-1" x="1033.68" y="243.13" width="4.63" height="5.16"/>
      <rect class="cls-1" x="1033.68" y="259.85" width="4.63" height="5.16"/>
      <rect class="cls-1" x="1043.67" y="259.85" width="1.83" height="5.16"/>
      <rect class="cls-1" x="1038.68" y="243.13" width="4.62" height="5.16"/>
      <rect class="cls-1" x="1043.67" y="248.71" width="1.83" height="5.16"/>
      <rect class="cls-1" x="1043.67" y="243.13" width="1.83" height="5.16"/>
      <rect class="cls-1" x="1068.69" y="257.13" width="1.69" height="5.16"/>
      <rect class="cls-1" x="1043.67" y="254.27" width="1.83" height="5.16"/>
      <rect class="cls-1" x="995.15" y="256.5" width="4.63" height="5.16"/>
      <rect class="cls-1" x="1033.68" y="248.71" width="4.63" height="5.16"/>
      <rect class="cls-1" x="1033.68" y="254.27" width="4.63" height="5.16"/>
      <rect class="cls-1" x="1038.68" y="248.71" width="4.62" height="5.16"/>
      <rect class="cls-1" x="944.82" y="258.64" width="2.13" height="5.16"/>
      <rect class="cls-1" x="1038.68" y="259.85" width="4.62" height="5.16"/>
      <rect class="cls-1" x="1038.68" y="254.27" width="4.62" height="5.16"/>
      <rect class="cls-1" x="961.49" y="246.38" width="1.34" height="5.16"/>
      <rect class="cls-1" x="961.49" y="251.96" width="1.34" height="5.16"/>
      <rect class="cls-1" x="961.49" y="257.53" width="1.34" height="5.16"/>
      <rect class="cls-1" x="963.12" y="257.53" width="3.66" height="5.16"/>
      <rect class="cls-1" x="944.82" y="253.07" width="2.13" height="5.16"/>
      <rect class="cls-1" x="944.82" y="247.5" width="2.13" height="5.16"/>
      <rect class="cls-1" x="963.12" y="251.96" width="3.66" height="5.16"/>
      <rect class="cls-1" x="1068.69" y="251.55" width="1.69" height="5.16"/>
      <rect class="cls-1" x="947.12" y="253.07" width=".85" height="5.16"/>
      <rect class="cls-1" x="947.12" y="258.64" width=".85" height="5.16"/>
      <rect class="cls-1" x="971.03" y="246.38" width="1.46" height="5.16"/>
      <rect class="cls-1" x="971.03" y="251.96" width="1.46" height="5.16"/>
      <rect class="cls-1" x="993.11" y="256.5" width="1.68" height="5.16"/>
      <rect class="cls-1" x="993.11" y="245.35" width="1.68" height="5.16"/>
      <rect class="cls-1" x="993.11" y="250.93" width="1.68" height="5.16"/>
      <polygon class="cls-1" points="1019.45 173.27 1014.17 170.37 1009.93 179.05 1015.63 182.13 1019.45 173.27"/>
      <rect class="cls-1" x="967.08" y="251.96" width="3.66" height="5.16"/>
      <rect class="cls-1" x="971.03" y="257.53" width="1.46" height="5.16"/>
      <rect class="cls-1" x="967.08" y="257.53" width="3.66" height="5.16"/>
      <rect class="cls-1" x="967.08" y="246.38" width="3.66" height="5.16"/>
      <polygon class="cls-1" points="1031.26 202.45 1021.13 197.85 1022.15 206.81 1031.26 202.45"/>
      <path class="cls-1" d="M1066.19,132.49l.23.15,4.04-1.64-11.02-2.87,6.75,4.35h0Z"/>
      <path class="cls-1" d="M1075.06,137.71c.37-.43.73-.85,1.07-1.24l-5.02-4.94-4.05,1.64,7.99,4.54Z"/>
      <polygon class="cls-1" points="1064.98 132.57 1058.65 128.49 1053.98 134.04 1064.98 132.57"/>
      <polygon class="cls-1" points="1045.8 127 1040.01 127.34 1042.7 131.37 1045.8 127"/>
      <polygon class="cls-1" points="1084.38 142.56 1088.82 141.27 1088.25 140.62 1072.35 131.73 1077.08 136.38 1084.38 142.56"/>
      <polygon class="cls-1" points="1051.97 133.59 1046.45 127.34 1043.45 131.57 1051.97 133.59"/>
      <polygon class="cls-1" points="1058.25 127.82 1053.37 126.55 1047.04 126.92 1053.18 133.86 1058.25 127.82"/>
      <polygon class="cls-1" points="1091.81 148.43 1088.99 141.97 1084.82 143.19 1091.81 148.43"/>
      <polygon class="cls-1" points="1109.82 177.85 1108.84 170.04 1105.81 164.16 1104.93 174.64 1109.82 177.85"/>
      <path class="cls-1" d="M1108.84,199.72l-.87.25.31.84c.03.08.03.18-.01.26l-3.58,8.9,5.59-7.89-1.45-2.37Z"/>
      <polygon class="cls-1" points="1110.74 197.33 1110.74 186.29 1106.62 190.33 1110.74 197.33"/>
      <path class="cls-1" d="M1034.51,136.67l7.57-4.93-2.64-3.96-7.61,6.42c1,.92,1.89,1.74,2.68,2.46Z"/>
      <polygon class="cls-1" points="1099.53 158.58 1105.1 162.79 1101.38 155.59 1099.48 158.51 1099.53 158.58"/>
      <polygon class="cls-1" points="1099.02 157.87 1100.95 154.91 1090.11 142.72 1093.01 149.35 1099.02 157.87"/>
      <polygon class="cls-1" points="1031.76 203.02 1022.64 207.4 1031.71 213.47 1031.76 203.02"/>
      <path class="cls-1" d="M1008.4,146.68c-1.4.34-4.04.93-9.08,2.02l2.27,2.74,6.81-4.77Z"/>
      <polygon class="cls-1" points="1001 151.87 998.49 148.82 994.73 152.55 1000.82 151.99 1001 151.87"/>
      <path class="cls-1" d="M996.19,157s.06-.04.1-.06l-.36-.82-6.16,6.35.93,1.52,5.49-6.99Z"/>
      <polygon class="cls-1" points="994.02 153.46 990.27 160.9 995.66 155.36 994.02 153.46"/>
      <polygon class="cls-1" points="985.95 169.87 983.81 178.66 987.99 174.45 985.95 169.87"/>
      <path class="cls-1" d="M990.14,164.7l.07-.1-.99-1.61-2.48,4.94,3.34-2.88c-.04-.12-.02-.25.06-.34Z"/>
      <path class="cls-1" d="M988.76,174.39s.01.01.01.02l.83,2.42,1.7-8.33-.95-2.72-3.92,3.38,2.33,5.22h0Z"/>
      <polygon class="cls-1" points="1021.28 131.49 1013.48 136.44 1022.28 134.25 1021.28 131.49"/>
      <polygon class="cls-1" points="1038.75 127.42 1038.41 127.44 1022.52 131.18 1031.19 133.8 1038.75 127.42"/>
      <path class="cls-1" d="M1023.1,134.46l6.74-.3-7.66-2.31.91,2.54s.01.05.01.07Z"/>
      <polygon class="cls-1" points="983.45 180.13 982.11 185.63 984.76 184.04 983.45 180.13"/>
      <path class="cls-1" d="M1013.04,140.16l1.93.89,6.59-5.87-9.02,2.25.52,2.57c.01.06.01.11-.01.16Z"/>
      <path class="cls-1" d="M1011.8,137.5l-4.54,2.88c1.2-.15,3.32-.41,5-.63l-.46-2.26Z"/>
      <path class="cls-1" d="M1012.09,140.52c-3.07.38-4.51.57-5.18.65.33.53,1.11,1.71,2.84,4.27l2.34-4.92Z"/>
      <path class="cls-1" d="M1006.13,141.29l-6.74,6.66c3.57-.78,8.26-1.82,9.7-2.18-1.85-2.74-2.65-3.93-2.96-4.48Z"/>
      <polygon class="cls-1" points="1050.01 202.38 1046.13 195.2 1042.26 197.31 1042.28 197.71 1050.01 202.38"/>
      <polygon class="cls-1" points="1050.66 191.88 1042.24 186.45 1046.43 194.2 1050.66 191.88"/>
      <polygon class="cls-1" points="1045.79 194.55 1041.89 187.34 1042.23 196.49 1045.79 194.55"/>
      <polygon class="cls-1" points="1051.76 180.87 1042.53 185.77 1051.15 191.33 1051.76 180.87"/>
      <polygon class="cls-1" points="1062.21 209.48 1061.73 199.1 1052.07 203.63 1061.99 209.63 1062.21 209.48"/>
      <polygon class="cls-1" points="1056.14 195.4 1051.41 203.13 1061.08 198.59 1056.14 195.4"/>
      <polygon class="cls-1" points="1051.81 192.61 1051.26 201.98 1055.52 195.01 1051.81 192.61"/>
      <polygon class="cls-1" points="1033.18 203.43 1037.77 210.55 1040.55 209.03 1033.18 203.43"/>
      <polygon class="cls-1" points="1032.47 203.67 1032.45 213.46 1037.14 210.9 1032.47 203.67"/>
      <polygon class="cls-1" points="1107.54 200.94 1107.26 200.18 1098.45 202.78 1103.83 210.17 1107.54 200.94"/>
      <polygon class="cls-1" points="1037.53 211.51 1032.89 214.06 1041.89 218.28 1037.53 211.51"/>
      <polygon class="cls-1" points="1041.96 209.08 1041.88 209.13 1041.97 209.2 1041.96 209.08"/>
      <polygon class="cls-1" points="1041.93 208.27 1041.56 198.12 1041.18 197.9 1033.01 202.37 1041.24 208.65 1041.93 208.27"/>
      <polygon class="cls-1" points="1056.99 212.91 1061.66 210.28 1051.78 204.31 1056.99 212.91"/>
      <path class="cls-1" d="M1036.12,194.84l-4.71-2.85c.01,1.11.53,5.82.95,9.34l3.76-6.49Z"/>
      <polygon class="cls-1" points="1084.98 196.46 1086.72 200.92 1091.04 193.28 1084.98 196.46"/>
      <polygon class="cls-1" points="1098.31 198.09 1087.59 201.62 1096.06 208.03 1098.31 198.09"/>
      <path class="cls-1" d="M1086.65,202.74l-.02-.03-4.53,7.39s-.03.03-.04.04l5.21,2.95-.62-10.35Z"/>
      <path class="cls-1" d="M1096.7,208.51l.32.24c.05.04.09.09.11.15l1.34,3.24-.79-7.98-.98,4.35Z"/>
      <polygon class="cls-1" points="1099.14 197.74 1098.22 201.79 1103.25 193.85 1099.14 197.74"/>
      <polygon class="cls-1" points="1086.3 201.85 1086.29 201.82 1081.24 198.69 1081.92 208.99 1086.3 201.85"/>
      <polygon class="cls-1" points="1098.61 214.39 1096.49 209.28 1096.37 209.18 1089.38 218.87 1098.61 214.39"/>
      <polygon class="cls-1" points="1081.36 189.19 1081.18 197.64 1084.06 196.12 1081.36 189.19"/>
      <polygon class="cls-1" points="1064.46 212.06 1062.69 210.88 1060.99 217.1 1064.46 212.06"/>
      <polygon class="cls-1" points="1080.65 210.18 1070.89 204.66 1072.15 215.48 1080.65 210.18"/>
      <polygon class="cls-1" points="1070.61 216.16 1065.07 212.46 1060.91 218.51 1070.61 216.16"/>
      <polygon class="cls-1" points="1070.19 204.99 1065.49 211.86 1071.47 215.85 1070.19 204.99"/>
      <polygon class="cls-1" points="1080.72 211 1072.18 216.32 1075.46 218.51 1080.72 211"/>
      <polygon class="cls-1" points="1080.52 198.81 1070.95 203.85 1081.23 209.67 1080.52 198.81"/>
      <polygon class="cls-1" points="1110.74 185.23 1110.74 185.13 1109.93 178.71 1107.94 180.47 1110.74 185.23"/>
      <path class="cls-1" d="M1098.39,203.94l1.03,10.34s.01-.02.02-.03l4.19-3.12-5.24-7.19Z"/>
      <rect class="cls-1" x="1124.76" y="254.61" width=".61" height="5.16"/>
      <path class="cls-1" d="M1087.26,202.28l.09.24s.02.07.02.11l.98,16.41,7.44-10.3-8.53-6.46Z"/>
      <polygon class="cls-1" points="1099.96 214.78 1099.92 214.88 1104.23 219 1104.37 218.78 1106.47 213.52 1104.49 211.42 1099.96 214.78"/>
      <rect class="cls-1" x="1124.76" y="260.18" width=".61" height="5.16"/>
      <polygon class="cls-1" points="1056.35 213.27 1051.23 204.81 1051.65 215.88 1051.71 215.9 1056.35 213.27"/>
      <path class="cls-1" d="M1078.4,219.38c-.3.18-.59.34-.87.51l6.16,4.1,3.99-4.1-.34-5.74c-1.15.68-5.04,2.95-8.93,5.23Z"/>
      <polygon class="cls-1" points="1088.69 220.02 1095.38 225.4 1099.08 215.07 1099.01 215.01 1088.69 220.02"/>
      <path class="cls-1" d="M1081.75,210.8l-5.69,8.11.78.53c3.22-1.87,6.85-4.01,9.91-5.8l-5.01-2.84Z"/>
      <polygon class="cls-1" points="1057.37 213.54 1060.02 217.91 1061.91 210.97 1057.37 213.54"/>
      <polygon class="cls-1" points="1051.69 216.74 1051.93 223.06 1059.22 219.31 1051.78 216.69 1051.69 216.74"/>
      <polygon class="cls-1" points="1052.62 216.21 1059.63 218.68 1056.73 213.9 1052.62 216.21"/>
      <path class="cls-1" d="M1060.73,219.31c2.11,1.22,6.58,3.82,7.93,4.61l2.57-7.16-10.5,2.55Z"/>
      <path class="cls-1" d="M1069.52,223.68c1.21-.69,3.69-2.12,6.63-3.83l-4.24-2.82-2.39,6.66Z"/>
      <polygon class="cls-1" points="1110.74 202.73 1104.96 210.86 1106.77 212.77 1110.74 202.9 1110.74 202.73"/>
      <rect class="cls-1" x="1129.1" y="254.61" width=".66" height="5.16"/>
      <rect class="cls-1" x="1129.1" y="260.18" width=".66" height="5.16"/>
      <rect class="cls-1" x="1124.76" y="243.47" width=".61" height="5.16"/>
      <rect class="cls-1" x="1127.3" y="249.03" width="1.67" height="5.16"/>
      <path class="cls-1" d="M1157.95,238.27v-3.38h-2.73v-23.32c0-.15-.07-.29-.19-.38-.12-.1-.27-.13-.41-.09l-.16.04c-.17-.08-.38-.06-.54.07l-.1.1-37.46,9.79-6.57-6.92,2.38-5.4,2.19-14.93-.82-17.22-3.17-11.81-5.9-13.08-7.94-9.3-6.75-6.63-7.18-5.73-13.78-5.13-17.06-1.94-13.06.24-13.45,1.47-12,7.57-21.55,17.22-6.79,12.71-6.35,13.65-2.83,19.35,3.52,11.89,2.13,4.48h-6.37V81.4h-8.77v-6.15h-12.09v-4.83h-22.47v4.83h-11.27v6.15h-.52v1.49h.52v4.13h-4.73s-1.12,0-1.12,0v37.93h-2.19v1.23c-1,0-4.27.19-6.45.76-.51.13-.94.28-1.3.46-.47.23-.75.51-.75.82,0,.51.32.82.75,1,.39.17.88.24,1.3.26.47.03.84,0,.93-.01v7.18c-.31.02-.63.04-.93.05h-.18v.02c-.38.02-.76.05-1.11.08h-.18v.02c-.34.03-.69.06-1.01.1h-.18v.03c-.3.03-.6.07-.87.12h-.18v.03c-.46.07-.89.14-1.32.23h-.18v.04c-.39.09-.78.17-1.18.28h-.18v.05c-.27.07-.55.14-.83.22-.13.03-.24.07-.34.11-1.95.67-.75,1.41,0,1.73.26.12.47.19.47.19v2.32h.71v2.03h-6.29v.8h1.64v3.94l-1.64.24v.5l1.64-.2v4.21l-1.64.24v.5l1.64-.2v4.21l-1.64.24v.49l1.64-.19v1.22h-4.11l-.27-72.38h-6.64v-5.32h-1.62v-.84h-12.09v-4.83h-8.77v-10.97l7.97-5.39h0s4.78-.01,4.78-.01v-2.89h-1.2v-3.12h3.6v-2.89h-2.18v-2.97h4.74v-2.89h-5.98l-5.13-3.15v-8.66h-.91v2.43h-6.53v-8.03l-1.84,7.66h-1.68v-8.54h2.12v-1.87h-2.12v-7.14h1.78v-1.67h-1.78v-5.82h1.2v-1.02h-1.2V0h-1.8v9.98h-1.2v1.02h1.2v5.82h-1.78v1.67h1.78v7.14h-2.12v1.87h2.12v8.54h-1.69l-1.82-7.66v8.03h-6.54v-2.43h-.91v8.66l-5.14,3.15h-5.97v2.89h4.74v2.97h-2.19v2.89h3.61v3.12h-1.2v2.89h4.81s-.03.01-.03.01l7.97,5.39v10.97h-3.2v4.83h-11.28v6.16h-.51v1.48h.51v4.13h-4.72s-1.12-.01-1.12-.01v41l-1.2-.1v-3.07l-8.28-1.96h-1.24v-21.05h-4.23v-9.96h-22.64v-1.1h.36v-1.24h-12.81v1.12h-1.74v1.22h-9.42v.36h-4.57v1.14h-2.04v.93h3.62v5.87h-5.15v1.65h-9.64v4.42h-5.09v-2.84h.04s0-1.13,0-1.13h-.03v-3.27h.03v-1.13h-.02v-3.28h.02v-1.13h-.01v-3.28h.01v-1.13l-8.75-.64c-.02-.59-.05-1.66-.09-2.85h.14s0-1.13,0-1.13h-.18c-.05-1.48-.1-2.96-.13-3.9h.13s0-1.13,0-1.13l-6.67-.54,1.44-9.58-16.03-2.59v.06l-.35-.06-14.28.97v5.44l-11.86.76v1.25l.63-.04v2.82h-.48v.91s.19-.01.48-.02v3.92l-2.89.05v.91s1.14-.04,2.89-.07v3.96l-3.15.06v.91s.31-.02.82-.03v3.52l-4.09.07v.9s.66-.02,1.71-.04v3.61l-1.71.03v.91s.66-.03,1.71-.05v3.62l-1.71.03v.9s.66-.03,1.71-.04v3.61l-1.71.03v.9s.66-.02,1.71-.04v3.61l-1.71.03v.91s.66-.03,1.71-.05v3.62l-1.71.03v.9s.66-.03,1.71-.04v3.61l-1.71.03v.9s.66-.02,1.71-.04v3.06h-28.1v-4.1h-.65v-2.18h-4.36v-9.76h-31.23v6.66h-13.49v18.86h-23.68l-.06-43.28h.06v-5.38h-40.75v-4.37h-17.59v4.37h-1.03v18.2h-33.12v2.14h-6.37v6.74h-3.14v-1.46h-2.01v1.56h-4.11v-2.41h-5.65v-32.48h-42.84l-6.19,2.42v9.82h-9.73v-30.92h-2.48v-6.49h-17.24v-3.27h-11.77v9.13h-1.99v1.99h-1.08v4.29h1.08v50.52h-12.65v-1.8h-3.45v-5.82h-2.31v-3.44h-13.28v3.66h-1.98l-6.07-12.94h-3.88v-30.48h.83v-13.58h-4.44v1.07h-12.5v-1.93h-12.78v1.93h-18.51v-1.07h-6.63v2.58h-2.02v11.27h1.44v11.99h-11.72l-3.78,1.23v-.33h-2.26v1.06l-2.32.75v37.09h-9.67v-3.09h-7.58v-9.64h-4.65v9.64h-2.25v3.09h-9.97V36.05h.49v-4.64h-.49v-1.87h-15.44v-2.86h7.07v-1.2h-23.24v1.2h13.81v2.86h-20.84v10.39h4.38v2.37h-3.61v83.37h-5.39v7.23h-.29v-3.22h-1.16v-1.46h-6.77v1.46h-2.08v-3.22h-7.4v6.43h-1.1v-4.37h-7.81v4.37h-2.49v12.55h-5.37v-16.53h-42.6v-7.27h-10.98v-1.9h-4.07v-7.12h-22.11v7.12h-3.81v-18.71h-19.35v42.84h-8.8v32.51H11.48v83.6H0v22.91h1160v-44.6h-2.05ZM466.74,85.69h1.55v2.68h-1.55v-2.68ZM466.74,90.62h1.55v2.67h-1.55v-2.67ZM466.74,94.66h1.55v2.68h-1.55v-2.68ZM466.74,98.7h1.55v2.67h-1.55v-2.67ZM466.74,102.74h1.55v2.68h-1.55v-2.68ZM466.74,106.79h1.55v2.67h-1.55v-2.67ZM466.74,110.82h1.55v2.68h-1.55v-2.68ZM466.74,118.91h1.55v2.68h-1.55v-2.68ZM466.74,122.95h1.55v2.67h-1.55v-2.67ZM466.74,126.99h1.55v2.68h-1.55v-2.68ZM466.74,135.07h1.55v2.68h-1.55v-2.68ZM466.74,139.12h1.55v2.67h-1.55v-2.67ZM466.74,147.2h1.55v2.67h-1.55v-2.67ZM466.74,151.24h1.55v2.68h-1.55v-2.68ZM466.74,155.29h1.55v2.67h-1.55v-2.67ZM466.74,159.32h1.55v2.68h-1.55v-2.68ZM466.74,163.37h1.55v2.67h-1.55v-2.67ZM463.64,85.69h1.55v2.68h-1.55v-2.68ZM463.64,90.62h1.55v2.67h-1.55v-2.67ZM463.64,98.7h1.55v2.67h-1.55v-2.67ZM463.64,102.74h1.55v2.68h-1.55v-2.68ZM463.64,110.82h1.55v2.68h-1.55v-2.68ZM463.64,114.87h1.55v2.67h-1.55v-2.67ZM463.64,118.91h1.55v2.68h-1.55v-2.68ZM463.64,122.95h1.55v2.67h-1.55v-2.67ZM463.64,126.99h1.55v2.68h-1.55v-2.68ZM463.64,131.04h1.55v2.67h-1.55v-2.67ZM463.64,139.12h1.55v2.67h-1.55v-2.67ZM463.64,143.16h1.55v2.68h-1.55v-2.68ZM463.64,151.24h1.55v2.68h-1.55v-2.68ZM463.64,155.29h1.55v2.67h-1.55v-2.67ZM463.64,159.32h1.55v2.68h-1.55v-2.68ZM460.53,90.62h1.55v2.67h-1.55v-2.67ZM460.53,94.66h1.55v2.68h-1.55v-2.68ZM460.53,102.74h1.55v2.68h-1.55v-2.68ZM460.53,106.79h1.55v2.67h-1.55v-2.67ZM460.53,114.87h1.55v2.67h-1.55v-2.67ZM460.53,118.91h1.55v2.68h-1.55v-2.68ZM460.53,122.95h1.55v2.67h-1.55v-2.67ZM460.53,126.99h1.55v2.68h-1.55v-2.68ZM460.53,131.04h1.55v2.67h-1.55v-2.67ZM460.53,135.07h1.55v2.68h-1.55v-2.68ZM460.53,139.12h1.55v2.67h-1.55v-2.67ZM460.53,143.16h1.55v2.68h-1.55v-2.68ZM460.53,151.24h1.55v2.68h-1.55v-2.68ZM460.53,155.29h1.55v2.67h-1.55v-2.67ZM460.53,163.37h1.55v2.67h-1.55v-2.67ZM457.42,85.69h1.56v2.68h-1.56v-2.68ZM457.42,94.66h1.56v2.68h-1.56v-2.68ZM457.42,98.7h1.56v2.67h-1.56v-2.67ZM457.42,102.74h1.56v2.68h-1.56v-2.68ZM457.42,106.79h1.56v2.67h-1.56v-2.67ZM457.42,114.87h1.56v2.67h-1.56v-2.67ZM457.42,118.91h1.56v2.68h-1.56v-2.68ZM457.42,122.95h1.56v2.67h-1.56v-2.67ZM457.42,131.04h1.56v2.67h-1.56v-2.67ZM457.42,135.07h1.56v2.68h-1.56v-2.68ZM457.42,143.16h1.56v2.68h-1.56v-2.68ZM457.42,147.2h1.56v2.67h-1.56v-2.67ZM457.42,155.29h1.56v2.67h-1.56v-2.67ZM457.42,163.37h1.56v2.67h-1.56v-2.67ZM454.31,85.69h1.56v2.68h-1.56v-2.68ZM454.31,94.66h1.56v2.68h-1.56v-2.68ZM454.31,98.7h1.56v2.67h-1.56v-2.67ZM454.31,106.79h1.56v2.67h-1.56v-2.67ZM454.31,110.82h1.56v2.68h-1.56v-2.68ZM454.31,118.91h1.56v2.68h-1.56v-2.68ZM454.31,122.95h1.56v2.67h-1.56v-2.67ZM454.31,131.04h1.56v2.67h-1.56v-2.67ZM454.31,139.12h1.56v2.67h-1.56v-2.67ZM454.31,143.16h1.56v2.68h-1.56v-2.68ZM454.31,147.2h1.56v2.67h-1.56v-2.67ZM454.31,151.24h1.56v2.68h-1.56v-2.68ZM454.31,155.29h1.56v2.67h-1.56v-2.67ZM454.31,159.32h1.56v2.68h-1.56v-2.68ZM454.31,163.37h1.56v2.67h-1.56v-2.67ZM451.2,90.62h1.56v2.67h-1.56v-2.67ZM451.2,94.66h1.56v2.68h-1.56v-2.68ZM451.2,102.74h1.56v2.68h-1.56v-2.68ZM451.2,106.79h1.56v2.67h-1.56v-2.67ZM451.2,110.82h1.56v2.68h-1.56v-2.68ZM451.2,114.87h1.56v2.67h-1.56v-2.67ZM451.2,122.95h1.56v2.67h-1.56v-2.67ZM451.2,126.99h1.56v2.68h-1.56v-2.68ZM451.2,131.04h1.56v2.67h-1.56v-2.67ZM451.2,135.07h1.56v2.68h-1.56v-2.68ZM451.2,139.12h1.56v2.67h-1.56v-2.67ZM451.2,143.16h1.56v2.68h-1.56v-2.68ZM451.2,147.2h1.56v2.67h-1.56v-2.67ZM451.2,151.24h1.56v2.68h-1.56v-2.68ZM451.2,155.29h1.56v2.67h-1.56v-2.67ZM451.2,159.32h1.56v2.68h-1.56v-2.68ZM451.2,163.37h1.56v2.67h-1.56v-2.67ZM448.1,85.69h1.56v2.68h-1.56v-2.68ZM448.1,90.62h1.56v2.67h-1.56v-2.67ZM448.1,94.66h1.56v2.68h-1.56v-2.68ZM448.1,98.7h1.56v2.67h-1.56v-2.67ZM448.1,102.74h1.56v2.68h-1.56v-2.68ZM448.1,106.79h1.56v2.67h-1.56v-2.67ZM448.1,110.82h1.56v2.68h-1.56v-2.68ZM448.1,114.87h1.56v2.67h-1.56v-2.67ZM448.1,118.91h1.56v2.68h-1.56v-2.68ZM448.1,126.99h1.56v2.68h-1.56v-2.68ZM448.1,131.04h1.56v2.67h-1.56v-2.67ZM448.1,135.07h1.56v2.68h-1.56v-2.68ZM448.1,143.16h1.56v2.68h-1.56v-2.68ZM448.1,151.24h1.56v2.68h-1.56v-2.68ZM448.1,159.32h1.56v2.68h-1.56v-2.68ZM448.1,163.37h1.56v2.67h-1.56v-2.67ZM444.99,85.69h1.55v2.68h-1.55v-2.68ZM444.99,90.62h1.55v2.67h-1.55v-2.67ZM444.99,98.7h1.55v2.67h-1.55v-2.67ZM444.99,102.74h1.55v2.68h-1.55v-2.68ZM444.99,106.79h1.55v2.67h-1.55v-2.67ZM444.99,110.82h1.55v2.68h-1.55v-2.68ZM444.99,118.91h1.55v2.68h-1.55v-2.68ZM442.79,135.03v-1.92h2.53v1.92h-2.53ZM445.32,136.16v1.93h-2.53v-1.93h2.53ZM441.89,85.69h1.55v2.68h-1.55v-2.68ZM441.89,94.66h1.55v2.68h-1.55v-2.68ZM441.89,98.7h1.55v2.67h-1.55v-2.67ZM441.89,102.74h1.55v2.68h-1.55v-2.68ZM441.89,110.82h1.55v2.68h-1.55v-2.68ZM441.89,114.87h1.55v2.67h-1.55v-2.67ZM441.89,118.91h1.55v2.68h-1.55v-2.68ZM438.78,85.69h1.55v2.68h-1.55v-2.68ZM438.78,90.62h1.55v2.67h-1.55v-2.67ZM438.78,98.7h1.55v2.67h-1.55v-2.67ZM438.78,106.79h1.55v2.67h-1.55v-2.67ZM438.78,110.82h1.55v2.68h-1.55v-2.68ZM438.78,114.87h1.55v2.67h-1.55v-2.67ZM438.78,118.91h1.55v2.68h-1.55v-2.68ZM437.79,133.11h2.53v1.92h-2.53v-1.92ZM435.67,90.62h1.55v2.67h-1.55v-2.67ZM435.67,98.7h1.55v2.67h-1.55v-2.67ZM435.67,106.79h1.55v2.67h-1.55v-2.67ZM435.67,110.82h1.55v2.68h-1.55v-2.68ZM435.67,114.87h1.55v2.67h-1.55v-2.67ZM432.56,90.62h1.56v2.67h-1.56v-2.67ZM432.56,94.66h1.56v2.68h-1.56v-2.68ZM432.56,98.7h1.56v2.67h-1.56v-2.67ZM432.56,106.79h1.56v2.67h-1.56v-2.67ZM432.56,110.82h1.56v2.68h-1.56v-2.68ZM432.56,118.91h1.56v2.68h-1.56v-2.68ZM429.45,85.69h1.56v2.68h-1.56v-2.68ZM429.45,90.62h1.56v2.67h-1.56v-2.67ZM429.45,94.66h1.56v2.68h-1.56v-2.68ZM429.45,102.74h1.56v2.68h-1.56v-2.68ZM429.45,106.79h1.56v2.67h-1.56v-2.67ZM429.45,110.82h1.56v2.68h-1.56v-2.68ZM429.45,118.91h1.56v2.68h-1.56v-2.68ZM427.69,126.15h6.63v4.79h-6.63v-4.79ZM431.79,137.53v-1.92h2.53v1.92h-2.53ZM434.11,142.01v1.92h-2.54v-1.92h2.54ZM431.79,134.73v-1.92h2.53v1.92h-2.53ZM428.22,163.25h2.53v1.93h-2.53v-1.93ZM427.77,137.53v-1.92h2.53v1.92h-2.53ZM428.22,155.95v-1.93h2.53v1.93h-2.53ZM425.16,145.34h2.53v1.92h-2.53v-1.92ZM422.01,133.11h2.42v1.73h-2.42v-1.73ZM424.68,158.19v1.92h-2.53v-1.92h2.53ZM421.89,142.14h2.53v1.93h-2.53v-1.93ZM421.29,147.75h2.53v1.92h-2.53v-1.92ZM421.44,160.96v1.92h-2.53v-1.92h2.53ZM420.74,152.15h-2.53v-1.93h2.53v1.93ZM417.14,135.03h2.53v1.92h-2.53v-1.92ZM390.66,130.79h2.29v2.29h-2.29v-2.29ZM390.66,136.15h2.29v2.29h-2.29v-2.29ZM390.66,141.51h2.29v2.28h-2.29v-2.28ZM390.66,146.86h2.29v2.28h-2.29v-2.28ZM390.66,152.21h2.29v2.29h-2.29v-2.29ZM386.47,170.55v-2.28h2.28v2.28h-2.28ZM388.75,173.63v2.29h-2.28v-2.29h2.28ZM386.47,165.2v-2.28h2.28v2.28h-2.28ZM386.47,159.85v-2.29h2.28v2.29h-2.28ZM386.47,154.5v-2.29h2.28v2.29h-2.28ZM386.47,149.14v-2.28h2.28v2.28h-2.28ZM386.47,143.78v-2.28h2.28v2.28h-2.28ZM386.47,138.43v-2.29h2.28v2.29h-2.28ZM386.47,133.08v-2.29h2.28v2.29h-2.28ZM381.33,56.13c0-.47.38-.84.85-.84h5.06c.47,0,.84.37.84.84v5.72c0,.47-.37.85-.84.85h-5.06c-.47,0-.85-.38-.85-.85v-5.72ZM382.28,170.55v-2.28h2.29v2.28h-2.29ZM384.56,173.63v2.29h-2.29v-2.29h2.29ZM382.28,165.2v-2.28h2.29v2.28h-2.29ZM382.28,159.85v-2.29h2.29v2.29h-2.29ZM382.28,143.78v-2.28h2.29v2.28h-2.29ZM382.28,133.08v-2.29h2.29v2.29h-2.29ZM378.08,130.79h2.29v2.29h-2.29v-2.29ZM378.08,136.15h2.29v2.29h-2.29v-2.29ZM378.08,141.51h2.29v2.28h-2.29v-2.28ZM378.08,146.86h2.29v2.28h-2.29v-2.28ZM378.08,152.21h2.29v2.29h-2.29v-2.29ZM378.08,157.56h2.29v2.29h-2.29v-2.29ZM378.08,162.93h2.29v2.28h-2.29v-2.28ZM378.08,168.28h2.29v2.28h-2.29v-2.28ZM378.08,173.63h2.29v2.29h-2.29v-2.29ZM370.92,135.86h2.29v2.29h-2.29v-2.29ZM370.92,141.21h2.29v2.29h-2.29v-2.29ZM370.92,146.57h2.29v2.29h-2.29v-2.29ZM370.92,151.93h2.29v2.28h-2.29v-2.28ZM370.92,157.28h2.29v2.28h-2.29v-2.28ZM370.92,162.63h2.29v2.29h-2.29v-2.29ZM366.73,130.51h2.29v2.28h-2.29v-2.28ZM366.73,135.86h2.29v2.29h-2.29v-2.29ZM366.73,146.57h2.29v2.29h-2.29v-2.29ZM366.73,151.93h2.29v2.28h-2.29v-2.28ZM366.73,157.28h2.29v2.28h-2.29v-2.28ZM366.73,162.63h2.29v2.29h-2.29v-2.29ZM366.73,167.98h2.29v2.29h-2.29v-2.29ZM366.73,173.35h2.29v2.28h-2.29v-2.28ZM362.54,130.51h2.28v2.28h-2.28v-2.28ZM362.54,135.86h2.28v2.29h-2.28v-2.29ZM362.54,146.57h2.28v2.29h-2.28v-2.29ZM362.54,151.93h2.28v2.28h-2.28v-2.28ZM362.54,157.28h2.28v2.28h-2.28v-2.28ZM362.54,167.98h2.28v2.29h-2.28v-2.29ZM362.54,173.35h2.28v2.28h-2.28v-2.28ZM358.34,130.51h2.28v2.28h-2.28v-2.28ZM358.34,135.86h2.28v2.29h-2.28v-2.29ZM358.34,141.21h2.28v2.29h-2.28v-2.29ZM358.34,146.57h2.28v2.29h-2.28v-2.29ZM358.34,162.63h2.28v2.29h-2.28v-2.29ZM358.34,167.98h2.28v2.29h-2.28v-2.29ZM358.34,173.35h2.28v2.28h-2.28v-2.28ZM341.72,140.9h3.11v1.73h-3.11v-1.73ZM341.72,148.45h3.11v1.73h-3.11v-1.73ZM341.72,163.53h3.11v1.73h-3.11v-1.73ZM341.72,171.08h3.11v1.73h-3.11v-1.73ZM335.83,133.35h3.12v1.73h-3.12v-1.73ZM335.83,144.68h3.12v1.73h-3.12v-1.73ZM335.83,152.22h3.12v1.73h-3.12v-1.73ZM335.83,156h3.12v1.73h-3.12v-1.73ZM335.83,167.31h3.12v1.73h-3.12v-1.73ZM330.84,70.91h2.13v1.75h-2.13v-1.75ZM330.84,84.32h2.13v1.76h-2.13v-1.76ZM330.84,97.73h2.13v1.76h-2.13v-1.76ZM330.84,115.62h2.13v1.76h-2.13v-1.76ZM330.84,137.98h2.13v1.76h-2.13v-1.76ZM327.06,79.84h2.12v1.76h-2.12v-1.76ZM327.06,93.26h2.12v1.76h-2.12v-1.76ZM327.06,102.2h2.12v1.76h-2.12v-1.76ZM327.06,111.15h2.12v1.76h-2.12v-1.76ZM327.06,120.09h2.12v1.76h-2.12v-1.76ZM327.06,133.51h2.12v1.76h-2.12v-1.76ZM327.06,142.45h2.12v1.76h-2.12v-1.76ZM327.06,169.28h2.12v1.76h-2.12v-1.76ZM323.26,75.38h2.12v1.75h-2.12v-1.75ZM323.26,88.79h2.12v1.76h-2.12v-1.76ZM323.26,97.73h2.12v1.76h-2.12v-1.76ZM323.26,111.15h2.12v1.76h-2.12v-1.76ZM323.26,129.03h2.12v1.76h-2.12v-1.76ZM323.26,151.39h2.12v1.76h-2.12v-1.76ZM323.26,155.86h2.12v1.76h-2.12v-1.76ZM323.26,173.75h2.12v1.76h-2.12v-1.76ZM319.47,88.79h2.13v1.76h-2.13v-1.76ZM319.47,97.73h2.13v1.76h-2.13v-1.76ZM319.47,106.68h2.13v1.76h-2.13v-1.76ZM319.47,124.56h2.13v1.76h-2.13v-1.76ZM319.47,129.03h2.13v1.76h-2.13v-1.76ZM319.47,146.92h2.13v1.76h-2.13v-1.76ZM319.47,160.34h2.13v1.76h-2.13v-1.76ZM283.43,71.23h21.33v1.76h-21.33v-1.76ZM283.43,80.18h21.33v1.76h-21.33v-1.76ZM283.43,111.48h21.33v1.76h-21.33v-1.76ZM283.43,115.95h21.33v1.76h-21.33v-1.76ZM283.43,138.31h21.33v1.76h-21.33v-1.76ZM283.43,142.78h21.33v1.76h-21.33v-1.76ZM283.43,160.67h21.33v1.75h-21.33v-1.75ZM283.43,169.6h21.33v1.76h-21.33v-1.76ZM283.43,174.08h21.33v1.76h-21.33v-1.76ZM266.03,130.68h4.51v2.86h-4.51v-2.86ZM266.03,138.88h4.51v2.86h-4.51v-2.86ZM259.82,171.66h4.51v2.85h-4.51v-2.85ZM248.29,130.68h4.5v2.86h-4.5v-2.86ZM248.29,147.07h4.5v2.86h-4.5v-2.86ZM248.29,151.17h4.5v2.86h-4.5v-2.86ZM248.29,163.46h4.5v2.86h-4.5v-2.86ZM248.29,167.56h4.5v2.86h-4.5v-2.86ZM242.08,134.78h4.5v2.86h-4.5v-2.86ZM242.08,138.88h4.5v2.86h-4.5v-2.86ZM242.08,159.37h4.5v2.86h-4.5v-2.86ZM230.55,130.68h4.51v2.86h-4.51v-2.86ZM230.55,142.98h4.51v2.86h-4.51v-2.86ZM230.55,159.37h4.51v2.86h-4.51v-2.86ZM230.55,163.46h4.51v2.86h-4.51v-2.86ZM230.55,167.56h4.51v2.86h-4.51v-2.86ZM224.34,134.78h4.51v2.86h-4.51v-2.86ZM224.34,138.88h4.51v2.86h-4.51v-2.86ZM216.84,47.96h4.38v2.14h-4.38v-2.14ZM216.84,67.47h4.38v2.14h-4.38v-2.14ZM216.84,83.09h4.38v2.14h-4.38v-2.14ZM216.84,94.81h4.38v2.14h-4.38v-2.14ZM216.84,102.62h4.38v2.14h-4.38v-2.14ZM216.84,114.32h4.38v2.14h-4.38v-2.14ZM209.31,40.14h4.38v2.14h-4.38v-2.14ZM209.31,51.86h4.38v2.14h-4.38v-2.14ZM209.31,63.58h4.38v2.14h-4.38v-2.14ZM209.31,71.38h4.38v2.14h-4.38v-2.14ZM209.31,83.09h4.38v2.14h-4.38v-2.14ZM209.31,94.81h4.38v2.14h-4.38v-2.14ZM209.31,102.62h4.38v2.14h-4.38v-2.14ZM209.31,114.32h4.38v2.14h-4.38v-2.14ZM209.31,122.13h4.38v2.14h-4.38v-2.14ZM206.71,133.43h8.84v2.29h-8.84v-2.29ZM206.71,137.32h8.84v2.29h-8.84v-2.29ZM206.71,156.75h8.84v2.28h-8.84v-2.28ZM206.71,160.64h8.84v2.29h-8.84v-2.29ZM206.71,180.06h8.84v2.29h-8.84v-2.29ZM201.78,44.05h4.38v2.14h-4.38v-2.14ZM201.78,51.86h4.38v2.14h-4.38v-2.14ZM201.78,67.47h4.38v2.14h-4.38v-2.14ZM201.78,79.19h4.38v2.14h-4.38v-2.14ZM201.78,87h4.38v2.14h-4.38v-2.14ZM201.78,90.9h4.38v2.14h-4.38v-2.14ZM201.78,98.71h4.38v2.14h-4.38v-2.14ZM201.78,106.52h4.38v2.14h-4.38v-2.14ZM201.78,110.43h4.38v2.14h-4.38v-2.14ZM201.78,122.13h4.38v2.14h-4.38v-2.14ZM195.59,174.58v-2.29h8.84v2.29h-8.84ZM204.44,176.18v2.29h-8.84v-2.29h8.84ZM195.59,170.7v-2.29h8.84v2.29h-8.84ZM195.59,166.81v-2.29h8.84v2.29h-8.84ZM195.59,147.38v-2.28h8.84v2.28h-8.84ZM195.59,143.49v-2.29h8.84v2.29h-8.84ZM194.24,44.05h4.38v2.14h-4.38v-2.14ZM194.24,55.77h4.38v2.14h-4.38v-2.14ZM194.24,59.67h4.38v2.14h-4.38v-2.14ZM194.24,71.38h4.38v2.14h-4.38v-2.14ZM194.24,75.28h4.38v2.14h-4.38v-2.14ZM194.24,90.9h4.38v2.14h-4.38v-2.14ZM194.24,98.71h4.38v2.14h-4.38v-2.14ZM194.24,110.43h4.38v2.14h-4.38v-2.14ZM194.24,118.23h4.38v2.14h-4.38v-2.14ZM184.48,133.43h8.84v2.29h-8.84v-2.29ZM135.03,137.26h2.18v2.39h-2.18v-2.39ZM134.68,147.27h2.26v2.59h-2.26v-2.59ZM133.16,153.78h1.87v1.87h-1.87v-1.87ZM128.38,139.76h2.83v4.89h-2.83v-4.89ZM125.85,152.32h1.82v3h-1.82v-3ZM120.45,138.74h3.18v3.18h-3.18v-3.18ZM114.71,138.69h3.18v3.18h-3.18v-3.18ZM94.87,129.44h6.68v2.57h-6.68v-2.57ZM94.51,141.67h7.18v2.11h-7.18v-2.11ZM94.32,149.04h7.18v2.11h-7.18v-2.11ZM86.76,125.73h6.69v2.57h-6.69v-2.57ZM93.6,129.44v2.57h-6.69v-2.57h6.69ZM79.55,124.64h4.5v4.5h-4.5v-4.5ZM64.85,147.86h4.25v2.2h-4.25v-2.2ZM59.63,106.29h2.75v2.74h-2.75v-2.74ZM59.63,114.33h2.75v2.74h-2.75v-2.74ZM59.63,126.39h2.75v2.75h-2.75v-2.75ZM59.63,134.44h2.75v2.75h-2.75v-2.75ZM59.63,154.54h2.75v2.75h-2.75v-2.75ZM59.63,190.74h2.75v2.75h-2.75v-2.75ZM59.63,194.75h2.75v2.75h-2.75v-2.75ZM55.59,118.35h2.75v2.75h-2.75v-2.75ZM55.59,126.39h2.75v2.75h-2.75v-2.75ZM55.59,134.44h2.75v2.75h-2.75v-2.75ZM55.59,146.5h2.75v2.75h-2.75v-2.75ZM55.59,166.61h2.75v2.75h-2.75v-2.75ZM55.59,182.7h2.75v2.75h-2.75v-2.75ZM55.59,186.71h2.75v2.75h-2.75v-2.75ZM51.57,110.31h2.74v2.75h-2.74v-2.75ZM51.57,122.37h2.74v2.75h-2.74v-2.75ZM51.57,130.41h2.74v2.75h-2.74v-2.75ZM51.57,138.45h2.74v2.75h-2.74v-2.75ZM51.57,146.5h2.74v2.75h-2.74v-2.75ZM51.57,154.54h2.74v2.75h-2.74v-2.75ZM51.57,162.58h2.74v2.75h-2.74v-2.75ZM51.57,178.67h2.74v2.75h-2.74v-2.75ZM51.57,194.75h2.74v2.75h-2.74v-2.75ZM47.53,110.31h2.75v2.75h-2.75v-2.75ZM47.53,122.37h2.75v2.75h-2.75v-2.75ZM47.53,130.41h2.75v2.75h-2.75v-2.75ZM47.53,142.48h2.75v2.75h-2.75v-2.75ZM47.53,166.61h2.75v2.75h-2.75v-2.75ZM47.53,170.63h2.75v2.75h-2.75v-2.75ZM47.53,190.74h2.75v2.75h-2.75v-2.75ZM15.89,257.86h-1.15v-79.87h1.15v79.87ZM18.77,257.86h-1.15v-79.87h1.15v79.87ZM21.64,257.86h-1.15v-79.87h1.15v79.87ZM24.51,257.86h-1.15v-79.87h1.15v79.87ZM27.39,257.86h-1.15v-79.87h1.15v79.87ZM30.26,213.94h-1.15v-35.96h1.15v35.96ZM33.13,213.94h-1.15v-35.96h1.15v35.96ZM50.79,257.86h-14.61v-4.55h14.61v4.55ZM50.79,250.59h-14.61v-4.54h14.61v4.54ZM50.79,243.34h-14.61v-4.54h14.61v4.54ZM50.79,236.07h-14.61v-4.54h14.61v4.54ZM50.79,228.82h-14.61v-4.54h14.61v4.54ZM51.57,198.78h2.74v2.75h-2.74v-2.75ZM66.99,257.86h-14.61v-4.55h14.61v4.55ZM66.99,250.59h-14.61v-4.54h14.61v4.54ZM66.99,243.34h-14.61v-4.54h14.61v4.54ZM66.99,236.07h-14.61v-4.54h14.61v4.54ZM66.99,228.82h-14.61v-4.54h14.61v4.54ZM83.18,257.86h-14.61v-4.55h14.61v4.55ZM83.18,250.59h-14.61v-4.54h14.61v4.54ZM83.18,243.34h-14.61v-4.54h14.61v4.54ZM83.18,236.07h-14.61v-4.54h14.61v4.54ZM83.18,228.82h-14.61v-4.54h14.61v4.54ZM99.38,257.86h-14.61v-4.55h14.61v4.55ZM99.38,250.59h-14.61v-4.54h14.61v4.54ZM99.38,243.34h-14.61v-4.54h14.61v4.54ZM99.38,236.07h-14.61v-4.54h14.61v4.54ZM99.38,228.82h-14.61v-4.54h14.61v4.54ZM390.74,277.87h-9.19v-9.19h9.19v9.19ZM390.74,264.95h-9.19v-9.19h9.19v9.19ZM390.74,252.03h-9.19v-9.19h9.19v9.19ZM405.7,277.87h-9.18v-9.19h9.18v9.19ZM405.7,264.95h-9.18v-9.19h9.18v9.19ZM405.7,252.03h-9.18v-9.19h9.18v9.19ZM420.66,277.87h-9.19v-9.19h9.19v9.19ZM420.66,264.95h-9.19v-9.19h9.19v9.19ZM420.66,252.03h-9.19v-9.19h9.19v9.19ZM435.61,277.87h-9.19v-9.19h9.19v9.19ZM435.61,264.95h-9.19v-9.19h9.19v9.19ZM435.61,252.03h-9.19v-9.19h9.19v9.19ZM450.58,277.87h-9.19v-9.19h9.19v9.19ZM450.58,264.95h-9.19v-9.19h9.19v9.19ZM450.58,252.03h-9.19v-9.19h9.19v9.19ZM465.53,277.87h-9.19v-9.19h9.19v9.19ZM465.53,264.95h-9.19v-9.19h9.19v9.19ZM465.53,252.03h-9.19v-9.19h9.19v9.19ZM480.48,277.87h-9.18v-9.19h9.18v9.19ZM480.48,264.95h-9.18v-9.19h9.18v9.19ZM480.48,252.03h-9.18v-9.19h9.18v9.19ZM495.45,277.87h-9.19v-9.19h9.19v9.19ZM495.45,264.95h-9.19v-9.19h9.19v9.19ZM495.45,252.03h-9.19v-9.19h9.19v9.19ZM510.4,277.87h-9.19v-9.19h9.19v9.19ZM510.4,264.95h-9.19v-9.19h9.19v9.19ZM510.4,252.03h-9.19v-9.19h9.19v9.19ZM525.36,277.87h-9.19v-9.19h9.19v9.19ZM525.36,264.95h-9.19v-9.19h9.19v9.19ZM525.36,252.03h-9.19v-9.19h9.19v9.19ZM565.19,209.51h-43.98c-1.2,3.9-2.27,7.34-3.13,10.14h-4.7c.91-2.94,2-6.46,3.14-10.14h-18.49c-1.23,3.83-2.34,7.25-3.29,10.14h-4.86c.95-3.04,2.04-6.56,3.15-10.14h-28.44c-1.03,3.83-1.97,7.25-2.76,10.14h-4.58c.87-3.04,1.89-6.56,2.91-10.14h-30.63c-.76,3.79-1.45,7.22-2.04,10.14h-4.66c.61-2.92,1.33-6.35,2.13-10.14h-33.05c-.53,3.83-1.02,7.26-1.43,10.14h-4.86c.37-2.88.81-6.31,1.31-10.14h-34.09c-.19,3.79-.37,7.21-.53,10.14h-4.59c.19-2.93.41-6.36.66-10.14h-34.35c.25,3.78.47,7.21.66,10.14h-4.59c-.15-2.93-.33-6.36-.52-10.14h-34.1c.5,3.82.94,7.25,1.31,10.14h-4.86c-.41-2.88-.9-6.31-1.43-10.14h-34.38c.8,3.78,1.52,7.21,2.13,10.14h-4.66c-.59-2.92-1.29-6.35-2.04-10.14h-32.41c1.03,3.57,2.04,7.09,2.91,10.14h-4.58c-.79-2.89-1.72-6.31-2.75-10.14h-30.65c1.11,3.57,2.2,7.09,3.15,10.14h-4.86c-.94-2.89-2.06-6.31-3.29-10.14h-23.94c1.13,3.66,2.23,7.19,3.15,10.14h-4.69c-.87-2.8-1.94-6.24-3.14-10.14h-52.1v-3.41h23.56c-6.63-20.22-16.89-52.31-19.03-63.35-2.36-12.09,14.04,36.2,23.13,63.35h23.39c-7.08-23.01-17.63-58.1-20.02-70.36-3.66-18.85,17.52,46.04,18.85,51.03.6,2.25,3.19,10.71,5.85,19.33h23.91c-7.25-22.8-17.35-56.19-18.3-68.33-.75-9.48,3.62,2.65,8.25,17.43l3.28,10.74c3.21,10.76,5.96,20.57,6.44,22.4.56,2.11,2.87,9.7,5.36,17.76h30.79c-6.09-22.8-14.6-56.19-15.55-68.33-.72-9.15,2.57,1.81,6.25,15.86v-.76h8.84v2.28h-8.45c3.67,14.15,7.6,30.76,8.25,33.19.56,2.11,2.72,9.7,5.02,17.76h32.71c-4.53-22.77-10.76-55.47-11.71-67.45-.55-6.96,2.31,4.14,6.07,20.72h3.64v2.86h-2.99c3.1,13.71,6.69,30.47,9.52,43.87h34.63c-1.9-13.86-4.21-31.71-5.68-46.65v2.78h-4.51v-2.86h4.5c-1.05-10.73-1.68-19.96-1.41-25.12.68-12.71,7.92,39.97,12.1,71.85h34.38c-1.18-23.84-2.68-58.64-2.03-70.8.67-12.57,4.3,38.83,6.43,70.8h34.8c2.12-31.97,5.77-83.46,6.43-70.88.65,12.17-.85,47.04-2.03,70.88h34.37c4.18-31.88,11.43-84.65,12.1-71.93.66,12.35-3.82,48.08-7.09,71.93h33.31c6.58-31.1,17.26-80.46,16.25-67.53-.94,12-7.18,44.75-11.72,67.53h30.93c2.32-8.08,4.49-15.71,5.05-17.84,1.33-4.98,16.35-69.12,14.89-50.58-.95,12.15-9.47,45.6-15.57,68.41h28.58c2.5-8.08,4.83-15.71,5.39-17.84,1.32-4.98,19.42-69.12,17.97-50.58-.95,12.15-11.07,45.6-18.33,68.41h18.45c2.86-9.31,5.71-18.65,6.32-20.97,1.31-4.99,22.51-69.87,18.84-51.03-2.4,12.34-13.26,48.52-20.47,72h42.93v3.41ZM139.85,158.05v-2.24h1.78v2.24h-1.78ZM442.79,160.78v1.92h-2.53v-1.92h2.53ZM656.69,130.53h-6.39v3.24h6.39v1.28h-6.39v3.24h6.39v1.28h-6.39v3.24h6.39v1.27h-6.39v3.24h6.39v1.28h-6.39v3.24h6.39v1.28h-6.39v3.24h6.39v1.28h-6.39v3.24h6.39v1.27h-6.39v3.24h6.39v1.28h-6.39v3.24h6.39v1.28h-6.39v3.24h6.39v1.28h-6.39v3.24h6.39v1.27h-6.39v3.24h6.39v1.28h-6.39v3.24h6.39v1.28h-6.39v3.24h6.39v1.28h-6.39v3.24h6.39v1.27h-6.39v3.24h6.39v1.28h-6.39v3.24h6.39v1.28h-6.39v3.24h6.39v1.28h-6.39v3.24h6.39v1.27h-6.39v3.24h6.39v1.28h-6.39v3.24h6.39v1.28h-6.39v3.24h6.39v1.28h-6.39v3.24h6.39v1.28h-6.39v3.23h6.39v1.28h-6.39v3.92h-1.28v-3.92h-5.92v3.97h-1.28v-3.97h-19.91v4.01h-1.28v-4.01h-9.42v-1.28h9.42v-3.23h-9.42v-1.28h9.42v-3.24h-9.42v-1.28h9.42v-3.24h-9.42v-1.28h9.42v-3.24h-9.42v-1.28h9.42v-3.24h-9.42v-1.27h9.42v-3.24h-9.42v-1.28h9.42v-3.24h-9.42v-1.28h9.42v-3.24h-9.42v-1.28h9.42v-3.24h-9.42v-1.27h9.42v-3.24h-9.42v-1.28h9.42v-3.24h-9.42v-1.28h9.42v-3.24h-9.42v-1.28h9.42v-3.24h-9.42v-1.27h9.42v-3.24h-9.42v-1.28h9.42v-3.24h-9.42v-1.28h9.42v-3.24h-9.42v-1.28h9.42v-3.24h-9.42v-1.27h9.42v-3.24h-9.42v-1.28h9.42v-3.24h-9.42v-1.28h9.42v-3.24h-9.42v-1.28h9.42v-3.24h-9.42v-1.27h9.42v-3.24h-9.42v-1.28h9.42v-3.24h-9.42v-1.28h9.42v-3.24h-9.42v-1.28h9.42v-3.65h1.28v3.65h19.91v-3.7h1.28v3.7h5.92v-3.75h1.28v3.75h6.39v1.28ZM741.51,201.74h-51.09v-1.19h51.09v1.19ZM741.51,195.24h-51.09v-1.19h51.09v1.19ZM741.51,188.73h-51.09v-1.19h51.09v1.19ZM741.51,182.22h-51.09v-1.19h51.09v1.19ZM741.51,175.71h-51.09v-1.19h51.09v1.19ZM741.51,169.2h-51.09v-1.19h51.09v1.19ZM741.51,162.69h-51.09v-1.19h51.09v1.19ZM741.51,156.18h-51.09v-1.19h51.09v1.19ZM741.51,149.67h-51.09v-1.19h51.09v1.19ZM741.51,143.16h-51.09v-1.19h51.09v1.19ZM741.51,136.65h-51.09v-1.19h51.09v1.19ZM741.51,130.14h-51.09v-1.19h51.09v1.19ZM741.51,123.63h-51.09v-1.19h51.09v1.19ZM741.51,117.12h-51.09v-1.19h51.09v1.19ZM741.51,110.61h-51.09v-1.19h51.09v1.19ZM741.51,104.1h-51.09v-1.19h51.09v1.19ZM808.59,261.11h-13.54v-8.9h13.54v8.9ZM809.81,242.94h-15.54l-.82-2.63h17.08l-.72,2.63ZM814.84,260.89l-.02-8.9,11.57-.03.03,8.89-11.58.04ZM827.41,242.68l-13.28.04-.71-2.63,14.6-.04-.61,2.63ZM839,211.01h-4.02v-4.02h4.02v4.02ZM839,202.6h-4.02v-4.02h4.02v4.02ZM839,194.18h-4.02v-4.02h4.02v4.02ZM839,185.76h-4.02v-4.02h4.02v4.02ZM839,177.35h-4.02v-4.03h4.02v4.03ZM839,168.94h-4.02v-4.03h4.02v4.03ZM839,160.52h-4.02v-4.03h4.02v4.03ZM839,152.1h-4.02v-4.03h4.02v4.03ZM839,143.68h-4.02v-4.03h4.02v4.03ZM839,135.27h-4.02v-4.03h4.02v4.03ZM839,126.85h-4.02v-4.02h4.02v4.02ZM839,118.43h-4.02v-4.02h4.02v4.02ZM839,110.01h-4.02v-4.02h4.02v4.02ZM839,101.6h-4.02v-4.02h4.02v4.02ZM845.78,211.01h-4.02v-4.02h4.02v4.02ZM845.78,202.6h-4.02v-4.02h4.02v4.02ZM845.78,194.18h-4.02v-4.02h4.02v4.02ZM845.78,185.76h-4.02v-4.02h4.02v4.02ZM845.78,177.35h-4.02v-4.03h4.02v4.03ZM845.78,168.94h-4.02v-4.03h4.02v4.03ZM845.78,160.52h-4.02v-4.03h4.02v4.03ZM845.78,152.1h-4.02v-4.03h4.02v4.03ZM845.78,143.68h-4.02v-4.03h4.02v4.03ZM845.78,135.27h-4.02v-4.03h4.02v4.03ZM845.78,126.85h-4.02v-4.02h4.02v4.02ZM845.78,118.43h-4.02v-4.02h4.02v4.02ZM845.78,110.01h-4.02v-4.02h4.02v4.02ZM845.78,101.6h-4.02v-4.02h4.02v4.02ZM852.56,211.01h-4.02v-4.02h4.02v4.02ZM852.56,202.6h-4.02v-4.02h4.02v4.02ZM852.56,194.18h-4.02v-4.02h4.02v4.02ZM852.56,185.76h-4.02v-4.02h4.02v4.02ZM852.56,177.35h-4.02v-4.03h4.02v4.03ZM852.56,168.94h-4.02v-4.03h4.02v4.03ZM852.56,160.52h-4.02v-4.03h4.02v4.03ZM852.56,152.1h-4.02v-4.03h4.02v4.03ZM852.56,143.68h-4.02v-4.03h4.02v4.03ZM852.56,135.27h-4.02v-4.03h4.02v4.03ZM852.56,126.85h-4.02v-4.02h4.02v4.02ZM852.56,118.43h-4.02v-4.02h4.02v4.02ZM852.56,110.01h-4.02v-4.02h4.02v4.02ZM852.56,101.6h-4.02v-4.02h4.02v4.02ZM859.34,211.01h-4.02v-4.02h4.02v4.02ZM859.34,202.6h-4.02v-4.02h4.02v4.02ZM859.34,194.18h-4.02v-4.02h4.02v4.02ZM859.34,185.76h-4.02v-4.02h4.02v4.02ZM859.34,177.35h-4.02v-4.03h4.02v4.03ZM859.34,168.94h-4.02v-4.03h4.02v4.03ZM859.34,160.52h-4.02v-4.03h4.02v4.03ZM859.34,152.1h-4.02v-4.03h4.02v4.03ZM859.34,143.68h-4.02v-4.03h4.02v4.03ZM859.34,135.27h-4.02v-4.03h4.02v4.03ZM859.34,126.85h-4.02v-4.02h4.02v4.02ZM859.34,118.43h-4.02v-4.02h4.02v4.02ZM859.34,110.01h-4.02v-4.02h4.02v4.02ZM859.34,101.6h-4.02v-4.02h4.02v4.02ZM866.12,211.01h-4.02v-4.02h4.02v4.02ZM866.12,202.6h-4.02v-4.02h4.02v4.02ZM866.12,194.18h-4.02v-4.02h4.02v4.02ZM866.12,185.76h-4.02v-4.02h4.02v4.02ZM866.12,177.35h-4.02v-4.03h4.02v4.03ZM866.12,168.94h-4.02v-4.03h4.02v4.03ZM866.12,160.52h-4.02v-4.03h4.02v4.03ZM866.12,152.1h-4.02v-4.03h4.02v4.03ZM866.12,143.68h-4.02v-4.03h4.02v4.03ZM866.12,135.27h-4.02v-4.03h4.02v4.03ZM866.12,126.85h-4.02v-4.02h4.02v4.02ZM866.12,118.43h-4.02v-4.02h4.02v4.02ZM866.12,110.01h-4.02v-4.02h4.02v4.02ZM866.12,101.6h-4.02v-4.02h4.02v4.02ZM872.9,211.01h-4.03v-4.02h4.03v4.02ZM872.9,202.6h-4.03v-4.02h4.03v4.02ZM872.9,194.18h-4.03v-4.02h4.03v4.02ZM872.9,185.76h-4.03v-4.02h4.03v4.02ZM872.9,177.35h-4.03v-4.03h4.03v4.03ZM872.9,168.94h-4.03v-4.03h4.03v4.03ZM872.9,160.52h-4.03v-4.03h4.03v4.03ZM872.9,152.1h-4.03v-4.03h4.03v4.03ZM872.9,143.68h-4.03v-4.03h4.03v4.03ZM872.9,135.27h-4.03v-4.03h4.03v4.03ZM872.9,126.85h-4.03v-4.02h4.03v4.02ZM872.9,118.43h-4.03v-4.02h4.03v4.02ZM872.9,110.01h-4.03v-4.02h4.03v4.02ZM872.9,101.6h-4.03v-4.02h4.03v4.02ZM879.67,211.01h-4.03v-4.02h4.03v4.02ZM879.67,202.6h-4.03v-4.02h4.03v4.02ZM879.67,194.18h-4.03v-4.02h4.03v4.02ZM879.67,185.76h-4.03v-4.02h4.03v4.02ZM879.67,177.35h-4.03v-4.03h4.03v4.03ZM879.67,168.94h-4.03v-4.03h4.03v4.03ZM879.67,160.52h-4.03v-4.03h4.03v4.03ZM879.67,152.1h-4.03v-4.03h4.03v4.03ZM879.67,143.68h-4.03v-4.03h4.03v4.03ZM879.67,135.27h-4.03v-4.03h4.03v4.03ZM879.67,126.85h-4.03v-4.02h4.03v4.02ZM879.67,118.43h-4.03v-4.02h4.03v4.02ZM879.67,110.01h-4.03v-4.02h4.03v4.02ZM879.67,101.6h-4.03v-4.02h4.03v4.02ZM886.45,211.01h-4.03v-4.02h4.03v4.02ZM886.45,202.6h-4.03v-4.02h4.03v4.02ZM886.45,194.18h-4.03v-4.02h4.03v4.02ZM886.45,185.76h-4.03v-4.02h4.03v4.02ZM886.45,177.35h-4.03v-4.03h4.03v4.03ZM886.45,168.94h-4.03v-4.03h4.03v4.03ZM886.45,160.52h-4.03v-4.03h4.03v4.03ZM886.45,152.1h-4.03v-4.03h4.03v4.03ZM886.45,143.68h-4.03v-4.03h4.03v4.03ZM886.45,135.27h-4.03v-4.03h4.03v4.03ZM886.45,126.85h-4.03v-4.02h4.03v4.02ZM886.45,118.43h-4.03v-4.02h4.03v4.02ZM886.45,110.01h-4.03v-4.02h4.03v4.02ZM886.45,101.6h-4.03v-4.02h4.03v4.02ZM906.75,129.32c-.07-.1-.15-.26-.14-.45.01-.14.07-.3.22-.47v1s-.04-.05-.08-.09ZM914.88,255.75h-13.54v-8.89h13.54v8.89ZM1152.31,212.7l-2.48,2.32-31.78,7.87-.94-.99,35.2-9.2ZM1148.38,216.39l-19.05,17.81h-.53l-9.98-10.49,29.55-7.31ZM966.3,90.69h4.02v4.03h-4.02v-4.03ZM966.3,99.11h4.02v4.03h-4.02v-4.03ZM966.3,107.52h4.02v4.03h-4.02v-4.03ZM966.3,115.94h4.02v4.03h-4.02v-4.03ZM966.3,124.36h4.02v4.02h-4.02v-4.02ZM966.3,132.78h4.02v4.02h-4.02v-4.02ZM966.3,141.19h4.02v4.02h-4.02v-4.02ZM966.3,149.61h4.02v4.02h-4.02v-4.02ZM966.3,158.03h4.02v4.02h-4.02v-4.02ZM966.3,166.44h4.02v4.03h-4.02v-4.03ZM966.3,174.85h4.02v4.03h-4.02v-4.03ZM966.3,183.27h4.02v4.03h-4.02v-4.03ZM966.3,191.69h4.02v4.03h-4.02v-4.03ZM966.3,200.11h4.02v4.03h-4.02v-4.03ZM959.52,90.69h4.02v4.03h-4.02v-4.03ZM959.52,99.11h4.02v4.03h-4.02v-4.03ZM959.52,107.52h4.02v4.03h-4.02v-4.03ZM959.52,115.94h4.02v4.03h-4.02v-4.03ZM959.52,124.36h4.02v4.02h-4.02v-4.02ZM959.52,132.78h4.02v4.02h-4.02v-4.02ZM959.52,141.19h4.02v4.02h-4.02v-4.02ZM959.52,149.61h4.02v4.02h-4.02v-4.02ZM959.52,158.03h4.02v4.02h-4.02v-4.02ZM959.52,166.44h4.02v4.03h-4.02v-4.03ZM959.52,174.85h4.02v4.03h-4.02v-4.03ZM959.52,183.27h4.02v4.03h-4.02v-4.03ZM959.52,191.69h4.02v4.03h-4.02v-4.03ZM959.52,200.11h4.02v4.03h-4.02v-4.03ZM952.74,90.69h4.03v4.03h-4.03v-4.03ZM952.74,99.11h4.03v4.03h-4.03v-4.03ZM952.74,107.52h4.03v4.03h-4.03v-4.03ZM952.74,115.94h4.03v4.03h-4.03v-4.03ZM952.74,124.36h4.03v4.02h-4.03v-4.02ZM952.74,132.78h4.03v4.02h-4.03v-4.02ZM952.74,141.19h4.03v4.02h-4.03v-4.02ZM952.74,149.61h4.03v4.02h-4.03v-4.02ZM952.74,158.03h4.03v4.02h-4.03v-4.02ZM952.74,166.44h4.03v4.03h-4.03v-4.03ZM952.74,174.85h4.03v4.03h-4.03v-4.03ZM952.74,183.27h4.03v4.03h-4.03v-4.03ZM952.74,191.69h4.03v4.03h-4.03v-4.03ZM952.74,200.11h4.03v4.03h-4.03v-4.03ZM945.96,90.69h4.03v4.03h-4.03v-4.03ZM945.96,99.11h4.03v4.03h-4.03v-4.03ZM945.96,107.52h4.03v4.03h-4.03v-4.03ZM945.96,115.94h4.03v4.03h-4.03v-4.03ZM945.96,124.36h4.03v4.02h-4.03v-4.02ZM945.96,132.78h4.03v4.02h-4.03v-4.02ZM945.96,141.19h4.03v4.02h-4.03v-4.02ZM945.96,149.61h4.03v4.02h-4.03v-4.02ZM945.96,158.03h4.03v4.02h-4.03v-4.02ZM945.96,166.44h4.03v4.03h-4.03v-4.03ZM945.96,174.85h4.03v4.03h-4.03v-4.03ZM945.96,183.27h4.03v4.03h-4.03v-4.03ZM945.96,191.69h4.03v4.03h-4.03v-4.03ZM945.96,200.11h4.03v4.03h-4.03v-4.03ZM939.18,90.69h4.03v4.03h-4.03v-4.03ZM939.18,99.11h4.03v4.03h-4.03v-4.03ZM939.18,107.52h4.03v4.03h-4.03v-4.03ZM939.18,115.94h4.03v4.03h-4.03v-4.03ZM939.18,124.36h4.03v4.02h-4.03v-4.02ZM939.18,132.78h4.03v4.02h-4.03v-4.02ZM939.18,141.19h4.03v4.02h-4.03v-4.02ZM939.18,149.61h4.03v4.02h-4.03v-4.02ZM939.18,158.03h4.03v4.02h-4.03v-4.02ZM939.18,166.44h4.03v4.03h-4.03v-4.03ZM939.18,174.85h4.03v4.03h-4.03v-4.03ZM939.18,183.27h4.03v4.03h-4.03v-4.03ZM939.18,191.69h4.03v4.03h-4.03v-4.03ZM925.63,90.69h4.03v4.03h-4.03v-4.03ZM925.63,99.11h4.03v4.03h-4.03v-4.03ZM925.63,107.52h4.03v4.03h-4.03v-4.03ZM925.63,115.94h4.03v4.03h-4.03v-4.03ZM925.63,124.36h4.03v4.02h-4.03v-4.02ZM925.63,132.78h4.03v4.02h-4.03v-4.02ZM925.63,141.19h4.03v4.02h-4.03v-4.02ZM925.63,149.61h4.03v4.02h-4.03v-4.02ZM925.63,158.03h4.03v4.02h-4.03v-4.02ZM925.63,166.44h4.03v4.03h-4.03v-4.03ZM925.63,174.85h4.03v4.03h-4.03v-4.03ZM925.63,183.27h4.03v4.03h-4.03v-4.03ZM925.63,191.69h4.03v4.03h-4.03v-4.03ZM925.63,200.11h4.03v4.03h-4.03v-4.03ZM926.28,242.61h-4.37s-.01-5.25-.01-5.25h4.36s.02,5.25.02,5.25ZM918.85,90.69h4.03v4.03h-4.03v-4.03ZM918.85,99.11h4.03v4.03h-4.03v-4.03ZM918.85,107.52h4.03v4.03h-4.03v-4.03ZM918.85,115.94h4.03v4.03h-4.03v-4.03ZM918.85,124.36h4.03v4.02h-4.03v-4.02ZM918.85,132.78h4.03v4.02h-4.03v-4.02ZM918.85,141.19h4.03v4.02h-4.03v-4.02ZM918.85,149.61h4.03v4.02h-4.03v-4.02ZM918.85,158.03h4.03v4.02h-4.03v-4.02ZM918.85,166.44h4.03v4.03h-4.03v-4.03ZM918.85,174.85h4.03v4.03h-4.03v-4.03ZM918.85,183.27h4.03v4.03h-4.03v-4.03ZM918.85,191.69h4.03v4.03h-4.03v-4.03ZM918.85,200.11h4.03v4.03h-4.03v-4.03ZM921.13,255.53l-.02-8.9,11.57-.03.03,8.9-11.58.03ZM936.43,204.13h-4.03v-4.03h4.03v4.03ZM936.43,195.72h-4.03v-4.03h4.03v4.03ZM936.43,187.3h-4.03v-4.03h4.03v4.03ZM936.43,178.88h-4.03v-4.03h4.03v4.03ZM936.43,170.46h-4.03v-4.03h4.03v4.03ZM936.43,162.05h-4.03v-4.02h4.03v4.02ZM936.43,153.63h-4.03v-4.02h4.03v4.02ZM936.43,145.21h-4.03v-4.02h4.03v4.02ZM936.43,136.79h-4.03v-4.02h4.03v4.02ZM936.43,128.38h-4.03v-4.02h4.03v4.02ZM936.43,119.97h-4.03v-4.03h4.03v4.03ZM936.43,111.55h-4.03v-4.03h4.03v4.03ZM936.43,103.13h-4.03v-4.03h4.03v4.03ZM936.43,94.72h-4.03v-4.03h4.03v4.03ZM939.18,200.11h4.03v4.03h-4.03v-4.03ZM948.79,266.28h-.83v-2.06h-.85v2.06h-.16v-2.06h-2.13v2.06h-.17v-2.06h-2.13v2.06h-.17v-2.06h-.77v2.06h-.83v-26.02h.83v6.83h.77v-5.37h.17v5.37h2.13v-5.37h.17v5.37h2.13v-5.37h.16v5.37h.85v-6.83h.83v26.02ZM973.92,266.28h-1.43v-3.18h-1.46v3.18h-.29v-3.18h-3.66v3.18h-.29v-3.18h-3.66v3.18h-.29v-3.18h-1.34v3.18h-1.42v-27.13h1.42v6.82h1.34v-5.36h.29v5.36h3.66v-5.36h.29v5.36h3.66v-5.36h.29v5.36h1.46v-6.82h1.43v27.13ZM1008.78,266.28h-1.79v-4.21h-1.84v4.21h-.36v-4.21h-4.63v4.21h-.36v-4.21h-4.63v4.21h-.36v-4.21h-1.68v4.21h-1.79v-28.17h1.79v6.82h1.68v-5.36h.36v5.36h4.63v-5.36h.36v5.36h4.63v-5.36h.36v5.36h1.84v-6.82h1.79v28.17ZM1047.31,266.28h-1.8v-.86h-1.83v.86h-.37v-.86h-4.62v.86h-.36v-.86h-4.63v.86h-.36v-.86h-1.69v.86h-1.79v-30.39h1.79v6.83h1.69v-5.36h.36v5.36h4.63v-5.36h.36v5.36h4.62v-5.36h.37v5.36h1.83v-6.83h1.8v30.39ZM1054.54,228.78c-21.6-.42-55.53,1.25-55.87,1.27l-.12-2.43c.34-.02,34.35-1.7,56.04-1.28l-.05,2.44ZM1084.37,266.28h-1.79v-3.59h-1.84v3.59h-.36v-3.59h-4.63v3.59h-.36v-3.59h-4.63v3.59h-.36v-3.59h-1.69v3.59h-1.79v-33.11h1.79v6.82h1.69v-5.36h.36v5.36h4.63v-5.36h.36v5.36h4.63v-5.36h.36v5.36h1.84v-6.82h1.79v33.11ZM1122.72,266.28h-1.79v-1.59h-1.84v1.59h-.36v-1.59h-4.63v1.59h-.36v-1.59h-4.63v1.59h-.36v-1.59h-1.68v1.59h-1.79v-31.12h1.79v6.83h1.68v-5.37h.36v5.37h4.63v-5.37h.36v5.37h4.63v-5.37h.36v5.37h1.84v-6.83h1.79v31.12ZM1111.33,234.19l-2.6-1.02v-6.97l6.37-1.58c2.93,3.28,6.17,6.88,8.69,9.57h-12.46ZM1108.73,225.2v-1.1l4.79-1.25c.28.31.57.64.86.96l-5.65,1.4ZM1130.41,266.28h-.65v-.53h-.66v.53h-.13v-.53h-1.67v.53h-.13v-.53h-1.67v.53h-.13v-.53h-.61v.53h-.65v-30.06h.65v6.83h.61v-5.37h.13v5.37h1.67v-5.37h.13v5.37h1.67v-5.37h.13v5.37h.66v-4.91l-17.7-18.73-.4-.42-4.62-4.89-1.99,4.97s-.02.04-.03.06l-.23.37,4.03,3.86c.14.14.15.36.01.52-.14.14-.37.15-.52.01l-3.92-3.76-6,9.54c-.1.17-.32.22-.5.11s-.22-.33-.12-.51l6.07-9.65-4.17-4.01-3.76,10.5c-.04.11-.13.2-.24.23-.04.01-.07.01-.1.01-.08,0-.16-.02-.23-.08l-7.21-5.81-4.12,4.23c-.07.07-.16.11-.25.11-.07,0-.14-.02-.2-.06l-6.71-4.46c-5.31,3.1-7.07,4.12-7.73,4.4-.06.07-.15.12-.24.12-.04,0-.08-.01-.12-.02-.02-.01-.03-.02-.05-.03-.01,0-.02,0-.03-.01-.16-.1-5.63-3.28-8.65-5.04l-8.26,4.25c-.05.02-.1.04-.15.04h-.02c-.05,0-.1-.02-.15-.04h-.01l-8.53-4.41-9.17,5.21c-.05.04-.12.05-.18.05-.07,0-.13-.02-.18-.05h-.01s-7.28-4.7-7.28-4.7l-8.18,5.03c-.06.03-.12.05-.19.05s-.13-.03-.19-.06c-.01-.01-.02-.01-.02-.01l-5.9-4.46-6.49,4.47c-.07.04-.14.06-.21.06-.03,0-.06-.01-.09-.02-.11.02-.22,0-.31-.08l-3.89-3.66-8.23,5.87,1.86.47c.21.05.36.25.36.48v8.95c0,.27-.21.49-.49.49s-.49-.21-.49-.49v-8.58l-6.73-1.67-4.71,4.35h4.31v7.63h-25.71v-3.33l-10.3-16.34v12.04h1.11l2.09,2.78h5.23v4.85h-13.45v-7.63h4.04v-11.97l-8.68,20.09c-.08.18-.25.29-.45.29-.06,0-.13-.01-.19-.04-.24-.11-.35-.39-.25-.64l9.49-21.97c.09-.22.33-.33.57-.28l36.62,9.1,2.97-2.74-2.66-5.06s-.02-.04-.03-.07l-5.03-16.22s-.01-.06-.01-.09l-.49-15.98s0-.07.01-.1l4.05-16.62s.02-.05.03-.07l8.15-16.22s.04-.07.07-.1l12.48-12.32s.04-.04.06-.05l14.76-9.37s.07-.03.11-.04l17.19-4.06s.04-.01.06-.01l15.04-.89s.07,0,.11.01l18.33,4.79s.05.02.08.03l16.74,9.37s.07.05.09.08l12.68,14.24c.1-.04.22-.03.32.03.16.11.21.33.1.51h0s7.68,14.88,7.68,14.88c.02.04.04.08.04.12l1.9,15.21v17.89c.01.05,0,.09-.02.13l-4.11,10.26,4.33,4.58.38.4,17.72,18.74v-.86h.65v30.06ZM1112.78,222.03l-4.06,1.05v-5.55c.96,1.03,2.39,2.63,4.06,4.5ZM1151.08,234.89h-2.12v-3.17h.94v-1.06h-5.37l6.56-12.19v16.42ZM1151.08,216.42l-7.66,14.24h-5.69v1.06h1.21v3.17h-7.58v-.7h-.62l19.56-18.29.77-.18v.7ZM1151.87,214.71c-.06-.04-.12-.06-.18-.08l.73-.68-.47.86s-.05-.07-.08-.1ZM1154.24,234.89h-2.2v-18.23l2.2-4.07v22.3Z"/>
      <rect class="cls-1" x="1129.1" y="249.03" width=".66" height="5.16"/>
      <rect class="cls-1" x="1129.1" y="243.47" width=".66" height="5.16"/>
      <rect class="cls-1" x="1127.3" y="243.47" width="1.67" height="5.16"/>
      <rect class="cls-1" x="1125.5" y="249.03" width="1.67" height="5.16"/>
      <rect class="cls-1" x="1125.5" y="254.61" width="1.67" height="5.16"/>
      <rect class="cls-1" x="1125.5" y="260.18" width="1.67" height="5.16"/>
      <rect class="cls-1" x="1127.3" y="260.18" width="1.67" height="5.16"/>
      <rect class="cls-1" x="1125.5" y="243.47" width="1.67" height="5.16"/>
      <rect class="cls-1" x="1127.3" y="254.61" width="1.67" height="5.16"/>
      <polygon class="cls-1" points="1049.67 204.86 1042.68 208.69 1042.72 209.77 1045.96 212.24 1049.67 204.86"/>
      <polygon class="cls-1" points="988.21 217.98 991.75 218.74 991.75 212.48 990.29 212.22 988.21 217.98"/>
      <polygon class="cls-1" points="991.38 201.83 992.16 205.92 995.15 203.37 991.38 201.83"/>
      <path class="cls-1" d="M1050.92,216.92l-.43-.33c-4.31,1.56-6.15,2.22-6.96,2.49l7.67,3.96-.23-6.09s-.03-.01-.04-.02Z"/>
      <polygon class="cls-1" points="993.23 213.49 1000.3 220.13 1005.02 211.14 993.23 213.49"/>
      <polygon class="cls-1" points="992.48 213.79 992.48 218.9 999.54 220.41 992.48 213.79"/>
      <path class="cls-1" d="M994.02,220.32l-1.54,1.41v4.53l7.13-5.09-5.45-1.16c-.01.11-.05.22-.14.31Z"/>
      <polygon class="cls-1" points="992.48 220.4 993.15 219.79 992.48 219.64 992.48 220.4"/>
      <polygon class="cls-1" points="999.58 205.64 992.31 206.92 992.76 212.45 999.58 205.64"/>
      <polygon class="cls-1" points="987.74 226.11 991.69 227.09 990.05 223.97 987.74 226.11"/>
      <polygon class="cls-1" points="1013.57 167.18 1013.57 157.93 1011.16 159.83 1013.57 167.18"/>
      <polygon class="cls-1" points="982.94 202.75 985.17 209.93 986.95 204.65 982.94 202.75"/>
      <polygon class="cls-1" points="985.62 211.4 987.55 217.65 989.56 212.1 985.62 211.4"/>
      <polygon class="cls-1" points="991.75 225.64 991.75 222.4 990.61 223.46 991.75 225.64"/>
      <polygon class="cls-1" points="990.13 222.57 991.75 221.08 991.75 219.49 988.1 218.71 990.13 222.57"/>
      <polygon class="cls-1" points="990.54 211.53 991.97 211.78 991.69 208.31 990.54 211.53"/>
      <polygon class="cls-1" points="1031.71 214.54 1026.61 219.55 1033.06 223.71 1031.71 214.87 1031.71 214.54"/>
      <polygon class="cls-1" points="1032.44 214.79 1033.82 223.88 1042.09 219.18 1032.44 214.66 1032.44 214.79"/>
      <polygon class="cls-1" points="1050.38 203.47 1042.31 198.58 1042.65 207.88 1050.25 203.72 1050.38 203.47"/>
      <polygon class="cls-1" points="1041.18 209.52 1038.17 211.16 1042.29 217.54 1042 210.14 1041.18 209.52"/>
      <polygon class="cls-1" points="982.14 187.5 982.58 201.57 982.6 201.63 985.35 195.92 982.14 187.5"/>
      <polygon class="cls-1" points="1042.76 210.71 1043.04 218.04 1045.63 212.89 1042.76 210.71"/>
      <polygon class="cls-1" points="1000.91 220.54 1010.99 219.96 1005.72 211.37 1000.91 220.54"/>
      <polygon class="cls-1" points="1006.49 211.24 1011.48 219.35 1013.69 214.53 1006.49 211.24"/>
      <polygon class="cls-1" points="1004.82 224.38 1010.09 220.75 1001.48 221.24 1004.82 224.38"/>
      <polygon class="cls-1" points="1022.58 208.23 1026.1 219.03 1031.22 214.01 1022.58 208.23"/>
      <polygon class="cls-1" points="1011.98 220.01 1016.97 223.79 1014.17 215.21 1011.98 220.01"/>
      <polygon class="cls-1" points="1017.88 224.23 1025.12 219.78 1014.9 215.09 1017.88 224.23"/>
      <polygon class="cls-1" points="1014.82 214.25 1025.35 219.09 1021.73 207.99 1014.82 214.25"/>
      <rect class="cls-1" x="1124.76" y="249.03" width=".61" height="5.16"/>
      <polygon class="cls-1" points="1014.3 168.14 1019.77 161.15 1014.3 157.9 1014.3 168.14"/>
      <polygon class="cls-1" points="1029.74 178.91 1020.95 174.09 1022.63 185.45 1029.74 178.91"/>
      <polygon class="cls-1" points="1020.22 160.56 1024.32 155.33 1014.83 157.36 1020.22 160.56"/>
      <polygon class="cls-1" points="1020.14 173.65 1020.09 173.62 1016.28 182.47 1021.91 185.52 1020.14 173.65"/>
      <polygon class="cls-1" points="1026.18 154.9 1028.2 158.66 1031.49 156.59 1026.19 154.87 1026.18 154.9"/>
      <polygon class="cls-1" points="993.09 186.74 994.83 183.27 991.98 183.66 993.09 186.74"/>
      <path class="cls-1" d="M1036.5,145.88l3.38-1.12-.62-1.47c-.71.64-1.77,1.64-2.76,2.59Z"/>
      <polygon class="cls-1" points="1033.98 168.06 1041.13 162.98 1039.06 161.53 1033.98 168.06"/>
      <polygon class="cls-1" points="1033.41 156.68 1038.92 160.54 1042.78 155.57 1033.41 156.68"/>
      <polygon class="cls-1" points="1035.36 147.13 1033.05 156 1043.15 154.79 1035.36 147.13"/>
      <polygon class="cls-1" points="1026.68 154.27 1032.28 156.08 1034.44 147.75 1026.68 154.27"/>
      <polygon class="cls-1" points="1033.04 157.31 1033.71 167.22 1038.46 161.12 1033.04 157.31"/>
      <polygon class="cls-1" points="1041.39 163.7 1034.27 168.74 1041.28 173.07 1041.39 163.7"/>
      <polygon class="cls-1" points="1020.42 197.99 1015.37 202.53 1021.4 206.57 1020.42 197.99"/>
      <polygon class="cls-1" points="1021.15 173.37 1030.38 178.43 1032.99 169.2 1021.15 173.37"/>
      <polygon class="cls-1" points="1022.18 161.72 1025.08 155.53 1020.86 160.93 1022.18 161.72"/>
      <polygon class="cls-1" points="1040.47 197.47 1036.74 195.21 1033.09 201.49 1040.47 197.47"/>
      <polygon class="cls-1" points="1041.52 196.89 1041.16 187.58 1037.11 194.58 1041.2 197.06 1041.52 196.89"/>
      <polygon class="cls-1" points="1042.13 174.46 1041.98 174.51 1041.85 185.31 1051.42 180.22 1042.13 174.46"/>
      <polygon class="cls-1" points="1043.31 156.08 1039.51 160.95 1041.66 162.46 1043.31 156.08"/>
      <polygon class="cls-1" points="1060.95 186.12 1052.49 180.87 1051.89 191.21 1060.84 186.32 1060.95 186.12"/>
      <polygon class="cls-1" points="1045.04 154.85 1051.49 158.14 1051.55 158.11 1053.61 149.83 1045.04 154.85"/>
      <polygon class="cls-1" points="1051.66 170.39 1042.94 174.11 1051.79 179.59 1051.66 170.39"/>
      <polygon class="cls-1" points="1032.34 168.65 1022.52 163.09 1020.73 172.65 1020.75 172.74 1032.34 168.65"/>
      <polygon class="cls-1" points="1040.92 186.54 1031.97 191.47 1036.48 194.2 1040.92 186.54"/>
      <polygon class="cls-1" points="1020.4 161.52 1015.13 168.27 1021.77 162.33 1020.4 161.52"/>
      <polygon class="cls-1" points="1023.23 162.65 1032.32 167.8 1027.93 159.69 1023.23 162.65"/>
      <polygon class="cls-1" points="1032.29 156.96 1028.56 159.3 1033 167.54 1032.29 156.96"/>
      <polygon class="cls-1" points="1021.73 163.35 1014.56 169.76 1020.01 172.74 1020 172.7 1020 172.58 1021.73 163.35"/>
      <path class="cls-1" d="M1030.69,192.17l-3.16,1.74,4.02,6.84c-.65-5.34-.84-7.6-.86-8.58Z"/>
      <path class="cls-1" d="M1020.86,144.08c-.02.11-.09.2-.19.25-.1.04-.21.04-.31,0l-.28-.13-8.71,1.97,5.02,1.82,8.91-4.97-4.42.99v.06Z"/>
      <polygon class="cls-1" points="994.72 182.55 990.42 179.25 990.42 179.26 991.74 182.96 994.72 182.55"/>
      <polygon class="cls-1" points="1005.41 188.58 1003.49 198.63 1011.36 191.85 1005.41 188.58"/>
      <path class="cls-1" d="M1035.25,146.06c1.51-1.45,2.52-2.39,3.18-2.99l-9.36-.2,6.18,3.2Z"/>
      <polygon class="cls-1" points="1002.73 175.56 1000.47 173.76 1000.4 173.8 996.59 181.38 1002.73 175.56"/>
      <polygon class="cls-1" points="1002.81 199.51 1002.77 199.33 996.46 195.62 1000.65 204.22 1002.81 199.51"/>
      <polygon class="cls-1" points="995.39 182.15 999.35 174.27 990.39 178.29 995.39 182.15"/>
      <polygon class="cls-1" points="1011.58 192.63 1004.07 199.08 1014.2 202.09 1011.58 192.63"/>
      <polygon class="cls-1" points="999.91 172.59 998.67 162.79 992.31 168.41 999.91 172.59"/>
      <polygon class="cls-1" points="991.33 191.66 987.11 195.3 990.18 195.05 991.33 191.66"/>
      <polygon class="cls-1" points="987.96 199.63 988.55 199.87 989.92 195.81 986.24 196.1 987.96 199.63"/>
      <polygon class="cls-1" points="992.46 188.3 992.65 187.7 991.25 183.76 986.25 184.43 992.46 188.3"/>
      <polygon class="cls-1" points="995.02 194.33 993.42 189.85 992.41 190.72 990.97 194.99 995.17 194.64 995.02 194.33"/>
      <path class="cls-1" d="M990.49,200.34l4.21-4.92-3.98.31-1.49,4.42,1.17.49c-.02-.11.01-.22.08-.3Z"/>
      <polygon class="cls-1" points="996 194.68 1004.41 188.04 995.67 183.23 993.44 187.65 993.43 187.7 995.69 194.05 996 194.68"/>
      <polygon class="cls-1" points="1002.77 198.49 1004.63 188.79 996.8 194.98 1002.77 198.49"/>
      <polygon class="cls-1" points="1003.07 200.68 1001.09 205.01 1005.02 209.26 1003.07 200.68"/>
      <path class="cls-1" d="M1013.67,156.93l.04-.03h.01s.09-.06.14-.07l11.13-2.39-8.31-5.42-6.1,7.74,3.09.17Z"/>
      <polygon class="cls-1" points="1010.91 159.09 1012.8 157.61 1010.38 157.47 1010.91 159.09"/>
      <polygon class="cls-1" points="1013.43 169.1 1010.54 160.32 1005.4 164.36 1013.43 169.1"/>
      <polygon class="cls-1" points="1060.07 187.56 1052.09 191.93 1055.9 194.39 1060.07 187.56"/>
      <polygon class="cls-1" points="1027.39 142.82 1026.38 153.56 1034.68 146.6 1027.41 142.82 1027.39 142.82"/>
      <polygon class="cls-1" points="1025.62 153.8 1026.64 143.11 1022.03 145.68 1025.62 153.8"/>
      <polygon class="cls-1" points="1009.62 179.71 1005.62 187.88 1011.71 191.21 1015.34 182.81 1009.62 179.71"/>
      <polygon class="cls-1" points="1017.11 148.42 1024.62 153.34 1021.4 146.03 1017.11 148.42"/>
      <polygon class="cls-1" points="1026.89 194.26 1021.52 197.22 1031.22 201.63 1026.89 194.26"/>
      <polygon class="cls-1" points="1026.52 193.63 1022.76 187.24 1020.97 196.41 1021 196.67 1026.52 193.63"/>
      <path class="cls-1" d="M1006.6,158.84c-1.66.69-3.31,1.36-3.4,1.4l-3.39,1.78,4.8,1.94,4.04-5.97c-.51.21-1.17.49-2.04.85Z"/>
      <polygon class="cls-1" points="998.87 160.99 999.5 158.85 997.59 158.07 998.87 160.99"/>
      <polygon class="cls-1" points="1000.61 172.3 1004.26 164.6 999.38 162.63 1000.61 172.3"/>
      <polygon class="cls-1" points="999.53 161.34 1002.19 159.94 1000.18 159.12 999.53 161.34"/>
      <polygon class="cls-1" points="1022.84 162.03 1027.59 159.04 1025.8 155.72 1022.84 162.03"/>
      <polygon class="cls-1" points="1094.29 162.04 1098.31 158.7 1087.09 156.43 1094.29 162.04"/>
      <polygon class="cls-1" points="1087.35 155.74 1098.17 157.93 1092.52 149.92 1087.35 155.74"/>
      <path class="cls-1" d="M1081.15,147.37l-.3.33,4.91,8.26s.01.03.02.05l-1.98-12.07-2.64,3.43Z"/>
      <polygon class="cls-1" points="996.39 155.1 999.61 152.83 994.82 153.26 996.39 155.1"/>
      <path class="cls-1" d="M1084.53,143.88l1.9,11.69h.09s5.47-6.15,5.47-6.15c-.04-.01-.09,0-.12-.03l-7.35-5.5Z"/>
      <path class="cls-1" d="M1080.21,146.8c.08.02.15.08.19.15l.05.09.13-.14,2.68-3.47-11.98.29,8.92,3.08Z"/>
      <path class="cls-1" d="M1070.89,142.48c.65-.71,2.19-2.47,3.68-4.2l-7.65-4.34c1.5,3.27,3.34,7.27,3.97,8.54Z"/>
      <path class="cls-1" d="M1071.39,142.99l11-.26-7.17-4.08c-2.25,2.61-3.3,3.8-3.82,4.34Z"/>
      <path class="cls-1" d="M1076.65,136.98c-.33.39-.66.76-.95,1.1l6.89,3.92-5.94-5.02Z"/>
      <polygon class="cls-1" points="1107.01 199.49 1104.62 193.08 1099.05 201.83 1107.01 199.49"/>
      <path class="cls-1" d="M1095.15,162.7c.07.06.12.13.13.22l1.84,10.13,1.02-1.25.2-12.19-3.47,2.88.27.21Z"/>
      <polygon class="cls-1" points="1108.44 199.07 1106.37 195.69 1107.71 199.29 1108.44 199.07"/>
      <polygon class="cls-1" points="1103.96 192.19 1095.55 187.96 1098.95 196.91 1103.96 192.19"/>
      <polygon class="cls-1" points="989.52 178.87 986 183.73 991 183.05 989.73 179.5 989.52 178.87"/>
      <polygon class="cls-1" points="1107.3 180.83 1104.53 181.69 1104.95 187.49 1106.24 189.69 1110.2 185.78 1107.3 180.83"/>
      <polygon class="cls-1" points="999.7 173.31 991.93 169.04 990.18 177.59 999.7 173.31"/>
      <polygon class="cls-1" points="1110.55 198.46 1106.09 190.86 1104.95 191.98 1109.16 198.86 1110.55 198.46"/>
      <path class="cls-1" d="M1052.58,135.41l-.82,1.11c2.59.05,9.71.21,11,.23l2.66-3.5-11.81,1.58-1.03.58Z"/>
      <polygon class="cls-1" points="1098.33 197.32 1094.82 188.07 1087.59 200.86 1098.33 197.32"/>
      <path class="cls-1" d="M1049.99,136.01l2.09-1.17.3-.4-8.44-1.99c2.14,1.28,4.69,2.8,6.04,3.57Z"/>
      <polygon class="cls-1" points="1027.23 141.4 1027.3 141.36 1030.54 134.86 1023.09 135.19 1027.23 141.4"/>
      <polygon class="cls-1" points="1020.15 143.43 1020.26 143.41 1022.05 135.72 1015.7 141.39 1020.15 143.43"/>
      <polygon class="cls-1" points="1021.06 143.23 1026.73 141.95 1022.74 135.97 1021.06 143.23"/>
      <path class="cls-1" d="M1063.44,137.06l6.32,4.79c-.65-1.33-1.75-3.74-3.75-8.15l-2.57,3.37Z"/>
      <path class="cls-1" d="M1039.64,141.53l2.45-8.91-7.03,4.57c2.63,2.42,3.95,3.67,4.58,4.34Z"/>
      <path class="cls-1" d="M1040.46,141.33l8.79-4.9c-1.1-.63-3.04-1.77-6.4-3.8l-2.39,8.7Z"/>
      <path class="cls-1" d="M1027.87,141.85l-.12.24,11.27.25c.04-.07.09-.13.17-.16.03-.01.05-.01.07-.02-.74-.75-2.75-2.63-4.85-4.57l-6.55,4.26Z"/>
      <path class="cls-1" d="M1000.39,158.42l2.66,1.08c2.01-.83,4.77-1.95,6-2.48-.88-.51-2.79-1.65-7.03-4.2l-1.63,5.59Z"/>
      <path class="cls-1" d="M1009.47,146.83l-7.4,5.17c2.54,1.54,6.1,3.68,7.43,4.45l-.03-9.62Z"/>
      <polygon class="cls-1" points="1061.2 187.14 1056.52 194.79 1061.69 198.11 1061.2 187.14"/>
      <polygon class="cls-1" points="996.6 155.83 997.16 157.11 999.7 158.14 1001.3 152.68 1001.07 152.7 996.6 155.83"/>
      <polygon class="cls-1" points="1006.36 162.67 1010.3 159.58 1009.7 157.74 1006.36 162.67"/>
      <polygon class="cls-1" points="1010.93 144.65 1014.37 141.58 1012.75 140.83 1010.93 144.65"/>
      <polygon class="cls-1" points="1010.23 156.03 1016.03 148.65 1010.2 146.53 1010.23 156.03"/>
      <polygon class="cls-1" points="1011.11 145.47 1018.98 143.7 1015.1 141.91 1011.11 145.47"/>
      <polygon class="cls-1" points="988.99 200.85 987.84 204.26 991.43 205.97 990.57 201.49 988.99 200.85"/>
      <polygon class="cls-1" points="1082.34 174.3 1081.15 185.54 1090.78 180.44 1082.34 174.3"/>
      <polygon class="cls-1" points="1013.99 202.79 1003.6 199.7 1005.94 210.02 1013.99 202.79"/>
      <path class="cls-1" d="M1028.51,140.57l5.36-3.48c-.87-.8-1.73-1.59-2.49-2.29l-2.87,5.77Z"/>
      <polygon class="cls-1" points="1014.48 203.33 1006.54 210.46 1014.01 213.88 1014.48 203.33"/>
      <polygon class="cls-1" points="1020.1 197.3 1012.27 192.38 1014.92 201.95 1020.1 197.3"/>
      <path class="cls-1" d="M984,179.49l1.32,3.93,3.87-5.33s.03-.02.05-.03l-.97-2.85-4.27,4.29Z"/>
      <polygon class="cls-1" points="985.68 194.72 986.92 189.82 985.01 184.74 982.45 186.27 985.68 194.72"/>
      <polygon class="cls-1" points="1015.2 203.3 1014.76 213.32 1021.3 207.39 1015.2 203.3"/>
      <path class="cls-1" d="M987.18,203.95l1.14-3.38-.77-.31c-.08-.04-.15-.1-.19-.18l-1.61-3.31-2.56,5.29,3.99,1.89Z"/>
      <polygon class="cls-1" points="989.81 211.4 991.47 206.79 987.6 204.96 985.68 210.67 989.81 211.4"/>
      <polygon class="cls-1" points="1005.07 210.39 1000.65 205.6 993.57 212.67 1005.07 210.39"/>
      <polygon class="cls-1" points="1073.8 194.09 1070.82 203.1 1080.3 198.1 1073.8 194.09"/>
      <polygon class="cls-1" points="1080.66 187.41 1080.45 186.85 1073.95 193.28 1073.95 193.32 1080.46 197.34 1080.66 187.41"/>
      <polygon class="cls-1" points="1061.99 175.44 1052.89 180.27 1061.27 185.46 1062.48 175.67 1061.99 175.44"/>
      <polygon class="cls-1" points="1066.03 196.27 1061.96 188.07 1062.42 197.96 1066.03 196.27"/>
      <polygon class="cls-1" points="1073.7 179.64 1080.4 185.7 1081.58 174.56 1073.7 179.64"/>
      <polygon class="cls-1" points="1073.14 193.73 1067.01 196.62 1070.12 202.87 1073.14 193.73"/>
    </g>
  </g>
</svg>