<?xml version="1.0" encoding="UTF-8"?>
<svg id="Layer_2" data-name="Layer 2" xmlns="http://www.w3.org/2000/svg" viewBox="0 0 900 213.09">
  <defs>
    <style>
      .cls-1 {
        fill: #1d1d1b;
        stroke-width: 0px;
      }
    </style>
  </defs>
  <g id="Layer_1-2" data-name="Layer 1">
    <path class="cls-1" d="M893.33,177.93l6.67-13.49v-11.23l-7.08-14.41v-25.93h-6.67v25.93l6.67,14.41v11.23l-3.23,13.49v18.76h-2.7v-18.76l3.23-13.49v-11.23h-.13l-6.56-14.41v-25.93h-13.4v25.93l6.67,14.41v11.23l-3.24,13.49v18.76h-2.7v-18.76l3.24-13.49v-11.23h-.13l-6.57-14.41v-25.93h-13.4v25.93l6.67,14.41v11.23l-3.23,13.49v18.76h-2.7v-18.76l3.23-13.49v-11.23h-.13l-6.56-14.41v-25.93h-13.4v25.93l6.67,14.41v11.23l-3.24,13.49v18.76h-2.7v-18.76l3.24-13.49v-11.23h-.13l-6.57-14.41v-25.93h-13.4v25.93l6.67,14.41v11.23l-3.23,13.49v18.76h-2.7v-18.76l3.24-13.49v-11.23h-.14l-6.56-14.41v-25.93h-13.4v25.93l6.67,14.41v11.23l-3.24,13.49v18.76h-2.69v-18.76l3.23-13.49v-11.23h-.13l-6.57-14.41v-25.93h-13.4v25.93l6.67,14.41v11.23l-3.23,13.49v18.76h-2.7v-18.76l3.24-13.49v-11.23h-.14l-6.56-14.41v-25.93h-15.68v83.82h-2.72v-83.82h-15.68v83.82h-2.72v-83.82h-15.67v83.82h-2.73v-83.82h-30.83l-17.2-2.14,2.04.26v85.74h-2.71v-86.08l-2.05-.26-18.76-2.34v88.69h-2.71v-89.02l-18.76-2.34v91.36h-2.72v-91.7l-18.76-2.34v94.04h-2.72v-94.38l-18.77-2.32v96.7h-2.7v-97.04l-18.78-2.34v99.38h-2.7v-99.72l-18.77-2.34v102.06h-2.72v-102.39l-11.89-1.49h-6.87v103.88h-2.72v-103.88h-18.76v103.88h-2.71v-103.88h-18.76v103.88h-2.72v-103.88h-1.48l-7.92,2.66v101.22h-1.75v-100.61l-5.9,1.99v98.62h-1.75v-98.03l-5.9,1.99v96.04h-1.75v-95.45l-5.89,1.98v93.47h-1.77v-92.88l-5.9,1.99v90.89h-1.75v-90.3l-5.9,1.99v88.31h-1.75v-87.72l-5.9,1.99v85.73h-1.75v-85.14l-5.89,1.98v83.16h-1.76v-82.57l-5.89,1.99v80.58h-1.75v-79.99l-5.9,1.99v78h-1.77v-77.39l-7.17,2.41-8.46-21.06h-4.1l7.73,21.16h-1.35l-7.73-21.16h-9.41l7.73,21.16h-1.34l-7.73-21.16h-8.12l6.44,21.16h-1.34l-6.44-21.16h-9.41l6.44,21.16h-1.34l-6.44-21.16h-8.12l5.15,21.16h-1.34l-5.16-21.16h-8.12l3.87,21.16h-1.34l-3.87-21.16h-9.41l3.87,21.16h-1.35l-3.86-21.16h-8.12l2.57,21.16h-1.34l-2.57-21.16h-8.13l1.29,21.16h-1.34l-1.29-21.16h-3.77l-.09-8.09h-2.46V7.06h-1.58l-.06.07-1.52,1.81V0h-4.16v13.43l-1.79,3.37-6.07,84.99v-1.09h-10.53v21.16h-1.34v-21.16h-9.41l-1.29,21.16h-1.34l1.29-21.16h-9.41l-1.29,21.16h-1.34l1.29-21.16h-8.12l-2.58,21.16h-1.34l2.58-21.16h-8.12l-3.87,21.16h-1.34l3.86-21.16h-9.41l-3.86,21.16h-1.34l3.86-21.16h-8.12l-5.15,21.16h-1.35l5.16-21.16h-8.12l-6.45,21.16h-1.34l6.44-21.16h-9.4l-6.45,21.16h-1.34l6.44-21.16h-8.12l-7.73,21.16h-1.34l7.73-21.16h-9.41l-7.73,21.16h-1.34l7.73-21.16h-4.11l-8.5,21.15v37.74l-7.4-2.55H58.11l-29.25,20.83v14.89H7.85v10.1H0v10.23h894.03v-16.4h-1.11v-18.76h.41ZM166.03,161.04h-1.34v-36.18h1.34v36.18ZM176.78,161.04h-1.34v-36.18h1.34v36.18ZM187.53,161.04h-1.34v-36.18h1.34v36.18ZM198.28,161.04h-1.34v-36.18h1.34v36.18ZM209.04,161.04h-1.35v-36.18h1.35v36.18ZM219.79,161.04h-1.34v-36.18h1.34v36.18ZM230.54,161.04h-1.34v-36.18h1.34v36.18ZM241.29,161.04h-1.34v-36.18h1.34v36.18ZM252.04,161.04h-1.34v-36.18h1.34v36.18ZM280.35,171.89h-21.52v-6.6h2.62v-40.43h1.34v40.43h10.7v-40.43h1.34v40.43h5.99l-.47,6.6ZM294.66,100.7h-1.69V17.17h1.69v83.53ZM303.89,171.89l-.07-6.6h4.33v-40.43h1.34v40.43h9.41v-40.43h1.34v40.43h9.41v-40.43h1.35v40.43h9.41v-40.43h1.34v40.43h9.41v-40.43h1.34v40.43h9.41v-40.43h1.34v40.43h9.41v-40.43h1.34v40.43h9.41v-40.43h1.34v40.43h9.41v-40.43h1.35v40.43h4.87l.12,6.6h-96.61Z"/>
  </g>
</svg>